<svg width="29735" height="9316" viewBox="0 0 29735 9316" fill="none" xmlns="http://www.w3.org/2000/svg">
<g id="3a-4floor">
<rect width="29735" height="9316" fill="white"/>
<path id="Union" d="M12415 4328H14387V6866H11107V5789H581V1934H12415V4328Z" fill="black"/>
<path id="Rectangle 652" d="M706 2059H1461V2816.5H1526.5V3124H1461V3347H706V2059Z" fill="#9CC7E5"/>
<path id="422room" d="M3168 2059H4927V3347H3694V3484.5H3394.5V3347H3168V2059Z" fill="#9CC7E5"/>
<path id="422" d="M3802.19 2922.82V2888.55L3876.67 2771.18H3907.12V2817.7H3889.46L3845.87 2886.77V2888.19H3953.73V2922.82H3802.19ZM3889.99 2953V2912.34L3890.88 2897.34V2771.18H3931.98V2953H3889.99ZM3976.77 2953V2921.39L4043.09 2863.33C4048.06 2858.84 4052.29 2854.72 4055.78 2850.99C4059.27 2847.21 4061.94 2843.42 4063.77 2839.63C4065.61 2835.78 4066.52 2831.61 4066.52 2827.11C4066.52 2822.08 4065.43 2817.79 4063.24 2814.24C4061.05 2810.63 4058.03 2807.85 4054.18 2805.89C4050.34 2803.94 4045.93 2802.96 4040.96 2802.96C4035.92 2802.96 4031.52 2804 4027.73 2806.07C4023.94 2808.08 4020.98 2811.01 4018.85 2814.86C4016.78 2818.71 4015.74 2823.38 4015.74 2828.89H3974.11C3974.11 2816.52 3976.89 2805.83 3982.45 2796.84C3988.01 2787.84 3995.83 2780.92 4005.89 2776.06C4016.01 2771.15 4027.76 2768.7 4041.13 2768.7C4054.92 2768.7 4066.91 2771 4077.09 2775.62C4087.27 2780.24 4095.14 2786.69 4100.7 2794.97C4106.33 2803.2 4109.14 2812.76 4109.14 2823.65C4109.14 2830.57 4107.75 2837.44 4104.96 2844.25C4102.18 2851.05 4097.18 2858.57 4089.96 2866.8C4082.8 2875.02 4072.62 2884.88 4059.42 2896.36L4037.67 2916.42V2917.58H4111.36V2953H3976.77ZM4136.19 2953V2921.39L4202.51 2863.33C4207.48 2858.84 4211.71 2854.72 4215.21 2850.99C4218.7 2847.21 4221.36 2843.42 4223.2 2839.63C4225.03 2835.78 4225.95 2831.61 4225.95 2827.11C4225.95 2822.08 4224.85 2817.79 4222.66 2814.24C4220.47 2810.63 4217.45 2807.85 4213.61 2805.89C4209.76 2803.94 4205.35 2802.96 4200.38 2802.96C4195.35 2802.96 4190.94 2804 4187.15 2806.07C4183.36 2808.08 4180.4 2811.01 4178.27 2814.86C4176.2 2818.71 4175.17 2823.38 4175.17 2828.89H4133.53C4133.53 2816.52 4136.31 2805.83 4141.87 2796.84C4147.44 2787.84 4155.25 2780.92 4165.31 2776.06C4175.43 2771.15 4187.18 2768.7 4200.56 2768.7C4214.35 2768.7 4226.33 2771 4236.51 2775.62C4246.69 2780.24 4254.56 2786.69 4260.13 2794.97C4265.75 2803.2 4268.56 2812.76 4268.56 2823.65C4268.56 2830.57 4267.17 2837.44 4264.39 2844.25C4261.61 2851.05 4256.61 2858.57 4249.39 2866.8C4242.22 2875.02 4232.04 2884.88 4218.85 2896.36L4197.09 2916.42V2917.58H4270.78V2953H4136.19Z" fill="black"/>
<path id="420&#209;&#132;" d="M5633.19 3263.82V3229.55L5707.67 3112.18H5738.12V3158.7H5720.46L5676.87 3227.77V3229.19H5784.73V3263.82H5633.19ZM5720.99 3294V3253.34L5721.88 3238.34V3112.18H5762.98V3294H5720.99ZM5807.77 3294V3262.39L5874.09 3204.33C5879.06 3199.84 5883.29 3195.72 5886.78 3191.99C5890.27 3188.21 5892.94 3184.42 5894.77 3180.63C5896.61 3176.78 5897.52 3172.61 5897.52 3168.11C5897.52 3163.08 5896.43 3158.79 5894.24 3155.24C5892.05 3151.63 5889.03 3148.85 5885.18 3146.89C5881.34 3144.94 5876.93 3143.96 5871.96 3143.96C5866.92 3143.96 5862.52 3145 5858.73 3147.07C5854.94 3149.08 5851.98 3152.01 5849.85 3155.86C5847.78 3159.71 5846.74 3164.38 5846.74 3169.89H5805.11C5805.11 3157.52 5807.89 3146.83 5813.45 3137.84C5819.01 3128.84 5826.83 3121.92 5836.89 3117.06C5847.01 3112.15 5858.76 3109.7 5872.13 3109.7C5885.92 3109.7 5897.91 3112 5908.09 3116.62C5918.27 3121.24 5926.14 3127.69 5931.7 3135.97C5937.33 3144.2 5940.14 3153.76 5940.14 3164.65C5940.14 3171.57 5938.75 3178.44 5935.96 3185.25C5933.18 3192.05 5928.18 3199.57 5920.96 3207.8C5913.8 3216.02 5903.62 3225.88 5890.42 3237.36L5868.67 3257.42V3258.58H5942.36V3294H5807.77ZM6042.39 3298.44C6026.53 3298.44 6012.85 3294.68 6001.37 3287.16C5989.89 3279.59 5981.04 3268.73 5974.83 3254.58C5968.61 3240.38 5965.54 3223.3 5965.59 3203.36C5965.65 3183.41 5968.76 3166.48 5974.92 3152.58C5981.13 3138.61 5989.95 3127.98 6001.37 3120.7C6012.85 3113.37 6026.53 3109.7 6042.39 3109.7C6058.25 3109.7 6071.92 3113.37 6083.4 3120.7C6094.94 3127.98 6103.82 3138.61 6110.04 3152.58C6116.25 3166.54 6119.33 3183.47 6119.27 3203.36C6119.27 3223.36 6116.16 3240.47 6109.95 3254.67C6103.73 3268.88 6094.89 3279.74 6083.4 3287.25C6071.98 3294.71 6058.31 3298.44 6042.39 3298.44ZM6042.39 3262.48C6051.86 3262.48 6059.52 3257.66 6065.38 3248.01C6071.24 3238.31 6074.14 3223.42 6074.08 3203.36C6074.08 3190.22 6072.75 3179.39 6070.09 3170.86C6067.42 3162.28 6063.72 3155.89 6058.99 3151.69C6054.25 3147.49 6048.72 3145.38 6042.39 3145.38C6032.98 3145.38 6025.37 3150.15 6019.57 3159.68C6013.77 3169.15 6010.84 3183.71 6010.78 3203.36C6010.72 3216.67 6012 3227.71 6014.6 3236.47C6017.26 3245.23 6020.99 3251.77 6025.79 3256.09C6030.58 3260.35 6036.11 3262.48 6042.39 3262.48ZM6213.24 3340.25V3112.18H6256.65V3340.25H6213.24ZM6213.24 3296.57C6202.41 3296.57 6192.5 3294.86 6183.5 3291.43C6174.51 3287.99 6166.72 3283.17 6160.15 3276.95C6153.64 3270.68 6148.58 3263.25 6144.97 3254.67C6141.36 3246.09 6139.56 3236.62 6139.56 3226.26C6139.56 3215.9 6141.36 3206.43 6144.97 3197.85C6148.58 3189.21 6153.64 3181.75 6160.15 3175.48C6166.72 3169.21 6174.51 3164.38 6183.5 3161.01C6192.5 3157.58 6202.41 3155.86 6213.24 3155.86H6220.52V3296.57H6213.24ZM6213.24 3263.55H6217.68V3188.89H6213.24C6208.86 3188.89 6204.87 3189.83 6201.26 3191.73C6197.71 3193.62 6194.66 3196.25 6192.11 3199.63C6189.63 3202.94 6187.7 3206.88 6186.34 3211.44C6185.04 3215.93 6184.39 3220.88 6184.39 3226.26C6184.39 3233.31 6185.57 3239.67 6187.94 3245.35C6190.31 3250.97 6193.65 3255.41 6197.97 3258.67C6202.35 3261.92 6207.44 3263.55 6213.24 3263.55ZM6256.65 3296.57H6249.46V3155.86H6256.65C6267.49 3155.86 6277.4 3157.58 6286.4 3161.01C6295.39 3164.38 6303.17 3169.21 6309.74 3175.48C6316.31 3181.75 6321.4 3189.21 6325.01 3197.85C6328.62 3206.43 6330.43 3215.9 6330.43 3226.26C6330.43 3236.62 6328.62 3246.09 6325.01 3254.67C6321.4 3263.25 6316.31 3270.68 6309.74 3276.95C6303.17 3283.17 6295.39 3287.99 6286.4 3291.43C6277.4 3294.86 6267.49 3296.57 6256.65 3296.57ZM6256.65 3263.55C6261.09 3263.55 6265.09 3262.6 6268.64 3260.71C6272.19 3258.81 6275.21 3256.21 6277.7 3252.9C6280.24 3249.52 6282.19 3245.59 6283.55 3241.09C6284.92 3236.53 6285.6 3231.59 6285.6 3226.26C6285.6 3219.1 6284.41 3212.71 6282.05 3207.09C6279.68 3201.46 6276.33 3197.02 6272.01 3193.77C6267.75 3190.51 6262.63 3188.89 6256.65 3188.89H6252.3V3263.55H6256.65Z" fill="black"/>
<path id="420room" d="M6547 2059H7249V3347H7126V3478.5H6898V3347H6547V2059Z" fill="#9CC7E5"/>
<path id="420" d="M6681.19 2930.82V2896.55L6755.67 2779.18H6786.12V2825.7H6768.46L6724.87 2894.77V2896.19H6832.73V2930.82H6681.19ZM6768.99 2961V2920.34L6769.88 2905.34V2779.18H6810.98V2961H6768.99ZM6855.77 2961V2929.39L6922.09 2871.33C6927.06 2866.84 6931.29 2862.72 6934.78 2858.99C6938.27 2855.21 6940.94 2851.42 6942.77 2847.63C6944.61 2843.78 6945.52 2839.61 6945.52 2835.11C6945.52 2830.08 6944.43 2825.79 6942.24 2822.24C6940.05 2818.63 6937.03 2815.85 6933.18 2813.89C6929.34 2811.94 6924.93 2810.96 6919.96 2810.96C6914.92 2810.96 6910.52 2812 6906.73 2814.07C6902.94 2816.08 6899.98 2819.01 6897.85 2822.86C6895.78 2826.71 6894.74 2831.38 6894.74 2836.89H6853.11C6853.11 2824.52 6855.89 2813.83 6861.45 2804.84C6867.01 2795.84 6874.83 2788.92 6884.89 2784.06C6895.01 2779.15 6906.76 2776.7 6920.13 2776.7C6933.92 2776.7 6945.91 2779 6956.09 2783.62C6966.27 2788.24 6974.14 2794.69 6979.7 2802.97C6985.33 2811.2 6988.14 2820.76 6988.14 2831.65C6988.14 2838.57 6986.75 2845.44 6983.96 2852.25C6981.18 2859.05 6976.18 2866.57 6968.96 2874.8C6961.8 2883.02 6951.62 2892.88 6938.42 2904.36L6916.67 2924.42V2925.58H6990.36V2961H6855.77ZM7090.39 2965.44C7074.53 2965.44 7060.85 2961.68 7049.37 2954.16C7037.89 2946.59 7029.04 2935.73 7022.83 2921.58C7016.61 2907.38 7013.54 2890.3 7013.59 2870.36C7013.65 2850.41 7016.76 2833.48 7022.92 2819.58C7029.13 2805.61 7037.95 2794.98 7049.37 2787.7C7060.85 2780.37 7074.53 2776.7 7090.39 2776.7C7106.25 2776.7 7119.92 2780.37 7131.4 2787.7C7142.94 2794.98 7151.82 2805.61 7158.04 2819.58C7164.25 2833.54 7167.33 2850.47 7167.27 2870.36C7167.27 2890.36 7164.16 2907.47 7157.95 2921.67C7151.73 2935.88 7142.89 2946.74 7131.4 2954.25C7119.98 2961.71 7106.31 2965.44 7090.39 2965.44ZM7090.39 2929.48C7099.86 2929.48 7107.52 2924.66 7113.38 2915.01C7119.24 2905.31 7122.14 2890.42 7122.08 2870.36C7122.08 2857.22 7120.75 2846.39 7118.09 2837.86C7115.42 2829.28 7111.72 2822.89 7106.99 2818.69C7102.25 2814.49 7096.72 2812.38 7090.39 2812.38C7080.98 2812.38 7073.37 2817.15 7067.57 2826.68C7061.77 2836.15 7058.84 2850.71 7058.78 2870.36C7058.72 2883.67 7060 2894.71 7062.6 2903.47C7065.26 2912.23 7068.99 2918.77 7073.79 2923.09C7078.58 2927.35 7084.11 2929.48 7090.39 2929.48Z" fill="black"/>
<path id="418room" d="M7294 2059H9414V3347H7808V3482H7530.5V3347H7294V2059Z" fill="#9CC7E5"/>
<path id="416room" d="M9459 2059H10823V3347H10102.5V3478.5H9785V3347H9459V2059Z" fill="#9CC7E5"/>
<path id="416" d="M9920.19 2952.82V2918.55L9994.67 2801.18H10025.1V2847.7H10007.5L9963.87 2916.77V2918.19H10071.7V2952.82H9920.19ZM10008 2983V2942.34L10008.9 2927.34V2801.18H10050V2983H10008ZM10176.4 2801.18V2983H10132.5V2842.2H10131.5L10090.8 2867.06V2829.06L10135.7 2801.18H10176.4ZM10289.5 2985.49C10279.5 2985.49 10270 2983.89 10260.9 2980.69C10251.8 2977.44 10243.7 2972.29 10236.6 2965.24C10229.5 2958.14 10223.9 2948.85 10219.8 2937.37C10215.7 2925.83 10213.7 2911.77 10213.8 2895.2C10213.8 2880.22 10215.6 2866.79 10219.3 2854.89C10222.9 2842.94 10228 2832.79 10234.7 2824.44C10241.5 2816.1 10249.5 2809.73 10258.9 2805.35C10268.3 2800.92 10278.8 2798.7 10290.4 2798.7C10303.1 2798.7 10314.3 2801.18 10324 2806.15C10333.8 2811.07 10341.6 2817.69 10347.5 2826.04C10353.3 2834.33 10356.8 2843.56 10357.8 2853.74H10314.6C10313.3 2848 10310.4 2843.65 10306 2840.69C10301.6 2837.67 10296.4 2836.16 10290.4 2836.16C10279.2 2836.16 10270.9 2840.98 10265.4 2850.63C10260 2860.28 10257.2 2873.18 10257.1 2889.34H10258.2C10260.7 2883.89 10264.3 2879.22 10269 2875.31C10273.6 2871.41 10279 2868.42 10285 2866.35C10291.1 2864.21 10297.6 2863.15 10304.4 2863.15C10315.3 2863.15 10324.9 2865.66 10333.2 2870.7C10341.6 2875.73 10348.1 2882.62 10352.9 2891.38C10357.6 2900.08 10359.9 2910.05 10359.9 2921.3C10359.9 2933.96 10357 2945.15 10351 2954.86C10345 2964.5 10336.7 2972.02 10326.1 2977.41C10315.6 2982.79 10303.4 2985.49 10289.5 2985.49ZM10289.2 2951.75C10294.6 2951.75 10299.4 2950.48 10303.7 2947.93C10307.9 2945.39 10311.3 2941.93 10313.7 2937.55C10316.1 2933.17 10317.3 2928.22 10317.3 2922.72C10317.3 2917.16 10316.1 2912.21 10313.7 2907.89C10311.4 2903.57 10308 2900.14 10303.8 2897.6C10299.6 2895.05 10294.7 2893.78 10289.3 2893.78C10285.3 2893.78 10281.6 2894.52 10278.2 2896C10274.8 2897.48 10271.8 2899.55 10269.2 2902.21C10266.8 2904.82 10264.8 2907.89 10263.4 2911.44C10262 2914.94 10261.2 2918.72 10261.2 2922.81C10261.2 2928.19 10262.5 2933.08 10264.9 2937.46C10267.3 2941.84 10270.6 2945.33 10274.8 2947.93C10279 2950.48 10283.8 2951.75 10289.2 2951.75Z" fill="black"/>
<path id="414room" d="M10868 2059H11415V2912.5H11474V3163H11415V3347H10868V2059Z" fill="#9CC7E5"/>
<path id="Rectangle 677" d="M11232 5789H11415V5889H11474V6170.5H11415V6741H11232V5789Z" fill="#9CC7E5"/>
<path id="417room" d="M706 4289H977V4155H1285.5V4289H1450V5664H706V4289Z" fill="#9CC7E5"/>
<path id="417" d="M866.186 5039.82V5005.55L940.671 4888.18H971.122V4934.7H953.455L909.865 5003.77V5005.19H1017.73V5039.82H866.186ZM953.988 5070V5029.34L954.876 5014.34V4888.18H995.98V5070H953.988ZM1122.4 4888.18V5070H1078.54V4929.2H1077.48L1036.82 4954.06V4916.06L1081.65 4888.18H1122.4ZM1170.32 5070L1243.65 4924.76V4923.6H1157.89V4888.18H1289.1V4923.87L1215.51 5070H1170.32Z" fill="black"/>
<path id="Rectangle 685" d="M3231 4289H3526.5V4150.5H3845V4289H4927V5664H3231V4289Z" fill="#9CC7E5"/>
<path id="wc" d="M6388.5 4785H6524V5324H6569V4785H7381V5664H6569V5541.5H6524V5664H6032V4785H6165V4736.5H6388.5V4785Z" fill="#9CC7E5"/>
<path id="411room" d="M7426 4289H8125.5V4159.5H8456V4289H8684V5664H7426V4289Z" fill="#9CC7E5"/>
<path id="409room" d="M8729 4289H8958V4152.5H9266.5V4289H10021V5664H8729V4289Z" fill="#9CC7E5"/>
<path id="407room" d="M10066 4289H10275.5V4152.5H10616.5V4289H11415V5664H10066V4289Z" fill="#9CC7E5"/>
<path id="Union_2" d="M12290 4582.5H12421V5018H12290V6741H11460V4164H6524V4740H6032V4164H706V3472H11460V2059H12290V4582.5Z" fill="#9CC7E5"/>
<path id="420aroom" d="M5012 2059H6462V3427H5508.5V3478.5H5222.5V3427H5012V2059Z" fill="#9CC7E5"/>
<g id="&#208;&#187;&#208;&#181;&#209;&#129;&#209;&#130;&#208;&#189;&#208;&#184;&#209;&#134;&#208;&#176;">
<path id="Rectangle 612" d="M5052 4289H5508.5V4159.5H5839V4289H5907V5664H5052V4289Z" fill="#9CC7E5"/>
<g id="Group 9">
<rect id="Rectangle 633" x="5462" y="4627" width="35" height="698" fill="black"/>
<rect id="Rectangle 634" x="5914.5" y="4748.5" width="425" height="109" transform="rotate(180 5914.5 4748.5)" fill="#9CC7E5" stroke="black" stroke-width="15"/>
<rect id="Rectangle 635" x="5914.5" y="4842.5" width="425" height="109" transform="rotate(180 5914.5 4842.5)" fill="#9CC7E5" stroke="black" stroke-width="15"/>
<rect id="Rectangle 636" x="5914.5" y="4936.5" width="425" height="109" transform="rotate(180 5914.5 4936.5)" fill="#9CC7E5" stroke="black" stroke-width="15"/>
<rect id="Rectangle 637" x="5914.5" y="5030.5" width="425" height="109" transform="rotate(180 5914.5 5030.5)" fill="#9CC7E5" stroke="black" stroke-width="15"/>
<rect id="Rectangle 638" x="5914.5" y="5124.5" width="425" height="109" transform="rotate(180 5914.5 5124.5)" fill="#9CC7E5" stroke="black" stroke-width="15"/>
<rect id="Rectangle 639" x="5914.5" y="5218.5" width="425" height="109" transform="rotate(180 5914.5 5218.5)" fill="#9CC7E5" stroke="black" stroke-width="15"/>
<rect id="Rectangle 640" x="5914.5" y="5312.5" width="425" height="109" transform="rotate(180 5914.5 5312.5)" fill="#9CC7E5" stroke="black" stroke-width="15"/>
<rect id="Rectangle 641" x="5469.5" y="4748.5" width="425" height="109" transform="rotate(180 5469.5 4748.5)" fill="#9CC7E5" stroke="black" stroke-width="15"/>
<rect id="Rectangle 642" x="5469.5" y="4842.5" width="425" height="109" transform="rotate(180 5469.5 4842.5)" fill="#9CC7E5" stroke="black" stroke-width="15"/>
<rect id="Rectangle 643" x="5469.5" y="4936.5" width="425" height="109" transform="rotate(180 5469.5 4936.5)" fill="#9CC7E5" stroke="black" stroke-width="15"/>
<rect id="Rectangle 644" x="5469.5" y="5030.5" width="425" height="109" transform="rotate(180 5469.5 5030.5)" fill="#9CC7E5" stroke="black" stroke-width="15"/>
<rect id="Rectangle 645" x="5469.5" y="5124.5" width="425" height="109" transform="rotate(180 5469.5 5124.5)" fill="#9CC7E5" stroke="black" stroke-width="15"/>
<rect id="Rectangle 646" x="5469.5" y="5218.5" width="425" height="109" transform="rotate(180 5469.5 5218.5)" fill="#9CC7E5" stroke="black" stroke-width="15"/>
<rect id="Rectangle 647" x="5469.5" y="5312.5" width="425" height="109" transform="rotate(180 5469.5 5312.5)" fill="#9CC7E5" stroke="black" stroke-width="15"/>
</g>
</g>
<path id="Rectangle 708" d="M6569 4289H6701.5V4158.5H6938.5V4289H7381V4740H6569V4289Z" fill="#9CC7E5"/>
<path id="424room" d="M1506 2059H3123V3347H2945.5V3480H2598.5V3347H1506V2059Z" fill="#9CC7E5"/>
<path id="415room" d="M1929 4289H2308V4461.5H2353V4289H3186V4461.5H3240.5V4734.5H3186V5664H2353V4734.5H2308V5664H1495V4289H1593V4155H1929V4289Z" fill="#9CC7E5"/>
<path id="Union_3" d="M16958.3 4324H14986V6862H18266.3V5785H28792.3V1930H16958.3V4324Z" fill="black"/>
<path id="406room" d="M25857.3 2055H25275.3V3343H25447.8V3474.5H25714.8V3343H25857.3V2055Z" fill="#9CC7E5"/>
<path id="410room" d="M23262.3 2055H21664.3V3343H21870.8V3480.5H22263.8V3343H23262.3V2055Z" fill="#9CC7E5"/>
<path id="Rectangle 813" d="M18141.3 5785H17733.3V6183.5H17681.3V6513H17733.3V6737H18141.3V5785Z" fill="#9CC7E5"/>
<path id="401aroom" d="M28667.3 4285H28360.3V4146.5H28060.8V4285H27307.3V5660H28667.3V4285Z" fill="#9CC7E5"/>
<path id="wc_2" d="M23822.3 4638V4696H24121.3V5660H23232.3V5503H23187.3V5660H22274.3V4696H23187.3V5260.5H23232.3V4696H23601.8V4638H23822.3Z" fill="#6698BA"/>
<path id="wc_3" d="M23056.2 5449L23020.7 5312.64H23064.3L23082.7 5399.99H23083.9L23103.6 5312.64H23146.1L23166.3 5399.37H23167.5L23185.3 5312.64H23228.9L23193.3 5449H23146.9L23125.6 5369.54H23124.1L23102.8 5449H23056.2ZM23307.1 5451.57C23292.7 5451.57 23280.3 5448.62 23270 5442.7C23259.8 5436.78 23251.9 5428.55 23246.4 5418.02C23240.9 5407.42 23238.2 5395.17 23238.2 5381.26C23238.2 5367.29 23240.9 5355.04 23246.4 5344.51C23252 5333.91 23259.9 5325.66 23270.1 5319.74C23280.4 5313.82 23292.7 5310.86 23307 5310.86C23319.6 5310.86 23330.6 5313.14 23339.9 5317.7C23349.3 5322.25 23356.7 5328.71 23361.9 5337.05C23367.3 5345.34 23370.1 5355.07 23370.4 5366.26H23329.8C23329 5359.27 23326.6 5353.8 23322.7 5349.83C23318.8 5345.87 23313.8 5343.89 23307.6 5343.89C23302.6 5343.89 23298.2 5345.31 23294.4 5348.15C23290.6 5350.93 23287.6 5355.07 23285.5 5360.58C23283.4 5366.02 23282.4 5372.77 23282.4 5380.82C23282.4 5388.87 23283.4 5395.67 23285.5 5401.24C23287.6 5406.74 23290.6 5410.91 23294.4 5413.75C23298.2 5416.54 23302.6 5417.93 23307.6 5417.93C23311.6 5417.93 23315.2 5417.07 23318.2 5415.35C23321.4 5413.64 23324 5411.12 23326 5407.81C23328 5404.43 23329.3 5400.35 23329.8 5395.56H23370.4C23369.9 5406.8 23367.1 5416.63 23361.9 5425.03C23356.8 5433.43 23349.5 5439.97 23340.2 5444.65C23330.9 5449.27 23319.8 5451.57 23307.1 5451.57Z" fill="black"/>
<path id="410" d="M22240.2 2828.82V2794.55L22314.7 2677.18H22345.1V2723.7H22327.5L22283.9 2792.77V2794.19H22391.7V2828.82H22240.2ZM22328 2859V2818.34L22328.9 2803.34V2677.18H22370V2859H22328ZM22496.4 2677.18V2859H22452.5V2718.2H22451.5L22410.8 2743.06V2705.06L22455.7 2677.18H22496.4ZM22611.8 2863.44C22595.9 2863.44 22582.3 2859.68 22570.8 2852.16C22559.3 2844.59 22550.4 2833.73 22544.2 2819.58C22538 2805.38 22534.9 2788.3 22535 2768.36C22535.1 2748.41 22538.2 2731.48 22544.3 2717.58C22550.5 2703.61 22559.4 2692.98 22570.8 2685.7C22582.3 2678.37 22595.9 2674.7 22611.8 2674.7C22627.7 2674.7 22641.3 2678.37 22652.8 2685.7C22664.3 2692.98 22673.2 2703.61 22679.4 2717.58C22685.7 2731.54 22688.7 2748.47 22688.7 2768.36C22688.7 2788.36 22685.6 2805.47 22679.4 2819.67C22673.1 2833.88 22664.3 2844.74 22652.8 2852.25C22641.4 2859.71 22627.7 2863.44 22611.8 2863.44ZM22611.8 2827.48C22621.3 2827.48 22628.9 2822.66 22634.8 2813.01C22640.6 2803.31 22643.5 2788.42 22643.5 2768.36C22643.5 2755.22 22642.2 2744.39 22639.5 2735.86C22636.8 2727.28 22633.1 2720.89 22628.4 2716.69C22623.7 2712.49 22618.1 2710.38 22611.8 2710.38C22602.4 2710.38 22594.8 2715.15 22589 2724.68C22583.2 2734.15 22580.2 2748.71 22580.2 2768.36C22580.1 2781.67 22581.4 2792.71 22584 2801.47C22586.7 2810.23 22590.4 2816.77 22595.2 2821.09C22600 2825.35 22605.5 2827.48 22611.8 2827.48Z" fill="black"/>
<path id="403room" d="M20515.8 4151V4285H21519.3V4579H21564.3V4285H22229.3V5660H21564.3V4882.5H21519.3V5660H20038.3V4285H20236.8V4151H20515.8Z" fill="#9CC7E5"/>
<g id="&#208;&#187;&#208;&#181;&#209;&#129;&#209;&#130;&#208;&#189;&#208;&#184;&#209;&#134;&#208;&#176;_2">
<path id="Rectangle 612_2" d="M25101.3 4285H24657.8V4153H24319.8V4285H24246.3V5660H25101.3V4285Z" fill="#9CC7E5"/>
<g id="Group 9_2">
<rect id="Rectangle 633_2" width="35" height="698" transform="matrix(-1 0 0 1 24691.3 4623)" fill="black"/>
<rect id="Rectangle 634_2" x="-7.5" y="7.5" width="425" height="109" transform="matrix(1 0 0 -1 24246.3 4752)" fill="#9CC7E5" stroke="black" stroke-width="15"/>
<rect id="Rectangle 635_2" x="-7.5" y="7.5" width="425" height="109" transform="matrix(1 0 0 -1 24246.3 4846)" fill="#9CC7E5" stroke="black" stroke-width="15"/>
<rect id="Rectangle 636_2" x="-7.5" y="7.5" width="425" height="109" transform="matrix(1 0 0 -1 24246.3 4940)" fill="#9CC7E5" stroke="black" stroke-width="15"/>
<rect id="Rectangle 637_2" x="-7.5" y="7.5" width="425" height="109" transform="matrix(1 0 0 -1 24246.3 5034)" fill="#9CC7E5" stroke="black" stroke-width="15"/>
<rect id="Rectangle 638_2" x="-7.5" y="7.5" width="425" height="109" transform="matrix(1 0 0 -1 24246.3 5128)" fill="#9CC7E5" stroke="black" stroke-width="15"/>
<rect id="Rectangle 639_2" x="-7.5" y="7.5" width="425" height="109" transform="matrix(1 0 0 -1 24246.3 5222)" fill="#9CC7E5" stroke="black" stroke-width="15"/>
<rect id="Rectangle 640_2" x="-7.5" y="7.5" width="425" height="109" transform="matrix(1 0 0 -1 24246.3 5316)" fill="#9CC7E5" stroke="black" stroke-width="15"/>
<rect id="Rectangle 641_2" x="-7.5" y="7.5" width="425" height="109" transform="matrix(1 0 0 -1 24691.3 4752)" fill="#9CC7E5" stroke="black" stroke-width="15"/>
<rect id="Rectangle 642_2" x="-7.5" y="7.5" width="425" height="109" transform="matrix(1 0 0 -1 24691.3 4846)" fill="#9CC7E5" stroke="black" stroke-width="15"/>
<rect id="Rectangle 643_2" x="-7.5" y="7.5" width="425" height="109" transform="matrix(1 0 0 -1 24691.3 4940)" fill="#9CC7E5" stroke="black" stroke-width="15"/>
<rect id="Rectangle 644_2" x="-7.5" y="7.5" width="425" height="109" transform="matrix(1 0 0 -1 24691.3 5034)" fill="#9CC7E5" stroke="black" stroke-width="15"/>
<rect id="Rectangle 645_2" x="-7.5" y="7.5" width="425" height="109" transform="matrix(1 0 0 -1 24691.3 5128)" fill="#9CC7E5" stroke="black" stroke-width="15"/>
<rect id="Rectangle 646_2" x="-7.5" y="7.5" width="425" height="109" transform="matrix(1 0 0 -1 24691.3 5222)" fill="#9CC7E5" stroke="black" stroke-width="15"/>
<rect id="Rectangle 647_2" x="-7.5" y="7.5" width="425" height="109" transform="matrix(1 0 0 -1 24691.3 5316)" fill="#9CC7E5" stroke="black" stroke-width="15"/>
</g>
</g>
<path id="Rectangle 838" d="M23187.3 4285H22894V4149.5H22564.3V4285H22274.3V4651H23187.3V4285Z" fill="#9CC7E5"/>
<path id="402room" d="M27977.3 2055V2502H28022.3V2055H28667.3V3343H28022.3V2788H27977.3V3343H26939.3V3471H26657.8V3343H26506.3V2055H27977.3Z" fill="#9CC7E5"/>
<path id="401room" d="M27086.8 4155.5V4285H27262.3V5660H26603.3V4627.5H26558.3V5660H25226.3V4285H26558.3V4361H26603.3V4285H26796.3V4155.5H27086.8Z" fill="#9CC7E5"/>
<path id="405room" d="M19993.3 4285H19588.3V4153H19333.3V4285H17733.3V5660H19993.3V4285Z" fill="#9CC7E5"/>
<path id="412room" d="M18492.3 2811.5H18537.3V2055H19273.3V2797H19318.3V2055H20060.3V3343H19318.3V3083H19273.3V3343H19038.3V3478H18729.3V3343H18537.3V3085.5H18492.3V3343H17733.3V2055H18492.3V2811.5Z" fill="#9CC7E5"/>
<path id="404rooom" d="M25902.3 2055H26461.3V3343H26264.3V3474.5H26000.8V3343H25902.3V2055Z" fill="#9CC7E5"/>
<path id="Union_4" d="M17083.3 4592H16946.5V5013H17083.3V6737H17688.3V4160H23232.3V4651H24121.3V4160H28667.3V3468H17688.3V2055H17083.3V4592Z" fill="#9CC7E5"/>
<path id="408room" d="M25226.3 2055V3423H24396.3V3478H24061.3V3423H23307.3V2055H25226.3Z" fill="#9CC7E5"/>
<path id="Rectangle 866" d="M20105.3 2056H20825.3V3343H20553.3V3476H20240.3V3343H20105.3V2056Z" fill="#9CC7E5"/>
<path id="410aroom" d="M20870.3 2056H21619.3V3343H21371.3V3471.5H21062.8V3343H20870.3V2056Z" fill="#9CC7E5"/>
<g id="&#208;&#187;&#208;&#181;&#209;&#129;&#209;&#130;&#208;&#189;&#208;&#184;&#209;&#134;&#208;&#176;_3">
<path id="Union_5" d="M12415 6741H14262V4453H12415V6741Z" fill="#9CC7E5"/>
<rect id="Rectangle 976" width="75" height="714" transform="matrix(-1 0 0 1 13638 6025)" fill="#9CC7E5" stroke="black" stroke-width="15"/>
<rect id="Rectangle 977" width="75" height="714" transform="matrix(-1 0 0 1 13563 6025)" fill="#9CC7E5" stroke="black" stroke-width="15"/>
<rect id="Rectangle 978" width="75" height="714" transform="matrix(-1 0 0 1 13488 6025)" fill="#9CC7E5" stroke="black" stroke-width="15"/>
<rect id="Rectangle 979" width="75" height="714" transform="matrix(-1 0 0 1 13413 6025)" fill="#9CC7E5" stroke="black" stroke-width="15"/>
<rect id="Rectangle 980" width="75" height="714" transform="matrix(-1 0 0 1 13338 6025)" fill="#9CC7E5" stroke="black" stroke-width="15"/>
<rect id="Rectangle 981" width="75" height="714" transform="matrix(-1 0 0 1 13263 6025)" fill="#9CC7E5" stroke="black" stroke-width="15"/>
<rect id="Rectangle 982" width="75" height="714" transform="matrix(-1 0 0 1 13188 6025)" fill="#9CC7E5" stroke="black" stroke-width="15"/>
<rect id="Rectangle 983" width="75" height="714" transform="matrix(-1 0 0 1 13113 6025)" fill="#9CC7E5" stroke="black" stroke-width="15"/>
<rect id="Rectangle 984" width="75" height="714" transform="matrix(-1 0 0 1 13638 4451)" fill="#9CC7E5" stroke="black" stroke-width="15"/>
<rect id="Rectangle 985" width="75" height="714" transform="matrix(-1 0 0 1 13563 4451)" fill="#9CC7E5" stroke="black" stroke-width="15"/>
<rect id="Rectangle 986" width="75" height="714" transform="matrix(-1 0 0 1 13488 4451)" fill="#9CC7E5" stroke="black" stroke-width="15"/>
<rect id="Rectangle 987" width="75" height="714" transform="matrix(-1 0 0 1 13413 4451)" fill="#9CC7E5" stroke="black" stroke-width="15"/>
<rect id="Rectangle 988" width="75" height="714" transform="matrix(-1 0 0 1 13338 4451)" fill="#9CC7E5" stroke="black" stroke-width="15"/>
<rect id="Rectangle 989" width="75" height="714" transform="matrix(-1 0 0 1 13263 4451)" fill="#9CC7E5" stroke="black" stroke-width="15"/>
<rect id="Rectangle 990" width="75" height="714" transform="matrix(-1 0 0 1 13188 4451)" fill="#9CC7E5" stroke="black" stroke-width="15"/>
<rect id="Rectangle 991" width="75" height="714" transform="matrix(-1 0 0 1 13113 4451)" fill="#9CC7E5" stroke="black" stroke-width="15"/>
<rect id="Rectangle 992" width="623" height="86" transform="matrix(-1 0 0 1 13038 5165)" fill="#9CC7E5" stroke="black" stroke-width="15"/>
<rect id="Rectangle 993" width="623" height="86" transform="matrix(-1 0 0 1 13038 5251)" fill="#9CC7E5" stroke="black" stroke-width="15"/>
<rect id="Rectangle 994" width="623" height="86" transform="matrix(-1 0 0 1 13038 5337)" fill="#9CC7E5" stroke="black" stroke-width="15"/>
<rect id="Rectangle 995" width="623" height="86" transform="matrix(-1 0 0 1 13038 5423)" fill="#9CC7E5" stroke="black" stroke-width="15"/>
<rect id="Rectangle 996" width="623" height="86" transform="matrix(-1 0 0 1 13038 5509)" fill="#9CC7E5" stroke="black" stroke-width="15"/>
<rect id="Rectangle 997" width="623" height="86" transform="matrix(-1 0 0 1 13038 5595)" fill="#9CC7E5" stroke="black" stroke-width="15"/>
<rect id="Rectangle 998" width="623" height="86" transform="matrix(-1 0 0 1 13038 5681)" fill="#9CC7E5" stroke="black" stroke-width="15"/>
<rect id="Rectangle 999" width="623" height="86" transform="matrix(-1 0 0 1 13038 5767)" fill="#9CC7E5" stroke="black" stroke-width="15"/>
<rect id="Rectangle 1000" width="623" height="86" transform="matrix(-1 0 0 1 13038 5853)" fill="#9CC7E5" stroke="black" stroke-width="15"/>
<rect id="Rectangle 1001" width="623" height="86" transform="matrix(-1 0 0 1 13038 5939)" fill="#9CC7E5" stroke="black" stroke-width="15"/>
<path id="Subtract" d="M13038 6025H13638V5165H13038V6025ZM13578 5225V5965H13098V5225H13578Z" fill="black"/>
</g>
<g id="&#208;&#187;&#208;&#181;&#209;&#129;&#209;&#130;&#208;&#189;&#208;&#184;&#209;&#134;&#208;&#176;_4">
<path id="Union_6" d="M16958 6737H15111V4449H16958V6737Z" fill="#9CC7E5"/>
<rect id="Rectangle 976_2" x="15735" y="6023" width="75" height="714" fill="#9CC7E5" stroke="black" stroke-width="15"/>
<rect id="Rectangle 977_2" x="15810" y="6023" width="75" height="714" fill="#9CC7E5" stroke="black" stroke-width="15"/>
<rect id="Rectangle 978_2" x="15885" y="6023" width="75" height="714" fill="#9CC7E5" stroke="black" stroke-width="15"/>
<rect id="Rectangle 979_2" x="15960" y="6023" width="75" height="714" fill="#9CC7E5" stroke="black" stroke-width="15"/>
<rect id="Rectangle 980_2" x="16035" y="6023" width="75" height="714" fill="#9CC7E5" stroke="black" stroke-width="15"/>
<rect id="Rectangle 981_2" x="16110" y="6023" width="75" height="714" fill="#9CC7E5" stroke="black" stroke-width="15"/>
<rect id="Rectangle 982_2" x="16185" y="6023" width="75" height="714" fill="#9CC7E5" stroke="black" stroke-width="15"/>
<rect id="Rectangle 983_2" x="16260" y="6023" width="75" height="714" fill="#9CC7E5" stroke="black" stroke-width="15"/>
<rect id="Rectangle 984_2" x="15735" y="4449" width="75" height="714" fill="#9CC7E5" stroke="black" stroke-width="15"/>
<rect id="Rectangle 985_2" x="15810" y="4449" width="75" height="714" fill="#9CC7E5" stroke="black" stroke-width="15"/>
<rect id="Rectangle 986_2" x="15885" y="4449" width="75" height="714" fill="#9CC7E5" stroke="black" stroke-width="15"/>
<rect id="Rectangle 987_2" x="15960" y="4449" width="75" height="714" fill="#9CC7E5" stroke="black" stroke-width="15"/>
<rect id="Rectangle 988_2" x="16035" y="4449" width="75" height="714" fill="#9CC7E5" stroke="black" stroke-width="15"/>
<rect id="Rectangle 989_2" x="16110" y="4449" width="75" height="714" fill="#9CC7E5" stroke="black" stroke-width="15"/>
<rect id="Rectangle 990_2" x="16185" y="4449" width="75" height="714" fill="#9CC7E5" stroke="black" stroke-width="15"/>
<rect id="Rectangle 991_2" x="16260" y="4449" width="75" height="714" fill="#9CC7E5" stroke="black" stroke-width="15"/>
<rect id="Rectangle 992_2" x="16335" y="5163" width="623" height="86" fill="#9CC7E5" stroke="black" stroke-width="15"/>
<rect id="Rectangle 993_2" x="16335" y="5249" width="623" height="86" fill="#9CC7E5" stroke="black" stroke-width="15"/>
<rect id="Rectangle 994_2" x="16335" y="5335" width="623" height="86" fill="#9CC7E5" stroke="black" stroke-width="15"/>
<rect id="Rectangle 995_2" x="16335" y="5421" width="623" height="86" fill="#9CC7E5" stroke="black" stroke-width="15"/>
<rect id="Rectangle 996_2" x="16335" y="5507" width="623" height="86" fill="#9CC7E5" stroke="black" stroke-width="15"/>
<rect id="Rectangle 997_2" x="16335" y="5593" width="623" height="86" fill="#9CC7E5" stroke="black" stroke-width="15"/>
<rect id="Rectangle 998_2" x="16335" y="5679" width="623" height="86" fill="#9CC7E5" stroke="black" stroke-width="15"/>
<rect id="Rectangle 999_2" x="16335" y="5765" width="623" height="86" fill="#9CC7E5" stroke="black" stroke-width="15"/>
<rect id="Rectangle 1000_2" x="16335" y="5851" width="623" height="86" fill="#9CC7E5" stroke="black" stroke-width="15"/>
<rect id="Rectangle 1001_2" x="16335" y="5937" width="623" height="86" fill="#9CC7E5" stroke="black" stroke-width="15"/>
<path id="Subtract_2" d="M16335 6023H15735V5163H16335V6023ZM15795 5223V5963H16275V5223H15795Z" fill="black"/>
</g>
<path id="401aroom_2" d="M27694 5041.04V5010.77L27769.9 4891.18H27796V4933.09H27780.5L27732.7 5008.81V5010.23H27840.6V5041.04H27694ZM27781.3 5073V5031.81L27782 5018.4V4891.18H27818V5073H27781.3ZM27937.5 5077C27922.2 5076.94 27909.1 5073.18 27898 5065.72C27887.1 5058.26 27878.7 5047.46 27872.7 5033.32C27866.9 5019.17 27864 5002.15 27864 4982.27C27864 4962.44 27867 4945.54 27872.8 4931.58C27878.7 4917.61 27887.2 4906.98 27898.1 4899.7C27909.1 4892.37 27922.2 4888.7 27937.5 4888.7C27952.7 4888.7 27965.8 4892.37 27976.7 4899.7C27987.7 4907.04 27996.2 4917.7 28002.1 4931.66C28008 4945.57 28010.9 4962.44 28010.9 4982.27C28010.9 5002.21 28007.9 5019.26 28002 5033.4C27996.1 5047.55 27987.7 5058.35 27976.8 5065.81C27965.8 5073.27 27952.7 5077 27937.5 5077ZM27937.5 5045.12C27947.9 5045.12 27956.2 5039.89 27962.4 5029.41C27968.6 5018.93 27971.7 5003.22 27971.6 4982.27C27971.6 4968.48 27970.2 4957 27967.4 4947.82C27964.6 4938.65 27960.6 4931.75 27955.5 4927.14C27950.4 4922.52 27944.4 4920.21 27937.5 4920.21C27927.1 4920.21 27918.8 4925.39 27912.6 4935.75C27906.4 4946.11 27903.3 4961.61 27903.2 4982.27C27903.2 4996.24 27904.6 5007.9 27907.4 5017.25C27910.2 5026.54 27914.2 5033.52 27919.3 5038.2C27924.5 5042.82 27930.5 5045.12 27937.5 5045.12ZM28117.4 4891.18V5073H28079V4927.67H28077.9L28036.2 4953.77V4919.68L28081.3 4891.18H28117.4ZM28199.8 5075.57C28191.1 5075.57 28183.4 5074.07 28176.6 5071.05C28169.8 5067.97 28164.4 5063.44 28160.4 5057.46C28156.5 5051.43 28154.6 5043.91 28154.6 5034.91C28154.6 5027.34 28156 5020.98 28158.7 5015.83C28161.5 5010.68 28165.3 5006.53 28170.1 5003.4C28174.9 5000.26 28180.3 4997.89 28186.4 4996.3C28192.6 4994.7 28199 4993.57 28205.8 4992.92C28213.7 4992.09 28220.1 4991.32 28225 4990.61C28229.8 4989.84 28233.3 4988.72 28235.5 4987.24C28237.7 4985.76 28238.8 4983.57 28238.8 4980.67V4980.14C28238.8 4974.52 28237 4970.17 28233.5 4967.09C28230 4964.01 28225 4962.47 28218.6 4962.47C28211.8 4962.47 28206.4 4963.98 28202.3 4967C28198.3 4969.96 28195.6 4973.69 28194.3 4978.18L28159.4 4975.34C28161.1 4967.06 28164.6 4959.9 28169.8 4953.86C28175 4947.76 28181.8 4943.09 28190 4939.83C28198.3 4936.52 28207.9 4934.86 28218.8 4934.86C28226.3 4934.86 28233.6 4935.75 28240.5 4937.52C28247.5 4939.3 28253.7 4942.05 28259.1 4945.78C28264.5 4949.51 28268.8 4954.3 28271.9 4960.16C28275.1 4965.96 28276.6 4972.92 28276.6 4981.03V5073H28240.8V5054.09H28239.7C28237.5 5058.35 28234.6 5062.11 28230.9 5065.37C28227.2 5068.56 28222.8 5071.08 28217.7 5072.91C28212.5 5074.69 28206.6 5075.57 28199.8 5075.57ZM28210.7 5049.47C28216.2 5049.47 28221.2 5048.38 28225.4 5046.19C28229.7 5043.94 28233 5040.92 28235.4 5037.13C28237.9 5033.35 28239.1 5029.05 28239.1 5024.26V5009.79C28237.9 5010.56 28236.3 5011.27 28234.2 5011.92C28232.2 5012.51 28229.9 5013.07 28227.4 5013.61C28224.8 5014.08 28222.3 5014.52 28219.7 5014.94C28217.2 5015.29 28214.9 5015.62 28212.8 5015.92C28208.4 5016.57 28204.5 5017.6 28201.2 5019.02C28197.9 5020.44 28195.3 5022.37 28193.5 5024.79C28191.6 5027.16 28190.7 5030.12 28190.7 5033.67C28190.7 5038.82 28192.6 5042.76 28196.3 5045.48C28200.1 5048.14 28204.9 5049.47 28210.7 5049.47Z" fill="black"/>
<path id="401room_2" d="M25730 5041.04V5010.77L25805.9 4891.18H25832V4933.09H25816.5L25768.7 5008.81V5010.23H25876.6V5041.04H25730ZM25817.3 5073V5031.81L25818 5018.4V4891.18H25854V5073H25817.3ZM25973.5 5077C25958.2 5076.94 25945.1 5073.18 25934 5065.72C25923.1 5058.26 25914.7 5047.46 25908.7 5033.32C25902.9 5019.17 25900 5002.15 25900 4982.27C25900 4962.44 25903 4945.54 25908.8 4931.58C25914.7 4917.61 25923.2 4906.98 25934.1 4899.7C25945.1 4892.37 25958.2 4888.7 25973.5 4888.7C25988.7 4888.7 26001.8 4892.37 26012.7 4899.7C26023.7 4907.04 26032.2 4917.7 26038.1 4931.66C26044 4945.57 26046.9 4962.44 26046.9 4982.27C26046.9 5002.21 26043.9 5019.26 26038 5033.4C26032.1 5047.55 26023.7 5058.35 26012.8 5065.81C26001.8 5073.27 25988.7 5077 25973.5 5077ZM25973.5 5045.12C25983.9 5045.12 25992.2 5039.89 25998.4 5029.41C26004.6 5018.93 26007.7 5003.22 26007.6 4982.27C26007.6 4968.48 26006.2 4957 26003.4 4947.82C26000.6 4938.65 25996.6 4931.75 25991.5 4927.14C25986.4 4922.52 25980.4 4920.21 25973.5 4920.21C25963.1 4920.21 25954.8 4925.39 25948.6 4935.75C25942.4 4946.11 25939.3 4961.61 25939.2 4982.27C25939.2 4996.24 25940.6 5007.9 25943.4 5017.25C25946.2 5026.54 25950.2 5033.52 25955.3 5038.2C25960.5 5042.82 25966.5 5045.12 25973.5 5045.12ZM26153.4 4891.18V5073H26115V4927.67H26113.9L26072.2 4953.77V4919.68L26117.3 4891.18H26153.4Z" fill="black"/>
<path id="402room_2" d="M27024 2822.04V2791.77L27099.9 2672.18H27126V2714.09H27110.5L27062.7 2789.81V2791.23H27170.6V2822.04H27024ZM27111.3 2854V2812.81L27112 2799.4V2672.18H27148V2854H27111.3ZM27267.5 2858C27252.2 2857.94 27239.1 2854.18 27228 2846.72C27217.1 2839.26 27208.7 2828.46 27202.7 2814.32C27196.9 2800.17 27194 2783.15 27194 2763.27C27194 2743.44 27197 2726.54 27202.8 2712.58C27208.7 2698.61 27217.2 2687.98 27228.1 2680.7C27239.1 2673.37 27252.2 2669.7 27267.5 2669.7C27282.7 2669.7 27295.8 2673.37 27306.7 2680.7C27317.7 2688.04 27326.2 2698.7 27332.1 2712.66C27338 2726.57 27340.9 2743.44 27340.9 2763.27C27340.9 2783.21 27337.9 2800.26 27332 2814.4C27326.1 2828.55 27317.7 2839.35 27306.8 2846.81C27295.8 2854.27 27282.7 2858 27267.5 2858ZM27267.5 2826.12C27277.9 2826.12 27286.2 2820.89 27292.4 2810.41C27298.6 2799.93 27301.7 2784.22 27301.6 2763.27C27301.6 2749.48 27300.2 2738 27297.4 2728.82C27294.6 2719.65 27290.6 2712.75 27285.5 2708.14C27280.4 2703.52 27274.4 2701.21 27267.5 2701.21C27257.1 2701.21 27248.8 2706.39 27242.6 2716.75C27236.4 2727.11 27233.3 2742.61 27233.2 2763.27C27233.2 2777.24 27234.6 2788.9 27237.4 2798.25C27240.2 2807.54 27244.2 2814.52 27249.3 2819.2C27254.5 2823.82 27260.5 2826.12 27267.5 2826.12ZM27368.3 2854V2826.3L27433 2766.38C27438.5 2761.05 27443.1 2756.25 27446.9 2751.99C27450.6 2747.73 27453.5 2743.56 27455.5 2739.48C27457.4 2735.33 27458.4 2730.86 27458.4 2726.07C27458.4 2720.74 27457.2 2716.16 27454.8 2712.31C27452.3 2708.4 27449 2705.41 27444.8 2703.34C27440.6 2701.21 27435.9 2700.15 27430.5 2700.15C27425 2700.15 27420.1 2701.27 27416 2703.52C27411.8 2705.77 27408.6 2709 27406.4 2713.2C27404.1 2717.4 27403 2722.4 27403 2728.2H27366.5C27366.5 2716.3 27369.2 2705.98 27374.6 2697.22C27380 2688.46 27387.5 2681.68 27397.2 2676.89C27406.9 2672.09 27418.1 2669.7 27430.8 2669.7C27443.8 2669.7 27455.1 2672 27464.8 2676.62C27474.5 2681.18 27482 2687.51 27487.4 2695.62C27492.8 2703.73 27495.5 2713.02 27495.5 2723.5C27495.5 2730.36 27494.1 2737.14 27491.4 2743.83C27488.8 2750.51 27484 2757.94 27477.1 2766.11C27470.3 2774.22 27460.6 2783.95 27448.1 2795.32L27421.6 2821.33V2822.57H27497.9V2854H27368.3Z" fill="black"/>
<path id="404room" d="M25938 2822.04V2791.77L26013.9 2672.18H26040V2714.09H26024.5L25976.7 2789.81V2791.23H26084.6V2822.04H25938ZM26025.3 2854V2812.81L26026 2799.4V2672.18H26062V2854H26025.3ZM26181.5 2858C26166.2 2857.94 26153.1 2854.18 26142 2846.72C26131.1 2839.26 26122.7 2828.46 26116.7 2814.32C26110.9 2800.17 26108 2783.15 26108 2763.27C26108 2743.44 26111 2726.54 26116.8 2712.58C26122.7 2698.61 26131.2 2687.98 26142.1 2680.7C26153.1 2673.37 26166.2 2669.7 26181.5 2669.7C26196.7 2669.7 26209.8 2673.37 26220.7 2680.7C26231.7 2688.04 26240.2 2698.7 26246.1 2712.66C26252 2726.57 26254.9 2743.44 26254.9 2763.27C26254.9 2783.21 26251.9 2800.26 26246 2814.4C26240.1 2828.55 26231.7 2839.35 26220.8 2846.81C26209.8 2854.27 26196.7 2858 26181.5 2858ZM26181.5 2826.12C26191.9 2826.12 26200.2 2820.89 26206.4 2810.41C26212.6 2799.93 26215.7 2784.22 26215.6 2763.27C26215.6 2749.48 26214.2 2738 26211.4 2728.82C26208.6 2719.65 26204.6 2712.75 26199.5 2708.14C26194.4 2703.52 26188.4 2701.21 26181.5 2701.21C26171.1 2701.21 26162.8 2706.39 26156.6 2716.75C26150.4 2727.11 26147.3 2742.61 26147.2 2763.27C26147.2 2777.24 26148.6 2788.9 26151.4 2798.25C26154.2 2807.54 26158.2 2814.52 26163.3 2819.2C26168.5 2823.82 26174.5 2826.12 26181.5 2826.12ZM26279.5 2822.04V2791.77L26355.4 2672.18H26381.5V2714.09H26366.1L26318.2 2789.81V2791.23H26426.1V2822.04H26279.5ZM26366.8 2854V2812.81L26367.5 2799.4V2672.18H26403.6V2854H26366.8Z" fill="black"/>
<path id="406room_2" d="M25324 2827.04V2796.77L25399.9 2677.18H25426V2719.09H25410.5L25362.7 2794.81V2796.23H25470.6V2827.04H25324ZM25411.3 2859V2817.81L25412 2804.4V2677.18H25448V2859H25411.3ZM25567.5 2863C25552.2 2862.94 25539.1 2859.18 25528 2851.72C25517.1 2844.26 25508.7 2833.46 25502.7 2819.32C25496.9 2805.17 25494 2788.15 25494 2768.27C25494 2748.44 25497 2731.54 25502.8 2717.58C25508.7 2703.61 25517.2 2692.98 25528.1 2685.7C25539.1 2678.37 25552.2 2674.7 25567.5 2674.7C25582.7 2674.7 25595.8 2678.37 25606.7 2685.7C25617.7 2693.04 25626.2 2703.7 25632.1 2717.66C25638 2731.57 25640.9 2748.44 25640.9 2768.27C25640.9 2788.21 25637.9 2805.26 25632 2819.4C25626.1 2833.55 25617.7 2844.35 25606.8 2851.81C25595.8 2859.27 25582.7 2863 25567.5 2863ZM25567.5 2831.12C25577.9 2831.12 25586.2 2825.89 25592.4 2815.41C25598.6 2804.93 25601.7 2789.22 25601.6 2768.27C25601.6 2754.48 25600.2 2743 25597.4 2733.82C25594.6 2724.65 25590.6 2717.75 25585.5 2713.14C25580.4 2708.52 25574.4 2706.21 25567.5 2706.21C25557.1 2706.21 25548.8 2711.39 25542.6 2721.75C25536.4 2732.11 25533.3 2747.61 25533.2 2768.27C25533.2 2782.24 25534.6 2793.9 25537.4 2803.25C25540.2 2812.54 25544.2 2819.52 25549.3 2824.2C25554.5 2828.82 25560.5 2831.12 25567.5 2831.12ZM25738.1 2861.49C25728.7 2861.43 25719.7 2859.86 25711 2856.78C25702.4 2853.7 25694.6 2848.7 25687.7 2841.78C25680.9 2834.85 25675.4 2825.68 25671.4 2814.26C25667.4 2802.83 25665.4 2788.81 25665.4 2772.17C25665.5 2756.9 25667.3 2743.26 25670.7 2731.25C25674.2 2719.17 25679.2 2708.93 25685.6 2700.53C25692.1 2692.13 25699.9 2685.73 25709 2681.35C25718 2676.92 25728.2 2674.7 25739.4 2674.7C25751.5 2674.7 25762.2 2677.06 25771.5 2681.8C25780.8 2686.47 25788.3 2692.84 25793.9 2700.89C25799.6 2708.93 25803 2717.96 25804.2 2727.96H25766.3C25764.8 2721.63 25761.7 2716.66 25757 2713.05C25752.2 2709.44 25746.4 2707.63 25739.4 2707.63C25727.6 2707.63 25718.6 2712.78 25712.4 2723.08C25706.3 2733.38 25703.2 2747.38 25703.1 2765.07H25704.3C25707.1 2759.69 25710.7 2755.1 25715.3 2751.31C25720 2747.46 25725.3 2744.54 25731.2 2742.52C25737.2 2740.45 25743.5 2739.42 25750.1 2739.42C25760.9 2739.42 25770.5 2741.96 25778.9 2747.05C25787.3 2752.08 25793.9 2759.01 25798.8 2767.82C25803.6 2776.64 25806.1 2786.73 25806.1 2798.1C25806.1 2810.41 25803.2 2821.36 25797.5 2830.95C25791.8 2840.53 25783.8 2848.05 25773.6 2853.5C25763.4 2858.88 25751.6 2861.54 25738.1 2861.49ZM25737.9 2831.3C25743.8 2831.3 25749.1 2829.88 25753.8 2827.04C25758.5 2824.2 25762.1 2820.35 25764.8 2815.5C25767.5 2810.65 25768.8 2805.2 25768.8 2799.16C25768.8 2793.13 25767.5 2787.71 25764.8 2782.92C25762.2 2778.12 25758.6 2774.31 25754 2771.46C25749.3 2768.62 25744.1 2767.2 25738.2 2767.2C25733.7 2767.2 25729.6 2768.03 25725.8 2769.69C25722.1 2771.35 25718.8 2773.65 25716 2776.61C25713.2 2779.57 25711 2783.01 25709.4 2786.91C25707.8 2790.76 25707 2794.87 25707 2799.25C25707 2805.11 25708.3 2810.47 25711 2815.32C25713.7 2820.17 25717.4 2824.05 25722 2826.95C25726.7 2829.85 25732 2831.3 25737.9 2831.3Z" fill="black"/>
<path id="408room_2" d="M23872.2 2828.82V2794.55L23946.7 2677.18H23977.1V2723.7H23959.5L23915.9 2792.77V2794.19H24023.7V2828.82H23872.2ZM23960 2859V2818.34L23960.9 2803.34V2677.18H24002V2859H23960ZM24122 2863.44C24106.1 2863.44 24092.4 2859.68 24080.9 2852.16C24069.5 2844.59 24060.6 2833.73 24054.4 2819.58C24048.2 2805.38 24045.1 2788.3 24045.2 2768.36C24045.2 2748.41 24048.3 2731.48 24054.5 2717.58C24060.7 2703.61 24069.5 2692.98 24080.9 2685.7C24092.4 2678.37 24106.1 2674.7 24122 2674.7C24137.8 2674.7 24151.5 2678.37 24163 2685.7C24174.5 2692.98 24183.4 2703.61 24189.6 2717.58C24195.8 2731.54 24198.9 2748.47 24198.8 2768.36C24198.8 2788.36 24195.7 2805.47 24189.5 2819.67C24183.3 2833.88 24174.5 2844.74 24163 2852.25C24151.6 2859.71 24137.9 2863.44 24122 2863.44ZM24122 2827.48C24131.4 2827.48 24139.1 2822.66 24145 2813.01C24150.8 2803.31 24153.7 2788.42 24153.7 2768.36C24153.7 2755.22 24152.3 2744.39 24149.7 2735.86C24147 2727.28 24143.3 2720.89 24138.6 2716.69C24133.8 2712.49 24128.3 2710.38 24122 2710.38C24112.6 2710.38 24104.9 2715.15 24099.1 2724.68C24093.3 2734.15 24090.4 2748.71 24090.4 2768.36C24090.3 2781.67 24091.6 2792.71 24094.2 2801.47C24096.8 2810.23 24100.6 2816.77 24105.4 2821.09C24110.2 2825.35 24115.7 2827.48 24122 2827.48ZM24295 2861.49C24280.9 2861.49 24268.3 2859.24 24257.1 2854.74C24246.1 2850.18 24237.4 2844.03 24231 2836.27C24224.8 2828.46 24221.6 2819.64 24221.6 2809.82C24221.6 2802.3 24223.4 2795.41 24227 2789.13C24230.6 2782.86 24235.5 2777.65 24241.7 2773.51C24247.9 2769.3 24254.8 2766.61 24262.5 2765.43V2764.01C24252.5 2762.17 24244.3 2757.53 24237.9 2750.07C24231.5 2742.61 24228.4 2733.88 24228.4 2723.88C24228.4 2714.41 24231.2 2705.98 24237 2698.58C24242.8 2691.18 24250.7 2685.35 24260.7 2681.09C24270.7 2676.83 24282.2 2674.7 24295 2674.7C24307.9 2674.7 24319.3 2676.83 24329.3 2681.09C24339.4 2685.35 24347.3 2691.18 24353 2698.58C24358.8 2705.98 24361.7 2714.41 24361.7 2723.88C24361.7 2733.94 24358.5 2742.7 24352 2750.16C24345.6 2757.56 24337.5 2762.17 24327.6 2764.01V2765.43C24335.2 2766.61 24342.1 2769.3 24348.2 2773.51C24354.4 2777.65 24359.3 2782.86 24363 2789.13C24366.6 2795.41 24368.5 2802.3 24368.5 2809.82C24368.5 2819.64 24365.3 2828.46 24359 2836.27C24352.6 2844.03 24343.9 2850.18 24332.9 2854.74C24321.8 2859.24 24309.2 2861.49 24295 2861.49ZM24295 2830.32C24300.4 2830.32 24305.2 2829.32 24309.2 2827.31C24313.3 2825.23 24316.5 2822.36 24318.8 2818.69C24321.2 2815.03 24322.4 2810.88 24322.4 2806.27C24322.4 2801.53 24321.2 2797.33 24318.8 2793.66C24316.5 2789.99 24313.2 2787.12 24309.1 2785.05C24305 2782.92 24300.3 2781.85 24295 2781.85C24289.8 2781.85 24285.2 2782.92 24281 2785.05C24276.9 2787.12 24273.6 2789.99 24271.2 2793.66C24268.9 2797.33 24267.7 2801.53 24267.7 2806.27C24267.7 2810.88 24268.8 2815.03 24271.2 2818.69C24273.5 2822.3 24276.7 2825.15 24280.8 2827.22C24285 2829.29 24289.7 2830.32 24295 2830.32ZM24295 2750.87C24299.7 2750.87 24303.7 2749.92 24307.3 2748.03C24310.9 2746.13 24313.7 2743.5 24315.7 2740.13C24317.8 2736.75 24318.8 2732.93 24318.8 2728.67C24318.8 2724.41 24317.8 2720.65 24315.7 2717.4C24313.7 2714.14 24310.9 2711.6 24307.4 2709.76C24303.8 2707.87 24299.7 2706.92 24295 2706.92C24290.4 2706.92 24286.3 2707.87 24282.7 2709.76C24279.1 2711.6 24276.3 2714.14 24274.3 2717.4C24272.3 2720.65 24271.2 2724.41 24271.2 2728.67C24271.2 2732.93 24272.3 2736.75 24274.3 2740.13C24276.3 2743.44 24279.2 2746.07 24282.8 2748.03C24286.4 2749.92 24290.5 2750.87 24295 2750.87Z" fill="black"/>
<path id="410aroom_2" d="M20947.2 2828.82V2794.55L21021.7 2677.18H21052.1V2723.7H21034.5L20990.9 2792.77V2794.19H21098.7V2828.82H20947.2ZM21035 2859V2818.34L21035.9 2803.34V2677.18H21077V2859H21035ZM21203.4 2677.18V2859H21159.5V2718.2H21158.5L21117.8 2743.06V2705.06L21162.7 2677.18H21203.4ZM21318.8 2863.44C21302.9 2863.44 21289.3 2859.68 21277.8 2852.16C21266.3 2844.59 21257.4 2833.73 21251.2 2819.58C21245 2805.38 21241.9 2788.3 21242 2768.36C21242.1 2748.41 21245.2 2731.48 21251.3 2717.58C21257.5 2703.61 21266.4 2692.98 21277.8 2685.7C21289.3 2678.37 21302.9 2674.7 21318.8 2674.7C21334.7 2674.7 21348.3 2678.37 21359.8 2685.7C21371.3 2692.98 21380.2 2703.61 21386.4 2717.58C21392.7 2731.54 21395.7 2748.47 21395.7 2768.36C21395.7 2788.36 21392.6 2805.47 21386.4 2819.67C21380.1 2833.88 21371.3 2844.74 21359.8 2852.25C21348.4 2859.71 21334.7 2863.44 21318.8 2863.44ZM21318.8 2827.48C21328.3 2827.48 21335.9 2822.66 21341.8 2813.01C21347.6 2803.31 21350.5 2788.42 21350.5 2768.36C21350.5 2755.22 21349.2 2744.39 21346.5 2735.86C21343.8 2727.28 21340.1 2720.89 21335.4 2716.69C21330.7 2712.49 21325.1 2710.38 21318.8 2710.38C21309.4 2710.38 21301.8 2715.15 21296 2724.68C21290.2 2734.15 21287.2 2748.71 21287.2 2768.36C21287.1 2781.67 21288.4 2792.71 21291 2801.47C21293.7 2810.23 21297.4 2816.77 21302.2 2821.09C21307 2825.35 21312.5 2827.48 21318.8 2827.48ZM21459.6 2861.31C21450.9 2861.31 21443.2 2859.86 21436.5 2856.96C21429.8 2854 21424.5 2849.56 21420.6 2843.64C21416.7 2837.66 21414.8 2830.18 21414.8 2821.18C21414.8 2813.6 21416.1 2807.21 21418.8 2802C21421.5 2796.8 21425.1 2792.56 21429.8 2789.31C21434.5 2786.05 21439.9 2783.6 21446 2781.94C21452.1 2780.22 21458.6 2779.07 21465.5 2778.48C21473.2 2777.77 21479.5 2777.03 21484.2 2776.26C21489 2775.43 21492.4 2774.28 21494.5 2772.8C21496.7 2771.26 21497.8 2769.1 21497.8 2766.32V2765.87C21497.8 2761.31 21496.2 2757.79 21493.1 2755.31C21490 2752.82 21485.7 2751.58 21480.4 2751.58C21474.7 2751.58 21470.1 2752.82 21466.6 2755.31C21463.1 2757.79 21460.9 2761.23 21459.9 2765.61L21419.9 2764.18C21421 2755.9 21424.1 2748.5 21429 2741.99C21434 2735.42 21440.8 2730.27 21449.4 2726.54C21458.1 2722.75 21468.6 2720.86 21480.8 2720.86C21489.5 2720.86 21497.5 2721.9 21504.8 2723.97C21512.2 2725.98 21518.6 2728.94 21524 2732.85C21529.4 2736.69 21533.6 2741.43 21536.6 2747.05C21539.6 2752.67 21541.1 2759.09 21541.1 2766.32V2859H21500.3V2840H21499.2C21496.8 2844.62 21493.7 2848.52 21489.9 2851.72C21486.2 2854.92 21481.8 2857.31 21476.7 2858.91C21471.7 2860.51 21466 2861.31 21459.6 2861.31ZM21473 2832.9C21477.7 2832.9 21481.9 2831.95 21485.6 2830.06C21489.4 2828.16 21492.5 2825.56 21494.7 2822.25C21497 2818.87 21498.1 2814.97 21498.1 2810.53V2797.57C21496.8 2798.22 21495.3 2798.81 21493.6 2799.34C21491.8 2799.87 21489.9 2800.38 21487.9 2800.85C21485.8 2801.32 21483.7 2801.74 21481.5 2802.09C21479.3 2802.45 21477.2 2802.77 21475.2 2803.07C21471.1 2803.72 21467.6 2804.73 21464.7 2806.09C21461.9 2807.45 21459.7 2809.22 21458.1 2811.41C21456.6 2813.55 21455.9 2816.09 21455.9 2819.05C21455.9 2823.55 21457.5 2826.98 21460.7 2829.35C21464 2831.72 21468.1 2832.9 21473 2832.9Z" fill="black"/>
<path id="403room_2" d="M20577.2 5021.82V4987.55L20651.7 4870.18H20682.1V4916.7H20664.5L20620.9 4985.77V4987.19H20728.7V5021.82H20577.2ZM20665 5052V5011.34L20665.9 4996.34V4870.18H20707V5052H20665ZM20827 5056.44C20811.1 5056.44 20797.4 5052.68 20785.9 5045.16C20774.5 5037.59 20765.6 5026.73 20759.4 5012.58C20753.2 4998.38 20750.1 4981.3 20750.2 4961.36C20750.2 4941.41 20753.3 4924.48 20759.5 4910.58C20765.7 4896.61 20774.5 4885.98 20785.9 4878.7C20797.4 4871.37 20811.1 4867.7 20827 4867.7C20842.8 4867.7 20856.5 4871.37 20868 4878.7C20879.5 4885.98 20888.4 4896.61 20894.6 4910.58C20900.8 4924.54 20903.9 4941.47 20903.8 4961.36C20903.8 4981.36 20900.7 4998.47 20894.5 5012.67C20888.3 5026.88 20879.5 5037.74 20868 5045.25C20856.6 5052.71 20842.9 5056.44 20827 5056.44ZM20827 5020.48C20836.4 5020.48 20844.1 5015.66 20850 5006.01C20855.8 4996.31 20858.7 4981.42 20858.7 4961.36C20858.7 4948.22 20857.3 4937.39 20854.7 4928.86C20852 4920.28 20848.3 4913.89 20843.6 4909.69C20838.8 4905.49 20833.3 4903.38 20827 4903.38C20817.6 4903.38 20809.9 4908.15 20804.1 4917.68C20798.3 4927.15 20795.4 4941.71 20795.4 4961.36C20795.3 4974.67 20796.6 4985.71 20799.2 4994.47C20801.8 5003.23 20805.6 5009.77 20810.4 5014.09C20815.2 5018.35 20820.7 5020.48 20827 5020.48ZM20998.2 5054.49C20984.3 5054.49 20972 5052.12 20961.3 5047.38C20950.7 5042.59 20942.3 5035.99 20936.1 5027.59C20930 5019.18 20926.8 5009.5 20926.7 4998.56H20970.9C20971.1 5002.52 20972.4 5006.04 20974.7 5009.12C20977.1 5012.14 20980.3 5014.51 20984.4 5016.22C20988.5 5017.94 20993.1 5018.8 20998.4 5018.8C21003.6 5018.8 21008.1 5017.88 21012.1 5016.04C21016.1 5014.15 21019.3 5011.58 21021.5 5008.32C21023.8 5005.01 21024.9 5001.22 21024.8 4996.96C21024.9 4992.7 21023.7 4988.91 21021.2 4985.59C21018.7 4982.28 21015.2 4979.7 21010.6 4977.87C21006.1 4976.04 21000.8 4975.12 20994.6 4975.12H20977V4943.87H20994.6C21000 4943.87 21004.7 4942.98 21008.8 4941.2C21013 4939.43 21016.2 4936.94 21018.5 4933.75C21020.8 4930.49 21021.9 4926.76 21021.9 4922.56C21021.9 4918.48 21021 4914.9 21018.9 4911.82C21017 4908.68 21014.2 4906.26 21010.7 4904.54C21007.2 4902.82 21003.1 4901.96 20998.5 4901.96C20993.7 4901.96 20989.3 4902.82 20985.3 4904.54C20981.4 4906.26 20978.3 4908.68 20976 4911.82C20973.7 4914.96 20972.5 4918.6 20972.3 4922.74H20930.3C20930.5 4911.91 20933.5 4902.38 20939.4 4894.15C20945.3 4885.87 20953.4 4879.39 20963.5 4874.71C20973.8 4870.03 20985.4 4867.7 20998.5 4867.7C21011.5 4867.7 21023 4869.97 21032.9 4874.53C21042.8 4879.09 21050.5 4885.3 21056 4893.18C21061.5 4900.99 21064.2 4909.84 21064.2 4919.72C21064.3 4929.96 21060.9 4938.39 21054.2 4945.02C21047.5 4951.65 21038.9 4955.73 21028.4 4957.27V4958.69C21042.4 4960.35 21053.1 4964.91 21060.2 4972.37C21067.5 4979.82 21071 4989.14 21071 5000.33C21071 5010.87 21067.9 5020.22 21061.6 5028.38C21055.5 5036.49 21046.9 5042.89 21035.9 5047.56C21025 5052.18 21012.4 5054.49 20998.2 5054.49Z" fill="black"/>
<path id="405room_2" d="M18617.2 5035.82V5001.55L18691.7 4884.18H18722.1V4930.7H18704.5L18660.9 4999.77V5001.19H18768.7V5035.82H18617.2ZM18705 5066V5025.34L18705.9 5010.34V4884.18H18747V5066H18705ZM18867 5070.44C18851.1 5070.44 18837.4 5066.68 18825.9 5059.16C18814.5 5051.59 18805.6 5040.73 18799.4 5026.58C18793.2 5012.38 18790.1 4995.3 18790.2 4975.36C18790.2 4955.41 18793.3 4938.48 18799.5 4924.58C18805.7 4910.61 18814.5 4899.98 18825.9 4892.7C18837.4 4885.37 18851.1 4881.7 18867 4881.7C18882.8 4881.7 18896.5 4885.37 18908 4892.7C18919.5 4899.98 18928.4 4910.61 18934.6 4924.58C18940.8 4938.54 18943.9 4955.47 18943.8 4975.36C18943.8 4995.36 18940.7 5012.47 18934.5 5026.67C18928.3 5040.88 18919.5 5051.74 18908 5059.25C18896.6 5066.71 18882.9 5070.44 18867 5070.44ZM18867 5034.48C18876.4 5034.48 18884.1 5029.66 18890 5020.01C18895.8 5010.31 18898.7 4995.42 18898.7 4975.36C18898.7 4962.22 18897.3 4951.39 18894.7 4942.86C18892 4934.28 18888.3 4927.89 18883.6 4923.69C18878.8 4919.49 18873.3 4917.38 18867 4917.38C18857.6 4917.38 18849.9 4922.15 18844.1 4931.68C18838.3 4941.15 18835.4 4955.71 18835.4 4975.36C18835.3 4988.67 18836.6 4999.71 18839.2 5008.47C18841.8 5017.23 18845.6 5023.77 18850.4 5028.09C18855.2 5032.35 18860.7 5034.48 18867 5034.48ZM19038.6 5068.49C19025.4 5068.49 19013.6 5066.09 19003.3 5061.29C18993 5056.5 18984.8 5049.9 18978.9 5041.5C18973 5033.09 18969.9 5023.45 18969.6 5012.56H19012.2C19012.6 5019.24 19015.3 5024.63 19020.4 5028.71C19025.5 5032.74 19031.6 5034.75 19038.6 5034.75C19044.1 5034.75 19049 5033.54 19053.3 5031.11C19057.5 5028.68 19060.9 5025.28 19063.3 5020.9C19065.7 5016.46 19066.9 5011.37 19066.8 5005.63C19066.9 4999.77 19065.7 4994.65 19063.2 4990.27C19060.8 4985.89 19057.4 4982.49 19053.1 4980.06C19048.8 4977.58 19043.9 4976.33 19038.4 4976.33C19033.1 4976.27 19028.1 4977.43 19023.3 4979.8C19018.7 4982.16 19015.1 4985.39 19012.7 4989.47L18973.9 4982.19L18981.8 4884.18H19098.5V4919.6H19017.9L19013.8 4962.48H19014.8C19017.8 4957.45 19022.7 4953.31 19029.4 4950.06C19036.1 4946.74 19043.8 4945.08 19052.4 4945.08C19063.3 4945.08 19073 4947.63 19081.5 4952.72C19090.1 4957.75 19096.8 4964.73 19101.7 4973.67C19106.7 4982.61 19109.2 4992.85 19109.2 5004.39C19109.2 5016.88 19106.2 5027.94 19100.3 5037.59C19094.5 5047.24 19086.2 5054.81 19075.6 5060.32C19065.1 5065.76 19052.8 5068.49 19038.6 5068.49Z" fill="black"/>
<path id="412room_2" d="M18685.2 2919.82V2885.55L18759.7 2768.18H18790.1V2814.7H18772.5L18728.9 2883.77V2885.19H18836.7V2919.82H18685.2ZM18773 2950V2909.34L18773.9 2894.34V2768.18H18815V2950H18773ZM18941.4 2768.18V2950H18897.5V2809.2H18896.5L18855.8 2834.06V2796.06L18900.7 2768.18H18941.4ZM18981.6 2950V2918.39L19047.9 2860.33C19052.9 2855.84 19057.1 2851.72 19060.6 2847.99C19064.1 2844.21 19066.8 2840.42 19068.6 2836.63C19070.4 2832.78 19071.3 2828.61 19071.3 2824.11C19071.3 2819.08 19070.3 2814.79 19068.1 2811.24C19065.9 2807.63 19062.9 2804.85 19059 2802.89C19055.2 2800.94 19050.8 2799.96 19045.8 2799.96C19040.8 2799.96 19036.3 2801 19032.6 2803.07C19028.8 2805.08 19025.8 2808.01 19023.7 2811.86C19021.6 2815.71 19020.6 2820.38 19020.6 2825.89H18978.9C18978.9 2813.52 18981.7 2802.83 18987.3 2793.84C18992.8 2784.84 19000.7 2777.92 19010.7 2773.06C19020.8 2768.15 19032.6 2765.7 19046 2765.7C19059.7 2765.7 19071.7 2768 19081.9 2772.62C19092.1 2777.24 19100 2783.69 19105.5 2791.97C19111.2 2800.2 19114 2809.76 19114 2820.65C19114 2827.57 19112.6 2834.44 19109.8 2841.25C19107 2848.05 19102 2855.57 19094.8 2863.8C19087.6 2872.02 19077.4 2881.88 19064.2 2893.36L19042.5 2913.42V2914.58H19116.2V2950H18981.6Z" fill="black"/>
<path id="415" d="M2509.19 4978.82V4944.55L2583.67 4827.18H2614.12V4873.7H2596.46L2552.87 4942.77V4944.19H2660.73V4978.82H2509.19ZM2596.99 5009V4968.34L2597.88 4953.34V4827.18H2638.98V5009H2596.99ZM2765.4 4827.18V5009H2721.54V4868.2H2720.48L2679.82 4893.06V4855.06L2724.65 4827.18H2765.4ZM2875.2 5011.49C2861.94 5011.49 2850.16 5009.09 2839.86 5004.29C2829.57 4999.5 2821.43 4992.9 2815.45 4984.5C2809.53 4976.09 2806.45 4966.45 2806.22 4955.56H2848.83C2849.19 4962.24 2851.91 4967.63 2857 4971.71C2862.09 4975.74 2868.15 4977.75 2875.2 4977.75C2880.7 4977.75 2885.58 4976.54 2889.85 4974.11C2894.11 4971.68 2897.45 4968.28 2899.88 4963.9C2902.3 4959.46 2903.49 4954.37 2903.43 4948.63C2903.49 4942.77 2902.27 4937.65 2899.79 4933.27C2897.36 4928.89 2893.99 4925.49 2889.67 4923.06C2885.41 4920.58 2880.49 4919.33 2874.93 4919.33C2869.66 4919.27 2864.66 4920.43 2859.93 4922.8C2855.25 4925.16 2851.7 4928.39 2849.27 4932.47L2810.48 4925.19L2818.38 4827.18H2935.03V4862.6H2854.51L2850.34 4905.48H2851.4C2854.42 4900.45 2859.28 4896.31 2865.96 4893.06C2872.71 4889.74 2880.38 4888.08 2888.96 4888.08C2899.85 4888.08 2909.55 4890.63 2918.08 4895.72C2926.66 4900.75 2933.41 4907.73 2938.32 4916.67C2943.29 4925.61 2945.78 4935.85 2945.78 4947.39C2945.78 4959.88 2942.82 4970.94 2936.9 4980.59C2931.04 4990.24 2922.81 4997.81 2912.22 5003.32C2901.68 5008.76 2889.34 5011.49 2875.2 5011.49Z" fill="black"/>
<path id="424" d="M1255.19 2983.82V2949.55L1329.67 2832.18H1360.12V2878.7H1342.46L1298.87 2947.77V2949.19H1406.73V2983.82H1255.19ZM1342.99 3014V2973.34L1343.88 2958.34V2832.18H1384.98V3014H1342.99ZM1429.77 3014V2982.39L1496.09 2924.33C1501.06 2919.84 1505.29 2915.72 1508.78 2911.99C1512.27 2908.21 1514.94 2904.42 1516.77 2900.63C1518.61 2896.78 1519.52 2892.61 1519.52 2888.11C1519.52 2883.08 1518.43 2878.79 1516.24 2875.24C1514.05 2871.63 1511.03 2868.85 1507.18 2866.89C1503.34 2864.94 1498.93 2863.96 1493.96 2863.96C1488.92 2863.96 1484.52 2865 1480.73 2867.07C1476.94 2869.08 1473.98 2872.01 1471.85 2875.86C1469.78 2879.71 1468.74 2884.38 1468.74 2889.89H1427.11C1427.11 2877.52 1429.89 2866.83 1435.45 2857.84C1441.01 2848.84 1448.83 2841.92 1458.89 2837.06C1469.01 2832.15 1480.76 2829.7 1494.13 2829.7C1507.92 2829.7 1519.91 2832 1530.09 2836.62C1540.27 2841.24 1548.14 2847.69 1553.7 2855.97C1559.33 2864.2 1562.14 2873.76 1562.14 2884.65C1562.14 2891.57 1560.75 2898.44 1557.96 2905.25C1555.18 2912.05 1550.18 2919.57 1542.96 2927.8C1535.8 2936.02 1525.62 2945.88 1512.42 2957.36L1490.67 2977.42V2978.58H1564.36V3014H1429.77ZM1583.07 2983.82V2949.55L1657.55 2832.18H1688V2878.7H1670.34L1626.75 2947.77V2949.19H1734.61V2983.82H1583.07ZM1670.87 3014V2973.34L1671.76 2958.34V2832.18H1712.86V3014H1670.87Z" fill="black"/>
<path id="420&#208;&#176;" d="M5420.19 2960.82V2926.55L5494.67 2809.18H5525.12V2855.7H5507.46L5463.87 2924.77V2926.19H5571.73V2960.82H5420.19ZM5507.99 2991V2950.34L5508.88 2935.34V2809.18H5549.98V2991H5507.99ZM5594.77 2991V2959.39L5661.09 2901.33C5666.06 2896.84 5670.29 2892.72 5673.78 2888.99C5677.27 2885.21 5679.94 2881.42 5681.77 2877.63C5683.61 2873.78 5684.52 2869.61 5684.52 2865.11C5684.52 2860.08 5683.43 2855.79 5681.24 2852.24C5679.05 2848.63 5676.03 2845.85 5672.18 2843.89C5668.34 2841.94 5663.93 2840.96 5658.96 2840.96C5653.92 2840.96 5649.52 2842 5645.73 2844.07C5641.94 2846.08 5638.98 2849.01 5636.85 2852.86C5634.78 2856.71 5633.74 2861.38 5633.74 2866.89H5592.11C5592.11 2854.52 5594.89 2843.83 5600.45 2834.84C5606.01 2825.84 5613.83 2818.92 5623.89 2814.06C5634.01 2809.15 5645.76 2806.7 5659.13 2806.7C5672.92 2806.7 5684.91 2809 5695.09 2813.62C5705.27 2818.24 5713.14 2824.69 5718.7 2832.97C5724.33 2841.2 5727.14 2850.76 5727.14 2861.65C5727.14 2868.57 5725.75 2875.44 5722.96 2882.25C5720.18 2889.05 5715.18 2896.57 5707.96 2904.8C5700.8 2913.02 5690.62 2922.88 5677.42 2934.36L5655.67 2954.42V2955.58H5729.36V2991H5594.77ZM5829.39 2995.44C5813.53 2995.44 5799.85 2991.68 5788.37 2984.16C5776.89 2976.59 5768.04 2965.73 5761.83 2951.58C5755.61 2937.38 5752.54 2920.3 5752.59 2900.36C5752.65 2880.41 5755.76 2863.48 5761.92 2849.58C5768.13 2835.61 5776.95 2824.98 5788.37 2817.7C5799.85 2810.37 5813.53 2806.7 5829.39 2806.7C5845.25 2806.7 5858.92 2810.37 5870.4 2817.7C5881.94 2824.98 5890.82 2835.61 5897.04 2849.58C5903.25 2863.54 5906.33 2880.47 5906.27 2900.36C5906.27 2920.36 5903.16 2937.47 5896.95 2951.67C5890.73 2965.88 5881.89 2976.74 5870.4 2984.25C5858.98 2991.71 5845.31 2995.44 5829.39 2995.44ZM5829.39 2959.48C5838.86 2959.48 5846.52 2954.66 5852.38 2945.01C5858.24 2935.31 5861.14 2920.42 5861.08 2900.36C5861.08 2887.22 5859.75 2876.39 5857.09 2867.86C5854.42 2859.28 5850.72 2852.89 5845.99 2848.69C5841.25 2844.49 5835.72 2842.38 5829.39 2842.38C5819.98 2842.38 5812.37 2847.15 5806.57 2856.68C5800.77 2866.15 5797.84 2880.71 5797.78 2900.36C5797.72 2913.67 5799 2924.71 5801.6 2933.47C5804.26 2942.23 5807.99 2948.77 5812.79 2953.09C5817.58 2957.35 5823.11 2959.48 5829.39 2959.48ZM5970.23 2993.31C5961.53 2993.31 5953.81 2991.86 5947.06 2988.96C5940.38 2986 5935.08 2981.56 5931.17 2975.64C5927.33 2969.66 5925.4 2962.18 5925.4 2953.18C5925.4 2945.6 5926.73 2939.21 5929.4 2934C5932.06 2928.8 5935.73 2924.56 5940.41 2921.31C5945.08 2918.05 5950.47 2915.6 5956.56 2913.94C5962.66 2912.22 5969.17 2911.07 5976.09 2910.48C5983.85 2909.77 5990.09 2909.03 5994.83 2908.26C5999.56 2907.43 6002.99 2906.28 6005.12 2904.8C6007.31 2903.26 6008.41 2901.1 6008.41 2898.32V2897.87C6008.41 2893.31 6006.84 2889.79 6003.7 2887.31C6000.57 2884.82 5996.34 2883.58 5991.01 2883.58C5985.27 2883.58 5980.65 2884.82 5977.16 2887.31C5973.67 2889.79 5971.45 2893.23 5970.5 2897.61L5930.46 2896.18C5931.65 2887.9 5934.69 2880.5 5939.61 2873.99C5944.58 2867.42 5951.38 2862.27 5960.03 2858.54C5968.73 2854.75 5979.17 2852.86 5991.36 2852.86C6000.06 2852.86 6008.08 2853.9 6015.42 2855.97C6022.76 2857.98 6029.15 2860.94 6034.6 2864.85C6040.04 2868.69 6044.25 2873.43 6047.21 2879.05C6050.22 2884.67 6051.73 2891.09 6051.73 2898.32V2991H6010.9V2972H6009.83C6007.4 2976.62 6004.3 2980.52 6000.51 2983.72C5996.78 2986.92 5992.37 2989.31 5987.28 2990.91C5982.25 2992.51 5976.57 2993.31 5970.23 2993.31ZM5983.64 2964.9C5988.32 2964.9 5992.52 2963.95 5996.25 2962.06C6000.03 2960.16 6003.05 2957.56 6005.3 2954.25C6007.55 2950.87 6008.68 2946.97 6008.68 2942.53V2929.57C6007.43 2930.22 6005.92 2930.81 6004.15 2931.34C6002.43 2931.87 6000.54 2932.38 5998.47 2932.85C5996.39 2933.32 5994.26 2933.74 5992.07 2934.09C5989.88 2934.45 5987.78 2934.77 5985.77 2935.07C5981.69 2935.72 5978.2 2936.73 5975.3 2938.09C5972.45 2939.45 5970.26 2941.22 5968.73 2943.41C5967.25 2945.55 5966.51 2948.09 5966.51 2951.05C5966.51 2955.55 5968.1 2958.98 5971.3 2961.35C5974.56 2963.72 5978.67 2964.9 5983.64 2964.9Z" fill="black"/>
<path id="wc_4" d="M6405.24 5500L6369.73 5363.64H6413.32L6431.7 5450.99H6432.85L6452.56 5363.64H6495.08L6515.33 5450.37H6516.48L6534.32 5363.64H6577.91L6542.31 5500H6495.88L6474.58 5420.54H6473.07L6451.76 5500H6405.24ZM6656.06 5502.57C6641.68 5502.57 6629.34 5499.62 6619.04 5493.7C6608.8 5487.78 6600.93 5479.55 6595.43 5469.02C6589.92 5458.42 6587.17 5446.17 6587.17 5432.26C6587.17 5418.29 6589.92 5406.04 6595.43 5395.51C6600.99 5384.91 6608.89 5376.66 6619.13 5370.74C6629.43 5364.82 6641.71 5361.86 6655.97 5361.86C6668.58 5361.86 6679.56 5364.14 6688.91 5368.7C6698.32 5373.25 6705.66 5379.71 6710.93 5388.05C6716.25 5396.34 6719.06 5406.07 6719.36 5417.26H6678.79C6677.96 5410.27 6675.59 5404.8 6671.69 5400.83C6667.84 5396.87 6662.81 5394.89 6656.59 5394.89C6651.56 5394.89 6647.15 5396.31 6643.37 5399.15C6639.58 5401.93 6636.62 5406.07 6634.49 5411.58C6632.42 5417.02 6631.38 5423.77 6631.38 5431.82C6631.38 5439.87 6632.42 5446.67 6634.49 5452.24C6636.62 5457.74 6639.58 5461.91 6643.37 5464.75C6647.15 5467.54 6651.56 5468.93 6656.59 5468.93C6660.62 5468.93 6664.17 5468.07 6667.25 5466.35C6670.38 5464.64 6672.96 5462.12 6674.97 5458.81C6676.98 5455.43 6678.26 5451.35 6678.79 5446.56H6719.36C6718.95 5457.8 6716.13 5467.63 6710.93 5476.03C6705.78 5484.43 6698.53 5490.97 6689.18 5495.65C6679.88 5500.27 6668.85 5502.57 6656.06 5502.57Z" fill="black"/>
<path id="418" d="M8133.19 2914.82V2880.55L8207.67 2763.18H8238.12V2809.7H8220.46L8176.87 2878.77V2880.19H8284.73V2914.82H8133.19ZM8220.99 2945V2904.34L8221.88 2889.34V2763.18H8262.98V2945H8220.99ZM8389.4 2763.18V2945H8345.54V2804.2H8344.48L8303.82 2829.06V2791.06L8348.65 2763.18H8389.4ZM8500.62 2947.49C8486.47 2947.49 8473.84 2945.24 8462.71 2940.74C8451.64 2936.18 8442.94 2930.03 8436.61 2922.27C8430.33 2914.46 8427.2 2905.64 8427.2 2895.82C8427.2 2888.3 8429 2881.41 8432.61 2875.13C8436.22 2868.86 8441.11 2863.65 8447.26 2859.51C8453.48 2855.3 8460.4 2852.61 8468.04 2851.43V2850.01C8458.03 2848.17 8449.84 2843.53 8443.44 2836.07C8437.11 2828.61 8433.95 2819.88 8433.95 2809.88C8433.95 2800.41 8436.82 2791.98 8442.56 2784.58C8448.36 2777.18 8456.26 2771.35 8466.26 2767.09C8476.32 2762.83 8487.77 2760.7 8500.62 2760.7C8513.46 2760.7 8524.88 2762.83 8534.89 2767.09C8544.95 2771.35 8552.85 2777.18 8558.59 2784.58C8564.39 2791.98 8567.29 2800.41 8567.29 2809.88C8567.29 2819.94 8564.06 2828.7 8557.61 2836.16C8551.22 2843.56 8543.08 2848.17 8533.2 2850.01V2851.43C8540.78 2852.61 8547.64 2855.3 8553.8 2859.51C8560.01 2863.65 8564.92 2868.86 8568.53 2875.13C8572.2 2881.41 8574.04 2888.3 8574.04 2895.82C8574.04 2905.64 8570.87 2914.46 8564.54 2922.27C8558.21 2930.03 8549.51 2936.18 8538.44 2940.74C8527.43 2945.24 8514.82 2947.49 8500.62 2947.49ZM8500.62 2916.32C8506 2916.32 8510.74 2915.32 8514.82 2913.31C8518.91 2911.23 8522.1 2908.36 8524.41 2904.69C8526.78 2901.03 8527.96 2896.88 8527.96 2892.27C8527.96 2887.53 8526.78 2883.33 8524.41 2879.66C8522.04 2875.99 8518.79 2873.12 8514.64 2871.05C8510.56 2868.92 8505.89 2867.85 8500.62 2867.85C8495.41 2867.85 8490.73 2868.92 8486.59 2871.05C8482.45 2873.12 8479.19 2875.99 8476.83 2879.66C8474.46 2883.33 8473.27 2887.53 8473.27 2892.27C8473.27 2896.88 8474.43 2901.03 8476.74 2904.69C8479.1 2908.3 8482.33 2911.15 8486.41 2913.22C8490.56 2915.29 8495.29 2916.32 8500.62 2916.32ZM8500.62 2836.87C8505.23 2836.87 8509.32 2835.92 8512.87 2834.03C8516.48 2832.13 8519.29 2829.5 8521.3 2826.13C8523.37 2822.75 8524.41 2818.93 8524.41 2814.67C8524.41 2810.41 8523.37 2806.65 8521.3 2803.4C8519.29 2800.14 8516.51 2797.6 8512.96 2795.76C8509.41 2793.87 8505.29 2792.92 8500.62 2792.92C8496 2792.92 8491.89 2793.87 8488.28 2795.76C8484.67 2797.6 8481.86 2800.14 8479.84 2803.4C8477.83 2806.65 8476.83 2810.41 8476.83 2814.67C8476.83 2818.93 8477.83 2822.75 8479.84 2826.13C8481.92 2829.44 8484.76 2832.07 8488.37 2834.03C8491.98 2835.92 8496.06 2836.87 8500.62 2836.87Z" fill="black"/>
<path id="411" d="M7788.19 5025.82V4991.55L7862.67 4874.18H7893.12V4920.7H7875.46L7831.87 4989.77V4991.19H7939.73V5025.82H7788.19ZM7875.99 5056V5015.34L7876.88 5000.34V4874.18H7917.98V5056H7875.99ZM8044.4 4874.18V5056H8000.54V4915.2H7999.48L7958.82 4940.06V4902.06L8003.65 4874.18H8044.4ZM8168.67 4874.18V5056H8124.81V4915.2H8123.75L8083.09 4940.06V4902.06L8127.92 4874.18H8168.67Z" fill="black"/>
<path id="409" d="M9104.19 5039.82V5005.55L9178.67 4888.18H9209.12V4934.7H9191.46L9147.87 5003.77V5005.19H9255.73V5039.82H9104.19ZM9191.99 5070V5029.34L9192.88 5014.34V4888.18H9233.98V5070H9191.99ZM9353.96 5074.44C9338.1 5074.44 9324.43 5070.68 9312.95 5063.16C9301.47 5055.59 9292.62 5044.73 9286.4 5030.58C9280.19 5016.38 9277.11 4999.3 9277.17 4979.36C9277.23 4959.41 9280.34 4942.48 9286.49 4928.58C9292.71 4914.61 9301.53 4903.98 9312.95 4896.7C9324.43 4889.37 9338.1 4885.7 9353.96 4885.7C9369.83 4885.7 9383.5 4889.37 9394.98 4896.7C9406.52 4903.98 9415.4 4914.61 9421.61 4928.58C9427.83 4942.54 9430.91 4959.47 9430.85 4979.36C9430.85 4999.36 9427.74 5016.47 9421.52 5030.67C9415.31 5044.88 9406.46 5055.74 9394.98 5063.25C9383.56 5070.71 9369.89 5074.44 9353.96 5074.44ZM9353.96 5038.48C9363.43 5038.48 9371.1 5033.66 9376.96 5024.01C9382.82 5014.31 9385.72 4999.42 9385.66 4979.36C9385.66 4966.22 9384.33 4955.39 9381.66 4946.86C9379 4938.28 9375.3 4931.89 9370.57 4927.69C9365.83 4923.49 9360.3 4921.38 9353.96 4921.38C9344.55 4921.38 9336.95 4926.15 9331.15 4935.68C9325.35 4945.15 9322.42 4959.71 9322.36 4979.36C9322.3 4992.67 9323.57 5003.71 9326.18 5012.47C9328.84 5021.23 9332.57 5027.77 9337.36 5032.09C9342.16 5036.35 9347.69 5038.48 9353.96 5038.48ZM9524.46 4885.7C9534.41 4885.7 9543.91 4887.32 9552.96 4890.58C9562.02 4893.77 9570.1 4898.89 9577.2 4905.94C9584.3 4912.92 9589.89 4922.12 9593.98 4933.55C9598.06 4944.97 9600.1 4958.91 9600.1 4975.36C9600.16 4990.51 9598.39 5004.1 9594.78 5016.11C9591.17 5028.07 9585.99 5038.25 9579.24 5046.65C9572.55 5055.06 9564.5 5061.48 9555.09 5065.92C9545.68 5070.3 9535.18 5072.49 9523.58 5072.49C9510.79 5072.49 9499.52 5070.03 9489.75 5065.12C9480.04 5060.15 9472.26 5053.46 9466.4 5045.05C9460.6 5036.65 9457.14 5027.24 9456.01 5016.82H9499.25C9500.61 5022.86 9503.48 5027.42 9507.86 5030.49C9512.24 5033.51 9517.48 5035.02 9523.58 5035.02C9534.7 5035.02 9543.02 5030.2 9548.52 5020.55C9554.03 5010.9 9556.78 4997.79 9556.78 4981.22H9555.71C9553.17 4986.67 9549.56 4991.34 9544.88 4995.25C9540.27 4999.15 9534.91 5002.14 9528.81 5004.22C9522.72 5006.29 9516.3 5007.32 9509.55 5007.32C9498.66 5007.32 9489.04 5004.84 9480.7 4999.87C9472.41 4994.89 9465.9 4988.06 9461.16 4979.36C9456.49 4970.66 9454.12 4960.71 9454.06 4949.53C9454 4936.98 9456.93 4925.91 9462.85 4916.32C9468.77 4906.68 9477.03 4899.16 9487.62 4893.77C9498.21 4888.33 9510.5 4885.64 9524.46 4885.7ZM9524.73 4919.43C9519.28 4919.43 9514.43 4920.7 9510.17 4923.25C9505.97 4925.79 9502.65 4929.23 9500.23 4933.55C9497.8 4937.87 9496.62 4942.72 9496.68 4948.11C9496.73 4953.49 9497.95 4958.35 9500.32 4962.67C9502.74 4966.99 9506.03 4970.42 9510.17 4972.97C9514.37 4975.51 9519.17 4976.78 9524.55 4976.78C9528.58 4976.78 9532.31 4976.04 9535.74 4974.56C9539.17 4973.08 9542.16 4971.04 9544.7 4968.44C9547.25 4965.77 9549.23 4962.7 9550.65 4959.2C9552.13 4955.71 9552.84 4951.98 9552.78 4948.02C9552.72 4942.75 9551.48 4937.96 9549.05 4933.64C9546.63 4929.32 9543.28 4925.88 9539.02 4923.34C9534.82 4920.73 9530.06 4919.43 9524.73 4919.43Z" fill="black"/>
<path id="407" d="M10504.2 5025.82V4991.55L10578.7 4874.18H10609.1V4920.7H10591.5L10547.9 4989.77V4991.19H10655.7V5025.82H10504.2ZM10592 5056V5015.34L10592.9 5000.34V4874.18H10634V5056H10592ZM10754 5060.44C10738.1 5060.44 10724.4 5056.68 10712.9 5049.16C10701.5 5041.59 10692.6 5030.73 10686.4 5016.58C10680.2 5002.38 10677.1 4985.3 10677.2 4965.36C10677.2 4945.41 10680.3 4928.48 10686.5 4914.58C10692.7 4900.61 10701.5 4889.98 10712.9 4882.7C10724.4 4875.37 10738.1 4871.7 10754 4871.7C10769.8 4871.7 10783.5 4875.37 10795 4882.7C10806.5 4889.98 10815.4 4900.61 10821.6 4914.58C10827.8 4928.54 10830.9 4945.47 10830.8 4965.36C10830.8 4985.36 10827.7 5002.47 10821.5 5016.67C10815.3 5030.88 10806.5 5041.74 10795 5049.25C10783.6 5056.71 10769.9 5060.44 10754 5060.44ZM10754 5024.48C10763.4 5024.48 10771.1 5019.66 10777 5010.01C10782.8 5000.31 10785.7 4985.42 10785.7 4965.36C10785.7 4952.22 10784.3 4941.39 10781.7 4932.86C10779 4924.28 10775.3 4917.89 10770.6 4913.69C10765.8 4909.49 10760.3 4907.38 10754 4907.38C10744.6 4907.38 10736.9 4912.15 10731.1 4921.68C10725.3 4931.15 10722.4 4945.71 10722.4 4965.36C10722.3 4978.67 10723.6 4989.71 10726.2 4998.47C10728.8 5007.23 10732.6 5013.77 10737.4 5018.09C10742.2 5022.35 10747.7 5024.48 10754 5024.48ZM10858.9 5056L10932.2 4910.76V4909.6H10846.4V4874.18H10977.6V4909.87L10904 5056H10858.9Z" fill="black"/>
<path id="414" d="M10919.2 2952.82V2918.55L10993.7 2801.18H11024.1V2847.7H11006.5L10962.9 2916.77V2918.19H11070.7V2952.82H10919.2ZM11007 2983V2942.34L11007.9 2927.34V2801.18H11049V2983H11007ZM11175.4 2801.18V2983H11131.5V2842.2H11130.5L11089.8 2867.06V2829.06L11134.7 2801.18H11175.4ZM11213.4 2952.82V2918.55L11287.9 2801.18H11318.3V2847.7H11300.6L11257.1 2916.77V2918.19H11364.9V2952.82H11213.4ZM11301.2 2983V2942.34L11302.1 2927.34V2801.18H11343.2V2983H11301.2Z" fill="black"/>
</g>
</svg>
