<svg width="9346" height="6728" viewBox="0 0 9346 6728" fill="none" xmlns="http://www.w3.org/2000/svg">
<g id="plan-18corpus-2">
<rect width="9346" height="6728" fill="white"/>
<path id="Rectangle 133" d="M1438 2083H3218.5L3679.5 1787V715H4363.5V1095H5750.5V715H6472.5V1779L6926.5 2065L8885.5 2083V6339H1438V2083Z" fill="#242424"/>
<path id="Vector 147" d="M4731 2427C4962.93 2800.51 5032.31 2916.63 5038 2928" stroke="black" stroke-width="13"/>
<path id="Rectangle 134" d="M1527 2146H2120V2415.7H2255V2564.6H2120V2978H1527V2146Z" fill="#9CC7E5"/>
<path id="214room" d="M2173 2146H3539L3752 2405V2503H3823.5V2652.5H3752L3752 2971H2173V2146Z" fill="#9CC7E5"/>
<path id="214" d="M2711.68 2694V2660.76L2789.35 2588.85C2795.95 2582.46 2801.49 2576.71 2805.97 2571.59C2810.51 2566.48 2813.96 2561.47 2816.3 2556.57C2818.64 2551.6 2819.82 2546.24 2819.82 2540.48C2819.82 2534.09 2818.36 2528.59 2815.45 2523.97C2812.54 2519.28 2808.56 2515.7 2803.52 2513.21C2798.47 2510.65 2792.76 2509.38 2786.37 2509.38C2779.69 2509.38 2773.87 2510.73 2768.89 2513.42C2763.92 2516.12 2760.09 2519.99 2757.39 2525.04C2754.69 2530.08 2753.34 2536.08 2753.34 2543.04H2709.55C2709.55 2528.77 2712.79 2516.37 2719.25 2505.86C2725.71 2495.35 2734.77 2487.22 2746.41 2481.46C2758.06 2475.71 2771.49 2472.84 2786.68 2472.84C2802.31 2472.84 2815.91 2475.61 2827.49 2481.14C2839.13 2486.61 2848.19 2494.21 2854.65 2503.94C2861.12 2513.67 2864.35 2524.82 2864.35 2537.39C2864.35 2545.63 2862.71 2553.77 2859.45 2561.79C2856.25 2569.82 2850.53 2578.73 2842.3 2588.53C2834.06 2598.26 2822.44 2609.94 2807.46 2623.58L2775.61 2654.8V2656.29H2867.22V2694H2711.68ZM2995.57 2475.82V2694H2949.44V2519.6H2948.16L2898.2 2550.92V2510.02L2952.21 2475.82H2995.57ZM3044.12 2655.65V2619.32L3135.21 2475.82H3166.53V2526.1H3148L3090.57 2616.98V2618.68H3220.01V2655.65H3044.12ZM3148.85 2694V2644.57L3149.7 2628.48V2475.82H3192.95V2694H3148.85Z" fill="black"/>
<path id="Rectangle 136" d="M3509.5 1959.5L3690.5 1851.5V2073H3316L3509.5 1959.5Z" fill="#9CC7E5"/>
<path id="Rectangle 143" d="M6664 1959.5L6483 1850V2073H6857.5L6664 1959.5Z" fill="#9CC7E5"/>
<path id="Rectangle 137" d="M3739 767H3989V2092.24H3945.86V2182H3811.46V2092.24H3739V767Z" fill="#9CC7E5"/>
<path id="Rectangle 138" d="M4037 767H4312V2073H4037V767Z" fill="#9CC7E5"/>
<path id="215room" d="M4368 1145H5027L5033 2067.5L4601 2075V2146.5H4461.5V2075H4368V1145Z" fill="#9CC7E5"/>
<path id="216room" d="M5738 1145H5079L5073 2067.5L5505 2075V2146.5H5644.5V2075H5738V1145Z" fill="#9CC7E5"/>
<rect id="Rectangle 141" x="5808" y="759" width="264" height="1314" fill="#9CC7E5"/>
<path id="Rectangle 142" d="M6148 758H6426V2071.53H6344.6V2141H6198.93V2071.53H6148V758Z" fill="#9CC7E5"/>
<path id="213room" d="M1532 3029H2630V4000.38H2311V4148H2230V4214.5H2054.5V4148H1532V3029Z" fill="#9CC7E5"/>
<path id="212room" d="M1527 4730H2179V4635H2379V4730H2535V6242H1527V4730Z" fill="#9CC7E5"/>
<g id="18WC-2">
<path d="M2711 3029H3063V3527H3016V3587.5H2910.5V3527H2711V3029Z" fill="#6698BA"/>
<path d="M3131 3029H3425V3380.5H3482.5V3468H3425V3504H3131V3029Z" fill="#6698BA"/>
<path d="M3469 3029H3752V3138H3818.5V3207.5H3752V3251H3469V3029Z" fill="#6698BA"/>
<path d="M2711 3575H3186V3802.34H3266V3931.94H3186V3991H2711V3575Z" fill="#6698BA"/>
<path d="M3250 3575H3751.56V3802.34H3819V3930.38H3751.56V3991H3250V3575Z" fill="#6698BA"/>
<path d="M3469 3298H3752V3352.5H3809.5V3442H3752V3504H3469V3298Z" fill="#6698BA"/>
</g>
<path id="213" d="M1744.68 3859V3825.76L1822.35 3753.85C1828.95 3747.46 1834.49 3741.71 1838.97 3736.59C1843.51 3731.48 1846.96 3726.47 1849.3 3721.57C1851.64 3716.6 1852.82 3711.24 1852.82 3705.48C1852.82 3699.09 1851.36 3693.59 1848.45 3688.97C1845.54 3684.28 1841.56 3680.7 1836.52 3678.21C1831.47 3675.65 1825.76 3674.38 1819.37 3674.38C1812.69 3674.38 1806.87 3675.73 1801.89 3678.42C1796.92 3681.12 1793.09 3684.99 1790.39 3690.04C1787.69 3695.08 1786.34 3701.08 1786.34 3708.04H1742.55C1742.55 3693.77 1745.79 3681.37 1752.25 3670.86C1758.71 3660.35 1767.77 3652.22 1779.41 3646.46C1791.06 3640.71 1804.49 3637.84 1819.68 3637.84C1835.31 3637.84 1848.91 3640.61 1860.49 3646.14C1872.13 3651.61 1881.19 3659.21 1887.65 3668.94C1894.12 3678.67 1897.35 3689.82 1897.35 3702.39C1897.35 3710.63 1895.71 3718.77 1892.45 3726.79C1889.25 3734.82 1883.53 3743.73 1875.3 3753.53C1867.06 3763.26 1855.44 3774.94 1840.46 3788.58L1808.61 3819.8V3821.29H1900.22V3859H1744.68ZM2028.57 3640.82V3859H1982.44V3684.6H1981.16L1931.2 3715.92V3675.02L1985.21 3640.82H2028.57ZM2161.07 3861.98C2145.16 3861.98 2131 3859.25 2118.57 3853.78C2106.21 3848.24 2096.44 3840.64 2089.27 3830.98C2082.17 3821.25 2078.51 3810.03 2078.3 3797.32H2124.75C2125.03 3802.64 2126.77 3807.33 2129.97 3811.38C2133.23 3815.36 2137.56 3818.45 2142.96 3820.65C2148.36 3822.85 2154.43 3823.95 2161.18 3823.95C2168.21 3823.95 2174.43 3822.71 2179.82 3820.22C2185.22 3817.74 2189.45 3814.29 2192.5 3809.89C2195.55 3805.48 2197.08 3800.41 2197.08 3794.65C2197.08 3788.83 2195.45 3783.68 2192.18 3779.21C2188.99 3774.66 2184.37 3771.11 2178.33 3768.55C2172.37 3766 2165.26 3764.72 2157.02 3764.72H2136.68V3730.84H2157.02C2163.99 3730.84 2170.13 3729.63 2175.46 3727.22C2180.85 3724.8 2185.04 3721.46 2188.03 3717.2C2191.01 3712.87 2192.5 3707.83 2192.5 3702.08C2192.5 3696.61 2191.19 3691.81 2188.56 3687.69C2186 3683.5 2182.38 3680.24 2177.69 3677.89C2173.08 3675.55 2167.68 3674.38 2161.5 3674.38C2155.25 3674.38 2149.53 3675.51 2144.35 3677.79C2139.16 3679.99 2135.01 3683.15 2131.88 3687.27C2128.76 3691.39 2127.09 3696.22 2126.88 3701.76H2082.66C2082.88 3689.18 2086.46 3678.11 2093.42 3668.52C2100.38 3658.93 2109.76 3651.44 2121.55 3646.04C2133.41 3640.57 2146.8 3637.84 2161.71 3637.84C2176.77 3637.84 2189.94 3640.57 2201.24 3646.04C2212.53 3651.51 2221.3 3658.89 2227.55 3668.2C2233.87 3677.43 2237 3687.8 2236.93 3699.31C2237 3711.52 2233.2 3721.71 2225.53 3729.88C2217.93 3738.05 2208.02 3743.23 2195.8 3745.43V3747.14C2211.85 3749.2 2224.07 3754.77 2232.45 3763.87C2240.9 3772.88 2245.09 3784.18 2245.02 3797.74C2245.09 3810.17 2241.51 3821.22 2234.26 3830.88C2227.09 3840.53 2217.18 3848.13 2204.54 3853.67C2191.9 3859.21 2177.41 3861.98 2161.07 3861.98Z" fill="black"/>
<rect id="Rectangle 152" x="2358" y="4045" width="1394" height="103" fill="#9CC7E5"/>
<path id="210room" d="M3186 4730H3527.5V4651H3714V4730H4391V6242H3186V4730Z" fill="#9CC7E5"/>
<path id="Rectangle 154" d="M4096 2431H4685V2957H4328V3023H4216.5V2957H4096V2431Z" fill="#9CC7E5"/>
<path id="Rectangle 172" d="M5462 2431H6051V2522.5H6126.5V2677.5H6051V2957H5462V2431Z" fill="#9CC7E5"/>
<g id="Rectangle 155">
<path d="M4734 2431.5H4814V2362H4925.5V2431.5H5038V2579H5117.5V2800.5H5038V2928.5H4734V2431.5Z" fill="#789DB7"/>
<path d="M4734 2431.5H4814V2362H4925.5V2431.5H5038V2579H5117.5V2800.5H5038V2928.5H4734V2431.5Z" fill="#789DB7"/>
</g>
<g id="Rectangle 173">
<path d="M5402 2431.5H5322V2362H5210.5V2431.5H5098V2928.5H5402V2431.5Z" fill="#789DB7"/>
<path d="M5402 2431.5H5322V2362H5210.5V2431.5H5098V2928.5H5402V2431.5Z" fill="#789DB7"/>
</g>
<path id="209room" d="M4096 3009H5032V4004.59V4221.5H4704V4284H4591.5V4221.5H4498.5V4004.59H4096V3009Z" fill="#9CC7E5"/>
<path id="207room" d="M6036 3009H5100V4005V4223H5455V4281.5H5549V4223H5633.5V4005H6036V3009Z" fill="#9CC7E5"/>
<path id="208room" d="M4446 4730H4748.5V4632.5H4922.5V4730H5601V6242H4446V4730Z" fill="#9CC7E5"/>
<path id="206room" d="M5656 4733H5861.5V4659H6027.5V4733H6523V6245H5656V4733Z" fill="#9CC7E5"/>
<path id="205room" d="M6591 4730H6802V4643H6973.5V4730H7379.75V4630.5H7552.5V4730H7786V6242H6591V4730Z" fill="#9CC7E5"/>
<path id="204room" d="M7846 4730H8032.5V4649.5H8217.5V4730H8800V6242H7846V4730Z" fill="#9CC7E5"/>
<path id="Rectangle 164" d="M8234 2131H8800V2727H8434.5V2805H8327.5V2727H8234V2131Z" fill="#9CC7E5"/>
<path id="Rectangle 165" d="M7694 2131H8172V2727H8093.5V2799H7984V2727H7694V2131Z" fill="#9CC7E5"/>
<path id="203room" d="M7694 2792H8800V3843.12H8372.31V4146.5H8300V4227.5H8162V4146.5H8092.68V3935.51H7694V2792Z" fill="#9CC7E5"/>
<rect id="Rectangle 168" x="8425" y="3899" width="373" height="247" fill="#9CC7E5"/>
<path id="201room" d="M6729.42 2131H7642V3940H6448V2814.5H6382V2633.5H6448V2422.11L6729.42 2131Z" fill="#9CC7E5"/>
<path id="corridor" d="M1531 4189L3804.5 4198V2391.5L3605.5 2149.5L6395.5 2131H6644L6395.5 2391.5H6100.5H4043V4198H4453V4266H5675V4198H6076.89L6076 4266L6100.5 2391.5H6395.5V4198H8798.5V4681H1531V4189Z" fill="#9CC7E5"/>
<rect id="Rectangle 170" x="6448" y="4003" width="1575" height="145" fill="#9CC7E5"/>
<rect id="Rectangle 174" x="4097" y="4045" width="349" height="103" fill="#9CC7E5"/>
<path id="Rectangle 176" d="M5677 4038H6036V4148H5677V4038Z" fill="#9CC7E5"/>
<path id="211room" d="M2598 4730H2754.5V4647.5H2965V4730H3131V6242H2598V4730Z" fill="#9CC7E5"/>
<path id="WC" d="M3372.38 3892L3330.76 3746.55H3364.36L3388.43 3847.61H3389.64L3416.2 3746.55H3444.97L3471.46 3847.82H3472.74L3496.82 3746.55H3530.41L3488.79 3892H3458.82L3431.12 3796.9H3429.98L3402.36 3892H3372.38ZM3667 3797.47H3635.9C3635.33 3793.44 3634.17 3789.87 3632.42 3786.74C3630.66 3783.57 3628.41 3780.87 3625.67 3778.65C3622.92 3776.42 3619.75 3774.72 3616.15 3773.53C3612.6 3772.35 3608.74 3771.76 3604.57 3771.76C3597.05 3771.76 3590.49 3773.63 3584.9 3777.37C3579.31 3781.06 3574.98 3786.46 3571.9 3793.56C3568.83 3800.62 3567.29 3809.19 3567.29 3819.27C3567.29 3829.64 3568.83 3838.35 3571.9 3845.41C3575.03 3852.46 3579.39 3857.79 3584.97 3861.39C3590.56 3864.99 3597.02 3866.79 3604.36 3866.79C3608.48 3866.79 3612.29 3866.24 3615.8 3865.15C3619.35 3864.06 3622.5 3862.48 3625.24 3860.39C3627.99 3858.26 3630.26 3855.68 3632.06 3852.65C3633.91 3849.62 3635.19 3846.17 3635.9 3842.28L3667 3842.43C3666.2 3849.1 3664.19 3855.54 3660.97 3861.74C3657.79 3867.9 3653.51 3873.42 3648.11 3878.29C3642.76 3883.12 3636.37 3886.96 3628.94 3889.8C3621.55 3892.59 3613.19 3893.99 3603.86 3893.99C3590.89 3893.99 3579.29 3891.05 3569.06 3885.18C3558.88 3879.31 3550.83 3870.81 3544.92 3859.68C3539.04 3848.56 3536.11 3835.09 3536.11 3819.27C3536.11 3803.41 3539.09 3789.92 3545.06 3778.79C3551.02 3767.66 3559.12 3759.19 3569.35 3753.36C3579.57 3747.49 3591.08 3744.56 3603.86 3744.56C3612.29 3744.56 3620.1 3745.74 3627.3 3748.11C3634.55 3750.48 3640.96 3753.93 3646.55 3758.48C3652.14 3762.98 3656.68 3768.49 3660.19 3775.03C3663.74 3781.56 3666.01 3789.04 3667 3797.47Z" fill="black"/>
<path id="212" d="M1744.68 5116V5082.76L1822.35 5010.85C1828.95 5004.46 1834.49 4998.71 1838.97 4993.59C1843.51 4988.48 1846.96 4983.47 1849.3 4978.57C1851.64 4973.6 1852.82 4968.24 1852.82 4962.48C1852.82 4956.09 1851.36 4950.59 1848.45 4945.97C1845.54 4941.28 1841.56 4937.7 1836.52 4935.21C1831.47 4932.65 1825.76 4931.38 1819.37 4931.38C1812.69 4931.38 1806.87 4932.73 1801.89 4935.42C1796.92 4938.12 1793.09 4941.99 1790.39 4947.04C1787.69 4952.08 1786.34 4958.08 1786.34 4965.04H1742.55C1742.55 4950.77 1745.79 4938.37 1752.25 4927.86C1758.71 4917.35 1767.77 4909.22 1779.41 4903.46C1791.06 4897.71 1804.49 4894.84 1819.68 4894.84C1835.31 4894.84 1848.91 4897.61 1860.49 4903.14C1872.13 4908.61 1881.19 4916.21 1887.65 4925.94C1894.12 4935.67 1897.35 4946.82 1897.35 4959.39C1897.35 4967.63 1895.71 4975.77 1892.45 4983.79C1889.25 4991.82 1883.53 5000.73 1875.3 5010.53C1867.06 5020.26 1855.44 5031.94 1840.46 5045.58L1808.61 5076.8V5078.29H1900.22V5116H1744.68ZM2028.57 4897.82V5116H1982.44V4941.6H1981.16L1931.2 4972.92V4932.02L1985.21 4897.82H2028.57ZM2080.43 5116V5082.76L2158.09 5010.85C2164.7 5004.46 2170.24 4998.71 2174.71 4993.59C2179.25 4988.48 2182.7 4983.47 2185.04 4978.57C2187.39 4973.6 2188.56 4968.24 2188.56 4962.48C2188.56 4956.09 2187.1 4950.59 2184.19 4945.97C2181.28 4941.28 2177.3 4937.7 2172.26 4935.21C2167.22 4932.65 2161.5 4931.38 2155.11 4931.38C2148.43 4931.38 2142.61 4932.73 2137.64 4935.42C2132.66 4938.12 2128.83 4941.99 2126.13 4947.04C2123.43 4952.08 2122.08 4958.08 2122.08 4965.04H2078.3C2078.3 4950.77 2081.53 4938.37 2087.99 4927.86C2094.45 4917.35 2103.51 4909.22 2115.16 4903.46C2126.8 4897.71 2140.23 4894.84 2155.43 4894.84C2171.05 4894.84 2184.65 4897.61 2196.23 4903.14C2207.88 4908.61 2216.93 4916.21 2223.4 4925.94C2229.86 4935.67 2233.09 4946.82 2233.09 4959.39C2233.09 4967.63 2231.46 4975.77 2228.19 4983.79C2224.99 4991.82 2219.28 5000.73 2211.04 5010.53C2202.8 5020.26 2191.19 5031.94 2176.2 5045.58L2144.35 5076.8V5078.29H2235.97V5116H2080.43Z" fill="black"/>
<path id="211" d="M2647.68 5116V5082.76L2725.35 5010.85C2731.95 5004.46 2737.49 4998.71 2741.97 4993.59C2746.51 4988.48 2749.96 4983.47 2752.3 4978.57C2754.64 4973.6 2755.82 4968.24 2755.82 4962.48C2755.82 4956.09 2754.36 4950.59 2751.45 4945.97C2748.54 4941.28 2744.56 4937.7 2739.52 4935.21C2734.47 4932.65 2728.76 4931.38 2722.37 4931.38C2715.69 4931.38 2709.87 4932.73 2704.89 4935.42C2699.92 4938.12 2696.09 4941.99 2693.39 4947.04C2690.69 4952.08 2689.34 4958.08 2689.34 4965.04H2645.55C2645.55 4950.77 2648.79 4938.37 2655.25 4927.86C2661.71 4917.35 2670.77 4909.22 2682.41 4903.46C2694.06 4897.71 2707.49 4894.84 2722.68 4894.84C2738.31 4894.84 2751.91 4897.61 2763.49 4903.14C2775.13 4908.61 2784.19 4916.21 2790.65 4925.94C2797.12 4935.67 2800.35 4946.82 2800.35 4959.39C2800.35 4967.63 2798.71 4975.77 2795.45 4983.79C2792.25 4991.82 2786.53 5000.73 2778.3 5010.53C2770.06 5020.26 2758.44 5031.94 2743.46 5045.58L2711.61 5076.8V5078.29H2803.22V5116H2647.68ZM2931.57 4897.82V5116H2885.44V4941.6H2884.16L2834.2 4972.92V4932.02L2888.21 4897.82H2931.57ZM3078.35 4897.82V5116H3032.22V4941.6H3030.94L2980.98 4972.92V4932.02L3034.99 4897.82H3078.35Z" fill="black"/>
<path id="210" d="M3574.68 5116V5082.76L3652.35 5010.85C3658.95 5004.46 3664.49 4998.71 3668.97 4993.59C3673.51 4988.48 3676.96 4983.47 3679.3 4978.57C3681.64 4973.6 3682.82 4968.24 3682.82 4962.48C3682.82 4956.09 3681.36 4950.59 3678.45 4945.97C3675.54 4941.28 3671.56 4937.7 3666.52 4935.21C3661.47 4932.65 3655.76 4931.38 3649.37 4931.38C3642.69 4931.38 3636.87 4932.73 3631.89 4935.42C3626.92 4938.12 3623.09 4941.99 3620.39 4947.04C3617.69 4952.08 3616.34 4958.08 3616.34 4965.04H3572.55C3572.55 4950.77 3575.79 4938.37 3582.25 4927.86C3588.71 4917.35 3597.77 4909.22 3609.41 4903.46C3621.06 4897.71 3634.49 4894.84 3649.68 4894.84C3665.31 4894.84 3678.91 4897.61 3690.49 4903.14C3702.13 4908.61 3711.19 4916.21 3717.65 4925.94C3724.12 4935.67 3727.35 4946.82 3727.35 4959.39C3727.35 4967.63 3725.71 4975.77 3722.45 4983.79C3719.25 4991.82 3713.53 5000.73 3705.3 5010.53C3697.06 5020.26 3685.44 5031.94 3670.46 5045.58L3638.61 5076.8V5078.29H3730.22V5116H3574.68ZM3858.57 4897.82V5116H3812.44V4941.6H3811.16L3761.2 4972.92V4932.02L3815.21 4897.82H3858.57ZM3995.97 5120.79C3977.65 5120.72 3961.88 5116.21 3948.67 5107.26C3935.53 5098.32 3925.41 5085.35 3918.31 5068.38C3911.28 5051.4 3907.8 5030.99 3907.87 5007.12C3907.87 4983.33 3911.39 4963.05 3918.42 4946.29C3925.52 4929.53 3935.64 4916.78 3948.78 4908.05C3961.99 4899.24 3977.72 4894.84 3995.97 4894.84C4014.23 4894.84 4029.92 4899.24 4043.06 4908.05C4056.27 4916.85 4066.43 4929.64 4073.53 4946.4C4080.63 4963.09 4084.15 4983.33 4084.08 5007.12C4084.08 5031.06 4080.53 5051.51 4073.42 5068.49C4066.39 5085.46 4056.31 5098.42 4043.17 5107.37C4030.03 5116.32 4014.3 5120.79 3995.97 5120.79ZM3995.97 5082.55C4008.47 5082.55 4018.45 5076.26 4025.91 5063.69C4033.37 5051.12 4037.06 5032.26 4036.99 5007.12C4036.99 4990.57 4035.28 4976.8 4031.88 4965.79C4028.54 4954.78 4023.78 4946.5 4017.6 4940.96C4011.49 4935.42 4004.28 4932.65 3995.97 4932.65C3983.54 4932.65 3973.6 4938.87 3966.14 4951.3C3958.69 4963.73 3954.92 4982.34 3954.85 5007.12C3954.85 5023.88 3956.52 5037.88 3959.86 5049.1C3963.27 5060.25 3968.06 5068.63 3974.24 5074.24C3980.42 5079.78 3987.66 5082.55 3995.97 5082.55Z" fill="black"/>
<path id="208" d="M4739.68 5116V5082.76L4817.35 5010.85C4823.95 5004.46 4829.49 4998.71 4833.97 4993.59C4838.51 4988.48 4841.96 4983.47 4844.3 4978.57C4846.64 4973.6 4847.82 4968.24 4847.82 4962.48C4847.82 4956.09 4846.36 4950.59 4843.45 4945.97C4840.54 4941.28 4836.56 4937.7 4831.52 4935.21C4826.47 4932.65 4820.76 4931.38 4814.37 4931.38C4807.69 4931.38 4801.87 4932.73 4796.89 4935.42C4791.92 4938.12 4788.09 4941.99 4785.39 4947.04C4782.69 4952.08 4781.34 4958.08 4781.34 4965.04H4737.55C4737.55 4950.77 4740.79 4938.37 4747.25 4927.86C4753.71 4917.35 4762.77 4909.22 4774.41 4903.46C4786.06 4897.71 4799.49 4894.84 4814.68 4894.84C4830.31 4894.84 4843.91 4897.61 4855.49 4903.14C4867.13 4908.61 4876.19 4916.21 4882.65 4925.94C4889.12 4935.67 4892.35 4946.82 4892.35 4959.39C4892.35 4967.63 4890.71 4975.77 4887.45 4983.79C4884.25 4991.82 4878.53 5000.73 4870.3 5010.53C4862.06 5020.26 4850.44 5031.94 4835.46 5045.58L4803.61 5076.8V5078.29H4895.22V5116H4739.68ZM5014.2 5120.79C4995.87 5120.72 4980.11 5116.21 4966.9 5107.26C4953.76 5098.32 4943.64 5085.35 4936.53 5068.38C4929.5 5051.4 4926.02 5030.99 4926.09 5007.12C4926.09 4983.33 4929.61 4963.05 4936.64 4946.29C4943.74 4929.53 4953.86 4916.78 4967 4908.05C4980.21 4899.24 4995.94 4894.84 5014.2 4894.84C5032.45 4894.84 5048.15 4899.24 5061.28 4908.05C5074.49 4916.85 5084.65 4929.64 5091.75 4946.4C5098.86 4963.09 5102.37 4983.33 5102.3 5007.12C5102.3 5031.06 5098.75 5051.51 5091.65 5068.49C5084.62 5085.46 5074.53 5098.42 5061.39 5107.37C5048.25 5116.32 5032.52 5120.79 5014.2 5120.79ZM5014.2 5082.55C5026.7 5082.55 5036.68 5076.26 5044.13 5063.69C5051.59 5051.12 5055.28 5032.26 5055.21 5007.12C5055.21 4990.57 5053.51 4976.8 5050.1 4965.79C5046.76 4954.78 5042 4946.5 5035.82 4940.96C5029.71 4935.42 5022.51 4932.65 5014.2 4932.65C5001.77 4932.65 4991.82 4938.87 4984.37 4951.3C4976.91 4963.73 4973.15 4982.34 4973.07 5007.12C4973.07 5023.88 4974.74 5037.88 4978.08 5049.1C4981.49 5060.25 4986.28 5068.63 4992.46 5074.24C4998.64 5079.78 5005.89 5082.55 5014.2 5082.55ZM5216.58 5118.98C5200.18 5118.98 5185.58 5116.32 5172.8 5110.99C5160.09 5105.6 5150.11 5098.24 5142.86 5088.94C5135.62 5079.64 5132 5069.09 5132 5057.3C5132 5048.21 5134.06 5039.86 5138.18 5032.26C5142.37 5024.59 5148.05 5018.24 5155.22 5013.19C5162.39 5008.08 5170.42 5004.81 5179.3 5003.39V5001.9C5167.65 4999.56 5158.2 4993.91 5150.96 4984.96C5143.72 4975.94 5140.09 4965.47 5140.09 4953.54C5140.09 4942.24 5143.4 4932.19 5150 4923.39C5156.61 4914.51 5165.66 4907.55 5177.17 4902.51C5188.74 4897.39 5201.88 4894.84 5216.58 4894.84C5231.29 4894.84 5244.39 4897.39 5255.9 4902.51C5267.47 4907.62 5276.56 4914.62 5283.17 4923.49C5289.77 4932.3 5293.11 4942.31 5293.18 4953.54C5293.11 4965.54 5289.42 4976.01 5282.1 4984.96C5274.79 4993.91 5265.41 4999.56 5253.98 5001.9V5003.39C5262.71 5004.81 5270.63 5008.08 5277.74 5013.19C5284.91 5018.24 5290.59 5024.59 5294.78 5032.26C5299.04 5039.86 5301.21 5048.21 5301.28 5057.3C5301.21 5069.09 5297.55 5079.64 5290.31 5088.94C5283.06 5098.24 5273.05 5105.6 5260.26 5110.99C5247.55 5116.32 5232.99 5118.98 5216.58 5118.98ZM5216.58 5085.11C5223.9 5085.11 5230.29 5083.79 5235.76 5081.16C5241.23 5078.46 5245.49 5074.77 5248.54 5070.08C5251.67 5065.33 5253.23 5059.86 5253.23 5053.68C5253.23 5047.36 5251.63 5041.78 5248.44 5036.95C5245.24 5032.05 5240.91 5028.22 5235.44 5025.45C5229.97 5022.61 5223.69 5021.18 5216.58 5021.18C5209.55 5021.18 5203.27 5022.61 5197.73 5025.45C5192.19 5028.22 5187.82 5032.05 5184.62 5036.95C5181.5 5041.78 5179.94 5047.36 5179.94 5053.68C5179.94 5059.86 5181.46 5065.33 5184.52 5070.08C5187.57 5074.77 5191.87 5078.46 5197.41 5081.16C5202.95 5083.79 5209.34 5085.11 5216.58 5085.11ZM5216.58 4987.63C5222.69 4987.63 5228.13 4986.38 5232.88 4983.9C5237.64 4981.41 5241.37 4977.97 5244.07 4973.56C5246.77 4969.16 5248.12 4964.08 5248.12 4958.33C5248.12 4952.65 5246.77 4947.68 5244.07 4943.41C5241.37 4939.08 5237.68 4935.71 5232.99 4933.29C5228.3 4930.81 5222.83 4929.57 5216.58 4929.57C5210.41 4929.57 5204.94 4930.81 5200.18 4933.29C5195.42 4935.71 5191.69 4939.08 5188.99 4943.41C5186.36 4947.68 5185.05 4952.65 5185.05 4958.33C5185.05 4964.08 5186.4 4969.16 5189.1 4973.56C5191.8 4977.97 5195.53 4981.41 5200.28 4983.9C5205.04 4986.38 5210.48 4987.63 5216.58 4987.63Z" fill="black"/>
<path id="209" d="M4307.68 3732V3698.76L4385.35 3626.85C4391.95 3620.46 4397.49 3614.71 4401.97 3609.59C4406.51 3604.48 4409.96 3599.47 4412.3 3594.57C4414.64 3589.6 4415.82 3584.24 4415.82 3578.48C4415.82 3572.09 4414.36 3566.59 4411.45 3561.97C4408.54 3557.28 4404.56 3553.7 4399.52 3551.21C4394.47 3548.65 4388.76 3547.38 4382.37 3547.38C4375.69 3547.38 4369.87 3548.73 4364.89 3551.42C4359.92 3554.12 4356.09 3557.99 4353.39 3563.04C4350.69 3568.08 4349.34 3574.08 4349.34 3581.04H4305.55C4305.55 3566.77 4308.79 3554.37 4315.25 3543.86C4321.71 3533.35 4330.77 3525.22 4342.41 3519.46C4354.06 3513.71 4367.49 3510.84 4382.68 3510.84C4398.31 3510.84 4411.91 3513.61 4423.49 3519.14C4435.13 3524.61 4444.19 3532.21 4450.65 3541.94C4457.12 3551.67 4460.35 3562.82 4460.35 3575.39C4460.35 3583.63 4458.71 3591.77 4455.45 3599.79C4452.25 3607.82 4446.53 3616.73 4438.3 3626.53C4430.06 3636.26 4418.44 3647.94 4403.46 3661.58L4371.61 3692.8V3694.29H4463.22V3732H4307.68ZM4582.2 3736.79C4563.87 3736.72 4548.11 3732.21 4534.9 3723.26C4521.76 3714.32 4511.64 3701.35 4504.53 3684.38C4497.5 3667.4 4494.02 3646.99 4494.09 3623.12C4494.09 3599.33 4497.61 3579.05 4504.64 3562.29C4511.74 3545.53 4521.86 3532.78 4535 3524.05C4548.21 3515.24 4563.94 3510.84 4582.2 3510.84C4600.45 3510.84 4616.15 3515.24 4629.28 3524.05C4642.49 3532.85 4652.65 3545.64 4659.75 3562.4C4666.86 3579.09 4670.37 3599.33 4670.3 3623.12C4670.3 3647.06 4666.75 3667.51 4659.65 3684.49C4652.62 3701.46 4642.53 3714.42 4629.39 3723.37C4616.25 3732.32 4600.52 3736.79 4582.2 3736.79ZM4582.2 3698.55C4594.7 3698.55 4604.68 3692.26 4612.13 3679.69C4619.59 3667.12 4623.28 3648.26 4623.21 3623.12C4623.21 3606.57 4621.51 3592.8 4618.1 3581.79C4614.76 3570.78 4610 3562.5 4603.82 3556.96C4597.71 3551.42 4590.51 3548.65 4582.2 3548.65C4569.77 3548.65 4559.82 3554.87 4552.37 3567.3C4544.91 3579.73 4541.15 3598.34 4541.07 3623.12C4541.07 3639.88 4542.74 3653.88 4546.08 3665.1C4549.49 3676.25 4554.28 3684.63 4560.46 3690.24C4566.64 3695.78 4573.89 3698.55 4582.2 3698.55ZM4782.13 3510.84C4793.36 3510.84 4804.15 3512.72 4814.52 3516.48C4824.96 3520.25 4834.26 3526.25 4842.43 3534.49C4850.67 3542.72 4857.17 3553.66 4861.93 3567.3C4866.76 3580.86 4869.21 3597.52 4869.28 3617.26C4869.28 3635.8 4867.18 3652.35 4862.99 3666.91C4858.87 3681.4 4852.94 3693.72 4845.2 3703.88C4837.46 3714.03 4828.12 3721.77 4817.18 3727.1C4806.25 3732.36 4794.03 3734.98 4780.54 3734.98C4765.98 3734.98 4753.12 3732.18 4741.97 3726.57C4730.82 3720.88 4721.84 3713.18 4715.02 3703.45C4708.27 3693.65 4704.19 3682.64 4702.77 3670.42H4748.26C4750.03 3678.38 4753.76 3684.56 4759.44 3688.96C4765.12 3693.29 4772.16 3695.46 4780.54 3695.46C4794.74 3695.46 4805.54 3689.28 4812.92 3676.92C4820.31 3664.49 4824.04 3647.48 4824.11 3625.89H4822.62C4819.35 3632.28 4814.95 3637.79 4809.41 3642.4C4803.87 3646.95 4797.51 3650.47 4790.34 3652.95C4783.24 3655.44 4775.67 3656.68 4767.65 3656.68C4754.79 3656.68 4743.32 3653.66 4733.24 3647.62C4723.15 3641.59 4715.2 3633.28 4709.37 3622.7C4703.55 3612.11 4700.64 3600.04 4700.64 3586.47C4700.56 3571.84 4703.94 3558.81 4710.76 3547.38C4717.57 3535.94 4727.09 3526.99 4739.31 3520.53C4751.59 3514 4765.87 3510.76 4782.13 3510.84ZM4782.45 3547.06C4775.28 3547.06 4768.89 3548.76 4763.28 3552.17C4757.74 3555.58 4753.33 3560.16 4750.07 3565.91C4746.87 3571.67 4745.31 3578.09 4745.38 3585.2C4745.38 3592.37 4746.94 3598.83 4750.07 3604.59C4753.26 3610.27 4757.6 3614.81 4763.06 3618.22C4768.6 3621.56 4774.93 3623.23 4782.03 3623.23C4787.35 3623.23 4792.29 3622.23 4796.84 3620.25C4801.38 3618.26 4805.32 3615.52 4808.66 3612.04C4812.07 3608.49 4814.73 3604.41 4816.65 3599.79C4818.57 3595.17 4819.53 3590.27 4819.53 3585.09C4819.46 3578.2 4817.82 3571.88 4814.63 3566.13C4811.43 3560.37 4807.03 3555.76 4801.42 3552.28C4795.81 3548.8 4789.49 3547.06 4782.45 3547.06Z" fill="black"/>
<path id="207" d="M5301.68 3756V3722.76L5379.35 3650.85C5385.95 3644.46 5391.49 3638.71 5395.97 3633.59C5400.51 3628.48 5403.96 3623.47 5406.3 3618.57C5408.64 3613.6 5409.82 3608.24 5409.82 3602.48C5409.82 3596.09 5408.36 3590.59 5405.45 3585.97C5402.54 3581.28 5398.56 3577.7 5393.52 3575.21C5388.47 3572.65 5382.76 3571.38 5376.37 3571.38C5369.69 3571.38 5363.87 3572.73 5358.89 3575.42C5353.92 3578.12 5350.09 3581.99 5347.39 3587.04C5344.69 3592.08 5343.34 3598.08 5343.34 3605.04H5299.55C5299.55 3590.77 5302.79 3578.37 5309.25 3567.86C5315.71 3557.35 5324.77 3549.22 5336.41 3543.46C5348.06 3537.71 5361.49 3534.84 5376.68 3534.84C5392.31 3534.84 5405.91 3537.61 5417.49 3543.14C5429.13 3548.61 5438.19 3556.21 5444.65 3565.94C5451.12 3575.67 5454.35 3586.82 5454.35 3599.39C5454.35 3607.63 5452.71 3615.77 5449.45 3623.79C5446.25 3631.82 5440.53 3640.73 5432.3 3650.53C5424.06 3660.26 5412.44 3671.94 5397.46 3685.58L5365.61 3716.8V3718.29H5457.22V3756H5301.68ZM5576.2 3760.79C5557.87 3760.72 5542.11 3756.21 5528.9 3747.26C5515.76 3738.32 5505.64 3725.35 5498.53 3708.38C5491.5 3691.4 5488.02 3670.99 5488.09 3647.12C5488.09 3623.33 5491.61 3603.05 5498.64 3586.29C5505.74 3569.53 5515.86 3556.78 5529 3548.05C5542.21 3539.24 5557.94 3534.84 5576.2 3534.84C5594.45 3534.84 5610.15 3539.24 5623.28 3548.05C5636.49 3556.85 5646.65 3569.64 5653.75 3586.4C5660.86 3603.09 5664.37 3623.33 5664.3 3647.12C5664.3 3671.06 5660.75 3691.51 5653.65 3708.49C5646.62 3725.46 5636.53 3738.42 5623.39 3747.37C5610.25 3756.32 5594.52 3760.79 5576.2 3760.79ZM5576.2 3722.55C5588.7 3722.55 5598.68 3716.26 5606.13 3703.69C5613.59 3691.12 5617.28 3672.26 5617.21 3647.12C5617.21 3630.57 5615.51 3616.8 5612.1 3605.79C5608.76 3594.78 5604 3586.5 5597.82 3580.96C5591.71 3575.42 5584.51 3572.65 5576.2 3572.65C5563.77 3572.65 5553.82 3578.87 5546.37 3591.3C5538.91 3603.73 5535.15 3622.34 5535.07 3647.12C5535.07 3663.88 5536.74 3677.88 5540.08 3689.1C5543.49 3700.25 5548.28 3708.63 5554.46 3714.24C5560.64 3719.78 5567.89 3722.55 5576.2 3722.55ZM5699.96 3756L5790.41 3577.02V3575.53H5685.05V3537.82H5838.14V3576.06L5747.58 3756H5699.96Z" fill="black"/>
<path id="206" d="M5827.68 5116V5082.76L5905.35 5010.85C5911.95 5004.46 5917.49 4998.71 5921.97 4993.59C5926.51 4988.48 5929.96 4983.47 5932.3 4978.57C5934.64 4973.6 5935.82 4968.24 5935.82 4962.48C5935.82 4956.09 5934.36 4950.59 5931.45 4945.97C5928.54 4941.28 5924.56 4937.7 5919.52 4935.21C5914.47 4932.65 5908.76 4931.38 5902.37 4931.38C5895.69 4931.38 5889.87 4932.73 5884.89 4935.42C5879.92 4938.12 5876.09 4941.99 5873.39 4947.04C5870.69 4952.08 5869.34 4958.08 5869.34 4965.04H5825.55C5825.55 4950.77 5828.79 4938.37 5835.25 4927.86C5841.71 4917.35 5850.77 4909.22 5862.41 4903.46C5874.06 4897.71 5887.49 4894.84 5902.68 4894.84C5918.31 4894.84 5931.91 4897.61 5943.49 4903.14C5955.13 4908.61 5964.19 4916.21 5970.65 4925.94C5977.12 4935.67 5980.35 4946.82 5980.35 4959.39C5980.35 4967.63 5978.71 4975.77 5975.45 4983.79C5972.25 4991.82 5966.53 5000.73 5958.3 5010.53C5950.06 5020.26 5938.44 5031.94 5923.46 5045.58L5891.61 5076.8V5078.29H5983.22V5116H5827.68ZM6102.2 5120.79C6083.87 5120.72 6068.11 5116.21 6054.9 5107.26C6041.76 5098.32 6031.64 5085.35 6024.53 5068.38C6017.5 5051.4 6014.02 5030.99 6014.09 5007.12C6014.09 4983.33 6017.61 4963.05 6024.64 4946.29C6031.74 4929.53 6041.86 4916.78 6055 4908.05C6068.21 4899.24 6083.94 4894.84 6102.2 4894.84C6120.45 4894.84 6136.15 4899.24 6149.28 4908.05C6162.49 4916.85 6172.65 4929.64 6179.75 4946.4C6186.86 4963.09 6190.37 4983.33 6190.3 5007.12C6190.3 5031.06 6186.75 5051.51 6179.65 5068.49C6172.62 5085.46 6162.53 5098.42 6149.39 5107.37C6136.25 5116.32 6120.52 5120.79 6102.2 5120.79ZM6102.2 5082.55C6114.7 5082.55 6124.68 5076.26 6132.13 5063.69C6139.59 5051.12 6143.28 5032.26 6143.21 5007.12C6143.21 4990.57 6141.51 4976.8 6138.1 4965.79C6134.76 4954.78 6130 4946.5 6123.82 4940.96C6117.71 4935.42 6110.51 4932.65 6102.2 4932.65C6089.77 4932.65 6079.82 4938.87 6072.37 4951.3C6064.91 4963.73 6061.15 4982.34 6061.07 5007.12C6061.07 5023.88 6062.74 5037.88 6066.08 5049.1C6069.49 5060.25 6074.28 5068.63 6080.46 5074.24C6086.64 5079.78 6093.89 5082.55 6102.2 5082.55ZM6306.93 5118.98C6295.71 5118.91 6284.88 5117.03 6274.44 5113.34C6264.07 5109.64 6254.76 5103.64 6246.52 5095.33C6238.28 5087.02 6231.75 5076.01 6226.92 5062.31C6222.16 5048.6 6219.78 5031.77 6219.78 5011.81C6219.85 4993.49 6221.95 4977.12 6226.07 4962.7C6230.26 4948.21 6236.23 4935.92 6243.97 4925.84C6251.78 4915.75 6261.12 4908.08 6271.99 4902.83C6282.85 4897.5 6295.03 4894.84 6308.53 4894.84C6323.09 4894.84 6335.94 4897.68 6347.09 4903.36C6358.24 4908.97 6367.19 4916.6 6373.94 4926.26C6380.76 4935.92 6384.88 4946.75 6386.3 4958.76H6340.81C6339.03 4951.16 6335.3 4945.19 6329.62 4940.86C6323.94 4936.53 6316.91 4934.36 6308.53 4934.36C6294.32 4934.36 6283.53 4940.54 6276.14 4952.9C6268.82 4965.25 6265.1 4982.05 6264.95 5003.29H6266.45C6269.71 4996.82 6274.12 4991.32 6279.66 4986.77C6285.27 4982.16 6291.62 4978.64 6298.73 4976.23C6305.9 4973.74 6313.46 4972.5 6321.42 4972.5C6334.34 4972.5 6345.85 4975.55 6355.93 4981.66C6366.02 4987.7 6373.97 4996.01 6379.8 5006.59C6385.62 5017.17 6388.53 5029.28 6388.53 5042.92C6388.53 5057.69 6385.09 5070.83 6378.2 5082.34C6371.38 5093.84 6361.83 5102.86 6349.54 5109.39C6337.33 5115.86 6323.12 5119.05 6306.93 5118.98ZM6306.72 5082.76C6313.82 5082.76 6320.17 5081.06 6325.78 5077.65C6331.4 5074.24 6335.8 5069.62 6339 5063.8C6342.19 5057.97 6343.79 5051.44 6343.79 5044.2C6343.79 5036.95 6342.19 5030.45 6339 5024.7C6335.87 5018.95 6331.54 5014.37 6326 5010.96C6320.46 5007.55 6314.14 5005.84 6307.03 5005.84C6301.71 5005.84 6296.77 5006.84 6292.23 5008.83C6287.75 5010.82 6283.81 5013.59 6280.4 5017.14C6277.06 5020.69 6274.44 5024.81 6272.52 5029.49C6270.6 5034.11 6269.64 5039.05 6269.64 5044.3C6269.64 5051.33 6271.24 5057.76 6274.44 5063.59C6277.7 5069.41 6282.11 5074.06 6287.65 5077.54C6293.26 5081.02 6299.61 5082.76 6306.72 5082.76Z" fill="black"/>
<path id="205" d="M6907.68 5116V5082.76L6985.35 5010.85C6991.95 5004.46 6997.49 4998.71 7001.97 4993.59C7006.51 4988.48 7009.96 4983.47 7012.3 4978.57C7014.64 4973.6 7015.82 4968.24 7015.82 4962.48C7015.82 4956.09 7014.36 4950.59 7011.45 4945.97C7008.54 4941.28 7004.56 4937.7 6999.52 4935.21C6994.47 4932.65 6988.76 4931.38 6982.37 4931.38C6975.69 4931.38 6969.87 4932.73 6964.89 4935.42C6959.92 4938.12 6956.09 4941.99 6953.39 4947.04C6950.69 4952.08 6949.34 4958.08 6949.34 4965.04H6905.55C6905.55 4950.77 6908.79 4938.37 6915.25 4927.86C6921.71 4917.35 6930.77 4909.22 6942.41 4903.46C6954.06 4897.71 6967.49 4894.84 6982.68 4894.84C6998.31 4894.84 7011.91 4897.61 7023.49 4903.14C7035.13 4908.61 7044.19 4916.21 7050.65 4925.94C7057.12 4935.67 7060.35 4946.82 7060.35 4959.39C7060.35 4967.63 7058.71 4975.77 7055.45 4983.79C7052.25 4991.82 7046.53 5000.73 7038.3 5010.53C7030.06 5020.26 7018.44 5031.94 7003.46 5045.58L6971.61 5076.8V5078.29H7063.22V5116H6907.68ZM7182.2 5120.79C7163.87 5120.72 7148.11 5116.21 7134.9 5107.26C7121.76 5098.32 7111.64 5085.35 7104.53 5068.38C7097.5 5051.4 7094.02 5030.99 7094.09 5007.12C7094.09 4983.33 7097.61 4963.05 7104.64 4946.29C7111.74 4929.53 7121.86 4916.78 7135 4908.05C7148.21 4899.24 7163.94 4894.84 7182.2 4894.84C7200.45 4894.84 7216.15 4899.24 7229.28 4908.05C7242.49 4916.85 7252.65 4929.64 7259.75 4946.4C7266.86 4963.09 7270.37 4983.33 7270.3 5007.12C7270.3 5031.06 7266.75 5051.51 7259.65 5068.49C7252.62 5085.46 7242.53 5098.42 7229.39 5107.37C7216.25 5116.32 7200.52 5120.79 7182.2 5120.79ZM7182.2 5082.55C7194.7 5082.55 7204.68 5076.26 7212.13 5063.69C7219.59 5051.12 7223.28 5032.26 7223.21 5007.12C7223.21 4990.57 7221.51 4976.8 7218.1 4965.79C7214.76 4954.78 7210 4946.5 7203.82 4940.96C7197.71 4935.42 7190.51 4932.65 7182.2 4932.65C7169.77 4932.65 7159.82 4938.87 7152.37 4951.3C7144.91 4963.73 7141.15 4982.34 7141.07 5007.12C7141.07 5023.88 7142.74 5037.88 7146.08 5049.1C7149.49 5060.25 7154.28 5068.63 7160.46 5074.24C7166.64 5079.78 7173.89 5082.55 7182.2 5082.55ZM7382.88 5118.98C7367.82 5118.98 7354.4 5116.21 7342.61 5110.67C7330.89 5105.13 7321.59 5097.5 7314.7 5087.77C7307.81 5078.04 7304.22 5066.89 7303.94 5054.32H7348.68C7349.18 5062.77 7352.73 5069.62 7359.34 5074.88C7365.94 5080.13 7373.79 5082.76 7382.88 5082.76C7390.12 5082.76 7396.52 5081.16 7402.06 5077.97C7407.67 5074.7 7412.03 5070.19 7415.16 5064.44C7418.36 5058.61 7419.95 5051.94 7419.95 5044.41C7419.95 5036.74 7418.32 5029.99 7415.05 5024.17C7411.86 5018.34 7407.42 5013.8 7401.74 5010.53C7396.05 5007.26 7389.56 5005.6 7382.24 5005.52C7375.85 5005.52 7369.63 5006.84 7363.6 5009.47C7357.63 5012.09 7352.98 5015.68 7349.64 5020.23L7308.63 5012.88L7318.96 4897.82H7452.34V4935.53H7356.99L7351.35 4990.18H7352.62C7356.46 4984.79 7362.25 4980.31 7369.99 4976.76C7377.73 4973.21 7386.4 4971.43 7395.98 4971.43C7409.12 4971.43 7420.84 4974.52 7431.14 4980.7C7441.44 4986.88 7449.57 4995.37 7455.54 5006.16C7461.5 5016.89 7464.45 5029.25 7464.38 5043.24C7464.45 5057.94 7461.04 5071.01 7454.15 5082.44C7447.33 5093.81 7437.78 5102.75 7425.49 5109.29C7413.28 5115.75 7399.07 5118.98 7382.88 5118.98Z" fill="black"/>
<path id="204" d="M8018.68 5116V5082.76L8096.35 5010.85C8102.95 5004.46 8108.49 4998.71 8112.97 4993.59C8117.51 4988.48 8120.96 4983.47 8123.3 4978.57C8125.64 4973.6 8126.82 4968.24 8126.82 4962.48C8126.82 4956.09 8125.36 4950.59 8122.45 4945.97C8119.54 4941.28 8115.56 4937.7 8110.52 4935.21C8105.47 4932.65 8099.76 4931.38 8093.37 4931.38C8086.69 4931.38 8080.87 4932.73 8075.89 4935.42C8070.92 4938.12 8067.09 4941.99 8064.39 4947.04C8061.69 4952.08 8060.34 4958.08 8060.34 4965.04H8016.55C8016.55 4950.77 8019.79 4938.37 8026.25 4927.86C8032.71 4917.35 8041.77 4909.22 8053.41 4903.46C8065.06 4897.71 8078.49 4894.84 8093.68 4894.84C8109.31 4894.84 8122.91 4897.61 8134.49 4903.14C8146.13 4908.61 8155.19 4916.21 8161.65 4925.94C8168.12 4935.67 8171.35 4946.82 8171.35 4959.39C8171.35 4967.63 8169.71 4975.77 8166.45 4983.79C8163.25 4991.82 8157.53 5000.73 8149.3 5010.53C8141.06 5020.26 8129.44 5031.94 8114.46 5045.58L8082.61 5076.8V5078.29H8174.22V5116H8018.68ZM8293.2 5120.79C8274.87 5120.72 8259.11 5116.21 8245.9 5107.26C8232.76 5098.32 8222.64 5085.35 8215.53 5068.38C8208.5 5051.4 8205.02 5030.99 8205.09 5007.12C8205.09 4983.33 8208.61 4963.05 8215.64 4946.29C8222.74 4929.53 8232.86 4916.78 8246 4908.05C8259.21 4899.24 8274.94 4894.84 8293.2 4894.84C8311.45 4894.84 8327.15 4899.24 8340.28 4908.05C8353.49 4916.85 8363.65 4929.64 8370.75 4946.4C8377.86 4963.09 8381.37 4983.33 8381.3 5007.12C8381.3 5031.06 8377.75 5051.51 8370.65 5068.49C8363.62 5085.46 8353.53 5098.42 8340.39 5107.37C8327.25 5116.32 8311.52 5120.79 8293.2 5120.79ZM8293.2 5082.55C8305.7 5082.55 8315.68 5076.26 8323.13 5063.69C8330.59 5051.12 8334.28 5032.26 8334.21 5007.12C8334.21 4990.57 8332.51 4976.8 8329.1 4965.79C8325.76 4954.78 8321 4946.5 8314.82 4940.96C8308.71 4935.42 8301.51 4932.65 8293.2 4932.65C8280.77 4932.65 8270.82 4938.87 8263.37 4951.3C8255.91 4963.73 8252.15 4982.34 8252.07 5007.12C8252.07 5023.88 8253.74 5037.88 8257.08 5049.1C8260.49 5060.25 8265.28 5068.63 8271.46 5074.24C8277.64 5079.78 8284.89 5082.55 8293.2 5082.55ZM8410.89 5077.65V5041.32L8501.98 4897.82H8533.3V4948.1H8514.76L8457.34 5038.98V5040.68H8586.78V5077.65H8410.89ZM8515.61 5116V5066.57L8516.47 5050.48V4897.82H8559.72V5116H8515.61Z" fill="black"/>
<path id="203" d="M7967.68 3510V3476.76L8045.35 3404.85C8051.95 3398.46 8057.49 3392.71 8061.97 3387.59C8066.51 3382.48 8069.96 3377.47 8072.3 3372.57C8074.64 3367.6 8075.82 3362.24 8075.82 3356.48C8075.82 3350.09 8074.36 3344.59 8071.45 3339.97C8068.54 3335.28 8064.56 3331.7 8059.52 3329.21C8054.47 3326.65 8048.76 3325.38 8042.37 3325.38C8035.69 3325.38 8029.87 3326.73 8024.89 3329.42C8019.92 3332.12 8016.09 3335.99 8013.39 3341.04C8010.69 3346.08 8009.34 3352.08 8009.34 3359.04H7965.55C7965.55 3344.77 7968.79 3332.37 7975.25 3321.86C7981.71 3311.35 7990.77 3303.22 8002.41 3297.46C8014.06 3291.71 8027.49 3288.84 8042.68 3288.84C8058.31 3288.84 8071.91 3291.61 8083.49 3297.14C8095.13 3302.61 8104.19 3310.21 8110.65 3319.94C8117.12 3329.67 8120.35 3340.82 8120.35 3353.39C8120.35 3361.63 8118.71 3369.77 8115.45 3377.79C8112.25 3385.82 8106.53 3394.73 8098.3 3404.53C8090.06 3414.26 8078.44 3425.94 8063.46 3439.58L8031.61 3470.8V3472.29H8123.22V3510H7967.68ZM8242.2 3514.79C8223.87 3514.72 8208.11 3510.21 8194.9 3501.26C8181.76 3492.32 8171.64 3479.35 8164.53 3462.38C8157.5 3445.4 8154.02 3424.99 8154.09 3401.12C8154.09 3377.33 8157.61 3357.05 8164.64 3340.29C8171.74 3323.53 8181.86 3310.78 8195 3302.05C8208.21 3293.24 8223.94 3288.84 8242.2 3288.84C8260.45 3288.84 8276.15 3293.24 8289.28 3302.05C8302.49 3310.85 8312.65 3323.64 8319.75 3340.4C8326.86 3357.09 8330.37 3377.33 8330.3 3401.12C8330.3 3425.06 8326.75 3445.51 8319.65 3462.49C8312.62 3479.46 8302.53 3492.42 8289.39 3501.37C8276.25 3510.32 8260.52 3514.79 8242.2 3514.79ZM8242.2 3476.55C8254.7 3476.55 8264.68 3470.26 8272.13 3457.69C8279.59 3445.12 8283.28 3426.26 8283.21 3401.12C8283.21 3384.57 8281.51 3370.8 8278.1 3359.79C8274.76 3348.78 8270 3340.5 8263.82 3334.96C8257.71 3329.42 8250.51 3326.65 8242.2 3326.65C8229.77 3326.65 8219.82 3332.87 8212.37 3345.3C8204.91 3357.73 8201.15 3376.34 8201.07 3401.12C8201.07 3417.88 8202.74 3431.88 8206.08 3443.1C8209.49 3454.25 8214.28 3462.63 8220.46 3468.24C8226.64 3473.78 8233.89 3476.55 8242.2 3476.55ZM8443.84 3512.98C8427.93 3512.98 8413.76 3510.25 8401.33 3504.78C8388.97 3499.24 8379.21 3491.64 8372.03 3481.98C8364.93 3472.25 8361.27 3461.03 8361.06 3448.32H8407.51C8407.79 3453.64 8409.53 3458.33 8412.73 3462.38C8416 3466.36 8420.33 3469.45 8425.73 3471.65C8431.13 3473.85 8437.2 3474.95 8443.95 3474.95C8450.98 3474.95 8457.19 3473.71 8462.59 3471.22C8467.99 3468.74 8472.21 3465.29 8475.27 3460.89C8478.32 3456.48 8479.85 3451.41 8479.85 3445.65C8479.85 3439.83 8478.21 3434.68 8474.95 3430.21C8471.75 3425.66 8467.13 3422.11 8461.1 3419.55C8455.13 3417 8448.03 3415.72 8439.79 3415.72H8419.44V3381.84H8439.79C8446.75 3381.84 8452.89 3380.63 8458.22 3378.22C8463.62 3375.8 8467.81 3372.46 8470.79 3368.2C8473.77 3363.87 8475.27 3358.83 8475.27 3353.08C8475.27 3347.61 8473.95 3342.81 8471.32 3338.69C8468.77 3334.5 8465.15 3331.24 8460.46 3328.89C8455.84 3326.55 8450.44 3325.38 8444.26 3325.38C8438.01 3325.38 8432.3 3326.51 8427.11 3328.79C8421.93 3330.99 8417.77 3334.15 8414.65 3338.27C8411.52 3342.39 8409.85 3347.22 8409.64 3352.76H8365.43C8365.64 3340.18 8369.23 3329.11 8376.19 3319.52C8383.15 3309.93 8392.52 3302.44 8404.31 3297.04C8416.18 3291.57 8429.56 3288.84 8444.48 3288.84C8459.53 3288.84 8472.71 3291.57 8484 3297.04C8495.29 3302.51 8504.07 3309.89 8510.32 3319.2C8516.64 3328.43 8519.76 3338.8 8519.69 3350.31C8519.76 3362.52 8515.96 3372.71 8508.29 3380.88C8500.69 3389.05 8490.78 3394.23 8478.57 3396.43V3398.14C8494.62 3400.2 8506.84 3405.77 8515.22 3414.87C8523.67 3423.88 8527.86 3435.18 8527.79 3448.74C8527.86 3461.17 8524.27 3472.22 8517.03 3481.88C8509.85 3491.53 8499.95 3499.13 8487.3 3504.67C8474.66 3510.21 8460.17 3512.98 8443.84 3512.98Z" fill="black"/>
<path id="201" d="M6758.68 3170V3136.76L6836.35 3064.85C6842.95 3058.46 6848.49 3052.71 6852.97 3047.59C6857.51 3042.48 6860.96 3037.47 6863.3 3032.57C6865.64 3027.6 6866.82 3022.24 6866.82 3016.48C6866.82 3010.09 6865.36 3004.59 6862.45 2999.97C6859.54 2995.28 6855.56 2991.7 6850.52 2989.21C6845.47 2986.65 6839.76 2985.38 6833.37 2985.38C6826.69 2985.38 6820.87 2986.73 6815.89 2989.42C6810.92 2992.12 6807.09 2995.99 6804.39 3001.04C6801.69 3006.08 6800.34 3012.08 6800.34 3019.04H6756.55C6756.55 3004.77 6759.79 2992.37 6766.25 2981.86C6772.71 2971.35 6781.77 2963.22 6793.41 2957.46C6805.06 2951.71 6818.49 2948.84 6833.68 2948.84C6849.31 2948.84 6862.91 2951.61 6874.49 2957.14C6886.13 2962.61 6895.19 2970.21 6901.65 2979.94C6908.12 2989.67 6911.35 3000.82 6911.35 3013.39C6911.35 3021.63 6909.71 3029.77 6906.45 3037.79C6903.25 3045.82 6897.53 3054.73 6889.3 3064.53C6881.06 3074.26 6869.44 3085.94 6854.46 3099.58L6822.61 3130.8V3132.29H6914.22V3170H6758.68ZM7033.2 3174.79C7014.87 3174.72 6999.11 3170.21 6985.9 3161.26C6972.76 3152.32 6962.64 3139.35 6955.53 3122.38C6948.5 3105.4 6945.02 3084.99 6945.09 3061.12C6945.09 3037.33 6948.61 3017.05 6955.64 3000.29C6962.74 2983.53 6972.86 2970.78 6986 2962.05C6999.21 2953.24 7014.94 2948.84 7033.2 2948.84C7051.45 2948.84 7067.15 2953.24 7080.28 2962.05C7093.49 2970.85 7103.65 2983.64 7110.75 3000.4C7117.86 3017.09 7121.37 3037.33 7121.3 3061.12C7121.3 3085.06 7117.75 3105.51 7110.65 3122.49C7103.62 3139.46 7093.53 3152.42 7080.39 3161.37C7067.25 3170.32 7051.52 3174.79 7033.2 3174.79ZM7033.2 3136.55C7045.7 3136.55 7055.68 3130.26 7063.13 3117.69C7070.59 3105.12 7074.28 3086.26 7074.21 3061.12C7074.21 3044.57 7072.51 3030.8 7069.1 3019.79C7065.76 3008.78 7061 3000.5 7054.82 2994.96C7048.71 2989.42 7041.51 2986.65 7033.2 2986.65C7020.77 2986.65 7010.82 2992.87 7003.37 3005.3C6995.91 3017.73 6992.15 3036.34 6992.07 3061.12C6992.07 3077.88 6993.74 3091.88 6997.08 3103.1C7000.49 3114.25 7005.28 3122.63 7011.46 3128.24C7017.64 3133.78 7024.89 3136.55 7033.2 3136.55ZM7249.11 2951.82V3170H7202.99V2995.6H7201.71L7151.74 3026.92V2986.02L7205.75 2951.82H7249.11Z" fill="black"/>
<path id="215" d="M4544.79 1890V1867.84L4596.57 1819.9C4600.97 1815.64 4604.66 1811.8 4607.64 1808.39C4610.68 1804.99 4612.97 1801.65 4614.53 1798.38C4616.1 1795.07 4616.88 1791.49 4616.88 1787.66C4616.88 1783.39 4615.91 1779.73 4613.97 1776.65C4612.02 1773.52 4609.37 1771.13 4606.01 1769.47C4602.65 1767.77 4598.84 1766.92 4594.58 1766.92C4590.13 1766.92 4586.24 1767.82 4582.93 1769.62C4579.61 1771.42 4577.06 1774 4575.26 1777.36C4573.46 1780.72 4572.56 1784.72 4572.56 1789.36H4543.37C4543.37 1779.84 4545.52 1771.58 4549.83 1764.57C4554.14 1757.57 4560.18 1752.14 4567.94 1748.31C4575.71 1744.47 4584.66 1742.56 4594.79 1742.56C4605.21 1742.56 4614.27 1744.4 4621.99 1748.1C4629.76 1751.74 4635.79 1756.81 4640.1 1763.3C4644.41 1769.78 4646.57 1777.22 4646.57 1785.6C4646.57 1791.09 4645.48 1796.51 4643.3 1801.86C4641.17 1807.21 4637.36 1813.15 4631.86 1819.69C4626.37 1826.17 4618.63 1833.96 4608.64 1843.05L4587.4 1863.86V1864.86H4648.48V1890H4544.79ZM4734.05 1744.55V1890H4703.29V1773.74H4702.44L4669.13 1794.62V1767.34L4705.14 1744.55H4734.05ZM4821.74 1891.99C4811.71 1891.99 4802.76 1890.14 4794.9 1886.45C4787.08 1882.76 4780.88 1877.67 4776.29 1871.18C4771.7 1864.69 4769.3 1857.26 4769.12 1848.88H4798.94C4799.28 1854.51 4801.64 1859.08 4806.05 1862.59C4810.45 1866.09 4815.68 1867.84 4821.74 1867.84C4826.57 1867.84 4830.83 1866.78 4834.53 1864.64C4838.27 1862.47 4841.18 1859.46 4843.26 1855.62C4845.39 1851.74 4846.46 1847.29 4846.46 1842.27C4846.46 1837.16 4845.37 1832.66 4843.19 1828.78C4841.06 1824.9 4838.1 1821.87 4834.31 1819.69C4830.53 1817.51 4826.19 1816.4 4821.32 1816.35C4817.06 1816.35 4812.91 1817.23 4808.89 1818.98C4804.91 1820.73 4801.81 1823.12 4799.58 1826.15L4772.24 1821.25L4779.13 1744.55H4868.05V1769.69H4804.48L4800.72 1806.12H4801.57C4804.13 1802.52 4807.99 1799.54 4813.15 1797.17C4818.31 1794.81 4824.09 1793.62 4830.48 1793.62C4839.24 1793.62 4847.05 1795.68 4853.92 1799.8C4860.78 1803.92 4866.2 1809.58 4870.18 1816.78C4874.16 1823.93 4876.12 1832.16 4876.08 1841.49C4876.12 1851.29 4873.85 1860 4869.26 1867.63C4864.71 1875.2 4858.34 1881.17 4850.15 1885.53C4842.01 1889.83 4832.54 1891.99 4821.74 1891.99Z" fill="black"/>
<path id="216" d="M5238.79 1890V1867.84L5290.57 1819.9C5294.97 1815.64 5298.66 1811.8 5301.64 1808.39C5304.68 1804.99 5306.97 1801.65 5308.53 1798.38C5310.1 1795.07 5310.88 1791.49 5310.88 1787.66C5310.88 1783.39 5309.91 1779.73 5307.97 1776.65C5306.02 1773.52 5303.37 1771.13 5300.01 1769.47C5296.65 1767.77 5292.84 1766.92 5288.58 1766.92C5284.13 1766.92 5280.24 1767.82 5276.93 1769.62C5273.61 1771.42 5271.06 1774 5269.26 1777.36C5267.46 1780.72 5266.56 1784.72 5266.56 1789.36H5237.37C5237.37 1779.84 5239.52 1771.58 5243.83 1764.57C5248.14 1757.57 5254.18 1752.14 5261.94 1748.31C5269.71 1744.47 5278.66 1742.56 5288.79 1742.56C5299.21 1742.56 5308.27 1744.4 5315.99 1748.1C5323.76 1751.74 5329.79 1756.81 5334.1 1763.3C5338.41 1769.78 5340.57 1777.22 5340.57 1785.6C5340.57 1791.09 5339.48 1796.51 5337.3 1801.86C5335.17 1807.21 5331.36 1813.15 5325.86 1819.69C5320.37 1826.17 5312.63 1833.96 5302.64 1843.05L5281.4 1863.86V1864.86H5342.48V1890H5238.79ZM5428.05 1744.55V1890H5397.29V1773.74H5396.44L5363.13 1794.62V1767.34L5399.14 1744.55H5428.05ZM5518.44 1891.99C5510.96 1891.94 5503.74 1890.69 5496.78 1888.22C5489.87 1885.76 5483.66 1881.76 5478.17 1876.22C5472.68 1870.68 5468.32 1863.34 5465.1 1854.2C5461.93 1845.07 5460.35 1833.84 5460.35 1820.54C5460.39 1808.32 5461.79 1797.41 5464.54 1787.8C5467.33 1778.14 5471.31 1769.95 5476.47 1763.22C5481.68 1756.5 5487.9 1751.39 5495.15 1747.88C5502.39 1744.33 5510.51 1742.56 5519.51 1742.56C5529.21 1742.56 5537.78 1744.45 5545.22 1748.24C5552.65 1751.98 5558.62 1757.07 5563.12 1763.51C5567.66 1769.95 5570.41 1777.17 5571.35 1785.17H5541.03C5539.84 1780.1 5537.36 1776.13 5533.57 1773.24C5529.78 1770.35 5525.09 1768.91 5519.51 1768.91C5510.04 1768.91 5502.84 1773.03 5497.92 1781.26C5493.04 1789.5 5490.55 1800.7 5490.46 1814.86H5491.45C5493.63 1810.55 5496.57 1806.88 5500.26 1803.85C5504 1800.77 5508.24 1798.43 5512.97 1796.82C5517.76 1795.16 5522.8 1794.33 5528.1 1794.33C5536.72 1794.33 5544.39 1796.37 5551.11 1800.44C5557.84 1804.46 5563.14 1810 5567.02 1817.06C5570.9 1824.11 5572.85 1832.19 5572.85 1841.28C5572.85 1851.13 5570.55 1859.89 5565.96 1867.56C5561.41 1875.23 5555.04 1881.24 5546.85 1885.6C5538.71 1889.91 5529.24 1892.04 5518.44 1891.99ZM5518.3 1867.84C5523.03 1867.84 5527.27 1866.7 5531.01 1864.43C5534.75 1862.16 5537.69 1859.08 5539.82 1855.2C5541.95 1851.32 5543.02 1846.96 5543.02 1842.13C5543.02 1837.3 5541.95 1832.97 5539.82 1829.13C5537.74 1825.3 5534.85 1822.24 5531.15 1819.97C5527.46 1817.7 5523.25 1816.56 5518.51 1816.56C5514.96 1816.56 5511.67 1817.23 5508.64 1818.55C5505.66 1819.88 5503.03 1821.72 5500.76 1824.09C5498.53 1826.46 5496.78 1829.2 5495.5 1832.33C5494.22 1835.41 5493.58 1838.7 5493.58 1842.2C5493.58 1846.89 5494.65 1851.17 5496.78 1855.06C5498.96 1858.94 5501.89 1862.04 5505.59 1864.36C5509.33 1866.68 5513.56 1867.84 5518.3 1867.84Z" fill="black"/>
<path id="Vector 150" d="M3725 1547.5H4003.5V1495.5H3725V1434H4003.5V1369H3725V1307.5H4003.5V1239.5H3725V1165H4003.5V1103.5H3725" stroke="#242424" stroke-width="13"/>
<path id="Vector 152" d="M6148 1547H6426.5V1495H6148V1433.5H6426.5V1368.5H6148V1307H6426.5V1239H6148V1164.5H6426.5V1103H6148" stroke="#242424" stroke-width="13"/>
<path id="Vector 153" d="M5794 1696H6072.5V1644H5794V1582.5H6072.5V1517.5H5794V1456H6072.5V1388H5794V1313.5H6072.5V1252H5794" stroke="#242424" stroke-width="13"/>
<path id="Vector 151" d="M4034 1696H4340V1644H4034V1582.5H4340V1517.5H4034V1456H4340V1388H4034V1313.5H4340V1252H4034" stroke="#242424" stroke-width="13"/>
<path id="&#208;&#187;&#208;&#184;&#209;&#132;&#209;&#130;" d="M4824.68 2744L4824.54 2719.99H4828.16C4830.72 2719.99 4832.92 2719.38 4834.77 2718.15C4836.66 2716.87 4838.22 2714.81 4839.45 2711.97C4840.69 2709.13 4841.66 2705.36 4842.37 2700.68C4843.08 2695.94 4843.55 2690.12 4843.79 2683.2L4845.56 2634.91H4928.52V2744H4899.68V2658.7H4872.76L4871.06 2692.01C4870.63 2701.15 4869.52 2709.01 4867.72 2715.59C4865.97 2722.17 4863.53 2727.57 4860.41 2731.78C4857.28 2735.95 4853.52 2739.03 4849.11 2741.02C4844.71 2743.01 4839.6 2744 4833.77 2744H4824.68ZM4980.88 2704.09L5020.15 2634.91H5049.98V2744H5021.15V2674.61L4982.01 2744H4951.97V2634.91H4980.88V2704.09ZM5126.44 2781.07V2598.55H5156.62V2781.07H5126.44ZM5126.44 2746.13C5118.06 2746.13 5110.41 2744.78 5103.5 2742.08C5096.59 2739.34 5090.62 2735.48 5085.6 2730.51C5080.58 2725.49 5076.7 2719.54 5073.95 2712.68C5071.21 2705.77 5069.83 2698.17 5069.83 2689.88C5069.83 2681.5 5071.21 2673.88 5073.95 2667.01C5076.7 2660.1 5080.58 2654.16 5085.6 2649.18C5090.62 2644.17 5096.59 2640.31 5103.5 2637.61C5110.41 2634.86 5118.06 2633.49 5126.44 2633.49H5132.05V2746.13H5126.44ZM5126.44 2722.55H5129.78V2657.07H5126.44C5122.37 2657.07 5118.75 2657.92 5115.57 2659.62C5112.4 2661.33 5109.73 2663.67 5107.55 2666.66C5105.37 2669.59 5103.71 2673.05 5102.58 2677.03C5101.49 2681 5100.94 2685.29 5100.94 2689.88C5100.94 2695.94 5101.94 2701.46 5103.93 2706.43C5105.91 2711.35 5108.83 2715.28 5112.66 2718.22C5116.5 2721.11 5121.09 2722.55 5126.44 2722.55ZM5156.62 2746.13H5151.01V2633.49H5156.62C5165 2633.49 5172.65 2634.86 5179.56 2637.61C5186.48 2640.31 5192.44 2644.17 5197.46 2649.18C5202.48 2654.16 5206.36 2660.1 5209.11 2667.01C5211.86 2673.88 5213.23 2681.5 5213.23 2689.88C5213.23 2698.17 5211.86 2705.77 5209.11 2712.68C5206.36 2719.54 5202.48 2725.49 5197.46 2730.51C5192.44 2735.48 5186.48 2739.34 5179.56 2742.08C5172.65 2744.78 5165 2746.13 5156.62 2746.13ZM5156.62 2722.55C5160.7 2722.55 5164.32 2721.72 5167.49 2720.07C5170.66 2718.36 5173.34 2716.02 5175.52 2713.03C5177.69 2710.05 5179.35 2706.59 5180.49 2702.66C5181.62 2698.69 5182.19 2694.43 5182.19 2689.88C5182.19 2683.77 5181.17 2678.26 5179.14 2673.33C5177.15 2668.36 5174.26 2664.41 5170.47 2661.47C5166.69 2658.54 5162.07 2657.07 5156.62 2657.07H5153.29V2722.55H5156.62ZM5222.46 2658.7V2634.91H5321.33V2658.7H5286.17V2744H5257.33V2658.7H5222.46Z" fill="black"/>
</g>
</svg>
