<svg width="9673" height="8789" viewBox="0 0 9673 8789" fill="none" xmlns="http://www.w3.org/2000/svg">
<g id="plan-18corpus-1" clip-path="url(#clip0_98_230)">
<rect width="9623" height="8733.77" transform="translate(0 54.6328) rotate(-0.325286)" fill="white"/>
<path id="Rectangle 179" d="M857.591 3737.12L2875.56 3725.66L2874.32 3507.67L3256.35 3370.79L3250.77 2388.51L4108.96 2383.64L4111.03 2748.86L5343.51 2741.86L5341.43 2374.64L6217.92 2369.66L6223.5 3353.94L6581.74 3485.31L6582.9 3690.11L8808.3 3663.48L8832.59 7940.91L881.713 7986.05L857.591 3737.12Z" fill="#242424"/>
<g id="Rectangle 180">
<path d="M3307.73 2433.19L3539.5 2431.87L3546.95 3743.85L3315.17 3745.17L3314.97 3709.17L3232.97 3709.63L3232.05 3548.13L3314.05 3547.67L3307.73 2433.19Z" fill="#9CC7E5"/>
<path d="M3583.46 2431.62L3830.72 2430.22L3837.13 3559.2L3914.63 3558.76L3915.46 3705.76L3837.96 3706.2L3838.17 3742.2L3590.91 3743.6L3583.46 2431.62Z" fill="#9CC7E5"/>
</g>
<g id="Rectangle 217">
<path d="M5624.69 2420.04L5868.18 2418.65L5875.5 3706.63L5632 3708.01L5624.69 2420.04Z" fill="#9CC7E5"/>
<path d="M5916.18 2418.38L6161.68 2416.99L6168.09 3546.97L6239.09 3546.57L6239.88 3685.06L6168.88 3685.47L6168.99 3704.97L5923.5 3706.36L5916.18 2418.38Z" fill="#9CC7E5"/>
</g>
<path id="Rectangle 181" d="M2937.95 3530.3L3249.86 3425.53L3251.68 3746.03L2939.19 3747.8L2939 3715.3L2876 3715.66L2875.11 3558.66L2938.11 3558.3L2937.95 3530.3Z" fill="#9CC7E5"/>
<path id="Rectangle 216" d="M6538.43 3515.86L6225.35 3414.64L6226.99 3705.13L6539.49 3703.36L6539.35 3678.36L6582.85 3678.11L6582.14 3554.11L6538.64 3554.36L6538.43 3515.86Z" fill="#9CC7E5"/>
<path id="Rectangle 215" d="M3872.72 2430.48L4069.22 2429.36L4071.03 2748.86L3874.53 2749.98L3872.72 2430.48Z" fill="#9CC7E5"/>
<path id="Rectangle 218" d="M5384.7 2422.39L5581.2 2421.28L5583.01 2740.77L5386.51 2741.89L5384.7 2422.39Z" fill="#9CC7E5"/>
<path id="109room" d="M3880.76 2789.94L4275.76 2787.7L4279.76 3493.69L4226.76 3493.99L4227.02 3539.49L4086.52 3540.29L4086.27 3494.79L3884.77 3495.93L3880.76 2789.94Z" fill="#68C1FF"/>
<path id="Rectangle 220" d="M5189.74 2782.51L5584.73 2780.27L5589.99 3705.25L5194.99 3707.5L5191.06 3014.51L5129.56 3014.86L5128.68 2860.36L5190.18 2860.01L5189.74 2782.51Z" fill="#9CC7E5"/>
<path id="Rectangle 221" d="M4310.75 2787.5L4476.75 2786.56L4476.51 2744.06L4624.51 2743.22L4624.75 2785.72L4713.75 2785.21L4715.67 3123.77L4582.15 3124.52L4582.4 3169.96L4449.37 3170.72L4449.11 3125.28L4312.68 3126.05L4310.75 2787.5Z" fill="#9CC7E5"/>
<path id="Rectangle 235" d="M5147.74 2782.75L4959.24 2783.82L4959.01 2743.32L4820.02 2744.11L4820.25 2784.61L4742.75 2785.05L4744.67 3123.6L4878.85 3122.84L4879.11 3168.28L5012.81 3167.52L5012.55 3122.08L5149.66 3121.3L5147.74 2782.75Z" fill="#9CC7E5"/>
<path id="Rectangle 223" d="M4312.84 3154.99L5149.83 3150.24L5151.96 3526.24L5153.25 3752.23L5587.24 3749.77L5593.4 4834.25L5487.4 4834.85L5487.71 4890.85L5346.72 4891.65L5346.4 4835.65L5129.9 4836.88L5125.97 4144.39L4380.48 4148.63L4384.41 4841.11L4144.92 4842.47L4145.24 4898.47L4002.24 4899.29L4001.92 4843.29L3898.92 4843.87L3892.51 3714.89L3891.43 3523.39L4314.92 3520.99L4312.84 3154.99Z" fill="#9CC7E5"/>
<path id="102room" d="M6227.27 3753.63L8717.23 3739.5L8714.94 5273.53L6785.47 5284.49L6785.98 5374.99L6582.49 5376.14L6581.97 5285.64L6235.98 5287.61L6227.27 3753.63Z" fill="#9CC7E5"/>
<path id="101room" d="M5632.28 3757.01L6177.27 3753.92L6185.54 5209.9L5640.55 5212.99L5633.94 4050.01L5563.44 4050.41L5562.62 3905.91L5633.12 3905.51L5632.28 3757.01Z" fill="#94D3FF"/>
<path id="Rectangle 228" d="M6236.29 5342.61L8722.25 5328.49L8725.03 5818.49L6239.07 5832.6L6238.17 5673.6L6138.17 5674.17L6137 5468.17L6237 5467.61L6236.29 5342.61Z" fill="#9CC7E5"/>
<rect id="unknown" x="4302.66" y="4884.58" width="914" height="400" transform="rotate(-0.325286 4302.66 4884.58)" fill="#9CC7E5"/>
<path id="104room" d="M4918.37 5888.1L5123.87 5886.93L5123.39 5803.43L5338.39 5802.21L5338.86 5885.71L7930.32 5871L7941.53 7845.97L4929.58 7863.07L4918.37 5888.1Z" fill="#9CC7E5"/>
<path id="106room" d="M1336.73 6403.06L1333.63 5856.45L1654.63 5854.63L1654.95 5912.63L4420.41 5896.93L4419.8 5789.43L4611.8 5788.34L4612.41 5895.84L4853.4 5894.47L4864.62 7870.44L960.684 7892.6L952.24 6405.25L1336.73 6403.06Z" fill="#9CC7E5"/>
<path id="corridor" d="M3280.21 5336.39L3908.2 5332.82L3905.67 4887.33L4254.16 4885.35L4256.69 5330.85L5270.68 5325.09L5268.15 4879.6L5580.64 4877.82L5582.83 5263.82L6185.82 5260.39L6189.13 5842.88L4894.65 5850.23L3600.17 5857.58L1333.71 5870.45L1330.6 5322.46L2115.09 5318L2116.16 5506.5L3281.14 5499.89L3280.21 5336.39Z" fill="#9CC7E5"/>
<path id="108room" d="M2720.44 3793.54L3838.42 3787.2L3840.83 4210.69L3918.33 4210.25L3919.06 4340.25L3841.57 4340.69L3846.89 5278.67L3274.4 5281.92L3271.7 4806.43L2726.21 4809.53L2720.44 3793.54Z" fill="#9CC7E5"/>
<g id="18WC-1">
<path d="M2168.45 4853.7L2680.44 4850.79L2682.29 5176.28L2916.29 5174.96L2917.83 5446.95L2841.33 5447.39L2841.73 5518.39L2723.74 5519.06L2723.33 5448.06L2171.84 5451.19L2168.45 4853.7Z" fill="#6698BA"/>
<path d="M2720.44 4850.56L3227.43 4847.68L3230.85 5448.67L3139.35 5449.19L3139.68 5507.69L3025.18 5508.34L3024.85 5449.84L2956.85 5450.23L2955.07 5136.23L2722.07 5137.56L2720.44 4850.56Z" fill="#6698BA"/>
</g>
<path id="WC" d="M2310.38 5123L2268.76 4977.55L2302.36 4977.55L2326.43 5078.61L2327.64 5078.61L2354.2 4977.55L2382.97 4977.55L2409.46 5078.82L2410.74 5078.82L2434.82 4977.55L2468.41 4977.55L2426.79 5123L2396.82 5123L2369.12 5027.9L2367.98 5027.9L2340.36 5123L2310.38 5123ZM2605 5028.47L2573.9 5028.47C2573.33 5024.44 2572.17 5020.87 2570.42 5017.74C2568.66 5014.57 2566.41 5011.87 2563.67 5009.65C2560.92 5007.42 2557.75 5005.72 2554.15 5004.53C2550.6 5003.35 2546.74 5002.76 2542.57 5002.76C2535.05 5002.76 2528.49 5004.63 2522.9 5008.37C2517.31 5012.06 2512.98 5017.46 2509.9 5024.56C2506.83 5031.62 2505.29 5040.19 2505.29 5050.27C2505.29 5060.64 2506.83 5069.35 2509.9 5076.41C2513.03 5083.46 2517.39 5088.79 2522.97 5092.39C2528.56 5095.99 2535.02 5097.79 2542.36 5097.79C2546.48 5097.79 2550.29 5097.24 2553.8 5096.15C2557.35 5095.06 2560.5 5093.48 2563.24 5091.39C2565.99 5089.26 2568.26 5086.68 2570.06 5083.65C2571.91 5080.62 2573.19 5077.17 2573.9 5073.28L2605 5073.43C2604.2 5080.1 2602.19 5086.54 2598.97 5092.74C2595.79 5098.9 2591.51 5104.42 2586.11 5109.29C2580.76 5114.12 2574.37 5117.96 2566.94 5120.8C2559.55 5123.59 2551.19 5124.99 2541.86 5124.99C2528.89 5124.99 2517.29 5122.05 2507.06 5116.18C2496.88 5110.31 2488.83 5101.81 2482.92 5090.68C2477.04 5079.56 2474.11 5066.09 2474.11 5050.27C2474.11 5034.41 2477.09 5020.92 2483.06 5009.79C2489.02 4998.66 2497.12 4990.19 2507.35 4984.36C2517.57 4978.49 2529.08 4975.56 2541.86 4975.56C2550.29 4975.56 2558.1 4976.74 2565.3 4979.11C2572.55 4981.48 2578.96 4984.93 2584.55 4989.48C2590.14 4993.98 2594.68 4999.49 2598.19 5006.03C2601.74 5012.56 2604.01 5020.04 2605 5028.47Z" fill="black"/>
<path id="107room" d="M1434.46 3800.84L2674.44 3793.8L2680.15 4799.79L2113.16 4803.01L2116.11 5322.5L1922.61 5323.6L1922.3 5268.1L1442.81 5270.82L1440.17 4806.83L1434.46 3800.84Z" fill="#9CC7E5"/>
<path id="Rectangle 288" d="M937.467 3803.67L1378.46 3801.16L1386.81 5271.14L1170.31 5272.37L1170.84 5365.37L1029.34 5366.17L1028.81 5273.17L945.813 5273.64L938.714 4023.16L855.715 4023.63L854.946 3888.14L937.944 3887.66L937.467 3803.67Z" fill="#9CC7E5"/>
<rect id="Rectangle 347" x="946.137" y="5330.64" width="328" height="429" transform="rotate(-0.325286 946.137 5330.64)" fill="#9CC7E5"/>
<path id="Rectangle 348" d="M948.831 5804.63L1276.83 5802.77L1279.88 6340.76L951.885 6342.62L951.281 6236.12L876.782 6236.55L875.944 6089.05L950.443 6088.63L948.831 5804.63Z" fill="#9CC7E5"/>
<path id="Rectangle 368" d="M8384.36 5875.92L8725.35 5873.99L8726.52 6080.48L8385.53 6082.42L8384.36 5875.92Z" fill="#9CC7E5"/>
<path id="Rectangle 369" d="M7991.87 5791.65L8324.87 5789.76L8330.05 6703.24L7997.06 6705.13L7991.87 5791.65Z" fill="#9CC7E5"/>
<path id="Rectangle 370" d="M8380.81 6132.94L8449.81 6132.55L8449.33 6048.55L8539.83 6048.04L8540.31 6132.04L8726.81 6130.98L8731.58 6970.97L8385.58 6972.93L8382.68 6462.44L8380.81 6132.94Z" fill="#9CC7E5"/>
<path id="Vector" d="M7993.32 6752.66L8137.82 6751.84L8137.41 6678.34L8257.4 6677.66L8257.82 6751.16L8330.32 6750.74L8331.84 7018.24L8737.83 7015.93L8739.02 7224.43L8740.8 7538.93L8442.81 7540.62L8443.1 7592.12L8741.09 7590.43L8742.48 7833.92L8550.98 7835.01L8550.02 7665.51L8490.52 7665.85L8491.48 7835.35L7999.49 7838.14L7998.11 7594.64L8266.1 7593.12L8265.81 7541.62L7997.81 7543.14L7998.11 7348L8377.02 7348L8377.02 7294L7914.15 7294L7914.15 7074.11L7995.15 7073.65L7993.32 6752.66Z" fill="#9CC7E5"/>
<path id="&#208;&#178;&#208;&#176;&#209;&#133;&#209;&#130;&#208;&#176;" d="M4136.58 3373.96L4043.85 3374.49L4043.63 3334.95C4043.56 3323.52 4045.69 3314.47 4050 3307.81C4054.3 3301.14 4060.46 3297.79 4068.47 3297.74C4073.5 3297.71 4077.7 3299.56 4081.06 3303.28C4084.42 3307.01 4086.71 3312.19 4087.91 3318.82C4088.28 3313.26 4089.52 3308.53 4091.63 3304.61C4093.7 3300.66 4096.4 3297.64 4099.73 3295.57C4103.06 3293.46 4106.76 3292.39 4110.82 3292.37C4116.09 3292.34 4120.63 3293.72 4124.43 3296.52C4128.23 3299.27 4131.15 3303.34 4133.19 3308.72C4135.23 3314.06 4136.28 3320.6 4136.32 3328.33L4136.58 3373.96ZM4117.19 3350.11L4117.06 3328.44C4117.04 3324.85 4116.18 3322.06 4114.48 3320.06C4112.74 3318.02 4110.38 3317 4107.4 3317.02C4104.1 3317.04 4101.51 3318.08 4099.63 3320.14C4097.75 3322.17 4096.82 3324.97 4096.84 3328.55L4096.96 3350.22L4117.19 3350.11ZM4081.87 3350.31L4081.78 3334.19C4081.76 3331.61 4081.39 3329.42 4080.66 3327.62C4079.88 3325.77 4078.79 3324.37 4077.37 3323.41C4075.96 3322.41 4074.28 3321.92 4072.35 3321.93C4069.49 3321.94 4067.27 3323.1 4065.67 3325.41C4064.07 3327.71 4063.29 3330.85 4063.31 3334.84L4063.4 3350.41L4081.87 3350.31ZM4137.62 3249.57C4137.66 3255.48 4136.66 3260.76 4134.64 3265.4C4132.57 3270.04 4129.51 3273.72 4125.46 3276.44C4121.37 3279.12 4116.27 3280.48 4110.15 3280.51C4105 3280.54 4100.67 3279.62 4097.15 3277.75C4093.64 3275.88 4090.81 3273.32 4088.66 3270.07C4086.51 3266.82 4084.88 3263.13 4083.77 3258.99C4082.66 3254.81 4081.87 3250.43 4081.4 3245.84C4080.8 3240.45 4080.26 3236.11 4079.75 3232.81C4079.21 3229.51 4078.43 3227.12 4077.42 3225.64C4076.41 3224.16 4074.91 3223.42 4072.94 3223.43L4072.58 3223.43C4068.75 3223.45 4065.8 3224.68 4063.72 3227.1C4061.64 3229.49 4060.62 3232.88 4060.64 3237.26C4060.67 3241.89 4061.72 3245.57 4063.78 3248.29C4065.81 3251.02 4068.36 3252.82 4071.42 3253.68L4069.62 3277.48C4063.98 3276.31 4059.1 3273.96 4054.98 3270.44C4050.81 3266.92 4047.6 3262.37 4045.36 3256.79C4043.07 3251.17 4041.91 3244.66 4041.87 3237.25C4041.84 3232.1 4042.41 3227.17 4043.59 3222.45C4044.77 3217.69 4046.62 3213.48 4049.14 3209.8C4051.65 3206.08 4054.89 3203.15 4058.87 3200.99C4062.8 3198.84 4067.52 3197.74 4073.04 3197.71L4135.58 3197.36L4135.72 3221.75L4122.86 3221.82L4122.86 3222.54C4125.77 3224.02 4128.33 3225.99 4130.56 3228.48C4132.75 3230.96 4134.48 3233.95 4135.74 3237.44C4136.97 3240.94 4137.6 3244.98 4137.62 3249.57ZM4119.83 3242.3C4119.81 3238.52 4119.05 3235.18 4117.54 3232.29C4116 3229.4 4113.93 3227.14 4111.35 3225.51C4108.76 3223.87 4105.84 3223.06 4102.58 3223.08L4092.74 3223.14C4093.27 3223.94 4093.76 3225.04 4094.21 3226.45C4094.62 3227.82 4095.01 3229.36 4095.38 3231.09C4095.71 3232.82 4096.02 3234.55 4096.32 3236.28C4096.57 3238.01 4096.8 3239.57 4097.01 3240.98C4097.47 3244 4098.19 3246.63 4099.16 3248.88C4100.14 3251.13 4101.46 3252.87 4103.12 3254.11C4104.74 3255.35 4106.75 3255.96 4109.17 3255.95C4112.67 3255.93 4115.34 3254.64 4117.17 3252.1C4118.97 3249.51 4119.86 3246.25 4119.83 3242.3ZM4042.62 3156.44L4074.94 3139.23L4042.42 3121.97L4042.27 3095.59L4088.79 3122.19L4134.99 3094.34L4135.14 3120.6L4103.19 3139.07L4135.35 3156.88L4135.5 3183.44L4088.98 3156.18L4042.77 3183L4042.62 3156.44ZM4062.43 3085.03L4042.21 3085.15L4041.73 3001.11L4061.96 3001L4062.13 3030.88L4134.63 3030.47L4134.77 3054.98L4062.27 3055.39L4062.43 3085.03ZM4135.99 2961.87C4136.02 2967.78 4135.03 2973.06 4133 2977.7C4130.94 2982.34 4127.88 2986.02 4123.83 2988.74C4119.74 2991.42 4114.63 2992.78 4108.52 2992.81C4103.37 2992.84 4099.03 2991.92 4095.52 2990.05C4092.01 2988.17 4089.18 2985.62 4087.03 2982.37C4084.87 2979.12 4083.24 2975.43 4082.13 2971.29C4081.02 2967.11 4080.23 2962.73 4079.76 2958.14C4079.17 2952.75 4078.62 2948.41 4078.12 2945.11C4077.58 2941.81 4076.8 2939.42 4075.79 2937.94C4074.77 2936.45 4073.28 2935.72 4071.31 2935.73L4070.94 2935.73C4067.12 2935.75 4064.17 2936.98 4062.09 2939.4C4060.01 2941.79 4058.98 2945.18 4059.01 2949.56C4059.04 2954.19 4060.08 2957.87 4062.15 2960.59C4064.18 2963.32 4066.72 2965.12 4069.79 2965.98L4067.99 2989.78C4062.35 2988.6 4057.47 2986.26 4053.34 2982.74C4049.18 2979.22 4045.97 2974.67 4043.73 2969.09C4041.44 2963.47 4040.28 2956.96 4040.23 2949.55C4040.2 2944.4 4040.78 2939.47 4041.96 2934.75C4043.14 2929.99 4044.99 2925.78 4047.5 2922.1C4050.02 2918.38 4053.26 2915.45 4057.23 2913.29C4061.17 2911.14 4065.89 2910.04 4071.4 2910.01L4133.94 2909.66L4134.08 2934.05L4121.22 2934.12L4121.23 2934.84C4124.13 2936.32 4126.7 2938.29 4128.93 2940.78C4131.12 2943.26 4132.84 2946.25 4134.11 2949.74C4135.34 2953.24 4135.96 2957.28 4135.99 2961.87ZM4118.2 2954.6C4118.18 2950.82 4117.42 2947.48 4115.91 2944.59C4114.36 2941.7 4112.3 2939.44 4109.71 2937.81C4107.13 2936.17 4104.21 2935.36 4100.95 2935.38L4091.11 2935.44C4091.63 2936.24 4092.12 2937.34 4092.57 2938.75C4092.98 2940.11 4093.38 2941.66 4093.75 2943.39C4094.08 2945.12 4094.39 2946.85 4094.68 2948.58C4094.93 2950.31 4095.16 2951.87 4095.37 2953.28C4095.83 2956.3 4096.55 2958.93 4097.53 2961.18C4098.51 2963.43 4099.83 2965.17 4101.48 2966.41C4103.1 2967.65 4105.12 2968.26 4107.53 2968.25C4111.03 2968.23 4113.7 2966.94 4115.54 2964.4C4117.34 2961.81 4118.22 2958.55 4118.2 2954.6Z" fill="black"/>
<path id="&#208;&#179;&#208;&#176;&#209;&#128;&#208;&#180;&#208;&#181;&#209;&#128;&#208;&#190;&#208;&#177;" d="M5879.07 4899.03L5902.86 4898.71L5903.46 4944.02L5988.75 4942.89L5989.14 4972.29L5880.06 4973.74L5879.07 4899.03ZM5989.6 4851.91C5989.69 4858.87 5988.57 4865.08 5986.22 4870.56C5983.84 4876.04 5980.27 4880.39 5975.53 4883.63C5970.74 4886.82 5964.75 4888.46 5957.56 4888.56C5951.5 4888.64 5946.39 4887.59 5942.24 4885.42C5938.09 4883.25 5934.74 4880.26 5932.18 4876.46C5929.62 4872.66 5927.67 4868.33 5926.32 4863.47C5924.98 4858.56 5924.01 4853.42 5923.42 4848.03C5922.67 4841.69 5921.99 4836.59 5921.37 4832.71C5920.7 4828.84 5919.77 4826.03 5918.56 4824.3C5917.35 4822.56 5915.59 4821.71 5913.27 4821.74L5912.84 4821.74C5908.35 4821.8 5904.88 4823.27 5902.46 4826.14C5900.04 4828.97 5898.86 4832.96 5898.93 4838.12C5899 4843.57 5900.26 4847.88 5902.72 4851.07C5905.13 4854.26 5908.14 4856.35 5911.75 4857.34L5909.85 4885.35C5903.21 4884.02 5897.44 4881.3 5892.55 4877.2C5887.62 4873.1 5883.81 4867.78 5881.12 4861.23C5878.38 4854.64 5876.95 4846.99 5876.84 4838.27C5876.76 4832.21 5877.39 4826.4 5878.74 4820.85C5880.08 4815.24 5882.22 4810.26 5885.14 4805.92C5888.07 4801.52 5891.86 4798.04 5896.51 4795.47C5901.12 4792.9 5906.66 4791.57 5913.15 4791.48L5986.72 4790.5L5987.11 4819.19L5971.98 4819.4L5971.99 4820.25C5975.42 4821.95 5978.46 4824.26 5981.1 4827.16C5983.7 4830.06 5985.76 4833.56 5987.28 4837.66C5988.75 4841.76 5989.53 4846.51 5989.6 4851.91ZM5968.61 4843.52C5968.55 4839.07 5967.62 4835.15 5965.82 4831.76C5963.98 4828.38 5961.53 4825.74 5958.47 4823.84C5955.42 4821.94 5951.97 4821.01 5948.14 4821.06L5936.56 4821.22C5937.19 4822.15 5937.77 4823.45 5938.32 4825.1C5938.81 4826.7 5939.28 4828.52 5939.74 4830.55C5940.14 4832.58 5940.53 4834.61 5940.88 4836.64C5941.2 4838.67 5941.48 4840.52 5941.74 4842.17C5942.31 4845.71 5943.18 4848.8 5944.35 4851.44C5945.52 4854.08 5947.09 4856.12 5949.05 4857.56C5950.96 4859 5953.34 4859.7 5956.18 4859.67C5960.3 4859.61 5963.42 4858.08 5965.56 4855.07C5967.65 4852.01 5968.67 4848.16 5968.61 4843.52ZM6027.32 4766.49L5877.33 4768.48L5876.93 4738.65L5895.26 4738.41L5895.24 4737.06C5892.29 4735.78 5889.28 4733.9 5886.21 4731.43C5883.1 4728.91 5880.5 4725.63 5878.41 4721.59C5876.28 4717.5 5875.17 4712.4 5875.08 4706.29C5874.98 4698.34 5876.96 4690.97 5881.04 4684.19C5885.07 4677.41 5891.23 4671.96 5899.5 4667.82C5907.74 4663.69 5918.1 4661.54 5930.6 4661.37C5942.77 4661.21 5953.07 4663.04 5961.5 4666.86C5969.88 4670.63 5976.28 4675.85 5980.67 4682.51C5985.02 4689.13 5987.25 4696.58 5987.36 4704.87C5987.44 4710.74 5986.54 4715.75 5984.65 4719.89C5982.76 4723.99 5980.37 4727.36 5977.47 4730C5974.52 4732.65 5971.54 4734.68 5968.53 4736.09L5968.54 4737.01L6026.92 4736.24L6027.32 4766.49ZM5931.48 4738.14C5937.96 4738.06 5943.61 4737.08 5948.42 4735.22C5953.22 4733.36 5956.95 4730.7 5959.6 4727.26C5962.21 4723.81 5963.48 4719.65 5963.42 4714.78C5963.35 4709.85 5961.95 4705.7 5959.2 4702.33C5956.41 4698.96 5952.59 4696.43 5947.74 4694.74C5942.84 4693.01 5937.21 4692.18 5930.87 4692.27C5924.57 4692.35 5919.04 4693.3 5914.29 4695.11C5909.53 4696.93 5905.82 4699.56 5903.17 4703C5900.51 4706.45 5899.22 4710.66 5899.29 4715.63C5899.35 4720.55 5900.71 4724.7 5903.36 4728.08C5906.01 4731.4 5909.73 4733.93 5914.54 4735.67C5919.35 4737.4 5924.99 4738.23 5931.48 4738.14ZM6016.8 4648.58L5960.84 4649.32L5960.73 4640.94C5959.18 4638.55 5956.74 4636.64 5953.41 4635.22C5950.07 4633.74 5946.15 4632.56 5941.64 4631.68C5937.13 4630.74 5932.27 4630.05 5927.05 4629.6C5921.79 4629.1 5916.48 4628.67 5911.13 4628.32L5875.44 4625.95L5874.33 4542.29L5959.4 4541.16L5959.18 4524.26L6015.14 4523.52L6015.52 4552.35L5983.57 4552.78L5984.45 4619.46L6016.41 4619.04L6016.8 4648.58ZM5960.33 4610.83L5959.78 4569.71L5898 4570.53L5898.39 4599.93L5910.76 4600.91C5922.42 4601.56 5932.33 4602.58 5940.49 4603.99C5948.61 4605.4 5955.22 4607.68 5960.33 4610.83ZM5984.42 4456.57C5984.57 4467.79 5982.42 4477.48 5977.99 4485.64C5973.5 4493.75 5967.1 4500.04 5958.78 4504.5C5950.41 4508.97 5940.47 4511.28 5928.96 4511.43C5917.74 4511.58 5907.87 4509.54 5899.33 4505.29C5890.8 4501.05 5884.12 4495.01 5879.28 4487.16C5874.44 4479.27 5871.95 4469.98 5871.8 4459.28C5871.71 4452.08 5872.78 4445.37 5875.02 4439.13C5877.21 4432.85 5880.57 4427.36 5885.1 4422.66C5889.63 4417.91 5895.35 4414.19 5902.28 4411.5C5909.16 4408.8 5917.24 4407.39 5926.52 4407.27L5934.82 4407.16L5936.05 4499.27L5917.3 4499.51L5916.45 4435.88C5912.1 4435.94 5908.25 4436.94 5904.92 4438.88C5901.58 4440.82 5898.99 4443.48 5897.14 4446.87C5895.24 4450.21 5894.32 4454.08 5894.38 4458.48C5894.44 4463.07 5895.56 4467.13 5897.74 4470.65C5899.87 4474.13 5902.72 4476.84 5906.3 4478.78C5909.83 4480.72 5913.75 4481.69 5918.06 4481.68L5935.88 4481.44C5941.28 4481.37 5945.93 4480.31 5949.83 4478.27C5953.73 4476.18 5956.73 4473.28 5958.81 4469.56C5960.89 4465.84 5961.9 4461.44 5961.83 4456.38C5961.78 4453.02 5961.27 4449.94 5960.29 4447.16C5959.3 4444.38 5957.85 4442.01 5955.93 4440.05C5954.01 4438.08 5951.67 4436.6 5948.91 4435.59L5950.39 4407.59C5957.13 4408.92 5963.04 4411.75 5968.11 4416.09C5973.14 4420.38 5977.1 4425.96 5979.98 4432.84C5982.82 4439.67 5984.3 4447.58 5984.42 4456.57ZM6022.27 4386.25L5872.28 4388.24L5871.88 4358.41L5890.21 4358.17L5890.19 4356.82C5887.24 4355.54 5884.23 4353.66 5881.16 4351.19C5878.05 4348.67 5875.45 4345.39 5873.36 4341.35C5871.22 4337.26 5870.11 4332.16 5870.03 4326.05C5869.93 4318.1 5871.91 4310.73 5875.99 4303.95C5880.02 4297.17 5886.17 4291.72 5894.45 4287.58C5902.69 4283.45 5913.05 4281.3 5925.55 4281.13C5937.72 4280.97 5948.02 4282.8 5956.45 4286.62C5964.83 4290.39 5971.22 4295.61 5975.62 4302.27C5979.97 4308.89 5982.2 4316.34 5982.31 4324.63C5982.39 4330.5 5981.49 4335.51 5979.6 4339.65C5977.71 4343.75 5975.32 4347.12 5972.42 4349.76C5969.47 4352.41 5966.49 4354.44 5963.48 4355.85L5963.49 4356.77L6021.87 4356L6022.27 4386.25ZM5926.43 4357.9C5932.91 4357.82 5938.56 4356.84 5943.36 4354.98C5948.17 4353.12 5951.9 4350.46 5954.55 4347.02C5957.16 4343.57 5958.43 4339.41 5958.36 4334.54C5958.3 4329.61 5956.89 4325.46 5954.15 4322.09C5951.36 4318.72 5947.54 4316.19 5942.68 4314.5C5937.78 4312.77 5932.16 4311.94 5925.82 4312.03C5919.52 4312.11 5913.99 4313.06 5909.24 4314.88C5904.48 4316.69 5900.77 4319.32 5898.12 4322.76C5895.46 4326.21 5894.17 4330.42 5894.24 4335.39C5894.3 4340.31 5895.66 4344.46 5898.31 4347.84C5900.96 4351.16 5904.68 4353.69 5909.49 4355.43C5914.3 4357.16 5919.94 4357.99 5926.43 4357.9ZM5981.16 4210.93C5981.3 4221.96 5979.09 4231.53 5974.51 4239.64C5969.88 4247.7 5963.38 4253.97 5955.01 4258.44C5946.59 4262.91 5936.8 4265.21 5925.62 4265.36C5914.36 4265.51 5904.48 4263.47 5895.99 4259.22C5887.46 4254.98 5880.8 4248.89 5876.01 4240.95C5871.16 4232.96 5868.67 4223.46 5868.52 4212.42C5868.38 4201.39 5870.62 4191.84 5875.25 4183.78C5879.83 4175.67 5886.33 4169.38 5894.74 4164.91C5903.11 4160.44 5912.93 4158.14 5924.2 4157.99C5935.37 4157.84 5945.22 4159.89 5953.76 4164.13C5962.24 4168.37 5968.91 4174.49 5973.75 4182.47C5978.54 4190.41 5981.01 4199.9 5981.16 4210.93ZM5957.72 4211.1C5957.65 4206.08 5956.18 4201.91 5953.29 4198.58C5950.36 4195.26 5946.4 4192.78 5941.4 4191.14C5936.41 4189.46 5930.74 4188.66 5924.39 4188.74C5918.05 4188.82 5912.4 4189.77 5907.46 4191.59C5902.51 4193.36 5898.61 4195.95 5895.77 4199.35C5892.92 4202.75 5891.54 4206.96 5891.6 4211.98C5891.67 4217.04 5893.17 4221.28 5896.1 4224.7C5899.04 4228.07 5903 4230.6 5908 4232.28C5912.99 4233.92 5918.66 4234.7 5925 4234.62C5931.35 4234.53 5936.99 4233.6 5941.94 4231.83C5946.89 4230.02 5950.79 4227.38 5953.63 4223.94C5956.42 4220.44 5957.79 4216.16 5957.72 4211.1ZM5827.71 4048.89L5847.33 4039.39C5849.93 4042.44 5851.87 4045.82 5853.15 4049.55C5854.38 4053.27 5855.22 4057.73 5855.67 4062.94C5856.12 4068.09 5856.46 4074.39 5856.7 4081.82C5856.91 4090.24 5858.35 4097.09 5861.02 4102.36C5863.7 4107.63 5867.85 4111.6 5873.47 4114.27C5879.05 4116.94 5886.31 4118.64 5895.27 4119.38L5895.26 4118.31C5888.54 4115.13 5883.32 4110.61 5879.59 4104.74C5875.87 4098.82 5873.95 4091.48 5873.83 4082.73C5873.71 4073.45 5875.64 4065.3 5879.62 4058.29C5883.6 4051.22 5889.37 4045.7 5896.94 4041.72C5904.51 4037.74 5913.62 4035.67 5924.28 4035.53C5935.35 4035.38 5945.02 4037.43 5953.27 4041.68C5961.47 4045.88 5967.87 4051.93 5972.47 4059.82C5977.03 4067.72 5979.38 4077.16 5979.53 4088.14C5979.67 4099.17 5977.48 4108.72 5972.94 4116.78C5968.41 4124.8 5961.65 4131.04 5952.67 4135.52C5943.68 4139.95 5932.58 4142.25 5919.37 4142.42L5910.43 4142.54C5884.15 4142.89 5864.6 4138.04 5851.78 4127.98C5838.95 4117.92 5832.31 4102.98 5831.86 4083.14C5831.69 4077.74 5831.61 4072.87 5831.6 4068.51C5831.58 4064.16 5831.32 4060.35 5830.8 4057.09C5830.29 4053.78 5829.26 4051.05 5827.71 4048.89ZM5956.09 4088.31C5956.03 4083.67 5954.77 4079.71 5952.31 4076.43C5949.85 4073.1 5946.36 4070.56 5941.84 4068.82C5937.31 4067.04 5931.93 4066.19 5925.68 4066.27C5919.48 4066.35 5914.23 4067.34 5909.95 4069.25C5905.62 4071.1 5902.34 4073.73 5900.11 4077.12C5897.88 4080.51 5896.8 4084.55 5896.86 4089.24C5896.91 4092.74 5897.59 4095.88 5898.91 4098.66C5900.22 4101.43 5902.15 4103.8 5904.68 4105.76C5907.17 4107.66 5910.24 4109.14 5913.9 4110.18C5917.52 4111.17 5921.64 4111.64 5926.28 4111.58C5935.61 4111.45 5942.94 4109.34 5948.29 4105.25C5953.58 4101.1 5956.18 4095.46 5956.09 4088.31Z" fill="black"/>
<path id="&#208;&#186;&#208;&#191;&#208;&#191;" d="M4545.7 3717.12L4545.7 3608.03L4575.95 3608.03L4575.95 3650.36L4584.48 3650.36L4614.16 3608.03L4649.68 3608.03L4611.11 3662.15L4650.1 3717.12L4614.16 3717.12L4587.25 3678.42L4575.95 3678.42L4575.95 3717.12L4545.7 3717.12ZM4662.89 3717.12L4662.89 3608.03L4758.27 3608.03L4758.27 3717.12L4729.36 3717.12L4729.36 3631.83L4691.44 3631.83L4691.44 3717.12L4662.89 3717.12ZM4782.42 3717.12L4782.42 3608.03L4877.8 3608.03L4877.8 3717.12L4848.89 3717.12L4848.89 3631.83L4810.97 3631.83L4810.97 3717.12L4782.42 3717.12Z" fill="black"/>
<path id="Vector 385" d="M3306 3370L3554.5 3370L3554.5 3311L3306 3311L3306 3249.5L3554.5 3249.5L3554.5 3188L3306 3188L3306 3117L3554.5 3117L3554.5 3045.5L3306 3045.5L3306 2969.5L3554.5 2969.5L3554.5 2898L3294 2895.5L3294 2831.5L3567 2831.5" stroke="black" stroke-width="11"/>
<path id="Vector 387" d="M5626 3200.5L5874.5 3200.5L5874.5 3141.5L5626 3141.5L5626 3080L5874.5 3080L5874.5 3018.5L5626 3018.5L5626 2947.5L5874.5 2947.5L5874.5 2876L5626 2876L5626 2800L5874.5 2800L5874.5 2728.5L5614 2726L5614 2662L5887 2662" stroke="black" stroke-width="11"/>
<path id="Vector 388" d="M5922 3369.5L6170.5 3369.5L6170.5 3310.5L5922 3310.5L5922 3249L6170.5 3249L6170.5 3187.5L5922 3187.5L5922 3116.5L6170.5 3116.5L6170.5 3045L5922 3045L5922 2969L6170.5 2969L6170.5 2897.5L5910 2895L5910 2831L6183 2831" stroke="black" stroke-width="11"/>
<path id="Vector 386" d="M3583.35 3201L3839.13 3201L3839.13 3141.94L3583.35 3141.94L3583.35 3080.39L3839.13 3080.39L3839.13 3018.83L3583.35 3018.83L3583.35 2947.76L3839.13 2947.76L3839.13 2876.2L3583.35 2876.2L3583.35 2800.13L3839.13 2800.13L3839.13 2728.56L3571 2726.06L3571 2662L3852 2662" stroke="black" stroke-width="11"/>
<path id="Vector 389" d="M5256.5 4997.5C5265.3 4997.5 5491.83 4997.5 5604 4997.5L5604 5043L5256.5 5043L5256.5 5091L5604 5091L5604 5134.5M5604 5149.5L5604 5134.5M5604 5134.5L5256.5 5134.5" stroke="black" stroke-width="11"/>
<path id="Vector 390" d="M3892 4971C3901.39 4971 4143.25 4971 4263 4971L4263 5016.5L3892 5016.5L3892 5064.5L4263 5064.5L4263 5108M4263 5123L4263 5108M4263 5108L3892 5108" stroke="black" stroke-width="11"/>
<path id="102" d="M6624.61 4798.82L6624.61 5017L6578.48 5017L6578.48 4842.6L6577.2 4842.6L6527.23 4873.92L6527.23 4833.02L6581.25 4798.82L6624.61 4798.82ZM6762.01 5021.79C6743.69 5021.72 6727.92 5017.21 6714.71 5008.26C6701.57 4999.32 6691.45 4986.35 6684.35 4969.38C6677.31 4952.4 6673.83 4931.99 6673.91 4908.12C6673.91 4884.33 6677.42 4864.05 6684.45 4847.29C6691.55 4830.53 6701.68 4817.78 6714.81 4809.05C6728.02 4800.24 6743.76 4795.84 6762.01 4795.84C6780.26 4795.84 6795.96 4800.24 6809.1 4809.05C6822.31 4817.85 6832.46 4830.64 6839.57 4847.4C6846.67 4864.09 6850.18 4884.33 6850.11 4908.12C6850.11 4932.06 6846.56 4952.51 6839.46 4969.49C6832.43 4986.46 6822.34 4999.42 6809.2 5008.37C6796.06 5017.32 6780.33 5021.79 6762.01 5021.79ZM6762.01 4983.55C6774.51 4983.55 6784.49 4977.26 6791.94 4964.69C6799.4 4952.12 6803.1 4933.26 6803.02 4908.12C6803.02 4891.57 6801.32 4877.8 6797.91 4866.79C6794.57 4855.78 6789.81 4847.5 6783.64 4841.96C6777.53 4836.42 6770.32 4833.65 6762.01 4833.65C6749.58 4833.65 6739.64 4839.87 6732.18 4852.3C6724.72 4864.73 6720.96 4883.34 6720.89 4908.12C6720.89 4924.88 6722.56 4938.87 6725.89 4950.1C6729.3 4961.25 6734.1 4969.63 6740.28 4975.24C6746.45 4980.78 6753.7 4983.55 6762.01 4983.55ZM6883 5017L6883 4983.76L6960.67 4911.85C6967.27 4905.46 6972.81 4899.71 6977.29 4894.59C6981.83 4889.48 6985.28 4884.47 6987.62 4879.57C6989.97 4874.6 6991.14 4869.24 6991.14 4863.48C6991.14 4857.09 6989.68 4851.59 6986.77 4846.97C6983.86 4842.28 6979.88 4838.7 6974.84 4836.21C6969.79 4833.65 6964.08 4832.38 6957.69 4832.38C6951.01 4832.38 6945.19 4833.73 6940.21 4836.42C6935.24 4839.12 6931.41 4842.99 6928.71 4848.04C6926.01 4853.08 6924.66 4859.08 6924.66 4866.04L6880.87 4866.04C6880.87 4851.77 6884.11 4839.37 6890.57 4828.86C6897.03 4818.35 6906.09 4810.22 6917.74 4804.46C6929.38 4798.71 6942.81 4795.84 6958 4795.84C6973.63 4795.84 6987.23 4798.61 6998.81 4804.14C7010.46 4809.61 7019.51 4817.21 7025.97 4826.94C7032.44 4836.67 7035.67 4847.82 7035.67 4860.39C7035.67 4868.63 7034.03 4876.77 7030.77 4884.79C7027.57 4892.82 7021.85 4901.73 7013.62 4911.53C7005.38 4921.26 6993.76 4932.94 6978.78 4946.58L6946.93 4977.8L6946.93 4979.29L7038.54 4979.29L7038.54 5017L6883 5017Z" fill="black"/>
<path id="104" d="M5756.61 6415.82L5756.61 6634L5710.48 6634L5710.48 6459.6L5709.2 6459.6L5659.23 6490.92L5659.23 6450.02L5713.25 6415.82L5756.61 6415.82ZM5894.01 6638.79C5875.69 6638.72 5859.92 6634.21 5846.71 6625.26C5833.57 6616.32 5823.45 6603.35 5816.35 6586.38C5809.31 6569.4 5805.83 6548.99 5805.91 6525.12C5805.91 6501.33 5809.42 6481.05 5816.45 6464.29C5823.55 6447.53 5833.68 6434.78 5846.81 6426.05C5860.02 6417.24 5875.76 6412.84 5894.01 6412.84C5912.26 6412.84 5927.96 6417.24 5941.1 6426.05C5954.31 6434.85 5964.46 6447.64 5971.57 6464.4C5978.67 6481.09 5982.18 6501.33 5982.11 6525.12C5982.11 6549.06 5978.56 6569.51 5971.46 6586.49C5964.43 6603.46 5954.34 6616.42 5941.2 6625.37C5928.06 6634.32 5912.33 6638.79 5894.01 6638.79ZM5894.01 6600.55C5906.51 6600.55 5916.49 6594.26 5923.94 6581.69C5931.4 6569.12 5935.1 6550.26 5935.02 6525.12C5935.02 6508.57 5933.32 6494.8 5929.91 6483.79C5926.57 6472.78 5921.81 6464.5 5915.64 6458.96C5909.53 6453.42 5902.32 6450.65 5894.01 6450.65C5881.58 6450.65 5871.64 6456.87 5864.18 6469.3C5856.72 6481.73 5852.96 6500.34 5852.89 6525.12C5852.89 6541.88 5854.56 6555.87 5857.89 6567.1C5861.3 6578.25 5866.1 6586.63 5872.28 6592.24C5878.45 6597.78 5885.7 6600.55 5894.01 6600.55ZM6011.7 6595.65L6011.7 6559.32L6102.79 6415.82L6134.11 6415.82L6134.11 6466.1L6115.57 6466.1L6058.15 6556.98L6058.15 6558.68L6187.59 6558.68L6187.59 6595.65L6011.7 6595.65ZM6116.43 6634L6116.43 6584.57L6117.28 6568.48L6117.28 6415.82L6160.53 6415.82L6160.53 6634L6116.43 6634Z" fill="black"/>
<path id="106" d="M2281.61 6456.82L2281.61 6675L2235.48 6675L2235.48 6500.6L2234.2 6500.6L2184.23 6531.92L2184.23 6491.02L2238.25 6456.82L2281.61 6456.82ZM2419.01 6679.79C2400.69 6679.72 2384.92 6675.21 2371.71 6666.26C2358.57 6657.32 2348.45 6644.35 2341.35 6627.38C2334.31 6610.4 2330.83 6589.99 2330.91 6566.12C2330.91 6542.33 2334.42 6522.05 2341.45 6505.29C2348.55 6488.53 2358.68 6475.78 2371.81 6467.05C2385.02 6458.24 2400.76 6453.84 2419.01 6453.84C2437.26 6453.84 2452.96 6458.24 2466.1 6467.05C2479.31 6475.85 2489.46 6488.64 2496.57 6505.4C2503.67 6522.09 2507.18 6542.33 2507.11 6566.12C2507.11 6590.06 2503.56 6610.51 2496.46 6627.49C2489.43 6644.46 2479.34 6657.42 2466.2 6666.37C2453.06 6675.32 2437.33 6679.79 2419.01 6679.79ZM2419.01 6641.55C2431.51 6641.55 2441.49 6635.26 2448.94 6622.69C2456.4 6610.12 2460.1 6591.26 2460.02 6566.12C2460.02 6549.57 2458.32 6535.8 2454.91 6524.79C2451.57 6513.78 2446.81 6505.5 2440.64 6499.96C2434.53 6494.42 2427.32 6491.65 2419.01 6491.65C2406.58 6491.65 2396.64 6497.87 2389.18 6510.3C2381.72 6522.73 2377.96 6541.34 2377.89 6566.12C2377.89 6582.88 2379.56 6596.87 2382.89 6608.1C2386.3 6619.25 2391.1 6627.63 2397.28 6633.24C2403.45 6638.78 2410.7 6641.55 2419.01 6641.55ZM2623.74 6677.98C2612.52 6677.91 2601.69 6676.03 2591.25 6672.34C2580.88 6668.64 2571.57 6662.64 2563.34 6654.33C2555.1 6646.02 2548.56 6635.01 2543.73 6621.31C2538.98 6607.6 2536.6 6590.77 2536.6 6570.81C2536.67 6552.49 2538.76 6536.12 2542.88 6521.7C2547.07 6507.21 2553.04 6494.92 2560.78 6484.84C2568.59 6474.75 2577.93 6467.08 2588.8 6461.83C2599.66 6456.5 2611.84 6453.84 2625.34 6453.84C2639.9 6453.84 2652.75 6456.68 2663.9 6462.36C2675.05 6467.97 2684 6475.6 2690.75 6485.26C2697.57 6494.92 2701.69 6505.75 2703.11 6517.76L2657.62 6517.76C2655.84 6510.16 2652.11 6504.19 2646.43 6499.86C2640.75 6495.53 2633.72 6493.36 2625.34 6493.36C2611.13 6493.36 2600.34 6499.54 2592.95 6511.9C2585.64 6524.25 2581.91 6541.05 2581.77 6562.29L2583.26 6562.29C2586.52 6555.82 2590.93 6550.32 2596.47 6545.77C2602.08 6541.16 2608.44 6537.64 2615.54 6535.23C2622.71 6532.74 2630.27 6531.5 2638.23 6531.5C2651.16 6531.5 2662.66 6534.55 2672.75 6540.66C2682.83 6546.7 2690.79 6555.01 2696.61 6565.59C2702.43 6576.17 2705.35 6588.28 2705.35 6601.92C2705.35 6616.69 2701.9 6629.83 2695.01 6641.34C2688.19 6652.84 2678.64 6661.86 2666.35 6668.39C2654.14 6674.86 2639.93 6678.05 2623.74 6677.98ZM2623.53 6641.76C2630.63 6641.76 2636.99 6640.06 2642.6 6636.65C2648.21 6633.24 2652.61 6628.62 2655.81 6622.8C2659 6616.97 2660.6 6610.44 2660.6 6603.2C2660.6 6595.95 2659 6589.45 2655.81 6583.7C2652.68 6577.95 2648.35 6573.37 2642.81 6569.96C2637.27 6566.55 2630.95 6564.84 2623.85 6564.84C2618.52 6564.84 2613.58 6565.84 2609.04 6567.83C2604.56 6569.82 2600.62 6572.59 2597.21 6576.14C2593.88 6579.69 2591.25 6583.81 2589.33 6588.49C2587.41 6593.11 2586.45 6598.05 2586.45 6603.3C2586.45 6610.33 2588.05 6616.76 2591.25 6622.59C2594.51 6628.41 2598.92 6633.06 2604.46 6636.54C2610.07 6640.02 2616.43 6641.76 2623.53 6641.76Z" fill="black"/>
<path id="103" d="M8115.84 7058.18L8115.84 7240L8077.4 7240L8077.4 7094.67L8076.33 7094.67L8034.7 7120.77L8034.7 7086.68L8079.71 7058.18L8115.84 7058.18ZM8230.34 7244C8215.07 7243.94 8201.93 7240.18 8190.92 7232.72C8179.97 7225.26 8171.54 7214.46 8165.62 7200.32C8159.76 7186.17 8156.86 7169.15 8156.92 7149.27C8156.92 7129.44 8159.85 7112.54 8165.71 7098.58C8171.63 7084.61 8180.06 7073.98 8191.01 7066.7C8202.02 7059.37 8215.13 7055.7 8230.34 7055.7C8245.55 7055.7 8258.63 7059.37 8269.58 7066.7C8280.59 7074.04 8289.05 7084.7 8294.97 7098.66C8300.89 7112.57 8303.82 7129.44 8303.76 7149.27C8303.76 7169.21 8300.8 7186.26 8294.88 7200.4C8289.02 7214.55 8280.62 7225.35 8269.67 7232.81C8258.72 7240.27 8245.61 7244 8230.34 7244ZM8230.34 7212.12C8240.76 7212.12 8249.07 7206.89 8255.29 7196.41C8261.5 7185.93 8264.58 7170.22 8264.52 7149.27C8264.52 7135.48 8263.1 7124 8260.26 7114.82C8257.48 7105.65 8253.51 7098.75 8248.36 7094.14C8243.27 7089.52 8237.27 7087.21 8230.34 7087.21C8219.98 7087.21 8211.7 7092.39 8205.48 7102.75C8199.27 7113.11 8196.13 7128.61 8196.07 7149.27C8196.07 7163.24 8197.46 7174.9 8200.24 7184.25C8203.09 7193.54 8207.08 7200.52 8212.23 7205.2C8217.38 7209.82 8223.42 7212.12 8230.34 7212.12ZM8398.38 7242.49C8385.12 7242.49 8373.31 7240.21 8362.95 7235.65C8352.66 7231.03 8344.52 7224.7 8338.54 7216.65C8332.62 7208.54 8329.57 7199.19 8329.4 7188.6L8368.1 7188.6C8368.34 7193.04 8369.79 7196.94 8372.45 7200.32C8375.18 7203.63 8378.79 7206.21 8383.28 7208.04C8387.78 7209.87 8392.84 7210.79 8398.46 7210.79C8404.32 7210.79 8409.5 7209.76 8414 7207.68C8418.5 7205.61 8422.02 7202.74 8424.57 7199.07C8427.11 7195.4 8428.38 7191.17 8428.38 7186.38C8428.38 7181.52 8427.02 7177.23 8424.3 7173.5C8421.64 7169.72 8417.79 7166.76 8412.76 7164.63C8407.79 7162.5 8401.87 7161.43 8395 7161.43L8378.05 7161.43L8378.05 7133.2L8395 7133.2C8400.8 7133.2 8405.92 7132.19 8410.36 7130.18C8414.86 7128.17 8418.35 7125.39 8420.84 7121.84C8423.32 7118.23 8424.57 7114.02 8424.57 7109.23C8424.57 7104.67 8423.47 7100.68 8421.28 7097.24C8419.15 7093.75 8416.13 7091.03 8412.23 7089.08C8408.38 7087.12 8403.88 7086.15 8398.73 7086.15C8393.52 7086.15 8388.76 7087.09 8384.44 7088.99C8380.12 7090.82 8376.65 7093.46 8374.05 7096.89C8371.45 7100.32 8370.06 7104.35 8369.88 7108.96L8333.04 7108.96C8333.21 7098.49 8336.2 7089.25 8342 7081.26C8347.8 7073.27 8355.61 7067.03 8365.44 7062.53C8375.32 7057.97 8386.48 7055.7 8398.91 7055.7C8411.46 7055.7 8422.44 7057.97 8431.85 7062.53C8441.26 7067.09 8448.57 7073.24 8453.77 7081C8459.04 7088.69 8461.65 7097.33 8461.59 7106.92C8461.65 7117.1 8458.48 7125.59 8452.09 7132.4C8445.75 7139.21 8437.5 7143.53 8427.32 7145.36L8427.32 7146.78C8440.69 7148.5 8450.87 7153.15 8457.86 7160.72C8464.9 7168.24 8468.39 7177.65 8468.33 7188.95C8468.39 7199.31 8465.4 7208.51 8459.37 7216.56C8453.39 7224.61 8445.13 7230.94 8434.6 7235.56C8424.06 7240.18 8411.99 7242.49 8398.38 7242.49Z" fill="black"/>
<path id="107" d="M1624.84 4981.18L1624.84 5163L1586.4 5163L1586.4 5017.67L1585.33 5017.67L1543.7 5043.77L1543.7 5009.68L1588.71 4981.18L1624.84 4981.18ZM1739.34 5167C1724.07 5166.94 1710.93 5163.18 1699.92 5155.72C1688.97 5148.26 1680.54 5137.46 1674.62 5123.32C1668.76 5109.17 1665.86 5092.15 1665.92 5072.27C1665.92 5052.44 1668.85 5035.54 1674.71 5021.58C1680.63 5007.61 1689.06 4996.98 1700.01 4989.7C1711.02 4982.37 1724.13 4978.7 1739.34 4978.7C1754.55 4978.7 1767.63 4982.37 1778.58 4989.7C1789.59 4997.04 1798.05 5007.7 1803.97 5021.66C1809.89 5035.57 1812.82 5052.44 1812.76 5072.27C1812.76 5092.21 1809.8 5109.26 1803.88 5123.4C1798.02 5137.55 1789.62 5148.35 1778.67 5155.81C1767.72 5163.27 1754.61 5167 1739.34 5167ZM1739.34 5135.12C1749.76 5135.12 1758.07 5129.89 1764.29 5119.41C1770.5 5108.93 1773.58 5093.22 1773.52 5072.27C1773.52 5058.48 1772.1 5047 1769.26 5037.82C1766.48 5028.65 1762.51 5021.75 1757.36 5017.14C1752.27 5012.52 1746.27 5010.21 1739.34 5010.21C1728.98 5010.21 1720.7 5015.39 1714.48 5025.75C1708.27 5036.11 1705.13 5051.61 1705.07 5072.27C1705.07 5086.24 1706.46 5097.9 1709.24 5107.25C1712.09 5116.54 1716.08 5123.52 1721.23 5128.2C1726.38 5132.82 1732.42 5135.12 1739.34 5135.12ZM1842.48 5163L1917.85 5013.85L1917.85 5012.61L1830.05 5012.61L1830.05 4981.18L1957.62 4981.18L1957.62 5013.05L1882.16 5163L1842.48 5163Z" fill="black"/>
<path id="108" d="M3415.84 4218.18L3415.84 4400L3377.4 4400L3377.4 4254.67L3376.33 4254.67L3334.7 4280.77L3334.7 4246.68L3379.71 4218.18L3415.84 4218.18ZM3530.34 4404C3515.07 4403.94 3501.93 4400.18 3490.92 4392.72C3479.97 4385.26 3471.54 4374.46 3465.62 4360.32C3459.76 4346.17 3456.86 4329.15 3456.92 4309.27C3456.92 4289.44 3459.85 4272.54 3465.71 4258.58C3471.63 4244.61 3480.06 4233.98 3491.01 4226.7C3502.02 4219.37 3515.13 4215.7 3530.34 4215.7C3545.55 4215.7 3558.63 4219.37 3569.58 4226.7C3580.59 4234.04 3589.05 4244.7 3594.97 4258.66C3600.89 4272.57 3603.82 4289.44 3603.76 4309.27C3603.76 4329.21 3600.8 4346.26 3594.88 4360.4C3589.02 4374.55 3580.62 4385.35 3569.67 4392.81C3558.72 4400.27 3545.61 4404 3530.34 4404ZM3530.34 4372.12C3540.76 4372.12 3549.07 4366.89 3555.29 4356.41C3561.5 4345.93 3564.58 4330.22 3564.52 4309.27C3564.52 4295.48 3563.1 4284 3560.26 4274.82C3557.48 4265.65 3553.51 4258.75 3548.36 4254.14C3543.27 4249.52 3537.27 4247.21 3530.34 4247.21C3519.98 4247.21 3511.7 4252.39 3505.48 4262.75C3499.27 4273.11 3496.13 4288.61 3496.07 4309.27C3496.07 4323.24 3497.46 4334.9 3500.24 4344.25C3503.09 4353.54 3507.08 4360.52 3512.23 4365.2C3517.38 4369.82 3523.42 4372.12 3530.34 4372.12ZM3699 4402.49C3685.33 4402.49 3673.16 4400.27 3662.51 4395.83C3651.92 4391.33 3643.6 4385.2 3637.56 4377.45C3631.53 4369.7 3628.51 4360.91 3628.51 4351.08C3628.51 4343.51 3630.22 4336.55 3633.66 4330.22C3637.15 4323.83 3641.88 4318.53 3647.86 4314.33C3653.84 4310.07 3660.53 4307.34 3667.93 4306.16L3667.93 4304.92C3658.22 4302.97 3650.35 4298.26 3644.31 4290.8C3638.27 4283.29 3635.25 4274.56 3635.25 4264.61C3635.25 4255.2 3638.01 4246.83 3643.51 4239.49C3649.02 4232.09 3656.56 4226.29 3666.15 4222.09C3675.8 4217.83 3686.75 4215.7 3699 4215.7C3711.25 4215.7 3722.17 4217.83 3731.76 4222.09C3741.4 4226.35 3748.98 4232.18 3754.48 4239.58C3759.99 4246.92 3762.77 4255.26 3762.83 4264.61C3762.77 4274.62 3759.69 4283.35 3753.6 4290.8C3747.5 4298.26 3739.69 4302.97 3730.16 4304.92L3730.16 4306.16C3737.44 4307.34 3744.04 4310.07 3749.96 4314.33C3755.93 4318.53 3760.67 4323.83 3764.16 4330.22C3767.71 4336.55 3769.52 4343.51 3769.58 4351.08C3769.52 4360.91 3766.47 4369.7 3760.43 4377.45C3754.4 4385.2 3746.05 4391.33 3735.4 4395.83C3724.8 4400.27 3712.67 4402.49 3699 4402.49ZM3699 4374.25C3705.09 4374.25 3710.42 4373.16 3714.98 4370.97C3719.53 4368.72 3723.09 4365.64 3725.63 4361.74C3728.24 4357.77 3729.54 4353.21 3729.54 4348.06C3729.54 4342.8 3728.21 4338.15 3725.54 4334.13C3722.88 4330.04 3719.27 4326.85 3714.71 4324.54C3710.15 4322.17 3704.92 4320.99 3699 4320.99C3693.14 4320.99 3687.9 4322.17 3683.28 4324.54C3678.67 4326.85 3675.03 4330.04 3672.36 4334.13C3669.76 4338.15 3668.46 4342.8 3668.46 4348.06C3668.46 4353.21 3669.73 4357.77 3672.28 4361.74C3674.82 4365.64 3678.4 4368.72 3683.02 4370.97C3687.63 4373.16 3692.96 4374.25 3699 4374.25ZM3699 4293.02C3704.09 4293.02 3708.62 4291.99 3712.58 4289.91C3716.55 4287.84 3719.65 4284.97 3721.9 4281.3C3724.15 4277.63 3725.28 4273.4 3725.28 4268.61C3725.28 4263.87 3724.15 4259.73 3721.9 4256.18C3719.65 4252.57 3716.58 4249.76 3712.67 4247.75C3708.76 4245.67 3704.21 4244.64 3699 4244.64C3693.85 4244.64 3689.29 4245.67 3685.33 4247.75C3681.36 4249.76 3678.25 4252.57 3676 4256.18C3673.81 4259.73 3672.72 4263.87 3672.72 4268.61C3672.72 4273.4 3673.84 4277.63 3676.09 4281.3C3678.34 4284.97 3681.45 4287.84 3685.41 4289.91C3689.38 4291.99 3693.91 4293.02 3699 4293.02Z" fill="black"/>
<path id="Rectangle 401" d="M4770 4174.5L4883.5 4174.5L4883.5 4119L5003.5 4119L5003.5 4174.5L5095 4174.5L5095 4845.5L4770 4845.5L4770 4558.5L4724 4558.5L4724 4391.5L4770 4391.5L4770 4174.5Z" fill="#789DB7"/>
<path id="Rectangle 402" d="M4742 4173.5L4628.5 4173.5L4628.5 4118L4508.5 4118L4508.5 4173.5L4417 4173.5L4417 4844.5L4742 4844.5L4742 4173.5Z" fill="#789DB7"/>
<path id="&#208;&#187;&#208;&#184;&#209;&#132;&#209;&#130;" d="M4511.68 4534L4511.54 4509.99L4515.16 4509.99C4517.72 4509.99 4519.92 4509.38 4521.77 4508.15C4523.66 4506.87 4525.22 4504.81 4526.45 4501.97C4527.69 4499.13 4528.66 4495.36 4529.37 4490.68C4530.08 4485.94 4530.55 4480.12 4530.79 4473.2L4532.56 4424.91L4615.52 4424.91L4615.52 4534L4586.68 4534L4586.68 4448.7L4559.76 4448.7L4558.06 4482.01C4557.63 4491.15 4556.52 4499.01 4554.72 4505.59C4552.97 4512.17 4550.53 4517.57 4547.41 4521.78C4544.28 4525.95 4540.52 4529.03 4536.11 4531.02C4531.71 4533.01 4526.6 4534 4520.77 4534L4511.68 4534ZM4667.88 4494.09L4707.15 4424.91L4736.98 4424.91L4736.98 4534L4708.15 4534L4708.15 4464.61L4669.01 4534L4638.97 4534L4638.97 4424.91L4667.88 4424.91L4667.88 4494.09ZM4813.44 4571.07L4813.44 4388.55L4843.62 4388.55L4843.62 4571.07L4813.44 4571.07ZM4813.44 4536.13C4805.06 4536.13 4797.41 4534.78 4790.5 4532.08C4783.59 4529.34 4777.62 4525.48 4772.6 4520.51C4767.58 4515.49 4763.7 4509.54 4760.95 4502.68C4758.21 4495.77 4756.83 4488.17 4756.83 4479.88C4756.83 4471.5 4758.21 4463.88 4760.95 4457.01C4763.7 4450.1 4767.58 4444.16 4772.6 4439.18C4777.62 4434.17 4783.59 4430.31 4790.5 4427.61C4797.41 4424.86 4805.06 4423.49 4813.44 4423.49L4819.05 4423.49L4819.05 4536.13L4813.44 4536.13ZM4813.44 4512.55L4816.78 4512.55L4816.78 4447.07L4813.44 4447.07C4809.37 4447.07 4805.75 4447.92 4802.57 4449.62C4799.4 4451.33 4796.73 4453.67 4794.55 4456.66C4792.37 4459.59 4790.71 4463.05 4789.58 4467.03C4788.49 4471 4787.94 4475.29 4787.94 4479.88C4787.94 4485.94 4788.94 4491.46 4790.93 4496.43C4792.91 4501.35 4795.83 4505.28 4799.66 4508.22C4803.5 4511.11 4808.09 4512.55 4813.44 4512.55ZM4843.62 4536.13L4838.01 4536.13L4838.01 4423.49L4843.62 4423.49C4852 4423.49 4859.65 4424.86 4866.56 4427.61C4873.48 4430.31 4879.44 4434.17 4884.46 4439.18C4889.48 4444.16 4893.36 4450.1 4896.11 4457.01C4898.86 4463.88 4900.23 4471.5 4900.23 4479.88C4900.23 4488.17 4898.86 4495.77 4896.11 4502.68C4893.36 4509.54 4889.48 4515.49 4884.46 4520.51C4879.44 4525.48 4873.48 4529.34 4866.56 4532.08C4859.65 4534.78 4852 4536.13 4843.62 4536.13ZM4843.62 4512.55C4847.7 4512.55 4851.32 4511.72 4854.49 4510.07C4857.66 4508.36 4860.34 4506.02 4862.52 4503.03C4864.69 4500.05 4866.35 4496.59 4867.49 4492.66C4868.62 4488.69 4869.19 4484.43 4869.19 4479.88C4869.19 4473.77 4868.17 4468.26 4866.14 4463.33C4864.15 4458.36 4861.26 4454.41 4857.47 4451.47C4853.69 4448.54 4849.07 4447.07 4843.62 4447.07L4840.29 4447.07L4840.29 4512.55L4843.62 4512.55ZM4909.46 4448.7L4909.46 4424.91L5008.33 4424.91L5008.33 4448.7L4973.17 4448.7L4973.17 4534L4944.33 4534L4944.33 4448.7L4909.46 4448.7Z" fill="#242424"/>
</g>
<defs>
<clipPath id="clip0_98_230">
<rect width="9623" height="8733.77" fill="white" transform="translate(0 54.6328) rotate(-0.325286)"/>
</clipPath>
</defs>
</svg>
