<svg width="9395" height="7879" viewBox="0 0 9395 7879" fill="none" xmlns="http://www.w3.org/2000/svg">
<g id="plan-18corpus-3">
<rect width="9395" height="7879" fill="white"/>
<path id="Rectangle 133" d="M973 2487H2753.5L3214.5 2191V1119H3898.5V1499H5285.5V1119H6007.5V2183L6461.5 2469L8420.5 2487V6743H973V2487Z" fill="#242424"/>
<path id="Rectangle 137" d="M3274 1171H3524V2496.24H3480.86V2586H3346.46V2496.24H3274V1171Z" fill="#9CC7E5"/>
<path id="Rectangle 138" d="M3572 1171H3847V2477H3572V1171Z" fill="#9CC7E5"/>
<path id="314room" d="M3903 1549H4562L4568 2471.5L4136 2479V2550.5H3996.5V2479H3903V1549Z" fill="#9CC7E5"/>
<path id="315room" d="M5273 1549H4614L4608 2471.5L5040 2479V2550.5H5179.5V2479H5273V1549Z" fill="#9CC7E5"/>
<rect id="Rectangle 141" x="5343" y="1163" width="264" height="1314" fill="#9CC7E5"/>
<path id="Rectangle 142" d="M5683 1162H5961V2475.53H5879.6V2545H5733.93V2475.53H5683V1162Z" fill="#9CC7E5"/>
<path id="312room" d="M1067 2551.5H2165V4404.38H1846V4552H1765V4618.5H1589.5V4552H1067V2551.5Z" fill="#9CC7E5"/>
<path id="311room" d="M1062 5134H1714V5039H1914V5134H2070V6646H1062V5134Z" fill="#9CC7E5"/>
<g id="18WC-2">
<path d="M2246 3433H2598V3931H2551V3991.5H2445.5V3931H2246V3433Z" fill="#6698BA"/>
<path d="M2666 3433H2960V3784.5H3017.5V3872H2960V3908H2666V3433Z" fill="#6698BA"/>
<path d="M3004 3433H3287V3542H3353.5V3611.5H3287V3655H3004V3433Z" fill="#6698BA"/>
<path d="M2246 3979H2721V4206.34H2801V4335.94H2721V4395H2246V3979Z" fill="#6698BA"/>
<path d="M2785 3979H3286.56V4206.34H3354V4334.38H3286.56V4395H2785V3979Z" fill="#6698BA"/>
<path d="M3004 3702H3287V3756.5H3344.5V3846H3287V3908H3004V3702Z" fill="#6698BA"/>
</g>
<rect id="Rectangle 152" x="1893" y="4449" width="1394" height="103" fill="#9CC7E5"/>
<path id="309room" d="M3043 5134H3293.24V5055H3504.5V5134H3926V6646H3043V5134Z" fill="#9CC7E5"/>
<path id="302room" d="M4997 2835H5586V3023.5H5632V3191H5586V3361H4997V2835Z" fill="#9CC7E5"/>
<path id="308room" d="M4220 3361H3863V3413H5571V4393H5156.5V4627.48H4567V4625.5H4363V4673.5H4126.5V4625.5H4033.5V4408.59H3631V3413H3751.5V3361H3631V2835H4220V3361Z" fill="#9CC7E5"/>
<path id="307room" d="M3981 5134H4283.5V5036.5H4525V5134H5136V6646H3981V5134Z" fill="#9CC7E5"/>
<path id="306room" d="M5191 5137H5396.5V5063H5610.5V5137H6058V6649H5191V5137Z" fill="#9CC7E5"/>
<path id="305room" d="M6126 5134.5H6337V5047.5H6568.5V5134.5H6914.75H7087.5H7321V6646.5H6126V5134.5Z" fill="#9CC7E5"/>
<path id="304room" d="M7381 5134H7567.5V5053.5H7836.5V5134H8335V6646H7381V5134Z" fill="#9CC7E5"/>
<rect id="Rectangle 168" x="7960" y="4303" width="373" height="247" fill="#9CC7E5"/>
<path id="corridor" d="M1066 4593L3339.5 4602V2795.5L3140.5 2553.5L5930.5 2535H6179L5930.5 2795.5H5635.5H3578V4602H3988V4670H5210V4602H5611.89L5611 4670L5635.5 2795.5H5930.5V4602H8333.5V5085H1066V4593Z" fill="#9CC7E5"/>
<rect id="Rectangle 170" x="5983" y="4407" width="1575" height="145" fill="#9CC7E5"/>
<rect id="Rectangle 174" x="3632" y="4449" width="349" height="103" fill="#9CC7E5"/>
<path id="Rectangle 176" d="M5212 4442H5571V4552H5212V4442Z" fill="#9CC7E5"/>
<path id="310room" d="M2133 5134.47H2378.76V5052H2606.5V5134.47H2970V6646H2133V5134.47Z" fill="#9CC7E5"/>
<path id="Vector 150" d="M3260 1951.5H3538.5V1899.5H3260V1838H3538.5V1773H3260V1711.5H3538.5V1643.5H3260V1569H3538.5V1507.5H3260" stroke="#242424" stroke-width="13"/>
<path id="Vector 152" d="M5683 1951H5961.5V1899H5683V1837.5H5961.5V1772.5H5683V1711H5961.5V1643H5683V1568.5H5961.5V1507H5683" stroke="#242424" stroke-width="13"/>
<path id="Vector 153" d="M5329 2100H5607.5V2048H5329V1986.5H5607.5V1921.5H5329V1860H5607.5V1792H5329V1717.5H5607.5V1656H5329" stroke="#242424" stroke-width="13"/>
<path id="Vector 151" d="M3569 2100H3875V2048H3569V1986.5H3875V1921.5H3569V1860H3875V1792H3569V1717.5H3875V1656H3569" stroke="#242424" stroke-width="13"/>
<path id="Union" d="M3287 2809V2907H3358.5V3056.5H3287V3375H2255V2550H2784L2975 2433.5L3073.5 2550H3074L3287 2809Z" fill="#9CC7E5"/>
<path id="Rectangle 400" d="M3017.5 2403.5L3226 2276V2553H3141.5L3017.5 2403.5Z" fill="#9CC7E5"/>
<path id="301room" d="M6464.72 2535H7177V3127H7229V2535H8335V3578H7229V3317.25H7177V3578H5983V3327.5H5917V3037.5H5983V2826.11L6256.11 2543.6L6335 2453.5L6464.72 2535Z" fill="#9CC7E5"/>
<path id="Rectangle 402" d="M6007 2252L6288.5 2421L6179 2536H6007V2252Z" fill="#9CC7E5"/>
<path id="303room" d="M7176.78 3750.11H7229V3634H8335V4245.5H7907.31V4547.92H7835V4632H7697V4547.92H7627.68V4342H7229V3912.07H7176.78V4341H5983V3634H7176.78V3750.11Z" fill="#9CC7E5"/>
<path id="307" d="M4333.33 5566.98C4317.42 5566.98 4303.25 5564.25 4290.82 5558.78C4278.47 5553.24 4268.7 5545.64 4261.53 5535.98C4254.42 5526.25 4250.77 5515.03 4250.55 5502.32H4297C4297.29 5507.64 4299.03 5512.33 4302.22 5516.38C4305.49 5520.36 4309.82 5523.45 4315.22 5525.65C4320.62 5527.85 4326.69 5528.95 4333.44 5528.95C4340.47 5528.95 4346.68 5527.71 4352.08 5525.22C4357.48 5522.74 4361.7 5519.29 4364.76 5514.89C4367.81 5510.48 4369.34 5505.41 4369.34 5499.65C4369.34 5493.83 4367.71 5488.68 4364.44 5484.21C4361.24 5479.66 4356.63 5476.11 4350.59 5473.55C4344.62 5471 4337.52 5469.72 4329.28 5469.72H4308.93V5435.84H4329.28C4336.24 5435.84 4342.39 5434.63 4347.71 5432.22C4353.11 5429.8 4357.3 5426.46 4360.28 5422.2C4363.27 5417.87 4364.76 5412.83 4364.76 5407.08C4364.76 5401.61 4363.44 5396.81 4360.82 5392.69C4358.26 5388.5 4354.64 5385.24 4349.95 5382.89C4345.33 5380.55 4339.94 5379.38 4333.76 5379.38C4327.51 5379.38 4321.79 5380.51 4316.61 5382.79C4311.42 5384.99 4307.27 5388.15 4304.14 5392.27C4301.02 5396.39 4299.35 5401.22 4299.13 5406.76H4254.92C4255.13 5394.18 4258.72 5383.11 4265.68 5373.52C4272.64 5363.93 4282.02 5356.44 4293.81 5351.04C4305.67 5345.57 4319.06 5342.84 4333.97 5342.84C4349.03 5342.84 4362.2 5345.57 4373.49 5351.04C4384.79 5356.51 4393.56 5363.89 4399.81 5373.2C4406.13 5382.43 4409.25 5392.8 4409.18 5404.31C4409.25 5416.52 4405.45 5426.71 4397.78 5434.88C4390.18 5443.05 4380.28 5448.23 4368.06 5450.43V5452.14C4384.11 5454.2 4396.33 5459.77 4404.71 5468.87C4413.16 5477.88 4417.35 5489.18 4417.28 5502.74C4417.35 5515.17 4413.76 5526.22 4406.52 5535.88C4399.35 5545.53 4389.44 5553.13 4376.8 5558.67C4364.15 5564.21 4349.67 5566.98 4333.33 5566.98ZM4535.99 5568.79C4517.66 5568.72 4501.89 5564.21 4488.68 5555.26C4475.55 5546.32 4465.42 5533.35 4458.32 5516.38C4451.29 5499.4 4447.81 5478.99 4447.88 5455.12C4447.88 5431.33 4451.4 5411.05 4458.43 5394.29C4465.53 5377.53 4475.65 5364.78 4488.79 5356.05C4502 5347.24 4517.73 5342.84 4535.99 5342.84C4554.24 5342.84 4569.93 5347.24 4583.07 5356.05C4596.28 5364.85 4606.44 5377.64 4613.54 5394.4C4620.64 5411.09 4624.16 5431.33 4624.09 5455.12C4624.09 5479.06 4620.54 5499.51 4613.44 5516.49C4606.4 5533.46 4596.32 5546.42 4583.18 5555.37C4570.04 5564.32 4554.31 5568.79 4535.99 5568.79ZM4535.99 5530.55C4548.49 5530.55 4558.46 5524.26 4565.92 5511.69C4573.38 5499.12 4577.07 5480.26 4577 5455.12C4577 5438.57 4575.3 5424.8 4571.89 5413.79C4568.55 5402.78 4563.79 5394.5 4557.61 5388.96C4551.5 5383.42 4544.3 5380.65 4535.99 5380.65C4523.56 5380.65 4513.61 5386.87 4506.16 5399.3C4498.7 5411.73 4494.93 5430.34 4494.86 5455.12C4494.86 5471.88 4496.53 5485.88 4499.87 5497.1C4503.28 5508.25 4508.07 5516.63 4514.25 5522.24C4520.43 5527.78 4527.68 5530.55 4535.99 5530.55ZM4659.75 5564L4750.2 5385.02V5383.53H4644.84V5345.82H4797.93V5384.06L4707.37 5564H4659.75Z" fill="black"/>
<path id="305" d="M6493.33 5566.98C6477.42 5566.98 6463.25 5564.25 6450.82 5558.78C6438.47 5553.24 6428.7 5545.64 6421.53 5535.98C6414.42 5526.25 6410.77 5515.03 6410.55 5502.32H6457C6457.29 5507.64 6459.03 5512.33 6462.22 5516.38C6465.49 5520.36 6469.82 5523.45 6475.22 5525.65C6480.62 5527.85 6486.69 5528.95 6493.44 5528.95C6500.47 5528.95 6506.68 5527.71 6512.08 5525.22C6517.48 5522.74 6521.7 5519.29 6524.76 5514.89C6527.81 5510.48 6529.34 5505.41 6529.34 5499.65C6529.34 5493.83 6527.71 5488.68 6524.44 5484.21C6521.24 5479.66 6516.63 5476.11 6510.59 5473.55C6504.62 5471 6497.52 5469.72 6489.28 5469.72H6468.93V5435.84H6489.28C6496.24 5435.84 6502.39 5434.63 6507.71 5432.22C6513.11 5429.8 6517.3 5426.46 6520.28 5422.2C6523.27 5417.87 6524.76 5412.83 6524.76 5407.08C6524.76 5401.61 6523.44 5396.81 6520.82 5392.69C6518.26 5388.5 6514.64 5385.24 6509.95 5382.89C6505.33 5380.55 6499.94 5379.38 6493.76 5379.38C6487.51 5379.38 6481.79 5380.51 6476.61 5382.79C6471.42 5384.99 6467.27 5388.15 6464.14 5392.27C6461.02 5396.39 6459.35 5401.22 6459.13 5406.76H6414.92C6415.13 5394.18 6418.72 5383.11 6425.68 5373.52C6432.64 5363.93 6442.02 5356.44 6453.81 5351.04C6465.67 5345.57 6479.06 5342.84 6493.97 5342.84C6509.03 5342.84 6522.2 5345.57 6533.49 5351.04C6544.79 5356.51 6553.56 5363.89 6559.81 5373.2C6566.13 5382.43 6569.25 5392.8 6569.18 5404.31C6569.25 5416.52 6565.45 5426.71 6557.78 5434.88C6550.18 5443.05 6540.28 5448.23 6528.06 5450.43V5452.14C6544.11 5454.2 6556.33 5459.77 6564.71 5468.87C6573.16 5477.88 6577.35 5489.18 6577.28 5502.74C6577.35 5515.17 6573.76 5526.22 6566.52 5535.88C6559.35 5545.53 6549.44 5553.13 6536.8 5558.67C6524.15 5564.21 6509.67 5566.98 6493.33 5566.98ZM6695.99 5568.79C6677.66 5568.72 6661.89 5564.21 6648.68 5555.26C6635.55 5546.32 6625.42 5533.35 6618.32 5516.38C6611.29 5499.4 6607.81 5478.99 6607.88 5455.12C6607.88 5431.33 6611.4 5411.05 6618.43 5394.29C6625.53 5377.53 6635.65 5364.78 6648.79 5356.05C6662 5347.24 6677.73 5342.84 6695.99 5342.84C6714.24 5342.84 6729.93 5347.24 6743.07 5356.05C6756.28 5364.85 6766.44 5377.64 6773.54 5394.4C6780.64 5411.09 6784.16 5431.33 6784.09 5455.12C6784.09 5479.06 6780.54 5499.51 6773.44 5516.49C6766.4 5533.46 6756.32 5546.42 6743.18 5555.37C6730.04 5564.32 6714.31 5568.79 6695.99 5568.79ZM6695.99 5530.55C6708.49 5530.55 6718.46 5524.26 6725.92 5511.69C6733.38 5499.12 6737.07 5480.26 6737 5455.12C6737 5438.57 6735.3 5424.8 6731.89 5413.79C6728.55 5402.78 6723.79 5394.5 6717.61 5388.96C6711.5 5383.42 6704.3 5380.65 6695.99 5380.65C6683.56 5380.65 6673.61 5386.87 6666.16 5399.3C6658.7 5411.73 6654.93 5430.34 6654.86 5455.12C6654.86 5471.88 6656.53 5485.88 6659.87 5497.1C6663.28 5508.25 6668.07 5516.63 6674.25 5522.24C6680.43 5527.78 6687.68 5530.55 6695.99 5530.55ZM6896.67 5566.98C6881.61 5566.98 6868.19 5564.21 6856.4 5558.67C6844.68 5553.13 6835.38 5545.5 6828.49 5535.77C6821.6 5526.04 6818.01 5514.89 6817.73 5502.32H6862.47C6862.97 5510.77 6866.52 5517.62 6873.12 5522.88C6879.73 5528.13 6887.58 5530.76 6896.67 5530.76C6903.91 5530.76 6910.31 5529.16 6915.85 5525.97C6921.46 5522.7 6925.82 5518.19 6928.95 5512.44C6932.14 5506.61 6933.74 5499.94 6933.74 5492.41C6933.74 5484.74 6932.11 5477.99 6928.84 5472.17C6925.65 5466.34 6921.21 5461.8 6915.53 5458.53C6909.84 5455.26 6903.35 5453.6 6896.03 5453.52C6889.64 5453.52 6883.42 5454.84 6877.39 5457.47C6871.42 5460.09 6866.77 5463.68 6863.43 5468.23L6822.41 5460.88L6832.75 5345.82H6966.13V5383.53H6870.78L6865.13 5438.18H6866.41C6870.25 5432.79 6876.04 5428.31 6883.78 5424.76C6891.52 5421.21 6900.18 5419.43 6909.77 5419.43C6922.91 5419.43 6934.63 5422.52 6944.93 5428.7C6955.23 5434.88 6963.36 5443.37 6969.33 5454.16C6975.29 5464.89 6978.24 5477.25 6978.17 5491.24C6978.24 5505.94 6974.83 5519.01 6967.94 5530.44C6961.12 5541.81 6951.57 5550.75 6939.28 5557.29C6927.07 5563.75 6912.86 5566.98 6896.67 5566.98Z" fill="black"/>
<path id="311" d="M1455.33 5566.98C1439.42 5566.98 1425.25 5564.25 1412.82 5558.78C1400.47 5553.24 1390.7 5545.64 1383.53 5535.98C1376.42 5526.25 1372.77 5515.03 1372.55 5502.32H1419C1419.29 5507.64 1421.03 5512.33 1424.22 5516.38C1427.49 5520.36 1431.82 5523.45 1437.22 5525.65C1442.62 5527.85 1448.69 5528.95 1455.44 5528.95C1462.47 5528.95 1468.68 5527.71 1474.08 5525.22C1479.48 5522.74 1483.7 5519.29 1486.76 5514.89C1489.81 5510.48 1491.34 5505.41 1491.34 5499.65C1491.34 5493.83 1489.71 5488.68 1486.44 5484.21C1483.24 5479.66 1478.63 5476.11 1472.59 5473.55C1466.62 5471 1459.52 5469.72 1451.28 5469.72H1430.93V5435.84H1451.28C1458.24 5435.84 1464.39 5434.63 1469.71 5432.22C1475.11 5429.8 1479.3 5426.46 1482.28 5422.2C1485.27 5417.87 1486.76 5412.83 1486.76 5407.08C1486.76 5401.61 1485.44 5396.81 1482.82 5392.69C1480.26 5388.5 1476.64 5385.24 1471.95 5382.89C1467.33 5380.55 1461.94 5379.38 1455.76 5379.38C1449.51 5379.38 1443.79 5380.51 1438.61 5382.79C1433.42 5384.99 1429.27 5388.15 1426.14 5392.27C1423.02 5396.39 1421.35 5401.22 1421.13 5406.76H1376.92C1377.13 5394.18 1380.72 5383.11 1387.68 5373.52C1394.64 5363.93 1404.02 5356.44 1415.81 5351.04C1427.67 5345.57 1441.06 5342.84 1455.97 5342.84C1471.03 5342.84 1484.2 5345.57 1495.49 5351.04C1506.79 5356.51 1515.56 5363.89 1521.81 5373.2C1528.13 5382.43 1531.25 5392.8 1531.18 5404.31C1531.25 5416.52 1527.45 5426.71 1519.78 5434.88C1512.18 5443.05 1502.28 5448.23 1490.06 5450.43V5452.14C1506.11 5454.2 1518.33 5459.77 1526.71 5468.87C1535.16 5477.88 1539.35 5489.18 1539.28 5502.74C1539.35 5515.17 1535.76 5526.22 1528.52 5535.88C1521.35 5545.53 1511.44 5553.13 1498.8 5558.67C1486.15 5564.21 1471.67 5566.98 1455.33 5566.98ZM1667.36 5345.82V5564H1621.23V5389.6H1619.95L1569.99 5420.92V5380.02L1624 5345.82H1667.36ZM1814.14 5345.82V5564H1768.01V5389.6H1766.73L1716.77 5420.92V5380.02L1770.78 5345.82H1814.14Z" fill="black"/>
<path id="310" d="M2344.33 5566.98C2328.42 5566.98 2314.25 5564.25 2301.82 5558.78C2289.47 5553.24 2279.7 5545.64 2272.53 5535.98C2265.42 5526.25 2261.77 5515.03 2261.55 5502.32H2308C2308.29 5507.64 2310.03 5512.33 2313.22 5516.38C2316.49 5520.36 2320.82 5523.45 2326.22 5525.65C2331.62 5527.85 2337.69 5528.95 2344.44 5528.95C2351.47 5528.95 2357.68 5527.71 2363.08 5525.22C2368.48 5522.74 2372.7 5519.29 2375.76 5514.89C2378.81 5510.48 2380.34 5505.41 2380.34 5499.65C2380.34 5493.83 2378.71 5488.68 2375.44 5484.21C2372.24 5479.66 2367.63 5476.11 2361.59 5473.55C2355.62 5471 2348.52 5469.72 2340.28 5469.72H2319.93V5435.84H2340.28C2347.24 5435.84 2353.39 5434.63 2358.71 5432.22C2364.11 5429.8 2368.3 5426.46 2371.28 5422.2C2374.27 5417.87 2375.76 5412.83 2375.76 5407.08C2375.76 5401.61 2374.44 5396.81 2371.82 5392.69C2369.26 5388.5 2365.64 5385.24 2360.95 5382.89C2356.33 5380.55 2350.94 5379.38 2344.76 5379.38C2338.51 5379.38 2332.79 5380.51 2327.61 5382.79C2322.42 5384.99 2318.27 5388.15 2315.14 5392.27C2312.02 5396.39 2310.35 5401.22 2310.13 5406.76H2265.92C2266.13 5394.18 2269.72 5383.11 2276.68 5373.52C2283.64 5363.93 2293.02 5356.44 2304.81 5351.04C2316.67 5345.57 2330.06 5342.84 2344.97 5342.84C2360.03 5342.84 2373.2 5345.57 2384.49 5351.04C2395.79 5356.51 2404.56 5363.89 2410.81 5373.2C2417.13 5382.43 2420.25 5392.8 2420.18 5404.31C2420.25 5416.52 2416.45 5426.71 2408.78 5434.88C2401.18 5443.05 2391.28 5448.23 2379.06 5450.43V5452.14C2395.11 5454.2 2407.33 5459.77 2415.71 5468.87C2424.16 5477.88 2428.35 5489.18 2428.28 5502.74C2428.35 5515.17 2424.76 5526.22 2417.52 5535.88C2410.35 5545.53 2400.44 5553.13 2387.8 5558.67C2375.15 5564.21 2360.67 5566.98 2344.33 5566.98ZM2556.36 5345.82V5564H2510.23V5389.6H2508.95L2458.99 5420.92V5380.02L2513 5345.82H2556.36ZM2693.76 5568.79C2675.44 5568.72 2659.67 5564.21 2646.46 5555.26C2633.32 5546.32 2623.2 5533.35 2616.1 5516.38C2609.07 5499.4 2605.59 5478.99 2605.66 5455.12C2605.66 5431.33 2609.17 5411.05 2616.21 5394.29C2623.31 5377.53 2633.43 5364.78 2646.57 5356.05C2659.78 5347.24 2675.51 5342.84 2693.76 5342.84C2712.02 5342.84 2727.71 5347.24 2740.85 5356.05C2754.06 5364.85 2764.22 5377.64 2771.32 5394.4C2778.42 5411.09 2781.94 5431.33 2781.87 5455.12C2781.87 5479.06 2778.32 5499.51 2771.21 5516.49C2764.18 5533.46 2754.1 5546.42 2740.96 5555.37C2727.82 5564.32 2712.09 5568.79 2693.76 5568.79ZM2693.76 5530.55C2706.26 5530.55 2716.24 5524.26 2723.7 5511.69C2731.16 5499.12 2734.85 5480.26 2734.78 5455.12C2734.78 5438.57 2733.07 5424.8 2729.66 5413.79C2726.33 5402.78 2721.57 5394.5 2715.39 5388.96C2709.28 5383.42 2702.07 5380.65 2693.76 5380.65C2681.33 5380.65 2671.39 5386.87 2663.93 5399.3C2656.48 5411.73 2652.71 5430.34 2652.64 5455.12C2652.64 5471.88 2654.31 5485.88 2657.65 5497.1C2661.06 5508.25 2665.85 5516.63 2672.03 5522.24C2678.21 5527.78 2685.45 5530.55 2693.76 5530.55Z" fill="black"/>
<path id="309" d="M3244.33 5566.98C3228.42 5566.98 3214.25 5564.25 3201.82 5558.78C3189.47 5553.24 3179.7 5545.64 3172.53 5535.98C3165.42 5526.25 3161.77 5515.03 3161.55 5502.32H3208C3208.29 5507.64 3210.03 5512.33 3213.22 5516.38C3216.49 5520.36 3220.82 5523.45 3226.22 5525.65C3231.62 5527.85 3237.69 5528.95 3244.44 5528.95C3251.47 5528.95 3257.68 5527.71 3263.08 5525.22C3268.48 5522.74 3272.7 5519.29 3275.76 5514.89C3278.81 5510.48 3280.34 5505.41 3280.34 5499.65C3280.34 5493.83 3278.71 5488.68 3275.44 5484.21C3272.24 5479.66 3267.63 5476.11 3261.59 5473.55C3255.62 5471 3248.52 5469.72 3240.28 5469.72H3219.93V5435.84H3240.28C3247.24 5435.84 3253.39 5434.63 3258.71 5432.22C3264.11 5429.8 3268.3 5426.46 3271.28 5422.2C3274.27 5417.87 3275.76 5412.83 3275.76 5407.08C3275.76 5401.61 3274.44 5396.81 3271.82 5392.69C3269.26 5388.5 3265.64 5385.24 3260.95 5382.89C3256.33 5380.55 3250.94 5379.38 3244.76 5379.38C3238.51 5379.38 3232.79 5380.51 3227.61 5382.79C3222.42 5384.99 3218.27 5388.15 3215.14 5392.27C3212.02 5396.39 3210.35 5401.22 3210.13 5406.76H3165.92C3166.13 5394.18 3169.72 5383.11 3176.68 5373.52C3183.64 5363.93 3193.02 5356.44 3204.81 5351.04C3216.67 5345.57 3230.06 5342.84 3244.97 5342.84C3260.03 5342.84 3273.2 5345.57 3284.49 5351.04C3295.79 5356.51 3304.56 5363.89 3310.81 5373.2C3317.13 5382.43 3320.25 5392.8 3320.18 5404.31C3320.25 5416.52 3316.45 5426.71 3308.78 5434.88C3301.18 5443.05 3291.28 5448.23 3279.06 5450.43V5452.14C3295.11 5454.2 3307.33 5459.77 3315.71 5468.87C3324.16 5477.88 3328.35 5489.18 3328.28 5502.74C3328.35 5515.17 3324.76 5526.22 3317.52 5535.88C3310.35 5545.53 3300.44 5553.13 3287.8 5558.67C3275.15 5564.21 3260.67 5566.98 3244.33 5566.98ZM3446.99 5568.79C3428.66 5568.72 3412.89 5564.21 3399.68 5555.26C3386.55 5546.32 3376.42 5533.35 3369.32 5516.38C3362.29 5499.4 3358.81 5478.99 3358.88 5455.12C3358.88 5431.33 3362.4 5411.05 3369.43 5394.29C3376.53 5377.53 3386.65 5364.78 3399.79 5356.05C3413 5347.24 3428.73 5342.84 3446.99 5342.84C3465.24 5342.84 3480.93 5347.24 3494.07 5356.05C3507.28 5364.85 3517.44 5377.64 3524.54 5394.4C3531.64 5411.09 3535.16 5431.33 3535.09 5455.12C3535.09 5479.06 3531.54 5499.51 3524.44 5516.49C3517.4 5533.46 3507.32 5546.42 3494.18 5555.37C3481.04 5564.32 3465.31 5568.79 3446.99 5568.79ZM3446.99 5530.55C3459.49 5530.55 3469.46 5524.26 3476.92 5511.69C3484.38 5499.12 3488.07 5480.26 3488 5455.12C3488 5438.57 3486.3 5424.8 3482.89 5413.79C3479.55 5402.78 3474.79 5394.5 3468.61 5388.96C3462.5 5383.42 3455.3 5380.65 3446.99 5380.65C3434.56 5380.65 3424.61 5386.87 3417.16 5399.3C3409.7 5411.73 3405.93 5430.34 3405.86 5455.12C3405.86 5471.88 3407.53 5485.88 3410.87 5497.1C3414.28 5508.25 3419.07 5516.63 3425.25 5522.24C3431.43 5527.78 3438.68 5530.55 3446.99 5530.55ZM3646.92 5342.84C3658.14 5342.84 3668.94 5344.72 3679.31 5348.48C3689.75 5352.25 3699.05 5358.25 3707.22 5366.49C3715.46 5374.72 3721.96 5385.66 3726.72 5399.3C3731.55 5412.86 3734 5429.52 3734.07 5449.26C3734.07 5467.8 3731.97 5484.35 3727.78 5498.91C3723.66 5513.4 3717.73 5525.72 3709.99 5535.88C3702.25 5546.03 3692.91 5553.77 3681.97 5559.1C3671.04 5564.36 3658.82 5566.98 3645.33 5566.98C3630.77 5566.98 3617.91 5564.18 3606.76 5558.57C3595.61 5552.88 3586.63 5545.18 3579.81 5535.45C3573.06 5525.65 3568.98 5514.64 3567.56 5502.42H3613.05C3614.82 5510.38 3618.55 5516.56 3624.23 5520.96C3629.91 5525.29 3636.94 5527.46 3645.33 5527.46C3659.53 5527.46 3670.33 5521.28 3677.71 5508.92C3685.1 5496.49 3688.83 5479.48 3688.9 5457.89H3687.41C3684.14 5464.28 3679.74 5469.79 3674.2 5474.4C3668.66 5478.95 3662.3 5482.47 3655.13 5484.95C3648.02 5487.44 3640.46 5488.68 3632.43 5488.68C3619.58 5488.68 3608.11 5485.66 3598.02 5479.62C3587.94 5473.59 3579.98 5465.28 3574.16 5454.7C3568.34 5444.11 3565.42 5432.04 3565.42 5418.47C3565.35 5403.84 3568.73 5390.81 3575.55 5379.38C3582.36 5367.94 3591.88 5358.99 3604.1 5352.53C3616.38 5346 3630.66 5342.76 3646.92 5342.84ZM3647.24 5379.06C3640.07 5379.06 3633.68 5380.76 3628.07 5384.17C3622.53 5387.58 3618.12 5392.16 3614.86 5397.91C3611.66 5403.67 3610.1 5410.09 3610.17 5417.2C3610.17 5424.37 3611.73 5430.83 3614.86 5436.59C3618.05 5442.27 3622.38 5446.81 3627.85 5450.22C3633.39 5453.56 3639.71 5455.23 3646.82 5455.23C3652.14 5455.23 3657.08 5454.23 3661.62 5452.25C3666.17 5450.26 3670.11 5447.52 3673.45 5444.04C3676.86 5440.49 3679.52 5436.41 3681.44 5431.79C3683.36 5427.17 3684.32 5422.27 3684.32 5417.09C3684.25 5410.2 3682.61 5403.88 3679.42 5398.13C3676.22 5392.37 3671.82 5387.76 3666.21 5384.28C3660.6 5380.8 3654.27 5379.06 3647.24 5379.06Z" fill="black"/>
<path id="306" d="M5412.33 5566.98C5396.42 5566.98 5382.25 5564.25 5369.82 5558.78C5357.47 5553.24 5347.7 5545.64 5340.53 5535.98C5333.42 5526.25 5329.77 5515.03 5329.55 5502.32H5376C5376.29 5507.64 5378.03 5512.33 5381.22 5516.38C5384.49 5520.36 5388.82 5523.45 5394.22 5525.65C5399.62 5527.85 5405.69 5528.95 5412.44 5528.95C5419.47 5528.95 5425.68 5527.71 5431.08 5525.22C5436.48 5522.74 5440.7 5519.29 5443.76 5514.89C5446.81 5510.48 5448.34 5505.41 5448.34 5499.65C5448.34 5493.83 5446.71 5488.68 5443.44 5484.21C5440.24 5479.66 5435.63 5476.11 5429.59 5473.55C5423.62 5471 5416.52 5469.72 5408.28 5469.72H5387.93V5435.84H5408.28C5415.24 5435.84 5421.39 5434.63 5426.71 5432.22C5432.11 5429.8 5436.3 5426.46 5439.28 5422.2C5442.27 5417.87 5443.76 5412.83 5443.76 5407.08C5443.76 5401.61 5442.44 5396.81 5439.82 5392.69C5437.26 5388.5 5433.64 5385.24 5428.95 5382.89C5424.33 5380.55 5418.94 5379.38 5412.76 5379.38C5406.51 5379.38 5400.79 5380.51 5395.61 5382.79C5390.42 5384.99 5386.27 5388.15 5383.14 5392.27C5380.02 5396.39 5378.35 5401.22 5378.13 5406.76H5333.92C5334.13 5394.18 5337.72 5383.11 5344.68 5373.52C5351.64 5363.93 5361.02 5356.44 5372.81 5351.04C5384.67 5345.57 5398.06 5342.84 5412.97 5342.84C5428.03 5342.84 5441.2 5345.57 5452.49 5351.04C5463.79 5356.51 5472.56 5363.89 5478.81 5373.2C5485.13 5382.43 5488.25 5392.8 5488.18 5404.31C5488.25 5416.52 5484.45 5426.71 5476.78 5434.88C5469.18 5443.05 5459.28 5448.23 5447.06 5450.43V5452.14C5463.11 5454.2 5475.33 5459.77 5483.71 5468.87C5492.16 5477.88 5496.35 5489.18 5496.28 5502.74C5496.35 5515.17 5492.76 5526.22 5485.52 5535.88C5478.35 5545.53 5468.44 5553.13 5455.8 5558.67C5443.15 5564.21 5428.67 5566.98 5412.33 5566.98ZM5614.99 5568.79C5596.66 5568.72 5580.89 5564.21 5567.68 5555.26C5554.55 5546.32 5544.42 5533.35 5537.32 5516.38C5530.29 5499.4 5526.81 5478.99 5526.88 5455.12C5526.88 5431.33 5530.4 5411.05 5537.43 5394.29C5544.53 5377.53 5554.65 5364.78 5567.79 5356.05C5581 5347.24 5596.73 5342.84 5614.99 5342.84C5633.24 5342.84 5648.93 5347.24 5662.07 5356.05C5675.28 5364.85 5685.44 5377.64 5692.54 5394.4C5699.64 5411.09 5703.16 5431.33 5703.09 5455.12C5703.09 5479.06 5699.54 5499.51 5692.44 5516.49C5685.4 5533.46 5675.32 5546.42 5662.18 5555.37C5649.04 5564.32 5633.31 5568.79 5614.99 5568.79ZM5614.99 5530.55C5627.49 5530.55 5637.46 5524.26 5644.92 5511.69C5652.38 5499.12 5656.07 5480.26 5656 5455.12C5656 5438.57 5654.3 5424.8 5650.89 5413.79C5647.55 5402.78 5642.79 5394.5 5636.61 5388.96C5630.5 5383.42 5623.3 5380.65 5614.99 5380.65C5602.56 5380.65 5592.61 5386.87 5585.16 5399.3C5577.7 5411.73 5573.93 5430.34 5573.86 5455.12C5573.86 5471.88 5575.53 5485.88 5578.87 5497.1C5582.28 5508.25 5587.07 5516.63 5593.25 5522.24C5599.43 5527.78 5606.68 5530.55 5614.99 5530.55ZM5819.72 5566.98C5808.5 5566.91 5797.66 5565.03 5787.22 5561.34C5776.86 5557.64 5767.55 5551.64 5759.31 5543.33C5751.07 5535.02 5744.54 5524.01 5739.71 5510.31C5734.95 5496.6 5732.57 5479.77 5732.57 5459.81C5732.64 5441.49 5734.74 5425.12 5738.86 5410.7C5743.05 5396.21 5749.01 5383.92 5756.76 5373.84C5764.57 5363.75 5773.91 5356.08 5784.77 5350.83C5795.64 5345.5 5807.82 5342.84 5821.32 5342.84C5835.88 5342.84 5848.73 5345.68 5859.88 5351.36C5871.03 5356.97 5879.98 5364.6 5886.73 5374.26C5893.55 5383.92 5897.66 5394.75 5899.09 5406.76H5853.6C5851.82 5399.16 5848.09 5393.19 5842.41 5388.86C5836.73 5384.53 5829.7 5382.36 5821.32 5382.36C5807.11 5382.36 5796.32 5388.54 5788.93 5400.9C5781.61 5413.25 5777.88 5430.05 5777.74 5451.29H5779.23C5782.5 5444.82 5786.9 5439.32 5792.44 5434.77C5798.06 5430.16 5804.41 5426.64 5811.51 5424.23C5818.69 5421.74 5826.25 5420.5 5834.21 5420.5C5847.13 5420.5 5858.64 5423.55 5868.72 5429.66C5878.81 5435.7 5886.76 5444.01 5892.59 5454.59C5898.41 5465.17 5901.32 5477.28 5901.32 5490.92C5901.32 5505.69 5897.88 5518.83 5890.99 5530.34C5884.17 5541.84 5874.62 5550.86 5862.33 5557.39C5850.12 5563.86 5835.91 5567.05 5819.72 5566.98ZM5819.5 5530.76C5826.61 5530.76 5832.96 5529.06 5838.57 5525.65C5844.18 5522.24 5848.59 5517.62 5851.78 5511.8C5854.98 5505.97 5856.58 5499.44 5856.58 5492.2C5856.58 5484.95 5854.98 5478.45 5851.78 5472.7C5848.66 5466.95 5844.33 5462.37 5838.79 5458.96C5833.25 5455.55 5826.93 5453.84 5819.82 5453.84C5814.5 5453.84 5809.56 5454.84 5805.02 5456.83C5800.54 5458.82 5796.6 5461.59 5793.19 5465.14C5789.85 5468.69 5787.22 5472.81 5785.31 5477.49C5783.39 5482.11 5782.43 5487.05 5782.43 5492.3C5782.43 5499.33 5784.03 5505.76 5787.22 5511.59C5790.49 5517.41 5794.89 5522.06 5800.43 5525.54C5806.05 5529.02 5812.4 5530.76 5819.5 5530.76Z" fill="black"/>
<path id="304" d="M7583.33 5566.98C7567.42 5566.98 7553.25 5564.25 7540.82 5558.78C7528.47 5553.24 7518.7 5545.64 7511.53 5535.98C7504.42 5526.25 7500.77 5515.03 7500.55 5502.32H7547C7547.29 5507.64 7549.03 5512.33 7552.22 5516.38C7555.49 5520.36 7559.82 5523.45 7565.22 5525.65C7570.62 5527.85 7576.69 5528.95 7583.44 5528.95C7590.47 5528.95 7596.68 5527.71 7602.08 5525.22C7607.48 5522.74 7611.7 5519.29 7614.76 5514.89C7617.81 5510.48 7619.34 5505.41 7619.34 5499.65C7619.34 5493.83 7617.71 5488.68 7614.44 5484.21C7611.24 5479.66 7606.63 5476.11 7600.59 5473.55C7594.62 5471 7587.52 5469.72 7579.28 5469.72H7558.93V5435.84H7579.28C7586.24 5435.84 7592.39 5434.63 7597.71 5432.22C7603.11 5429.8 7607.3 5426.46 7610.28 5422.2C7613.27 5417.87 7614.76 5412.83 7614.76 5407.08C7614.76 5401.61 7613.44 5396.81 7610.82 5392.69C7608.26 5388.5 7604.64 5385.24 7599.95 5382.89C7595.33 5380.55 7589.94 5379.38 7583.76 5379.38C7577.51 5379.38 7571.79 5380.51 7566.61 5382.79C7561.42 5384.99 7557.27 5388.15 7554.14 5392.27C7551.02 5396.39 7549.35 5401.22 7549.13 5406.76H7504.92C7505.13 5394.18 7508.72 5383.11 7515.68 5373.52C7522.64 5363.93 7532.02 5356.44 7543.81 5351.04C7555.67 5345.57 7569.06 5342.84 7583.97 5342.84C7599.03 5342.84 7612.2 5345.57 7623.49 5351.04C7634.79 5356.51 7643.56 5363.89 7649.81 5373.2C7656.13 5382.43 7659.25 5392.8 7659.18 5404.31C7659.25 5416.52 7655.45 5426.71 7647.78 5434.88C7640.18 5443.05 7630.28 5448.23 7618.06 5450.43V5452.14C7634.11 5454.2 7646.33 5459.77 7654.71 5468.87C7663.16 5477.88 7667.35 5489.18 7667.28 5502.74C7667.35 5515.17 7663.76 5526.22 7656.52 5535.88C7649.35 5545.53 7639.44 5553.13 7626.8 5558.67C7614.15 5564.21 7599.67 5566.98 7583.33 5566.98ZM7785.99 5568.79C7767.66 5568.72 7751.89 5564.21 7738.68 5555.26C7725.55 5546.32 7715.42 5533.35 7708.32 5516.38C7701.29 5499.4 7697.81 5478.99 7697.88 5455.12C7697.88 5431.33 7701.4 5411.05 7708.43 5394.29C7715.53 5377.53 7725.65 5364.78 7738.79 5356.05C7752 5347.24 7767.73 5342.84 7785.99 5342.84C7804.24 5342.84 7819.93 5347.24 7833.07 5356.05C7846.28 5364.85 7856.44 5377.64 7863.54 5394.4C7870.64 5411.09 7874.16 5431.33 7874.09 5455.12C7874.09 5479.06 7870.54 5499.51 7863.44 5516.49C7856.4 5533.46 7846.32 5546.42 7833.18 5555.37C7820.04 5564.32 7804.31 5568.79 7785.99 5568.79ZM7785.99 5530.55C7798.49 5530.55 7808.46 5524.26 7815.92 5511.69C7823.38 5499.12 7827.07 5480.26 7827 5455.12C7827 5438.57 7825.3 5424.8 7821.89 5413.79C7818.55 5402.78 7813.79 5394.5 7807.61 5388.96C7801.5 5383.42 7794.3 5380.65 7785.99 5380.65C7773.56 5380.65 7763.61 5386.87 7756.16 5399.3C7748.7 5411.73 7744.93 5430.34 7744.86 5455.12C7744.86 5471.88 7746.53 5485.88 7749.87 5497.1C7753.28 5508.25 7758.07 5516.63 7764.25 5522.24C7770.43 5527.78 7777.68 5530.55 7785.99 5530.55ZM7903.68 5525.65V5489.32L7994.77 5345.82H8026.09V5396.1H8007.55L7950.13 5486.98V5488.68H8079.57V5525.65H7903.68ZM8008.4 5564V5514.57L8009.25 5498.48V5345.82H8052.51V5564H8008.4Z" fill="black"/>
<path id="301" d="M6369.33 3270.98C6353.42 3270.98 6339.25 3268.25 6326.82 3262.78C6314.47 3257.24 6304.7 3249.64 6297.53 3239.98C6290.42 3230.25 6286.77 3219.03 6286.55 3206.32H6333C6333.29 3211.64 6335.03 3216.33 6338.22 3220.38C6341.49 3224.36 6345.82 3227.45 6351.22 3229.65C6356.62 3231.85 6362.69 3232.95 6369.44 3232.95C6376.47 3232.95 6382.68 3231.71 6388.08 3229.22C6393.48 3226.74 6397.7 3223.29 6400.76 3218.89C6403.81 3214.48 6405.34 3209.41 6405.34 3203.65C6405.34 3197.83 6403.71 3192.68 6400.44 3188.21C6397.24 3183.66 6392.63 3180.11 6386.59 3177.55C6380.62 3175 6373.52 3173.72 6365.28 3173.72H6344.93V3139.84H6365.28C6372.24 3139.84 6378.39 3138.63 6383.71 3136.22C6389.11 3133.8 6393.3 3130.46 6396.28 3126.2C6399.27 3121.87 6400.76 3116.83 6400.76 3111.08C6400.76 3105.61 6399.44 3100.81 6396.82 3096.69C6394.26 3092.5 6390.64 3089.24 6385.95 3086.89C6381.33 3084.55 6375.94 3083.38 6369.76 3083.38C6363.51 3083.38 6357.79 3084.51 6352.61 3086.79C6347.42 3088.99 6343.27 3092.15 6340.14 3096.27C6337.02 3100.39 6335.35 3105.22 6335.13 3110.76H6290.92C6291.13 3098.18 6294.72 3087.11 6301.68 3077.52C6308.64 3067.93 6318.02 3060.44 6329.81 3055.04C6341.67 3049.57 6355.06 3046.84 6369.97 3046.84C6385.03 3046.84 6398.2 3049.57 6409.49 3055.04C6420.79 3060.51 6429.56 3067.89 6435.81 3077.2C6442.13 3086.43 6445.25 3096.8 6445.18 3108.31C6445.25 3120.52 6441.45 3130.71 6433.78 3138.88C6426.18 3147.05 6416.28 3152.23 6404.06 3154.43V3156.14C6420.11 3158.2 6432.33 3163.77 6440.71 3172.87C6449.16 3181.88 6453.35 3193.18 6453.28 3206.74C6453.35 3219.17 6449.76 3230.22 6442.52 3239.88C6435.35 3249.53 6425.44 3257.13 6412.8 3262.67C6400.15 3268.21 6385.67 3270.98 6369.33 3270.98ZM6571.99 3272.79C6553.66 3272.72 6537.89 3268.21 6524.68 3259.26C6511.55 3250.32 6501.42 3237.35 6494.32 3220.38C6487.29 3203.4 6483.81 3182.99 6483.88 3159.12C6483.88 3135.33 6487.4 3115.05 6494.43 3098.29C6501.53 3081.53 6511.65 3068.78 6524.79 3060.05C6538 3051.24 6553.73 3046.84 6571.99 3046.84C6590.24 3046.84 6605.93 3051.24 6619.07 3060.05C6632.28 3068.85 6642.44 3081.64 6649.54 3098.4C6656.64 3115.09 6660.16 3135.33 6660.09 3159.12C6660.09 3183.06 6656.54 3203.51 6649.44 3220.49C6642.4 3237.46 6632.32 3250.42 6619.18 3259.37C6606.04 3268.32 6590.31 3272.79 6571.99 3272.79ZM6571.99 3234.55C6584.49 3234.55 6594.46 3228.26 6601.92 3215.69C6609.38 3203.12 6613.07 3184.26 6613 3159.12C6613 3142.57 6611.3 3128.8 6607.89 3117.79C6604.55 3106.78 6599.79 3098.5 6593.61 3092.96C6587.5 3087.42 6580.3 3084.65 6571.99 3084.65C6559.56 3084.65 6549.61 3090.87 6542.16 3103.3C6534.7 3115.73 6530.93 3134.34 6530.86 3159.12C6530.86 3175.88 6532.53 3189.88 6535.87 3201.1C6539.28 3212.25 6544.07 3220.63 6550.25 3226.24C6556.43 3231.78 6563.68 3234.55 6571.99 3234.55ZM6787.9 3049.82V3268H6741.77V3093.6H6740.5L6690.53 3124.92V3084.02L6744.54 3049.82H6787.9Z" fill="black"/>
<path id="308" d="M4385.33 4280.98C4369.42 4280.98 4355.25 4278.25 4342.82 4272.78C4330.47 4267.24 4320.7 4259.64 4313.53 4249.98C4306.42 4240.25 4302.77 4229.03 4302.55 4216.32H4349C4349.29 4221.64 4351.03 4226.33 4354.22 4230.38C4357.49 4234.36 4361.82 4237.45 4367.22 4239.65C4372.62 4241.85 4378.69 4242.95 4385.44 4242.95C4392.47 4242.95 4398.68 4241.71 4404.08 4239.22C4409.48 4236.74 4413.7 4233.29 4416.76 4228.89C4419.81 4224.48 4421.34 4219.41 4421.34 4213.65C4421.34 4207.83 4419.71 4202.68 4416.44 4198.21C4413.24 4193.66 4408.63 4190.11 4402.59 4187.55C4396.62 4185 4389.52 4183.72 4381.28 4183.72H4360.93V4149.84H4381.28C4388.24 4149.84 4394.39 4148.63 4399.71 4146.22C4405.11 4143.8 4409.3 4140.46 4412.28 4136.2C4415.27 4131.87 4416.76 4126.83 4416.76 4121.08C4416.76 4115.61 4415.44 4110.81 4412.82 4106.69C4410.26 4102.5 4406.64 4099.24 4401.95 4096.89C4397.33 4094.55 4391.94 4093.38 4385.76 4093.38C4379.51 4093.38 4373.79 4094.51 4368.61 4096.79C4363.42 4098.99 4359.27 4102.15 4356.14 4106.27C4353.02 4110.39 4351.35 4115.22 4351.13 4120.76H4306.92C4307.13 4108.18 4310.72 4097.11 4317.68 4087.52C4324.64 4077.93 4334.02 4070.44 4345.81 4065.04C4357.67 4059.57 4371.06 4056.84 4385.97 4056.84C4401.03 4056.84 4414.2 4059.57 4425.49 4065.04C4436.79 4070.51 4445.56 4077.89 4451.81 4087.2C4458.13 4096.43 4461.25 4106.8 4461.18 4118.31C4461.25 4130.52 4457.45 4140.71 4449.78 4148.88C4442.18 4157.05 4432.28 4162.23 4420.06 4164.43V4166.14C4436.11 4168.2 4448.33 4173.77 4456.71 4182.87C4465.16 4191.88 4469.35 4203.18 4469.28 4216.74C4469.35 4229.17 4465.76 4240.22 4458.52 4249.88C4451.35 4259.53 4441.44 4267.13 4428.8 4272.67C4416.15 4278.21 4401.67 4280.98 4385.33 4280.98ZM4587.99 4282.79C4569.66 4282.72 4553.89 4278.21 4540.68 4269.26C4527.55 4260.32 4517.42 4247.35 4510.32 4230.38C4503.29 4213.4 4499.81 4192.99 4499.88 4169.12C4499.88 4145.33 4503.4 4125.05 4510.43 4108.29C4517.53 4091.53 4527.65 4078.78 4540.79 4070.05C4554 4061.24 4569.73 4056.84 4587.99 4056.84C4606.24 4056.84 4621.93 4061.24 4635.07 4070.05C4648.28 4078.85 4658.44 4091.64 4665.54 4108.4C4672.64 4125.09 4676.16 4145.33 4676.09 4169.12C4676.09 4193.06 4672.54 4213.51 4665.44 4230.49C4658.4 4247.46 4648.32 4260.42 4635.18 4269.37C4622.04 4278.32 4606.31 4282.79 4587.99 4282.79ZM4587.99 4244.55C4600.49 4244.55 4610.46 4238.26 4617.92 4225.69C4625.38 4213.12 4629.07 4194.26 4629 4169.12C4629 4152.57 4627.3 4138.8 4623.89 4127.79C4620.55 4116.78 4615.79 4108.5 4609.61 4102.96C4603.5 4097.42 4596.3 4094.65 4587.99 4094.65C4575.56 4094.65 4565.61 4100.87 4558.16 4113.3C4550.7 4125.73 4546.93 4144.34 4546.86 4169.12C4546.86 4185.88 4548.53 4199.88 4551.87 4211.1C4555.28 4222.25 4560.07 4230.63 4566.25 4236.24C4572.43 4241.78 4579.68 4244.55 4587.99 4244.55ZM4790.37 4280.98C4773.97 4280.98 4759.37 4278.32 4746.59 4272.99C4733.88 4267.6 4723.9 4260.24 4716.65 4250.94C4709.41 4241.64 4705.79 4231.09 4705.79 4219.3C4705.79 4210.21 4707.85 4201.86 4711.96 4194.26C4716.15 4186.59 4721.84 4180.24 4729.01 4175.19C4736.18 4170.08 4744.21 4166.81 4753.09 4165.39V4163.9C4741.44 4161.56 4731.99 4155.91 4724.75 4146.96C4717.5 4137.94 4713.88 4127.47 4713.88 4115.54C4713.88 4104.24 4717.18 4094.19 4723.79 4085.39C4730.39 4076.51 4739.45 4069.55 4750.96 4064.51C4762.53 4059.39 4775.67 4056.84 4790.37 4056.84C4805.08 4056.84 4818.18 4059.39 4829.68 4064.51C4841.26 4069.62 4850.35 4076.62 4856.96 4085.49C4863.56 4094.3 4866.9 4104.31 4866.97 4115.54C4866.9 4127.54 4863.21 4138.01 4855.89 4146.96C4848.58 4155.91 4839.2 4161.56 4827.77 4163.9V4165.39C4836.5 4166.81 4844.42 4170.08 4851.52 4175.19C4858.7 4180.24 4864.38 4186.59 4868.57 4194.26C4872.83 4201.86 4875 4210.21 4875.07 4219.3C4875 4231.09 4871.34 4241.64 4864.1 4250.94C4856.85 4260.24 4846.84 4267.6 4834.05 4272.99C4821.34 4278.32 4806.78 4280.98 4790.37 4280.98ZM4790.37 4247.11C4797.69 4247.11 4804.08 4245.79 4809.55 4243.16C4815.02 4240.46 4819.28 4236.77 4822.33 4232.08C4825.46 4227.33 4827.02 4221.86 4827.02 4215.68C4827.02 4209.36 4825.42 4203.78 4822.23 4198.95C4819.03 4194.05 4814.7 4190.22 4809.23 4187.45C4803.76 4184.61 4797.48 4183.18 4790.37 4183.18C4783.34 4183.18 4777.06 4184.61 4771.52 4187.45C4765.98 4190.22 4761.61 4194.05 4758.41 4198.95C4755.29 4203.78 4753.73 4209.36 4753.73 4215.68C4753.73 4221.86 4755.25 4227.33 4758.31 4232.08C4761.36 4236.77 4765.66 4240.46 4771.2 4243.16C4776.74 4245.79 4783.13 4247.11 4790.37 4247.11ZM4790.37 4149.63C4796.48 4149.63 4801.91 4148.38 4806.67 4145.9C4811.43 4143.41 4815.16 4139.97 4817.86 4135.56C4820.56 4131.16 4821.91 4126.08 4821.91 4120.33C4821.91 4114.65 4820.56 4109.68 4817.86 4105.41C4815.16 4101.08 4811.47 4097.71 4806.78 4095.29C4802.09 4092.81 4796.62 4091.57 4790.37 4091.57C4784.19 4091.57 4778.73 4092.81 4773.97 4095.29C4769.21 4097.71 4765.48 4101.08 4762.78 4105.41C4760.15 4109.68 4758.84 4114.65 4758.84 4120.33C4758.84 4126.08 4760.19 4131.16 4762.89 4135.56C4765.59 4139.97 4769.32 4143.41 4774.07 4145.9C4778.83 4148.38 4784.27 4149.63 4790.37 4149.63Z" fill="black"/>
<path id="312" d="M1405.33 4305.98C1389.42 4305.98 1375.25 4303.25 1362.82 4297.78C1350.47 4292.24 1340.7 4284.64 1333.53 4274.98C1326.42 4265.25 1322.77 4254.03 1322.55 4241.32H1369C1369.29 4246.64 1371.03 4251.33 1374.22 4255.38C1377.49 4259.36 1381.82 4262.45 1387.22 4264.65C1392.62 4266.85 1398.69 4267.95 1405.44 4267.95C1412.47 4267.95 1418.68 4266.71 1424.08 4264.22C1429.48 4261.74 1433.7 4258.29 1436.76 4253.89C1439.81 4249.48 1441.34 4244.41 1441.34 4238.65C1441.34 4232.83 1439.71 4227.68 1436.44 4223.21C1433.24 4218.66 1428.63 4215.11 1422.59 4212.55C1416.62 4210 1409.52 4208.72 1401.28 4208.72H1380.93V4174.84H1401.28C1408.24 4174.84 1414.39 4173.63 1419.71 4171.22C1425.11 4168.8 1429.3 4165.46 1432.28 4161.2C1435.27 4156.87 1436.76 4151.83 1436.76 4146.08C1436.76 4140.61 1435.44 4135.81 1432.82 4131.69C1430.26 4127.5 1426.64 4124.24 1421.95 4121.89C1417.33 4119.55 1411.94 4118.38 1405.76 4118.38C1399.51 4118.38 1393.79 4119.51 1388.61 4121.79C1383.42 4123.99 1379.27 4127.15 1376.14 4131.27C1373.02 4135.39 1371.35 4140.22 1371.13 4145.76H1326.92C1327.13 4133.18 1330.72 4122.11 1337.68 4112.52C1344.64 4102.93 1354.02 4095.44 1365.81 4090.04C1377.67 4084.57 1391.06 4081.84 1405.97 4081.84C1421.03 4081.84 1434.2 4084.57 1445.49 4090.04C1456.79 4095.51 1465.56 4102.89 1471.81 4112.2C1478.13 4121.43 1481.25 4131.8 1481.18 4143.31C1481.25 4155.52 1477.45 4165.71 1469.78 4173.88C1462.18 4182.05 1452.28 4187.23 1440.06 4189.43V4191.14C1456.11 4193.2 1468.33 4198.77 1476.71 4207.87C1485.16 4216.88 1489.35 4228.18 1489.28 4241.74C1489.35 4254.17 1485.76 4265.22 1478.52 4274.88C1471.35 4284.53 1461.44 4292.13 1448.8 4297.67C1436.15 4303.21 1421.67 4305.98 1405.33 4305.98ZM1617.36 4084.82V4303H1571.23V4128.6H1569.95L1519.99 4159.92V4119.02L1574 4084.82H1617.36ZM1669.22 4303V4269.76L1746.88 4197.85C1753.48 4191.46 1759.02 4185.71 1763.5 4180.59C1768.04 4175.48 1771.49 4170.47 1773.83 4165.57C1776.18 4160.6 1777.35 4155.24 1777.35 4149.48C1777.35 4143.09 1775.89 4137.59 1772.98 4132.97C1770.07 4128.28 1766.09 4124.7 1761.05 4122.21C1756.01 4119.65 1750.29 4118.38 1743.9 4118.38C1737.22 4118.38 1731.4 4119.73 1726.42 4122.42C1721.45 4125.12 1717.62 4128.99 1714.92 4134.04C1712.22 4139.08 1710.87 4145.08 1710.87 4152.04H1667.09C1667.09 4137.77 1670.32 4125.37 1676.78 4114.86C1683.24 4104.35 1692.3 4096.22 1703.95 4090.46C1715.59 4084.71 1729.02 4081.84 1744.22 4081.84C1759.84 4081.84 1773.44 4084.61 1785.02 4090.14C1796.67 4095.61 1805.72 4103.21 1812.18 4112.94C1818.65 4122.67 1821.88 4133.82 1821.88 4146.39C1821.88 4154.63 1820.25 4162.77 1816.98 4170.79C1813.78 4178.82 1808.07 4187.73 1799.83 4197.53C1791.59 4207.26 1779.98 4218.94 1764.99 4232.58L1733.14 4263.8V4265.29H1824.76V4303H1669.22Z" fill="black"/>
<path id="314" d="M4067.33 2321.98C4051.42 2321.98 4037.25 2319.25 4024.82 2313.78C4012.47 2308.24 4002.7 2300.64 3995.53 2290.98C3988.42 2281.25 3984.77 2270.03 3984.55 2257.32H4031C4031.29 2262.64 4033.03 2267.33 4036.22 2271.38C4039.49 2275.36 4043.82 2278.45 4049.22 2280.65C4054.62 2282.85 4060.69 2283.95 4067.44 2283.95C4074.47 2283.95 4080.68 2282.71 4086.08 2280.22C4091.48 2277.74 4095.7 2274.29 4098.76 2269.89C4101.81 2265.48 4103.34 2260.41 4103.34 2254.65C4103.34 2248.83 4101.71 2243.68 4098.44 2239.21C4095.24 2234.66 4090.63 2231.11 4084.59 2228.55C4078.62 2226 4071.52 2224.72 4063.28 2224.72H4042.93V2190.84H4063.28C4070.24 2190.84 4076.39 2189.63 4081.71 2187.22C4087.11 2184.8 4091.3 2181.46 4094.28 2177.2C4097.27 2172.87 4098.76 2167.83 4098.76 2162.08C4098.76 2156.61 4097.44 2151.81 4094.82 2147.69C4092.26 2143.5 4088.64 2140.24 4083.95 2137.89C4079.33 2135.55 4073.94 2134.38 4067.76 2134.38C4061.51 2134.38 4055.79 2135.51 4050.61 2137.79C4045.42 2139.99 4041.27 2143.15 4038.14 2147.27C4035.02 2151.39 4033.35 2156.22 4033.13 2161.76H3988.92C3989.13 2149.18 3992.72 2138.11 3999.68 2128.52C4006.64 2118.93 4016.02 2111.44 4027.81 2106.04C4039.67 2100.57 4053.06 2097.84 4067.97 2097.84C4083.03 2097.84 4096.2 2100.57 4107.49 2106.04C4118.79 2111.51 4127.56 2118.89 4133.81 2128.2C4140.13 2137.43 4143.25 2147.8 4143.18 2159.31C4143.25 2171.52 4139.45 2181.71 4131.78 2189.88C4124.18 2198.05 4114.28 2203.23 4102.06 2205.43V2207.14C4118.11 2209.2 4130.33 2214.77 4138.71 2223.87C4147.16 2232.88 4151.35 2244.18 4151.28 2257.74C4151.35 2270.17 4147.76 2281.22 4140.52 2290.88C4133.35 2300.53 4123.44 2308.13 4110.8 2313.67C4098.15 2319.21 4083.67 2321.98 4067.33 2321.98ZM4279.36 2100.82V2319H4233.23V2144.6H4231.95L4181.99 2175.92V2135.02L4236 2100.82H4279.36ZM4327.91 2280.65V2244.32L4419 2100.82H4450.32V2151.1H4431.78L4374.36 2241.98V2243.68H4503.8V2280.65H4327.91ZM4432.64 2319V2269.57L4433.49 2253.48V2100.82H4476.74V2319H4432.64Z" fill="black"/>
<path id="315" d="M4760.33 2321.98C4744.42 2321.98 4730.25 2319.25 4717.82 2313.78C4705.47 2308.24 4695.7 2300.64 4688.53 2290.98C4681.42 2281.25 4677.77 2270.03 4677.55 2257.32H4724C4724.29 2262.64 4726.03 2267.33 4729.22 2271.38C4732.49 2275.36 4736.82 2278.45 4742.22 2280.65C4747.62 2282.85 4753.69 2283.95 4760.44 2283.95C4767.47 2283.95 4773.68 2282.71 4779.08 2280.22C4784.48 2277.74 4788.7 2274.29 4791.76 2269.89C4794.81 2265.48 4796.34 2260.41 4796.34 2254.65C4796.34 2248.83 4794.71 2243.68 4791.44 2239.21C4788.24 2234.66 4783.63 2231.11 4777.59 2228.55C4771.62 2226 4764.52 2224.72 4756.28 2224.72H4735.93V2190.84H4756.28C4763.24 2190.84 4769.39 2189.63 4774.71 2187.22C4780.11 2184.8 4784.3 2181.46 4787.28 2177.2C4790.27 2172.87 4791.76 2167.83 4791.76 2162.08C4791.76 2156.61 4790.44 2151.81 4787.82 2147.69C4785.26 2143.5 4781.64 2140.24 4776.95 2137.89C4772.33 2135.55 4766.94 2134.38 4760.76 2134.38C4754.51 2134.38 4748.79 2135.51 4743.61 2137.79C4738.42 2139.99 4734.27 2143.15 4731.14 2147.27C4728.02 2151.39 4726.35 2156.22 4726.13 2161.76H4681.92C4682.13 2149.18 4685.72 2138.11 4692.68 2128.52C4699.64 2118.93 4709.02 2111.44 4720.81 2106.04C4732.67 2100.57 4746.06 2097.84 4760.97 2097.84C4776.03 2097.84 4789.2 2100.57 4800.49 2106.04C4811.79 2111.51 4820.56 2118.89 4826.81 2128.2C4833.13 2137.43 4836.25 2147.8 4836.18 2159.31C4836.25 2171.52 4832.45 2181.71 4824.78 2189.88C4817.18 2198.05 4807.28 2203.23 4795.06 2205.43V2207.14C4811.11 2209.2 4823.33 2214.77 4831.71 2223.87C4840.16 2232.88 4844.35 2244.18 4844.28 2257.74C4844.35 2270.17 4840.76 2281.22 4833.52 2290.88C4826.35 2300.53 4816.44 2308.13 4803.8 2313.67C4791.15 2319.21 4776.67 2321.98 4760.33 2321.98ZM4972.36 2100.82V2319H4926.23V2144.6H4924.95L4874.99 2175.92V2135.02L4929 2100.82H4972.36ZM5103.9 2321.98C5088.85 2321.98 5075.42 2319.21 5063.63 2313.67C5051.91 2308.13 5042.61 2300.5 5035.72 2290.77C5028.83 2281.04 5025.25 2269.89 5024.96 2257.32H5069.71C5070.2 2265.77 5073.75 2272.62 5080.36 2277.88C5086.96 2283.13 5094.81 2285.76 5103.9 2285.76C5111.15 2285.76 5117.54 2284.16 5123.08 2280.97C5128.69 2277.7 5133.06 2273.19 5136.18 2267.44C5139.38 2261.61 5140.98 2254.94 5140.98 2247.41C5140.98 2239.74 5139.34 2232.99 5136.08 2227.17C5132.88 2221.34 5128.44 2216.8 5122.76 2213.53C5117.08 2210.26 5110.58 2208.6 5103.26 2208.52C5096.87 2208.52 5090.66 2209.84 5084.62 2212.47C5078.65 2215.09 5074 2218.68 5070.66 2223.23L5029.65 2215.88L5039.98 2100.82H5173.36V2138.53H5078.02L5072.37 2193.18H5073.65C5077.48 2187.79 5083.27 2183.31 5091.01 2179.76C5098.75 2176.21 5107.42 2174.43 5117.01 2174.43C5130.15 2174.43 5141.87 2177.52 5152.16 2183.7C5162.46 2189.88 5170.59 2198.37 5176.56 2209.16C5182.53 2219.89 5185.47 2232.25 5185.4 2246.24C5185.47 2260.94 5182.06 2274.01 5175.17 2285.44C5168.36 2296.81 5158.8 2305.75 5146.52 2312.29C5134.3 2318.75 5120.1 2321.98 5103.9 2321.98Z" fill="black"/>
<g id="Rectangle 404">
<path d="M4272 2854.5H4352V2795.5H4463.5V2854.5H4576V3002H4655.5V3223.5H4576V3351.5H4272V2854.5Z" fill="#789DB7"/>
<path d="M4272 2854.5H4352V2795.5H4463.5V2854.5H4576V3002H4655.5V3223.5H4576V3351.5H4272V2854.5Z" fill="#789DB7"/>
</g>
<g id="Rectangle 405">
<path d="M4940 2854.5H4860V2795.5H4748.5V2854.5H4636V3351.5H4940V2854.5Z" fill="#789DB7"/>
<path d="M4940 2854.5H4860V2795.5H4748.5V2854.5H4636V3351.5H4940V2854.5Z" fill="#789DB7"/>
</g>
<path id="&#208;&#187;&#208;&#184;&#209;&#132;&#209;&#130;" d="M4359.68 3171L4359.54 3146.99H4363.16C4365.72 3146.99 4367.92 3146.38 4369.77 3145.15C4371.66 3143.87 4373.22 3141.81 4374.45 3138.97C4375.69 3136.13 4376.66 3132.36 4377.37 3127.68C4378.08 3122.94 4378.55 3117.12 4378.79 3110.2L4380.56 3061.91H4463.52V3171H4434.68V3085.7H4407.76L4406.06 3119.01C4405.63 3128.15 4404.52 3136.01 4402.72 3142.59C4400.97 3149.17 4398.53 3154.57 4395.41 3158.78C4392.28 3162.95 4388.52 3166.03 4384.11 3168.02C4379.71 3170.01 4374.6 3171 4368.77 3171H4359.68ZM4515.88 3131.09L4555.15 3061.91H4584.98V3171H4556.15V3101.61L4517.01 3171H4486.97V3061.91H4515.88V3131.09ZM4661.44 3208.07V3025.55H4691.62V3208.07H4661.44ZM4661.44 3173.13C4653.06 3173.13 4645.41 3171.78 4638.5 3169.08C4631.59 3166.34 4625.62 3162.48 4620.6 3157.51C4615.58 3152.49 4611.7 3146.54 4608.95 3139.68C4606.21 3132.77 4604.83 3125.17 4604.83 3116.88C4604.83 3108.5 4606.21 3100.88 4608.95 3094.01C4611.7 3087.1 4615.58 3081.16 4620.6 3076.18C4625.62 3071.17 4631.59 3067.31 4638.5 3064.61C4645.41 3061.86 4653.06 3060.49 4661.44 3060.49H4667.05V3173.13H4661.44ZM4661.44 3149.55H4664.78V3084.07H4661.44C4657.37 3084.07 4653.75 3084.92 4650.57 3086.62C4647.4 3088.33 4644.73 3090.67 4642.55 3093.66C4640.37 3096.59 4638.71 3100.05 4637.58 3104.03C4636.49 3108 4635.94 3112.29 4635.94 3116.88C4635.94 3122.94 4636.94 3128.46 4638.93 3133.43C4640.91 3138.35 4643.83 3142.28 4647.66 3145.22C4651.5 3148.11 4656.09 3149.55 4661.44 3149.55ZM4691.62 3173.13H4686.01V3060.49H4691.62C4700 3060.49 4707.65 3061.86 4714.56 3064.61C4721.48 3067.31 4727.44 3071.17 4732.46 3076.18C4737.48 3081.16 4741.36 3087.1 4744.11 3094.01C4746.86 3100.88 4748.23 3108.5 4748.23 3116.88C4748.23 3125.17 4746.86 3132.77 4744.11 3139.68C4741.36 3146.54 4737.48 3152.49 4732.46 3157.51C4727.44 3162.48 4721.48 3166.34 4714.56 3169.08C4707.65 3171.78 4700 3173.13 4691.62 3173.13ZM4691.62 3149.55C4695.7 3149.55 4699.32 3148.72 4702.49 3147.07C4705.66 3145.36 4708.34 3143.02 4710.52 3140.03C4712.69 3137.05 4714.35 3133.59 4715.49 3129.66C4716.62 3125.69 4717.19 3121.43 4717.19 3116.88C4717.19 3110.77 4716.17 3105.26 4714.14 3100.33C4712.15 3095.36 4709.26 3091.41 4705.47 3088.47C4701.69 3085.54 4697.07 3084.07 4691.62 3084.07H4688.29V3149.55H4691.62ZM4757.46 3085.7V3061.91H4856.33V3085.7H4821.17V3171H4792.33V3085.7H4757.46Z" fill="black"/>
<path id="wc" d="M2918.59 4255L2888.91 4145.91H2919.52L2936.42 4219.2H2937.41L2955.03 4145.91H2985.07L3002.97 4218.78H3003.89L3020.51 4145.91H3051.05L3021.43 4255H2989.4L2970.65 4186.39H2969.3L2950.55 4255H2918.59ZM3113.75 4257.13C3102.57 4257.13 3092.96 4254.76 3084.91 4250.03C3076.91 4245.25 3070.75 4238.62 3066.45 4230.14C3062.18 4221.67 3060.05 4211.91 3060.05 4200.88C3060.05 4189.71 3062.21 4179.91 3066.52 4171.48C3070.87 4163 3077.05 4156.4 3085.05 4151.66C3093.06 4146.88 3102.57 4144.49 3113.6 4144.49C3123.12 4144.49 3131.45 4146.22 3138.6 4149.67C3145.75 4153.13 3151.41 4157.98 3155.58 4164.23C3159.75 4170.48 3162.04 4177.82 3162.47 4186.25H3133.92C3133.11 4180.8 3130.98 4176.43 3127.52 4173.11C3124.12 4169.75 3119.64 4168.07 3114.1 4168.07C3109.41 4168.07 3105.32 4169.35 3101.81 4171.9C3098.36 4174.41 3095.66 4178.08 3093.72 4182.91C3091.78 4187.74 3090.81 4193.59 3090.81 4200.45C3090.81 4207.41 3091.75 4213.33 3093.65 4218.21C3095.59 4223.09 3098.31 4226.8 3101.81 4229.36C3105.32 4231.92 3109.41 4233.2 3114.1 4233.2C3117.56 4233.2 3120.66 4232.49 3123.41 4231.07C3126.2 4229.64 3128.5 4227.59 3130.29 4224.89C3132.14 4222.14 3133.35 4218.85 3133.92 4215.01H3162.47C3161.99 4223.35 3159.72 4230.69 3155.65 4237.03C3151.63 4243.33 3146.06 4248.25 3138.96 4251.8C3131.86 4255.36 3123.45 4257.13 3113.75 4257.13Z" fill="black"/>
<path id="302" d="M5110.78 3205.78C5095.93 3205.78 5082.7 3203.23 5071.1 3198.13C5059.57 3192.96 5050.45 3185.86 5043.76 3176.85C5037.13 3167.77 5033.72 3157.29 5033.52 3145.43H5076.87C5077.13 3150.4 5078.76 3154.78 5081.74 3158.55C5084.79 3162.27 5088.83 3165.15 5093.87 3167.2C5098.91 3169.26 5104.58 3170.29 5110.88 3170.29C5117.44 3170.29 5123.24 3169.13 5128.28 3166.81C5133.31 3164.49 5137.26 3161.27 5140.11 3157.16C5142.96 3153.05 5144.38 3148.31 5144.38 3142.94C5144.38 3137.51 5142.86 3132.7 5139.81 3128.53C5136.83 3124.28 5132.52 3120.97 5126.88 3118.58C5121.32 3116.2 5114.69 3115 5107 3115H5088.01V3083.38H5107C5113.49 3083.38 5119.23 3082.26 5124.2 3080C5129.24 3077.75 5133.15 3074.63 5135.93 3070.66C5138.72 3066.61 5140.11 3061.91 5140.11 3056.54C5140.11 3051.43 5138.88 3046.96 5136.43 3043.11C5134.04 3039.2 5130.66 3036.15 5126.29 3033.97C5121.98 3031.78 5116.94 3030.68 5111.17 3030.68C5105.34 3030.68 5100 3031.75 5095.16 3033.87C5090.33 3035.92 5086.45 3038.87 5083.53 3042.72C5080.61 3046.56 5079.06 3051.07 5078.86 3056.24H5037.59C5037.79 3044.51 5041.14 3034.16 5047.64 3025.22C5054.13 3016.27 5062.88 3009.27 5073.89 3004.24C5084.96 2999.13 5097.45 2996.58 5111.37 2996.58C5125.43 2996.58 5137.72 2999.13 5148.26 3004.24C5158.8 3009.34 5166.99 3016.23 5172.82 3024.92C5178.72 3033.54 5181.64 3043.21 5181.57 3053.95C5181.64 3065.35 5178.09 3074.87 5170.93 3082.49C5163.84 3090.11 5154.59 3094.95 5143.19 3097.01V3098.6C5158.17 3100.52 5169.57 3105.72 5177.39 3114.21C5185.28 3122.63 5189.19 3133.17 5189.13 3145.83C5189.19 3157.43 5185.85 3167.73 5179.09 3176.75C5172.39 3185.77 5163.14 3192.86 5151.34 3198.03C5139.54 3203.2 5126.02 3205.78 5110.78 3205.78ZM5299.92 3207.47C5282.82 3207.41 5268.1 3203.2 5255.77 3194.85C5243.51 3186.49 5234.06 3174.4 5227.43 3158.55C5220.87 3142.71 5217.62 3123.65 5217.69 3101.38C5217.69 3079.17 5220.97 3060.25 5227.53 3044.61C5234.16 3028.96 5243.61 3017.06 5255.87 3008.91C5268.2 3000.69 5282.88 2996.58 5299.92 2996.58C5316.96 2996.58 5331.61 3000.69 5343.87 3008.91C5356.2 3017.13 5365.68 3029.06 5372.31 3044.7C5378.93 3060.28 5382.22 3079.17 5382.15 3101.38C5382.15 3123.72 5378.84 3142.81 5372.21 3158.65C5365.64 3174.5 5356.23 3186.59 5343.97 3194.95C5331.7 3203.3 5317.02 3207.47 5299.92 3207.47ZM5299.92 3171.78C5311.59 3171.78 5320.9 3165.91 5327.86 3154.18C5334.82 3142.45 5338.27 3124.85 5338.2 3101.38C5338.2 3085.94 5336.61 3073.08 5333.43 3062.8C5330.31 3052.53 5325.87 3044.8 5320.1 3039.63C5314.4 3034.46 5307.68 3031.88 5299.92 3031.88C5288.32 3031.88 5279.04 3037.68 5272.08 3049.28C5265.12 3060.88 5261.61 3078.25 5261.54 3101.38C5261.54 3117.02 5263.1 3130.08 5266.21 3140.56C5269.39 3150.96 5273.87 3158.79 5279.64 3164.02C5285.4 3169.19 5292.16 3171.78 5299.92 3171.78ZM5412.85 3203V3171.98L5485.34 3104.86C5491.5 3098.89 5496.67 3093.53 5500.85 3088.75C5505.09 3083.98 5508.3 3079.31 5510.49 3074.73C5512.68 3070.09 5513.77 3065.09 5513.77 3059.72C5513.77 3053.75 5512.41 3048.62 5509.7 3044.31C5506.98 3039.93 5503.27 3036.58 5498.56 3034.26C5493.85 3031.88 5488.52 3030.68 5482.55 3030.68C5476.32 3030.68 5470.88 3031.94 5466.24 3034.46C5461.6 3036.98 5458.02 3040.59 5455.51 3045.3C5452.99 3050.01 5451.73 3055.61 5451.73 3062.11H5410.86C5410.86 3048.78 5413.88 3037.21 5419.91 3027.4C5425.94 3017.59 5434.39 3010 5445.26 3004.63C5456.14 2999.26 5468.66 2996.58 5482.85 2996.58C5497.43 2996.58 5510.13 2999.16 5520.93 3004.34C5531.8 3009.44 5540.25 3016.53 5546.29 3025.61C5552.32 3034.7 5555.34 3045.1 5555.34 3056.84C5555.34 3064.52 5553.81 3072.11 5550.76 3079.61C5547.78 3087.1 5542.44 3095.41 5534.75 3104.56C5527.06 3113.64 5516.23 3124.55 5502.24 3137.28L5472.51 3166.41V3167.8H5558.02V3203H5412.85Z" fill="black"/>
<path id="313" d="M2601.33 3092.98C2585.42 3092.98 2571.25 3090.25 2558.82 3084.78C2546.47 3079.24 2536.7 3071.64 2529.53 3061.98C2522.42 3052.25 2518.77 3041.03 2518.55 3028.32H2565C2565.29 3033.64 2567.03 3038.33 2570.22 3042.38C2573.49 3046.36 2577.82 3049.45 2583.22 3051.65C2588.62 3053.85 2594.69 3054.95 2601.44 3054.95C2608.47 3054.95 2614.68 3053.71 2620.08 3051.22C2625.48 3048.74 2629.7 3045.29 2632.76 3040.89C2635.81 3036.48 2637.34 3031.41 2637.34 3025.65C2637.34 3019.83 2635.71 3014.68 2632.44 3010.21C2629.24 3005.66 2624.63 3002.11 2618.59 2999.55C2612.62 2997 2605.52 2995.72 2597.28 2995.72H2576.93V2961.84H2597.28C2604.24 2961.84 2610.39 2960.63 2615.71 2958.22C2621.11 2955.8 2625.3 2952.46 2628.28 2948.2C2631.27 2943.87 2632.76 2938.83 2632.76 2933.08C2632.76 2927.61 2631.44 2922.81 2628.82 2918.69C2626.26 2914.5 2622.64 2911.24 2617.95 2908.89C2613.33 2906.55 2607.94 2905.38 2601.76 2905.38C2595.51 2905.38 2589.79 2906.51 2584.61 2908.79C2579.42 2910.99 2575.27 2914.15 2572.14 2918.27C2569.02 2922.39 2567.35 2927.22 2567.13 2932.76H2522.92C2523.13 2920.18 2526.72 2909.11 2533.68 2899.52C2540.64 2889.93 2550.02 2882.44 2561.81 2877.04C2573.67 2871.57 2587.06 2868.84 2601.97 2868.84C2617.03 2868.84 2630.2 2871.57 2641.49 2877.04C2652.79 2882.51 2661.56 2889.89 2667.81 2899.2C2674.13 2908.43 2677.25 2918.8 2677.18 2930.31C2677.25 2942.52 2673.45 2952.71 2665.78 2960.88C2658.18 2969.05 2648.28 2974.23 2636.06 2976.43V2978.14C2652.11 2980.2 2664.33 2985.77 2672.71 2994.87C2681.16 3003.88 2685.35 3015.18 2685.28 3028.74C2685.35 3041.17 2681.76 3052.22 2674.52 3061.88C2667.35 3071.53 2657.44 3079.13 2644.8 3084.67C2632.15 3090.21 2617.67 3092.98 2601.33 3092.98ZM2813.36 2871.82V3090H2767.23V2915.6H2765.95L2715.99 2946.92V2906.02L2770 2871.82H2813.36ZM2945.86 3092.98C2929.95 3092.98 2915.78 3090.25 2903.36 3084.78C2891 3079.24 2881.23 3071.64 2874.06 3061.98C2866.96 3052.25 2863.3 3041.03 2863.09 3028.32H2909.53C2909.82 3033.64 2911.56 3038.33 2914.75 3042.38C2918.02 3046.36 2922.35 3049.45 2927.75 3051.65C2933.15 3053.85 2939.22 3054.95 2945.97 3054.95C2953 3054.95 2959.21 3053.71 2964.61 3051.22C2970.01 3048.74 2974.24 3045.29 2977.29 3040.89C2980.34 3036.48 2981.87 3031.41 2981.87 3025.65C2981.87 3019.83 2980.24 3014.68 2976.97 3010.21C2973.77 3005.66 2969.16 3002.11 2963.12 2999.55C2957.15 2997 2950.05 2995.72 2941.81 2995.72H2921.47V2961.84H2941.81C2948.77 2961.84 2954.92 2960.63 2960.24 2958.22C2965.64 2955.8 2969.83 2952.46 2972.82 2948.2C2975.8 2943.87 2977.29 2938.83 2977.29 2933.08C2977.29 2927.61 2975.98 2922.81 2973.35 2918.69C2970.79 2914.5 2967.17 2911.24 2962.48 2908.89C2957.87 2906.55 2952.47 2905.38 2946.29 2905.38C2940.04 2905.38 2934.32 2906.51 2929.14 2908.79C2923.95 2910.99 2919.8 2914.15 2916.67 2918.27C2913.55 2922.39 2911.88 2927.22 2911.66 2932.76H2867.45C2867.67 2920.18 2871.25 2909.11 2878.21 2899.52C2885.17 2889.93 2894.55 2882.44 2906.34 2877.04C2918.2 2871.57 2931.59 2868.84 2946.5 2868.84C2961.56 2868.84 2974.73 2871.57 2986.03 2877.04C2997.32 2882.51 3006.09 2889.89 3012.34 2899.2C3018.66 2908.43 3021.79 2918.8 3021.71 2930.31C3021.79 2942.52 3017.99 2952.71 3010.32 2960.88C3002.72 2969.05 2992.81 2974.23 2980.59 2976.43V2978.14C2996.64 2980.2 3008.86 2985.77 3017.24 2994.87C3025.69 3003.88 3029.88 3015.18 3029.81 3028.74C3029.88 3041.17 3026.3 3052.22 3019.05 3061.88C3011.88 3071.53 3001.97 3079.13 2989.33 3084.67C2976.69 3090.21 2962.2 3092.98 2945.86 3092.98Z" fill="black"/>
<path id="303" d="M7521.33 4170.98C7505.42 4170.98 7491.25 4168.25 7478.82 4162.78C7466.47 4157.24 7456.7 4149.64 7449.53 4139.98C7442.42 4130.25 7438.77 4119.03 7438.55 4106.32H7485C7485.29 4111.64 7487.03 4116.33 7490.22 4120.38C7493.49 4124.36 7497.82 4127.45 7503.22 4129.65C7508.62 4131.85 7514.69 4132.95 7521.44 4132.95C7528.47 4132.95 7534.68 4131.71 7540.08 4129.22C7545.48 4126.74 7549.7 4123.29 7552.76 4118.89C7555.81 4114.48 7557.34 4109.41 7557.34 4103.65C7557.34 4097.83 7555.71 4092.68 7552.44 4088.21C7549.24 4083.66 7544.63 4080.11 7538.59 4077.55C7532.62 4075 7525.52 4073.72 7517.28 4073.72H7496.93V4039.84H7517.28C7524.24 4039.84 7530.39 4038.63 7535.71 4036.22C7541.11 4033.8 7545.3 4030.46 7548.28 4026.2C7551.27 4021.87 7552.76 4016.83 7552.76 4011.08C7552.76 4005.61 7551.44 4000.81 7548.82 3996.69C7546.26 3992.5 7542.64 3989.24 7537.95 3986.89C7533.33 3984.55 7527.94 3983.38 7521.76 3983.38C7515.51 3983.38 7509.79 3984.51 7504.61 3986.79C7499.42 3988.99 7495.27 3992.15 7492.14 3996.27C7489.02 4000.39 7487.35 4005.22 7487.13 4010.76H7442.92C7443.13 3998.18 7446.72 3987.11 7453.68 3977.52C7460.64 3967.93 7470.02 3960.44 7481.81 3955.04C7493.67 3949.57 7507.06 3946.84 7521.97 3946.84C7537.03 3946.84 7550.2 3949.57 7561.49 3955.04C7572.79 3960.51 7581.56 3967.89 7587.81 3977.2C7594.13 3986.43 7597.25 3996.8 7597.18 4008.31C7597.25 4020.52 7593.45 4030.71 7585.78 4038.88C7578.18 4047.05 7568.28 4052.23 7556.06 4054.43V4056.14C7572.11 4058.2 7584.33 4063.77 7592.71 4072.87C7601.16 4081.88 7605.35 4093.18 7605.28 4106.74C7605.35 4119.17 7601.76 4130.22 7594.52 4139.88C7587.35 4149.53 7577.44 4157.13 7564.8 4162.67C7552.15 4168.21 7537.67 4170.98 7521.33 4170.98ZM7723.99 4172.79C7705.66 4172.72 7689.89 4168.21 7676.68 4159.26C7663.55 4150.32 7653.42 4137.35 7646.32 4120.38C7639.29 4103.4 7635.81 4082.99 7635.88 4059.12C7635.88 4035.33 7639.4 4015.05 7646.43 3998.29C7653.53 3981.53 7663.65 3968.78 7676.79 3960.05C7690 3951.24 7705.73 3946.84 7723.99 3946.84C7742.24 3946.84 7757.93 3951.24 7771.07 3960.05C7784.28 3968.85 7794.44 3981.64 7801.54 3998.4C7808.64 4015.09 7812.16 4035.33 7812.09 4059.12C7812.09 4083.06 7808.54 4103.51 7801.44 4120.49C7794.4 4137.46 7784.32 4150.42 7771.18 4159.37C7758.04 4168.32 7742.31 4172.79 7723.99 4172.79ZM7723.99 4134.55C7736.49 4134.55 7746.46 4128.26 7753.92 4115.69C7761.38 4103.12 7765.07 4084.26 7765 4059.12C7765 4042.57 7763.3 4028.8 7759.89 4017.79C7756.55 4006.78 7751.79 3998.5 7745.61 3992.96C7739.5 3987.42 7732.3 3984.65 7723.99 3984.65C7711.56 3984.65 7701.61 3990.87 7694.16 4003.3C7686.7 4015.73 7682.93 4034.34 7682.86 4059.12C7682.86 4075.88 7684.53 4089.88 7687.87 4101.1C7691.28 4112.25 7696.07 4120.63 7702.25 4126.24C7708.43 4131.78 7715.68 4134.55 7723.99 4134.55ZM7925.63 4170.98C7909.72 4170.98 7895.55 4168.25 7883.12 4162.78C7870.76 4157.24 7861 4149.64 7853.82 4139.98C7846.72 4130.25 7843.06 4119.03 7842.85 4106.32H7889.3C7889.58 4111.64 7891.32 4116.33 7894.52 4120.38C7897.79 4124.36 7902.12 4127.45 7907.52 4129.65C7912.91 4131.85 7918.99 4132.95 7925.73 4132.95C7932.77 4132.95 7938.98 4131.71 7944.38 4129.22C7949.78 4126.74 7954 4123.29 7957.06 4118.89C7960.11 4114.48 7961.64 4109.41 7961.64 4103.65C7961.64 4097.83 7960 4092.68 7956.74 4088.21C7953.54 4083.66 7948.92 4080.11 7942.89 4077.55C7936.92 4075 7929.82 4073.72 7921.58 4073.72H7901.23V4039.84H7921.58C7928.54 4039.84 7934.68 4038.63 7940.01 4036.22C7945.41 4033.8 7949.6 4030.46 7952.58 4026.2C7955.56 4021.87 7957.06 4016.83 7957.06 4011.08C7957.06 4005.61 7955.74 4000.81 7953.11 3996.69C7950.56 3992.5 7946.93 3989.24 7942.25 3986.89C7937.63 3984.55 7932.23 3983.38 7926.05 3983.38C7919.8 3983.38 7914.09 3984.51 7908.9 3986.79C7903.72 3988.99 7899.56 3992.15 7896.44 3996.27C7893.31 4000.39 7891.64 4005.22 7891.43 4010.76H7847.22C7847.43 3998.18 7851.02 3987.11 7857.98 3977.52C7864.94 3967.93 7874.31 3960.44 7886.1 3955.04C7897.96 3949.57 7911.35 3946.84 7926.27 3946.84C7941.32 3946.84 7954.5 3949.57 7965.79 3955.04C7977.08 3960.51 7985.86 3967.89 7992.11 3977.2C7998.43 3986.43 8001.55 3996.8 8001.48 4008.31C8001.55 4020.52 7997.75 4030.71 7990.08 4038.88C7982.48 4047.05 7972.57 4052.23 7960.36 4054.43V4056.14C7976.41 4058.2 7988.63 4063.77 7997.01 4072.87C8005.46 4081.88 8009.65 4093.18 8009.58 4106.74C8009.65 4119.17 8006.06 4130.22 7998.82 4139.88C7991.64 4149.53 7981.74 4157.13 7969.09 4162.67C7956.45 4168.21 7941.96 4170.98 7925.63 4170.98Z" fill="black"/>
</g>
</svg>
