<svg width="9395" height="7879" viewBox="0 0 9395 7879" fill="none" xmlns="http://www.w3.org/2000/svg">
<g id="plan-18corpus-4">
<rect width="9395" height="7879" fill="white"/>
<path id="Rectangle 133" d="M992 2437H2760.5L3205 2148.5V1069H3917.5L4267.5 1396.5H4630H4991L5304.5 1069H6026.5V2133L6480.5 2419L8439.5 2437V6693H992V2437Z" fill="#242424"/>
<path id="Rectangle 137" d="M3274 1140H3582V1255H3524V2479H3480.86V2544.5H3346.46V2479H3274V1140Z" fill="#9CC7E5"/>
<path id="Rectangle 138" d="M3572 1140H3847V2477H3572V1140Z" fill="#9CC7E5"/>
<path id="Rectangle 141" d="M5343 1163H5614V2477H5343V2401H5298.5V2279.5H5343V1163Z" fill="#9CC7E5"/>
<path id="Rectangle 142" d="M5683 1250H5343V1129H5961V2475.53H5879.6V2545H5733.93V2475.53H5683V1250Z" fill="#9CC7E5"/>
<path id="409room" d="M1067 2552H2213V4046H1703.67V4100H1406.21V4046H1067V2552Z" fill="#9CC7E5"/>
<path id="408room" d="M1062 4639H1220.5V4579.5H1411.5V4639H2501.19H2942.65H3287V4746.5L3346 4746.5V4910H3287V6646H1062V4639Z" fill="#9CC7E5"/>
<rect id="Rectangle 152" x="1892" y="4478" width="1394" height="103" fill="#9CC7E5"/>
<path id="407room" d="M3340 5134H3470V5083.5H3723.1V5134H4073V6646H3340V5134Z" fill="#9CC7E5"/>
<path id="406room" d="M4135 5134H4397.17V5081.5H4614.5V5134H5136V6646H4135V5134Z" fill="#9CC7E5"/>
<path id="405room" d="M5191 5137H5363.08V5063H5542.28V5137H5917V6649H5191V5137Z" fill="#9CC7E5"/>
<path id="404room" d="M5972.53 4617.44H6389.31H6846.59L7506.23 4612V4393.49H7569.88V4329H7807.86V4393.49H7903.5V4617.44H8333V6647H5972.53V4894.5H5897V4742.5H5972.53V4617.44Z" fill="#9CC7E5"/>
<path id="403room" d="M8333 3951H7638.5V4011.5H7399V3951H7229V2535H8333V3951Z" fill="#9CC7E5"/>
<path id="Rectangle 168" d="M7960 4303H8054V4245H8169.5V4303H8333V4550H7960V4303Z" fill="#9CC7E5"/>
<rect id="Rectangle 170" x="5969" y="4398" width="1490" height="160" fill="#9CC7E5"/>
<rect id="Rectangle 174" x="3628" y="4435" width="374" height="128" fill="#9CC7E5"/>
<path id="Rectangle 176" d="M5184 4435H5554V4563.5H5184V4435Z" fill="#9CC7E5"/>
<path id="Vector 148" d="M4629 2834C4874.6 3236.8 4946.67 3354.17 4952 3362.5L4857 3377" stroke="#242424" stroke-width="13"/>
<path id="Vector 149" d="M4949 2819C4705.68 3221.06 4634.28 3338.21 4629 3346.53L4723.12 3361" stroke="#242424" stroke-width="13"/>
<path id="Vector 150" d="M3260 1951.5H3538.5V1899.5H3260V1838H3538.5V1773H3260V1711.5H3538.5V1643.5H3260V1569H3538.5V1507.5H3260" stroke="#242424" stroke-width="13"/>
<path id="Vector 152" d="M5683 1951H5961.5V1899H5683V1837.5H5961.5V1772.5H5683V1711H5961.5V1643H5683V1568.5H5961.5V1507H5683" stroke="#242424" stroke-width="13"/>
<path id="Vector 153" d="M5329 2100H5607.5V2048H5329V1986.5H5607.5V1921.5H5329V1860H5607.5V1792H5329V1717.5H5607.5V1656H5329" stroke="#242424" stroke-width="13"/>
<path id="Vector 151" d="M3569 2100H3875V2048H3569V1986.5H3875V1921.5H3569V1860H3875V1792H3569V1717.5H3875V1656H3569" stroke="#242424" stroke-width="13"/>
<path id="401room" d="M6464.72 2535H7177V4029.5H6610V4098.5H6265.5V4029.5H5983V3327.5H5917V3037.5H5983V2826.11L6256.11 2543.6L6335 2453.5L6464.72 2535Z" fill="#9CC7E5"/>
<g id="Rectangle 404">
<path d="M4265 3379.03H4344.9V3458H4456.25V3379.03H4568.6V3226.77H4648V2998.13H4568.6V2866H4265V3379.03Z" fill="#789DB7"/>
<path d="M4265 3379.03H4344.9V3458H4456.25V3379.03H4568.6V3226.77H4648V2998.13H4568.6V2866H4265V3379.03Z" fill="#789DB7"/>
</g>
<g id="Rectangle 405">
<path d="M4937 3378.61H4857V3457H4745.5V3378.61H4633V2866H4937V3378.61Z" fill="#789DB7"/>
<path d="M4937 3378.61H4857V3457H4745.5V3378.61H4633V2866H4937V3378.61Z" fill="#789DB7"/>
</g>
<path id="&#208;&#187;&#208;&#184;&#209;&#132;&#209;&#130;" d="M4359.68 3171L4359.54 3146.99H4363.16C4365.72 3146.99 4367.92 3146.38 4369.77 3145.15C4371.66 3143.87 4373.22 3141.81 4374.45 3138.97C4375.69 3136.13 4376.66 3132.36 4377.37 3127.68C4378.08 3122.94 4378.55 3117.12 4378.79 3110.2L4380.56 3061.91H4463.52V3171H4434.68V3085.7H4407.76L4406.06 3119.01C4405.63 3128.15 4404.52 3136.01 4402.72 3142.59C4400.97 3149.17 4398.53 3154.57 4395.41 3158.78C4392.28 3162.95 4388.52 3166.03 4384.11 3168.02C4379.71 3170.01 4374.6 3171 4368.77 3171H4359.68ZM4515.88 3131.09L4555.15 3061.91H4584.98V3171H4556.15V3101.61L4517.01 3171H4486.97V3061.91H4515.88V3131.09ZM4661.44 3208.07V3025.55H4691.62V3208.07H4661.44ZM4661.44 3173.13C4653.06 3173.13 4645.41 3171.78 4638.5 3169.08C4631.59 3166.34 4625.62 3162.48 4620.6 3157.51C4615.58 3152.49 4611.7 3146.54 4608.95 3139.68C4606.21 3132.77 4604.83 3125.17 4604.83 3116.88C4604.83 3108.5 4606.21 3100.88 4608.95 3094.01C4611.7 3087.1 4615.58 3081.16 4620.6 3076.18C4625.62 3071.17 4631.59 3067.31 4638.5 3064.61C4645.41 3061.86 4653.06 3060.49 4661.44 3060.49H4667.05V3173.13H4661.44ZM4661.44 3149.55H4664.78V3084.07H4661.44C4657.37 3084.07 4653.75 3084.92 4650.57 3086.62C4647.4 3088.33 4644.73 3090.67 4642.55 3093.66C4640.37 3096.59 4638.71 3100.05 4637.58 3104.03C4636.49 3108 4635.94 3112.29 4635.94 3116.88C4635.94 3122.94 4636.94 3128.46 4638.93 3133.43C4640.91 3138.35 4643.83 3142.28 4647.66 3145.22C4651.5 3148.11 4656.09 3149.55 4661.44 3149.55ZM4691.62 3173.13H4686.01V3060.49H4691.62C4700 3060.49 4707.65 3061.86 4714.56 3064.61C4721.48 3067.31 4727.44 3071.17 4732.46 3076.18C4737.48 3081.16 4741.36 3087.1 4744.11 3094.01C4746.86 3100.88 4748.23 3108.5 4748.23 3116.88C4748.23 3125.17 4746.86 3132.77 4744.11 3139.68C4741.36 3146.54 4737.48 3152.49 4732.46 3157.51C4727.44 3162.48 4721.48 3166.34 4714.56 3169.08C4707.65 3171.78 4700 3173.13 4691.62 3173.13ZM4691.62 3149.55C4695.7 3149.55 4699.32 3148.72 4702.49 3147.07C4705.66 3145.36 4708.34 3143.02 4710.52 3140.03C4712.69 3137.05 4714.35 3133.59 4715.49 3129.66C4716.62 3125.69 4717.19 3121.43 4717.19 3116.88C4717.19 3110.77 4716.17 3105.26 4714.14 3100.33C4712.15 3095.36 4709.26 3091.41 4705.47 3088.47C4701.69 3085.54 4697.07 3084.07 4691.62 3084.07H4688.29V3149.55H4691.62ZM4757.46 3085.7V3061.91H4856.33V3085.7H4821.17V3171H4792.33V3085.7H4757.46Z" fill="black"/>
<path id="WC" d="M3096 4125H2985.5V4176.5H2852.07V4125H2762V3750H3096V4125ZM2863.5 2654.5H2931.5V2823H2863.5V2897H2770.5V2952H2876V3713H2726V4125H2454.5V4086H2395.5V4125H2264V3968H2395.5V4005.5H2453V3874H2395.5V3913H2264V3756H2395.5V3793.5H2453V3674H2395.5V3713H2264V3556H2395.5V3593.5H2453V3474H2395.5V3513H2264V3356H2395.5V3393.5H2453V3272H2395.5V3311H2264V3154H2395.5V3191.5H2453V3070H2395.5V3109H2264V2952H2395.5V2989.5H2453V2955H2454.5V2952H2623V2897H2252V2552H2770.5L2863.5 2489V2654.5ZM3294 3776.5H3259.5V3821H3294V3952.5H3340V4033H3294V4125H3134V3821H3173.5V3776.5H3134V3521H3294V3776.5ZM3290 3021H3342.5V3157H3290V3219H3051V3265H3096V3300.5H3139V3265H3294V3475H3139V3383H3096V3475H3039V3518H3096V3712H2918V3518H2966V3475H2918V3265H2963V3219H2926V2952H3290V3021Z" fill="#6698BA"/>
<path id="402room" d="M4236.5 1478.5H5002.5L5299 1163V2481.57H5269.5V2537H5552V2834H5143V2537H5174V2481.57H5097.07V2537H5097V2819H5085V2884H5552V2991H5598.5V3192H5552V3570H4996V2884H5018V2819H4001.52V2870.69H4210V3108H3722V2870.69H3824.95V2819H3722V2742H3663.5V2613.5H3722V2527H3903V1160L4236.5 1478.5Z" fill="#9CC7E5"/>
<path id="410room" d="M3722 3171H4210V3495.22H4042.19V3570H3860.99V3495.22H3722V3171Z" fill="#9CC7E5"/>
<path id="corridor" d="M6288.5 2421L5918.5 2810V3043L5917 3041.18V4095H7229V4008H8333V4245H7906V4332H5917V5082H3340V4419.33H1846.23V4582H1067V4098H2213.5V4175.58H3340V2897.5H2929.5V2443.5L3218 2262V2527H3664V2819H3663V3538.34H4253.75V3425H4946.5V3607.75H5598V2537H5735.5V2536H6007V2252L6288.5 2421ZM3589 4603H4046V4398H3589V4603ZM5137 4603H5598V4398H5137V4603Z" fill="#9CC7E5"/>
<path id="wc" d="M2574.59 3520L2544.91 3410.91H2575.52L2592.42 3484.2H2593.41L2611.03 3410.91H2641.07L2658.97 3483.78H2659.89L2676.51 3410.91H2707.05L2677.43 3520H2645.4L2626.65 3451.39H2625.3L2606.55 3520H2574.59ZM2769.75 3522.13C2758.57 3522.13 2748.96 3519.76 2740.91 3515.03C2732.91 3510.25 2726.75 3503.62 2722.45 3495.14C2718.18 3486.67 2716.05 3476.91 2716.05 3465.88C2716.05 3454.71 2718.21 3444.91 2722.52 3436.48C2726.87 3428 2733.05 3421.4 2741.05 3416.66C2749.06 3411.88 2758.57 3409.49 2769.6 3409.49C2779.12 3409.49 2787.45 3411.22 2794.6 3414.67C2801.75 3418.13 2807.41 3422.98 2811.58 3429.23C2815.75 3435.48 2818.04 3442.82 2818.47 3451.25H2789.92C2789.11 3445.8 2786.98 3441.43 2783.52 3438.11C2780.12 3434.75 2775.64 3433.07 2770.1 3433.07C2765.41 3433.07 2761.32 3434.35 2757.81 3436.9C2754.36 3439.41 2751.66 3443.08 2749.72 3447.91C2747.78 3452.74 2746.81 3458.59 2746.81 3465.45C2746.81 3472.41 2747.75 3478.33 2749.65 3483.21C2751.59 3488.09 2754.31 3491.8 2757.81 3494.36C2761.32 3496.92 2765.41 3498.2 2770.1 3498.2C2773.56 3498.2 2776.66 3497.49 2779.41 3496.07C2782.2 3494.64 2784.5 3492.59 2786.29 3489.89C2788.14 3487.14 2789.35 3483.85 2789.92 3480.01H2818.47C2817.99 3488.35 2815.72 3495.69 2811.65 3502.03C2807.63 3508.33 2802.06 3513.25 2794.96 3516.8C2787.86 3520.36 2779.45 3522.13 2769.75 3522.13Z" fill="black"/>
<path id="402" d="M4303.38 2213.65V2177.32L4394.47 2033.82H4425.79V2084.1H4407.25L4349.83 2174.98V2176.68H4479.27V2213.65H4303.38ZM4408.11 2252V2202.57L4408.96 2186.48V2033.82H4452.21V2252H4408.11ZM4595.55 2256.79C4577.23 2256.72 4561.46 2252.21 4548.25 2243.26C4535.11 2234.32 4524.99 2221.35 4517.89 2204.38C4510.86 2187.4 4507.38 2166.99 4507.45 2143.12C4507.45 2119.33 4510.96 2099.05 4518 2082.29C4525.1 2065.53 4535.22 2052.78 4548.36 2044.05C4561.57 2035.24 4577.3 2030.84 4595.55 2030.84C4613.8 2030.84 4629.5 2035.24 4642.64 2044.05C4655.85 2052.85 4666.01 2065.64 4673.11 2082.4C4680.21 2099.09 4683.73 2119.33 4683.66 2143.12C4683.66 2167.06 4680.1 2187.51 4673 2204.49C4665.97 2221.46 4655.89 2234.42 4642.75 2243.37C4629.61 2252.32 4613.88 2256.79 4595.55 2256.79ZM4595.55 2218.55C4608.05 2218.55 4618.03 2212.26 4625.49 2199.69C4632.95 2187.12 4636.64 2168.26 4636.57 2143.12C4636.57 2126.57 4634.86 2112.8 4631.45 2101.79C4628.12 2090.78 4623.36 2082.5 4617.18 2076.96C4611.07 2071.42 4603.86 2068.65 4595.55 2068.65C4583.12 2068.65 4573.18 2074.87 4565.72 2087.3C4558.26 2099.73 4554.5 2118.34 4554.43 2143.12C4554.43 2159.88 4556.1 2173.88 4559.44 2185.1C4562.85 2196.25 4567.64 2204.63 4573.82 2210.24C4580 2215.78 4587.24 2218.55 4595.55 2218.55ZM4716.55 2252V2218.76L4794.21 2146.85C4800.82 2140.46 4806.36 2134.71 4810.83 2129.59C4815.38 2124.48 4818.82 2119.47 4821.16 2114.57C4823.51 2109.6 4824.68 2104.24 4824.68 2098.48C4824.68 2092.09 4823.22 2086.59 4820.31 2081.97C4817.4 2077.28 4813.42 2073.7 4808.38 2071.21C4803.34 2068.65 4797.62 2067.38 4791.23 2067.38C4784.55 2067.38 4778.73 2068.73 4773.76 2071.42C4768.79 2074.12 4764.95 2077.99 4762.25 2083.04C4759.55 2088.08 4758.2 2094.08 4758.2 2101.04H4714.42C4714.42 2086.77 4717.65 2074.37 4724.11 2063.86C4730.57 2053.35 4739.63 2045.22 4751.28 2039.46C4762.93 2033.71 4776.35 2030.84 4791.55 2030.84C4807.17 2030.84 4820.77 2033.61 4832.35 2039.14C4844 2044.61 4853.05 2052.21 4859.52 2061.94C4865.98 2071.67 4869.21 2082.82 4869.21 2095.39C4869.21 2103.63 4867.58 2111.77 4864.31 2119.79C4861.11 2127.82 4855.4 2136.73 4847.16 2146.53C4838.92 2156.26 4827.31 2167.94 4812.32 2181.58L4780.47 2212.8V2214.29H4872.09V2252H4716.55Z" fill="black"/>
<path id="410" d="M3775.59 3408.43V3384.21L3836.31 3288.55H3857.19V3322.07H3844.84L3806.55 3382.65V3383.79H3892.85V3408.43H3775.59ZM3845.4 3434V3401.05L3845.97 3390.32V3288.55H3874.81V3434H3845.4ZM3974.66 3288.55V3434H3943.91V3317.74H3943.06L3909.75 3338.62V3311.34L3945.76 3288.55H3974.66ZM4066.27 3437.2C4054.05 3437.15 4043.54 3434.14 4034.73 3428.18C4025.97 3422.21 4019.23 3413.57 4014.49 3402.25C4009.8 3390.94 4007.48 3377.32 4007.53 3361.41C4007.53 3345.55 4009.87 3332.04 4014.56 3320.86C4019.3 3309.69 4026.04 3301.19 4034.8 3295.36C4043.61 3289.49 4054.1 3286.56 4066.27 3286.56C4078.43 3286.56 4088.9 3289.49 4097.66 3295.36C4106.47 3301.23 4113.24 3309.76 4117.97 3320.93C4122.71 3332.06 4125.05 3345.55 4125 3361.41C4125 3377.37 4122.63 3391.01 4117.9 3402.32C4113.21 3413.64 4106.49 3422.28 4097.73 3428.25C4088.97 3434.21 4078.48 3437.2 4066.27 3437.2ZM4066.27 3411.7C4074.6 3411.7 4081.25 3407.51 4086.22 3399.13C4091.2 3390.75 4093.66 3378.18 4093.61 3361.41C4093.61 3350.38 4092.47 3341.2 4090.2 3333.86C4087.98 3326.52 4084.8 3321 4080.68 3317.31C4076.61 3313.62 4071.81 3311.77 4066.27 3311.77C4057.98 3311.77 4051.35 3315.91 4046.38 3324.2C4041.41 3332.48 4038.9 3344.89 4038.85 3361.41C4038.85 3372.59 4039.96 3381.92 4042.19 3389.4C4044.46 3396.83 4047.66 3402.42 4051.78 3406.16C4055.9 3409.85 4060.73 3411.7 4066.27 3411.7Z" fill="black"/>
<path id="409" d="M1346.38 3710.65V3674.32L1437.47 3530.82H1468.79V3581.1H1450.25L1392.83 3671.98V3673.68H1522.27V3710.65H1346.38ZM1451.11 3749V3699.57L1451.96 3683.48V3530.82H1495.21V3749H1451.11ZM1638.55 3753.79C1620.23 3753.72 1604.46 3749.21 1591.25 3740.26C1578.11 3731.32 1567.99 3718.35 1560.89 3701.38C1553.86 3684.4 1550.38 3663.99 1550.45 3640.12C1550.45 3616.33 1553.96 3596.05 1561 3579.29C1568.1 3562.53 1578.22 3549.78 1591.36 3541.05C1604.57 3532.24 1620.3 3527.84 1638.55 3527.84C1656.8 3527.84 1672.5 3532.24 1685.64 3541.05C1698.85 3549.85 1709.01 3562.64 1716.11 3579.4C1723.21 3596.09 1726.73 3616.33 1726.66 3640.12C1726.66 3664.06 1723.1 3684.51 1716 3701.49C1708.97 3718.46 1698.89 3731.42 1685.75 3740.37C1672.61 3749.32 1656.88 3753.79 1638.55 3753.79ZM1638.55 3715.55C1651.05 3715.55 1661.03 3709.26 1668.49 3696.69C1675.95 3684.12 1679.64 3665.26 1679.57 3640.12C1679.57 3623.57 1677.86 3609.8 1674.45 3598.79C1671.12 3587.78 1666.36 3579.5 1660.18 3573.96C1654.07 3568.42 1646.86 3565.65 1638.55 3565.65C1626.12 3565.65 1616.18 3571.87 1608.72 3584.3C1601.26 3596.73 1597.5 3615.34 1597.43 3640.12C1597.43 3656.88 1599.1 3670.88 1602.44 3682.1C1605.85 3693.25 1610.64 3701.63 1616.82 3707.24C1623 3712.78 1630.24 3715.55 1638.55 3715.55ZM1838.49 3527.84C1849.71 3527.84 1860.51 3529.72 1870.88 3533.48C1881.32 3537.25 1890.62 3543.25 1898.79 3551.49C1907.03 3559.72 1913.53 3570.66 1918.28 3584.3C1923.11 3597.86 1925.56 3614.52 1925.63 3634.26C1925.63 3652.8 1923.54 3669.35 1919.35 3683.91C1915.23 3698.4 1909.3 3710.72 1901.56 3720.88C1893.82 3731.03 1884.48 3738.77 1873.54 3744.1C1862.6 3749.36 1850.39 3751.98 1836.89 3751.98C1822.33 3751.98 1809.48 3749.18 1798.33 3743.57C1787.18 3737.88 1778.19 3730.18 1771.37 3720.45C1764.63 3710.65 1760.54 3699.64 1759.12 3687.42H1804.61C1806.39 3695.38 1810.12 3701.56 1815.8 3705.96C1821.48 3710.29 1828.51 3712.46 1836.89 3712.46C1851.1 3712.46 1861.89 3706.28 1869.28 3693.92C1876.66 3681.49 1880.39 3664.48 1880.46 3642.89H1878.97C1875.71 3649.28 1871.3 3654.79 1865.76 3659.4C1860.22 3663.95 1853.87 3667.47 1846.69 3669.95C1839.59 3672.44 1832.03 3673.68 1824 3673.68C1811.15 3673.68 1799.68 3670.66 1789.59 3664.62C1779.51 3658.59 1771.55 3650.28 1765.73 3639.7C1759.9 3629.11 1756.99 3617.04 1756.99 3603.47C1756.92 3588.84 1760.29 3575.81 1767.11 3564.38C1773.93 3552.94 1783.45 3543.99 1795.66 3537.53C1807.95 3531 1822.23 3527.76 1838.49 3527.84ZM1838.81 3564.06C1831.64 3564.06 1825.24 3565.76 1819.63 3569.17C1814.09 3572.58 1809.69 3577.16 1806.42 3582.91C1803.23 3588.67 1801.66 3595.09 1801.74 3602.2C1801.74 3609.37 1803.3 3615.83 1806.42 3621.59C1809.62 3627.27 1813.95 3631.81 1819.42 3635.22C1824.96 3638.56 1831.28 3640.23 1838.38 3640.23C1843.71 3640.23 1848.65 3639.23 1853.19 3637.25C1857.74 3635.26 1861.68 3632.52 1865.02 3629.04C1868.43 3625.49 1871.09 3621.41 1873.01 3616.79C1874.92 3612.17 1875.88 3607.27 1875.88 3602.09C1875.81 3595.2 1874.18 3588.88 1870.98 3583.13C1867.79 3577.37 1863.38 3572.76 1857.77 3569.28C1852.16 3565.8 1845.84 3564.06 1838.81 3564.06Z" fill="black"/>
<path id="408" d="M1775.38 5449.65V5413.32L1866.47 5269.82H1897.79V5320.1H1879.25L1821.83 5410.98V5412.68H1951.27V5449.65H1775.38ZM1880.11 5488V5438.57L1880.96 5422.48V5269.82H1924.21V5488H1880.11ZM2067.55 5492.79C2049.23 5492.72 2033.46 5488.21 2020.25 5479.26C2007.11 5470.32 1996.99 5457.35 1989.89 5440.38C1982.86 5423.4 1979.38 5402.99 1979.45 5379.12C1979.45 5355.33 1982.96 5335.05 1990 5318.29C1997.1 5301.53 2007.22 5288.78 2020.36 5280.05C2033.57 5271.24 2049.3 5266.84 2067.55 5266.84C2085.8 5266.84 2101.5 5271.24 2114.64 5280.05C2127.85 5288.85 2138.01 5301.64 2145.11 5318.4C2152.21 5335.09 2155.73 5355.33 2155.66 5379.12C2155.66 5403.06 2152.1 5423.51 2145 5440.49C2137.97 5457.46 2127.89 5470.42 2114.75 5479.37C2101.61 5488.32 2085.88 5492.79 2067.55 5492.79ZM2067.55 5454.55C2080.05 5454.55 2090.03 5448.26 2097.49 5435.69C2104.95 5423.12 2108.64 5404.26 2108.57 5379.12C2108.57 5362.57 2106.86 5348.8 2103.45 5337.79C2100.12 5326.78 2095.36 5318.5 2089.18 5312.96C2083.07 5307.42 2075.86 5304.65 2067.55 5304.65C2055.12 5304.65 2045.18 5310.87 2037.72 5323.3C2030.26 5335.73 2026.5 5354.34 2026.43 5379.12C2026.43 5395.88 2028.1 5409.88 2031.44 5421.1C2034.85 5432.25 2039.64 5440.63 2045.82 5446.24C2052 5451.78 2059.24 5454.55 2067.55 5454.55ZM2269.94 5490.98C2253.53 5490.98 2238.94 5488.32 2226.15 5482.99C2213.44 5477.6 2203.46 5470.24 2196.22 5460.94C2188.97 5451.64 2185.35 5441.09 2185.35 5429.3C2185.35 5420.21 2187.41 5411.86 2191.53 5404.26C2195.72 5396.59 2201.4 5390.24 2208.58 5385.19C2215.75 5380.08 2223.78 5376.81 2232.65 5375.39V5373.9C2221.01 5371.56 2211.56 5365.91 2204.31 5356.96C2197.07 5347.94 2193.45 5337.47 2193.45 5325.54C2193.45 5314.24 2196.75 5304.19 2203.36 5295.39C2209.96 5286.51 2219.02 5279.55 2230.52 5274.51C2242.1 5269.39 2255.24 5266.84 2269.94 5266.84C2284.64 5266.84 2297.75 5269.39 2309.25 5274.51C2320.83 5279.62 2329.92 5286.62 2336.52 5295.49C2343.13 5304.3 2346.47 5314.31 2346.54 5325.54C2346.47 5337.54 2342.77 5348.01 2335.46 5356.96C2328.14 5365.91 2318.77 5371.56 2307.33 5373.9V5375.39C2316.07 5376.81 2323.99 5380.08 2331.09 5385.19C2338.26 5390.24 2343.95 5396.59 2348.14 5404.26C2352.4 5411.86 2354.56 5420.21 2354.63 5429.3C2354.56 5441.09 2350.91 5451.64 2343.66 5460.94C2336.42 5470.24 2326.4 5477.6 2313.62 5482.99C2300.91 5488.32 2286.35 5490.98 2269.94 5490.98ZM2269.94 5457.11C2277.26 5457.11 2283.65 5455.79 2289.12 5453.16C2294.58 5450.46 2298.85 5446.77 2301.9 5442.08C2305.03 5437.33 2306.59 5431.86 2306.59 5425.68C2306.59 5419.36 2304.99 5413.78 2301.79 5408.95C2298.6 5404.05 2294.27 5400.22 2288.8 5397.45C2283.33 5394.61 2277.04 5393.18 2269.94 5393.18C2262.91 5393.18 2256.62 5394.61 2251.08 5397.45C2245.54 5400.22 2241.18 5404.05 2237.98 5408.95C2234.85 5413.78 2233.29 5419.36 2233.29 5425.68C2233.29 5431.86 2234.82 5437.33 2237.87 5442.08C2240.93 5446.77 2245.22 5450.46 2250.76 5453.16C2256.3 5455.79 2262.7 5457.11 2269.94 5457.11ZM2269.94 5359.63C2276.05 5359.63 2281.48 5358.38 2286.24 5355.9C2291 5353.41 2294.73 5349.97 2297.43 5345.56C2300.12 5341.16 2301.47 5336.08 2301.47 5330.33C2301.47 5324.65 2300.12 5319.68 2297.43 5315.41C2294.73 5311.08 2291.03 5307.71 2286.35 5305.29C2281.66 5302.81 2276.19 5301.57 2269.94 5301.57C2263.76 5301.57 2258.29 5302.81 2253.53 5305.29C2248.78 5307.71 2245.05 5311.08 2242.35 5315.41C2239.72 5319.68 2238.41 5324.65 2238.41 5330.33C2238.41 5336.08 2239.76 5341.16 2242.45 5345.56C2245.15 5349.97 2248.88 5353.41 2253.64 5355.9C2258.4 5358.38 2263.83 5359.63 2269.94 5359.63Z" fill="black"/>
<path id="407" d="M3429.38 5521.65V5485.32L3520.47 5341.82H3551.79V5392.1H3533.25L3475.83 5482.98V5484.68H3605.27V5521.65H3429.38ZM3534.11 5560V5510.57L3534.96 5494.48V5341.82H3578.21V5560H3534.11ZM3721.55 5564.79C3703.23 5564.72 3687.46 5560.21 3674.25 5551.26C3661.11 5542.32 3650.99 5529.35 3643.89 5512.38C3636.86 5495.4 3633.38 5474.99 3633.45 5451.12C3633.45 5427.33 3636.96 5407.05 3644 5390.29C3651.1 5373.53 3661.22 5360.78 3674.36 5352.05C3687.57 5343.24 3703.3 5338.84 3721.55 5338.84C3739.8 5338.84 3755.5 5343.24 3768.64 5352.05C3781.85 5360.85 3792.01 5373.64 3799.11 5390.4C3806.21 5407.09 3809.73 5427.33 3809.66 5451.12C3809.66 5475.06 3806.1 5495.51 3799 5512.49C3791.97 5529.46 3781.89 5542.42 3768.75 5551.37C3755.61 5560.32 3739.88 5564.79 3721.55 5564.79ZM3721.55 5526.55C3734.05 5526.55 3744.03 5520.26 3751.49 5507.69C3758.95 5495.12 3762.64 5476.26 3762.57 5451.12C3762.57 5434.57 3760.86 5420.8 3757.45 5409.79C3754.12 5398.78 3749.36 5390.5 3743.18 5384.96C3737.07 5379.42 3729.86 5376.65 3721.55 5376.65C3709.12 5376.65 3699.18 5382.87 3691.72 5395.3C3684.26 5407.73 3680.5 5426.34 3680.43 5451.12C3680.43 5467.88 3682.1 5481.88 3685.44 5493.1C3688.85 5504.25 3693.64 5512.63 3699.82 5518.24C3706 5523.78 3713.24 5526.55 3721.55 5526.55ZM3845.32 5560L3935.77 5381.02V5379.53H3830.4V5341.82H3983.49V5380.06L3892.94 5560H3845.32Z" fill="black"/>
<path id="406" d="M4367.38 5521.65V5485.32L4458.47 5341.82H4489.79V5392.1H4471.25L4413.83 5482.98V5484.68H4543.27V5521.65H4367.38ZM4472.11 5560V5510.57L4472.96 5494.48V5341.82H4516.21V5560H4472.11ZM4659.55 5564.79C4641.23 5564.72 4625.46 5560.21 4612.25 5551.26C4599.11 5542.32 4588.99 5529.35 4581.89 5512.38C4574.86 5495.4 4571.38 5474.99 4571.45 5451.12C4571.45 5427.33 4574.96 5407.05 4582 5390.29C4589.1 5373.53 4599.22 5360.78 4612.36 5352.05C4625.57 5343.24 4641.3 5338.84 4659.55 5338.84C4677.8 5338.84 4693.5 5343.24 4706.64 5352.05C4719.85 5360.85 4730.01 5373.64 4737.11 5390.4C4744.21 5407.09 4747.73 5427.33 4747.66 5451.12C4747.66 5475.06 4744.1 5495.51 4737 5512.49C4729.97 5529.46 4719.89 5542.42 4706.75 5551.37C4693.61 5560.32 4677.88 5564.79 4659.55 5564.79ZM4659.55 5526.55C4672.05 5526.55 4682.03 5520.26 4689.49 5507.69C4696.95 5495.12 4700.64 5476.26 4700.57 5451.12C4700.57 5434.57 4698.86 5420.8 4695.45 5409.79C4692.12 5398.78 4687.36 5390.5 4681.18 5384.96C4675.07 5379.42 4667.86 5376.65 4659.55 5376.65C4647.12 5376.65 4637.18 5382.87 4629.72 5395.3C4622.26 5407.73 4618.5 5426.34 4618.43 5451.12C4618.43 5467.88 4620.1 5481.88 4623.44 5493.1C4626.85 5504.25 4631.64 5512.63 4637.82 5518.24C4644 5523.78 4651.24 5526.55 4659.55 5526.55ZM4864.28 5562.98C4853.06 5562.91 4842.23 5561.03 4831.79 5557.34C4821.42 5553.64 4812.12 5547.64 4803.88 5539.33C4795.64 5531.02 4789.11 5520.01 4784.28 5506.31C4779.52 5492.6 4777.14 5475.77 4777.14 5455.81C4777.21 5437.49 4779.31 5421.12 4783.42 5406.7C4787.61 5392.21 4793.58 5379.92 4801.32 5369.84C4809.13 5359.75 4818.47 5352.08 4829.34 5346.83C4840.21 5341.5 4852.39 5338.84 4865.88 5338.84C4880.44 5338.84 4893.3 5341.68 4904.45 5347.36C4915.6 5352.97 4924.55 5360.6 4931.29 5370.26C4938.11 5379.92 4942.23 5390.75 4943.65 5402.76H4898.16C4896.39 5395.16 4892.66 5389.19 4886.98 5384.86C4881.29 5380.53 4874.26 5378.36 4865.88 5378.36C4851.68 5378.36 4840.88 5384.54 4833.5 5396.9C4826.18 5409.25 4822.45 5426.05 4822.31 5447.29H4823.8C4827.07 5440.82 4831.47 5435.32 4837.01 5430.77C4842.62 5426.16 4848.98 5422.64 4856.08 5420.23C4863.25 5417.74 4870.82 5416.5 4878.77 5416.5C4891.7 5416.5 4903.2 5419.55 4913.29 5425.66C4923.37 5431.7 4931.33 5440.01 4937.15 5450.59C4942.98 5461.17 4945.89 5473.28 4945.89 5486.92C4945.89 5501.69 4942.44 5514.83 4935.56 5526.34C4928.74 5537.84 4919.18 5546.86 4906.9 5553.39C4894.68 5559.86 4880.48 5563.05 4864.28 5562.98ZM4864.07 5526.76C4871.17 5526.76 4877.53 5525.06 4883.14 5521.65C4888.75 5518.24 4893.15 5513.62 4896.35 5507.8C4899.55 5501.97 4901.14 5495.44 4901.14 5488.2C4901.14 5480.95 4899.55 5474.45 4896.35 5468.7C4893.23 5462.95 4888.89 5458.37 4883.35 5454.96C4877.81 5451.55 4871.49 5449.84 4864.39 5449.84C4859.06 5449.84 4854.13 5450.84 4849.58 5452.83C4845.11 5454.82 4841.17 5457.59 4837.76 5461.14C4834.42 5464.69 4831.79 5468.81 4829.87 5473.49C4827.96 5478.11 4827 5483.05 4827 5488.3C4827 5495.33 4828.59 5501.76 4831.79 5507.59C4835.06 5513.41 4839.46 5518.06 4845 5521.54C4850.61 5525.02 4856.97 5526.76 4864.07 5526.76Z" fill="black"/>
<path id="405" d="M5261.38 5521.65V5485.32L5352.47 5341.82H5383.79V5392.1H5365.25L5307.83 5482.98V5484.68H5437.27V5521.65H5261.38ZM5366.11 5560V5510.57L5366.96 5494.48V5341.82H5410.21V5560H5366.11ZM5553.55 5564.79C5535.23 5564.72 5519.46 5560.21 5506.25 5551.26C5493.11 5542.32 5482.99 5529.35 5475.89 5512.38C5468.86 5495.4 5465.38 5474.99 5465.45 5451.12C5465.45 5427.33 5468.96 5407.05 5476 5390.29C5483.1 5373.53 5493.22 5360.78 5506.36 5352.05C5519.57 5343.24 5535.3 5338.84 5553.55 5338.84C5571.8 5338.84 5587.5 5343.24 5600.64 5352.05C5613.85 5360.85 5624.01 5373.64 5631.11 5390.4C5638.21 5407.09 5641.73 5427.33 5641.66 5451.12C5641.66 5475.06 5638.1 5495.51 5631 5512.49C5623.97 5529.46 5613.89 5542.42 5600.75 5551.37C5587.61 5560.32 5571.88 5564.79 5553.55 5564.79ZM5553.55 5526.55C5566.05 5526.55 5576.03 5520.26 5583.49 5507.69C5590.95 5495.12 5594.64 5476.26 5594.57 5451.12C5594.57 5434.57 5592.86 5420.8 5589.45 5409.79C5586.12 5398.78 5581.36 5390.5 5575.18 5384.96C5569.07 5379.42 5561.86 5376.65 5553.55 5376.65C5541.12 5376.65 5531.18 5382.87 5523.72 5395.3C5516.26 5407.73 5512.5 5426.34 5512.43 5451.12C5512.43 5467.88 5514.1 5481.88 5517.44 5493.1C5520.85 5504.25 5525.64 5512.63 5531.82 5518.24C5538 5523.78 5545.24 5526.55 5553.55 5526.55ZM5754.24 5562.98C5739.18 5562.98 5725.76 5560.21 5713.97 5554.67C5702.25 5549.13 5692.94 5541.5 5686.05 5531.77C5679.16 5522.04 5675.58 5510.89 5675.29 5498.32H5720.04C5720.54 5506.77 5724.09 5513.62 5730.69 5518.88C5737.3 5524.13 5745.14 5526.76 5754.24 5526.76C5761.48 5526.76 5767.87 5525.16 5773.41 5521.97C5779.02 5518.7 5783.39 5514.19 5786.52 5508.44C5789.71 5502.61 5791.31 5495.94 5791.31 5488.41C5791.31 5480.74 5789.68 5473.99 5786.41 5468.17C5783.21 5462.34 5778.77 5457.8 5773.09 5454.53C5767.41 5451.26 5760.91 5449.6 5753.6 5449.52C5747.2 5449.52 5740.99 5450.84 5734.95 5453.47C5728.99 5456.09 5724.33 5459.68 5721 5464.23L5679.98 5456.88L5690.31 5341.82H5823.7V5379.53H5728.35L5722.7 5434.18H5723.98C5727.81 5428.79 5733.6 5424.31 5741.34 5420.76C5749.09 5417.21 5757.75 5415.43 5767.34 5415.43C5780.48 5415.43 5792.2 5418.52 5802.5 5424.7C5812.79 5430.88 5820.93 5439.37 5826.89 5450.16C5832.86 5460.89 5835.81 5473.25 5835.73 5487.24C5835.81 5501.94 5832.4 5515.01 5825.51 5526.44C5818.69 5537.81 5809.14 5546.75 5796.85 5553.29C5784.63 5559.75 5770.43 5562.98 5754.24 5562.98Z" fill="black"/>
<path id="404" d="M6884.38 5449.65V5413.32L6975.47 5269.82H7006.79V5320.1H6988.25L6930.83 5410.98V5412.68H7060.27V5449.65H6884.38ZM6989.11 5488V5438.57L6989.96 5422.48V5269.82H7033.21V5488H6989.11ZM7176.55 5492.79C7158.23 5492.72 7142.46 5488.21 7129.25 5479.26C7116.11 5470.32 7105.99 5457.35 7098.89 5440.38C7091.86 5423.4 7088.38 5402.99 7088.45 5379.12C7088.45 5355.33 7091.96 5335.05 7099 5318.29C7106.1 5301.53 7116.22 5288.78 7129.36 5280.05C7142.57 5271.24 7158.3 5266.84 7176.55 5266.84C7194.8 5266.84 7210.5 5271.24 7223.64 5280.05C7236.85 5288.85 7247.01 5301.64 7254.11 5318.4C7261.21 5335.09 7264.73 5355.33 7264.66 5379.12C7264.66 5403.06 7261.1 5423.51 7254 5440.49C7246.97 5457.46 7236.89 5470.42 7223.75 5479.37C7210.61 5488.32 7194.88 5492.79 7176.55 5492.79ZM7176.55 5454.55C7189.05 5454.55 7199.03 5448.26 7206.49 5435.69C7213.95 5423.12 7217.64 5404.26 7217.57 5379.12C7217.57 5362.57 7215.86 5348.8 7212.45 5337.79C7209.12 5326.78 7204.36 5318.5 7198.18 5312.96C7192.07 5307.42 7184.86 5304.65 7176.55 5304.65C7164.12 5304.65 7154.18 5310.87 7146.72 5323.3C7139.26 5335.73 7135.5 5354.34 7135.43 5379.12C7135.43 5395.88 7137.1 5409.88 7140.44 5421.1C7143.85 5432.25 7148.64 5440.63 7154.82 5446.24C7161 5451.78 7168.24 5454.55 7176.55 5454.55ZM7294.25 5449.65V5413.32L7385.33 5269.82H7416.65V5320.1H7398.12L7340.69 5410.98V5412.68H7470.13V5449.65H7294.25ZM7398.97 5488V5438.57L7399.82 5422.48V5269.82H7443.07V5488H7398.97Z" fill="black"/>
<path id="403" d="M7473.38 3459.65V3423.32L7564.47 3279.82H7595.79V3330.1H7577.25L7519.83 3420.98V3422.68H7649.27V3459.65H7473.38ZM7578.11 3498V3448.57L7578.96 3432.48V3279.82H7622.21V3498H7578.11ZM7765.55 3502.79C7747.23 3502.72 7731.46 3498.21 7718.25 3489.26C7705.11 3480.32 7694.99 3467.35 7687.89 3450.38C7680.86 3433.4 7677.38 3412.99 7677.45 3389.12C7677.45 3365.33 7680.96 3345.05 7688 3328.29C7695.1 3311.53 7705.22 3298.78 7718.36 3290.05C7731.57 3281.24 7747.3 3276.84 7765.55 3276.84C7783.8 3276.84 7799.5 3281.24 7812.64 3290.05C7825.85 3298.85 7836.01 3311.64 7843.11 3328.4C7850.21 3345.09 7853.73 3365.33 7853.66 3389.12C7853.66 3413.06 7850.1 3433.51 7843 3450.49C7835.97 3467.46 7825.89 3480.42 7812.75 3489.37C7799.61 3498.32 7783.88 3502.79 7765.55 3502.79ZM7765.55 3464.55C7778.05 3464.55 7788.03 3458.26 7795.49 3445.69C7802.95 3433.12 7806.64 3414.26 7806.57 3389.12C7806.57 3372.57 7804.86 3358.8 7801.45 3347.79C7798.12 3336.78 7793.36 3328.5 7787.18 3322.96C7781.07 3317.42 7773.86 3314.65 7765.55 3314.65C7753.12 3314.65 7743.18 3320.87 7735.72 3333.3C7728.26 3345.73 7724.5 3364.34 7724.43 3389.12C7724.43 3405.88 7726.1 3419.88 7729.44 3431.1C7732.85 3442.25 7737.64 3450.63 7743.82 3456.24C7750 3461.78 7757.24 3464.55 7765.55 3464.55ZM7967.19 3500.98C7951.29 3500.98 7937.12 3498.25 7924.69 3492.78C7912.33 3487.24 7902.56 3479.64 7895.39 3469.98C7888.29 3460.25 7884.63 3449.03 7884.42 3436.32H7930.87C7931.15 3441.64 7932.89 3446.33 7936.09 3450.38C7939.35 3454.36 7943.69 3457.45 7949.08 3459.65C7954.48 3461.85 7960.55 3462.95 7967.3 3462.95C7974.33 3462.95 7980.55 3461.71 7985.94 3459.22C7991.34 3456.74 7995.57 3453.29 7998.62 3448.89C8001.68 3444.48 8003.2 3439.41 8003.2 3433.65C8003.2 3427.83 8001.57 3422.68 7998.3 3418.21C7995.11 3413.66 7990.49 3410.11 7984.45 3407.55C7978.49 3405 7971.38 3403.72 7963.15 3403.72H7942.8V3369.84H7963.15C7970.11 3369.84 7976.25 3368.63 7981.58 3366.22C7986.97 3363.8 7991.16 3360.46 7994.15 3356.2C7997.13 3351.87 7998.62 3346.83 7998.62 3341.08C7998.62 3335.61 7997.31 3330.81 7994.68 3326.69C7992.12 3322.5 7988.5 3319.24 7983.81 3316.89C7979.2 3314.55 7973.8 3313.38 7967.62 3313.38C7961.37 3313.38 7955.65 3314.51 7950.47 3316.79C7945.28 3318.99 7941.13 3322.15 7938 3326.27C7934.88 3330.39 7933.21 3335.22 7933 3340.76H7888.79C7889 3328.18 7892.58 3317.11 7899.55 3307.52C7906.51 3297.93 7915.88 3290.44 7927.67 3285.04C7939.53 3279.57 7952.92 3276.84 7967.83 3276.84C7982.89 3276.84 7996.06 3279.57 8007.36 3285.04C8018.65 3290.51 8027.42 3297.89 8033.67 3307.2C8039.99 3316.43 8043.12 3326.8 8043.05 3338.31C8043.12 3350.52 8039.32 3360.71 8031.65 3368.88C8024.05 3377.05 8014.14 3382.23 8001.92 3384.43V3386.14C8017.98 3388.2 8030.19 3393.77 8038.57 3402.87C8047.02 3411.88 8051.21 3423.18 8051.14 3436.74C8051.21 3449.17 8047.63 3460.22 8040.38 3469.88C8033.21 3479.53 8023.3 3487.13 8010.66 3492.67C7998.02 3498.21 7983.53 3500.98 7967.19 3500.98Z" fill="black"/>
<path id="401" d="M6265.38 3459.65V3423.32L6356.47 3279.82H6387.79V3330.1H6369.25L6311.83 3420.98V3422.68H6441.27V3459.65H6265.38ZM6370.11 3498V3448.57L6370.96 3432.48V3279.82H6414.21V3498H6370.11ZM6557.55 3502.79C6539.23 3502.72 6523.46 3498.21 6510.25 3489.26C6497.11 3480.32 6486.99 3467.35 6479.89 3450.38C6472.86 3433.4 6469.38 3412.99 6469.45 3389.12C6469.45 3365.33 6472.96 3345.05 6480 3328.29C6487.1 3311.53 6497.22 3298.78 6510.36 3290.05C6523.57 3281.24 6539.3 3276.84 6557.55 3276.84C6575.8 3276.84 6591.5 3281.24 6604.64 3290.05C6617.85 3298.85 6628.01 3311.64 6635.11 3328.4C6642.21 3345.09 6645.73 3365.33 6645.66 3389.12C6645.66 3413.06 6642.1 3433.51 6635 3450.49C6627.97 3467.46 6617.89 3480.42 6604.75 3489.37C6591.61 3498.32 6575.88 3502.79 6557.55 3502.79ZM6557.55 3464.55C6570.05 3464.55 6580.03 3458.26 6587.49 3445.69C6594.95 3433.12 6598.64 3414.26 6598.57 3389.12C6598.57 3372.57 6596.86 3358.8 6593.45 3347.79C6590.12 3336.78 6585.36 3328.5 6579.18 3322.96C6573.07 3317.42 6565.86 3314.65 6557.55 3314.65C6545.12 3314.65 6535.18 3320.87 6527.72 3333.3C6520.26 3345.73 6516.5 3364.34 6516.43 3389.12C6516.43 3405.88 6518.1 3419.88 6521.44 3431.1C6524.85 3442.25 6529.64 3450.63 6535.82 3456.24C6542 3461.78 6549.24 3464.55 6557.55 3464.55ZM6773.47 3279.82V3498H6727.34V3323.6H6726.06L6676.1 3354.92V3314.02L6730.11 3279.82H6773.47Z" fill="black"/>
<path id="402_2" d="M5078.59 3287.43V3263.21L5139.31 3167.55H5160.19V3201.07H5147.84L5109.55 3261.65V3262.79H5195.85V3287.43H5078.59ZM5148.4 3313V3280.05L5148.97 3269.32V3167.55H5177.81V3313H5148.4ZM5273.37 3316.2C5261.15 3316.15 5250.64 3313.14 5241.83 3307.18C5233.07 3301.21 5226.33 3292.57 5221.59 3281.25C5216.9 3269.94 5214.58 3256.32 5214.63 3240.41C5214.63 3224.55 5216.98 3211.04 5221.66 3199.86C5226.4 3188.69 5233.15 3180.19 5241.9 3174.36C5250.71 3168.49 5261.2 3165.56 5273.37 3165.56C5285.54 3165.56 5296 3168.49 5304.76 3174.36C5313.57 3180.23 5320.34 3188.76 5325.07 3199.93C5329.81 3211.06 5332.15 3224.55 5332.1 3240.41C5332.1 3256.37 5329.74 3270.01 5325 3281.32C5320.31 3292.64 5313.59 3301.28 5304.83 3307.25C5296.07 3313.21 5285.58 3316.2 5273.37 3316.2ZM5273.37 3290.7C5281.7 3290.7 5288.35 3286.51 5293.33 3278.13C5298.3 3269.75 5300.76 3257.18 5300.71 3240.41C5300.71 3229.38 5299.58 3220.2 5297.3 3212.86C5295.08 3205.52 5291.9 3200 5287.79 3196.31C5283.71 3192.62 5278.91 3190.77 5273.37 3190.77C5265.08 3190.77 5258.45 3194.91 5253.48 3203.2C5248.51 3211.48 5246 3223.89 5245.95 3240.41C5245.95 3251.59 5247.07 3260.92 5249.29 3268.4C5251.56 3275.83 5254.76 3281.42 5258.88 3285.16C5263 3288.85 5267.83 3290.7 5273.37 3290.7ZM5354.03 3313V3290.84L5405.81 3242.9C5410.21 3238.64 5413.9 3234.8 5416.89 3231.39C5419.92 3227.99 5422.21 3224.65 5423.78 3221.38C5425.34 3218.07 5426.12 3214.49 5426.12 3210.66C5426.12 3206.39 5425.15 3202.73 5423.21 3199.65C5421.27 3196.52 5418.62 3194.13 5415.25 3192.47C5411.89 3190.77 5408.08 3189.92 5403.82 3189.92C5399.37 3189.92 5395.49 3190.82 5392.17 3192.62C5388.86 3194.42 5386.3 3197 5384.5 3200.36C5382.7 3203.72 5381.8 3207.72 5381.8 3212.36H5352.61C5352.61 3202.84 5354.77 3194.58 5359.07 3187.57C5363.38 3180.57 5369.42 3175.14 5377.19 3171.31C5384.95 3167.47 5393.9 3165.56 5404.03 3165.56C5414.45 3165.56 5423.52 3167.4 5431.23 3171.1C5439 3174.74 5445.04 3179.81 5449.34 3186.3C5453.65 3192.78 5455.81 3200.22 5455.81 3208.6C5455.81 3214.09 5454.72 3219.51 5452.54 3224.86C5450.41 3230.21 5446.6 3236.15 5441.11 3242.69C5435.61 3249.17 5427.87 3256.96 5417.88 3266.05L5396.65 3286.86V3287.86H5457.73V3313H5354.03Z" fill="black"/>
</g>
</svg>
