<svg width="9395" height="7879" viewBox="0 0 9395 7879" fill="none" xmlns="http://www.w3.org/2000/svg">
<g id="plan-18corpus-tech">
<rect width="9395" height="7879" fill="white"/>
<path id="Rectangle 133" d="M1004 2404H3207.5V2114.5V1077H6024V2106.5V2401.75H8406V6733H1004V2404Z" fill="#242424"/>
<path id="Rectangle 137" d="M3274 1140H3582V1255.32H3524V2420V2466.5H3324V2420H3274V1140Z" fill="#9CC7E5"/>
<path id="Rectangle 138" d="M3572 1140H3847L3852.5 2420H3572V1140Z" fill="#9CC7E5"/>
<path id="Rectangle 141" d="M5343 1163H5614V2405H5343V2343.04V2227.23V1163Z" fill="#9CC7E5"/>
<path id="Rectangle 142" d="M5683 1249.81H5343V1129H5961V2404.5H5896.5V2468H5683V2420V1249.81Z" fill="#9CC7E5"/>
<path id="704room" d="M3212 3123.5H3267.5V3374.5H3212V3484H2072V4559.5H1733.5V4737H8343V6663H1067V2472H3212V3123.5Z" fill="#9CC7E5"/>
<path id="706room" d="M4661 1129H5299V2100H5013V2148H4779.5V2100H4661V1129Z" fill="#9CC7E5"/>
<path id="Vector 150" d="M3260 1951.5H3538.5V1899.5H3260V1838H3538.5V1773H3260V1711.5H3538.5V1643.5H3260V1569H3538.5V1507.5H3260" stroke="#242424" stroke-width="13"/>
<path id="Vector 152" d="M5683 1951H5961.5V1899H5683V1837.5H5961.5V1772.5H5683V1711H5961.5V1643H5683V1568.5H5961.5V1507H5683" stroke="#242424" stroke-width="13"/>
<path id="Vector 153" d="M5329 2100H5607.5V2048H5329V1986.5H5607.5V1921.5H5329V1860H5607.5V1792H5329V1717.5H5607.5V1656H5329" stroke="#242424" stroke-width="13"/>
<path id="Vector 151" d="M3569 2100H3875V2048H3569V1986.5H3875V1921.5H3569V1860H3875V1792H3569V1717.5H3875V1656H3569" stroke="#242424" stroke-width="13"/>
<path id="701room" d="M8345 3613H6022V3012.5H5972V2739.5H6022V2464H8345V3613Z" fill="#9CC7E5"/>
<path id="703room" d="M7509.5 4694V4563H6021.5V4151H5972.5V3862H6021.5V3667H8344.5V4694H7509.5Z" fill="#9CC7E5"/>
<path id="702room" d="M5047.87 3565V3600.94H4146.13V3565H3658V3802H3602V4039H3658V4513H4198.14L4198.14 4693H5009.86L5009.86 4513H5543V4039H5588.5V3802H5543L5543 3565H5047.87Z" fill="#9CC7E5"/>
<path id="Union" d="M3212 4694H1770V4606H3212V4694ZM4144 4694H3659V4566H4144V4694ZM5546 4694H5061V4565H5546V4694ZM7455 4694H6022L6022 4606H7455V4694Z" fill="#9CC7E5"/>
<path id="Rectangle 435" d="M5546 3517V3434.5H5588.5V3252.5H5546V3090H5047V3517H5546Z" fill="#9CC7E5"/>
<path id="705room" d="M4267 1129H4617V2100H4546V2150H4345V2100H4267V1129Z" fill="#9CC7E5"/>
<path id="Rectangle 436" d="M5006 3552V2648H4196V2712H4138V2980.5H4196V3552H5006Z" fill="#9CC7E5"/>
<path id="&#209;&#129;&#209;&#128;&#208;&#176;&#208;&#187;&#209;&#140;&#208;&#189;&#208;&#184;&#208;&#186;" d="M3212 4255H3265.5V4464.5H3212V4562H2128V4159H3212V4255ZM2277 3814H2266V3838H2323.5V3814H2312V3526H2461V3814H2446.5V3838H2510V3814H2496V3526H2645V3814H2627.5V3838H2645V3905.5H2686.5V4052.5H2645V4117H2128V3838H2157.5V3814H2128V3526H2277V3814ZM3212 3908H3270V4060H3212V4117H2687V3838H3212V3908ZM2846 3632.5H2891V3517H3212V3636H3270V3768.5H3212V3796H2891V3768.5H2846V3796H2687V3517H2846V3632.5Z" fill="#6698BA"/>
<path id="corridor" d="M4225 2147H5299V2464H5975V4693H5890.5V4738.5H5669.5V4693H5587V3038H5049V2599H4142V3517H3605V4693H3530.5V4737.5H3334.5V4693H3264V2464H3892V1129H4225V2147Z" fill="#9CC7E5"/>
<path id="wc" d="M2628.59 4420L2598.91 4310.91H2629.52L2646.42 4384.2H2647.41L2665.03 4310.91H2695.07L2712.97 4383.78H2713.89L2730.51 4310.91H2761.05L2731.43 4420H2699.4L2680.65 4351.39H2679.3L2660.55 4420H2628.59ZM2823.75 4422.13C2812.57 4422.13 2802.96 4419.76 2794.91 4415.03C2786.91 4410.25 2780.75 4403.62 2776.45 4395.14C2772.18 4386.67 2770.05 4376.91 2770.05 4365.88C2770.05 4354.71 2772.21 4344.91 2776.52 4336.48C2780.87 4328 2787.05 4321.4 2795.05 4316.66C2803.06 4311.88 2812.57 4309.49 2823.6 4309.49C2833.12 4309.49 2841.45 4311.22 2848.6 4314.67C2855.75 4318.13 2861.41 4322.98 2865.58 4329.23C2869.75 4335.48 2872.04 4342.82 2872.47 4351.25H2843.92C2843.11 4345.8 2840.98 4341.43 2837.52 4338.11C2834.12 4334.75 2829.64 4333.07 2824.1 4333.07C2819.41 4333.07 2815.32 4334.35 2811.81 4336.9C2808.36 4339.41 2805.66 4343.08 2803.72 4347.91C2801.78 4352.74 2800.81 4358.59 2800.81 4365.45C2800.81 4372.41 2801.75 4378.33 2803.65 4383.21C2805.59 4388.09 2808.31 4391.8 2811.81 4394.36C2815.32 4396.92 2819.41 4398.2 2824.1 4398.2C2827.56 4398.2 2830.66 4397.49 2833.41 4396.07C2836.2 4394.64 2838.5 4392.59 2840.29 4389.89C2842.14 4387.14 2843.35 4383.85 2843.92 4380.01H2872.47C2871.99 4388.35 2869.72 4395.69 2865.65 4402.03C2861.63 4408.33 2856.06 4413.25 2848.96 4416.8C2841.86 4420.36 2833.45 4422.13 2823.75 4422.13Z" fill="black"/>
<path id="704" d="M4353.31 5432L4443.76 5253.02V5251.53H4338.4V5213.82H4491.49V5252.06L4400.93 5432H4353.31ZM4603.96 5436.79C4585.64 5436.72 4569.87 5432.21 4556.66 5423.26C4543.52 5414.32 4533.4 5401.35 4526.3 5384.38C4519.27 5367.4 4515.79 5346.99 4515.86 5323.12C4515.86 5299.33 4519.37 5279.05 4526.41 5262.29C4533.51 5245.53 4543.63 5232.78 4556.77 5224.05C4569.98 5215.24 4585.71 5210.84 4603.96 5210.84C4622.21 5210.84 4637.91 5215.24 4651.05 5224.05C4664.26 5232.85 4674.42 5245.64 4681.52 5262.4C4688.62 5279.09 4692.14 5299.33 4692.07 5323.12C4692.07 5347.06 4688.51 5367.51 4681.41 5384.49C4674.38 5401.46 4664.3 5414.42 4651.16 5423.37C4638.02 5432.32 4622.29 5436.79 4603.96 5436.79ZM4603.96 5398.55C4616.46 5398.55 4626.44 5392.26 4633.9 5379.69C4641.36 5367.12 4645.05 5348.26 4644.98 5323.12C4644.98 5306.57 4643.27 5292.8 4639.86 5281.79C4636.53 5270.78 4631.77 5262.5 4625.59 5256.96C4619.48 5251.42 4612.27 5248.65 4603.96 5248.65C4591.53 5248.65 4581.59 5254.87 4574.13 5267.3C4566.68 5279.73 4562.91 5298.34 4562.84 5323.12C4562.84 5339.88 4564.51 5353.88 4567.85 5365.1C4571.26 5376.25 4576.05 5384.63 4582.23 5390.24C4588.41 5395.78 4595.65 5398.55 4603.96 5398.55ZM4721.66 5393.65V5357.32L4812.74 5213.82H4844.06V5264.1H4825.53L4768.1 5354.98V5356.68H4897.54V5393.65H4721.66ZM4826.38 5432V5382.57L4827.23 5366.48V5213.82H4870.48V5432H4826.38Z" fill="black"/>
<path id="704_2" d="M2322.31 3148L2412.76 2969.02V2967.53H2307.4V2929.82H2460.49V2968.06L2369.93 3148H2322.31ZM2572.96 3152.79C2554.64 3152.72 2538.87 3148.21 2525.66 3139.26C2512.52 3130.32 2502.4 3117.35 2495.3 3100.38C2488.27 3083.4 2484.79 3062.99 2484.86 3039.12C2484.86 3015.33 2488.37 2995.05 2495.41 2978.29C2502.51 2961.53 2512.63 2948.78 2525.77 2940.05C2538.98 2931.24 2554.71 2926.84 2572.96 2926.84C2591.21 2926.84 2606.91 2931.24 2620.05 2940.05C2633.26 2948.85 2643.42 2961.64 2650.52 2978.4C2657.62 2995.09 2661.14 3015.33 2661.07 3039.12C2661.07 3063.06 2657.51 3083.51 2650.41 3100.49C2643.38 3117.46 2633.3 3130.42 2620.16 3139.37C2607.02 3148.32 2591.29 3152.79 2572.96 3152.79ZM2572.96 3114.55C2585.46 3114.55 2595.44 3108.26 2602.9 3095.69C2610.36 3083.12 2614.05 3064.26 2613.98 3039.12C2613.98 3022.57 2612.27 3008.8 2608.86 2997.79C2605.53 2986.78 2600.77 2978.5 2594.59 2972.96C2588.48 2967.42 2581.27 2964.65 2572.96 2964.65C2560.53 2964.65 2550.59 2970.87 2543.13 2983.3C2535.68 2995.73 2531.91 3014.34 2531.84 3039.12C2531.84 3055.88 2533.51 3069.88 2536.85 3081.1C2540.26 3092.25 2545.05 3100.63 2551.23 3106.24C2557.41 3111.78 2564.65 3114.55 2572.96 3114.55ZM2690.66 3109.65V3073.32L2781.74 2929.82H2813.06V2980.1H2794.53L2737.1 3070.98V3072.68H2866.54V3109.65H2690.66ZM2795.38 3148V3098.57L2796.23 3082.48V2929.82H2839.48V3148H2795.38Z" fill="black"/>
<path id="701" d="M6770.31 3199L6860.76 3020.02V3018.53H6755.4V2980.82H6908.49V3019.06L6817.93 3199H6770.31ZM7020.96 3203.79C7002.64 3203.72 6986.87 3199.21 6973.66 3190.26C6960.52 3181.32 6950.4 3168.35 6943.3 3151.38C6936.27 3134.4 6932.79 3113.99 6932.86 3090.12C6932.86 3066.33 6936.37 3046.05 6943.41 3029.29C6950.51 3012.53 6960.63 2999.78 6973.77 2991.05C6986.98 2982.24 7002.71 2977.84 7020.96 2977.84C7039.21 2977.84 7054.91 2982.24 7068.05 2991.05C7081.26 2999.85 7091.42 3012.64 7098.52 3029.4C7105.62 3046.09 7109.14 3066.33 7109.07 3090.12C7109.07 3114.06 7105.51 3134.51 7098.41 3151.49C7091.38 3168.46 7081.3 3181.42 7068.16 3190.37C7055.02 3199.32 7039.29 3203.79 7020.96 3203.79ZM7020.96 3165.55C7033.46 3165.55 7043.44 3159.26 7050.9 3146.69C7058.36 3134.12 7062.05 3115.26 7061.98 3090.12C7061.98 3073.57 7060.27 3059.8 7056.86 3048.79C7053.53 3037.78 7048.77 3029.5 7042.59 3023.96C7036.48 3018.42 7029.27 3015.65 7020.96 3015.65C7008.53 3015.65 6998.59 3021.87 6991.13 3034.3C6983.68 3046.73 6979.91 3065.34 6979.84 3090.12C6979.84 3106.88 6981.51 3120.88 6984.85 3132.1C6988.26 3143.25 6993.05 3151.63 6999.23 3157.24C7005.41 3162.78 7012.65 3165.55 7020.96 3165.55ZM7236.88 2980.82V3199H7190.75V3024.6H7189.47L7139.51 3055.92V3015.02L7193.52 2980.82H7236.88Z" fill="black"/>
<path id="703" d="M6770.31 4230L6860.76 4051.02V4049.53H6755.4V4011.82H6908.49V4050.06L6817.93 4230H6770.31ZM7020.96 4234.79C7002.64 4234.72 6986.87 4230.21 6973.66 4221.26C6960.52 4212.32 6950.4 4199.35 6943.3 4182.38C6936.27 4165.4 6932.79 4144.99 6932.86 4121.12C6932.86 4097.33 6936.37 4077.05 6943.41 4060.29C6950.51 4043.53 6960.63 4030.78 6973.77 4022.05C6986.98 4013.24 7002.71 4008.84 7020.96 4008.84C7039.21 4008.84 7054.91 4013.24 7068.05 4022.05C7081.26 4030.85 7091.42 4043.64 7098.52 4060.4C7105.62 4077.09 7109.14 4097.33 7109.07 4121.12C7109.07 4145.06 7105.51 4165.51 7098.41 4182.49C7091.38 4199.46 7081.3 4212.42 7068.16 4221.37C7055.02 4230.32 7039.29 4234.79 7020.96 4234.79ZM7020.96 4196.55C7033.46 4196.55 7043.44 4190.26 7050.9 4177.69C7058.36 4165.12 7062.05 4146.26 7061.98 4121.12C7061.98 4104.57 7060.27 4090.8 7056.86 4079.79C7053.53 4068.78 7048.77 4060.5 7042.59 4054.96C7036.48 4049.42 7029.27 4046.65 7020.96 4046.65C7008.53 4046.65 6998.59 4052.87 6991.13 4065.3C6983.68 4077.73 6979.91 4096.34 6979.84 4121.12C6979.84 4137.88 6981.51 4151.88 6984.85 4163.1C6988.26 4174.25 6993.05 4182.63 6999.23 4188.24C7005.41 4193.78 7012.65 4196.55 7020.96 4196.55ZM7222.6 4232.98C7206.7 4232.98 7192.53 4230.25 7180.1 4224.78C7167.74 4219.24 7157.97 4211.64 7150.8 4201.98C7143.7 4192.25 7140.04 4181.03 7139.83 4168.32H7186.28C7186.56 4173.64 7188.3 4178.33 7191.5 4182.38C7194.76 4186.36 7199.1 4189.45 7204.49 4191.65C7209.89 4193.85 7215.96 4194.95 7222.71 4194.95C7229.74 4194.95 7235.96 4193.71 7241.35 4191.22C7246.75 4188.74 7250.98 4185.29 7254.03 4180.89C7257.09 4176.48 7258.61 4171.41 7258.61 4165.65C7258.61 4159.83 7256.98 4154.68 7253.71 4150.21C7250.52 4145.66 7245.9 4142.11 7239.86 4139.55C7233.9 4137 7226.79 4135.72 7218.56 4135.72H7198.21V4101.84H7218.56C7225.52 4101.84 7231.66 4100.63 7236.99 4098.22C7242.38 4095.8 7246.57 4092.46 7249.56 4088.2C7252.54 4083.87 7254.03 4078.83 7254.03 4073.08C7254.03 4067.61 7252.72 4062.81 7250.09 4058.69C7247.53 4054.5 7243.91 4051.24 7239.22 4048.89C7234.61 4046.55 7229.21 4045.38 7223.03 4045.38C7216.78 4045.38 7211.06 4046.51 7205.88 4048.79C7200.69 4050.99 7196.54 4054.15 7193.41 4058.27C7190.29 4062.39 7188.62 4067.22 7188.41 4072.76H7144.2C7144.41 4060.18 7148 4049.11 7154.96 4039.52C7161.92 4029.93 7171.29 4022.44 7183.08 4017.04C7194.94 4011.57 7208.33 4008.84 7223.24 4008.84C7238.3 4008.84 7251.48 4011.57 7262.77 4017.04C7274.06 4022.51 7282.83 4029.89 7289.08 4039.2C7295.4 4048.43 7298.53 4058.8 7298.46 4070.31C7298.53 4082.52 7294.73 4092.71 7287.06 4100.88C7279.46 4109.05 7269.55 4114.23 7257.33 4116.43V4118.14C7273.39 4120.2 7285.6 4125.77 7293.98 4134.87C7302.43 4143.88 7306.62 4155.18 7306.55 4168.74C7306.62 4181.17 7303.04 4192.22 7295.79 4201.88C7288.62 4211.53 7278.71 4219.13 7266.07 4224.67C7253.43 4230.21 7238.94 4232.98 7222.6 4232.98Z" fill="black"/>
<path id="702" d="M4402.31 4230L4492.76 4051.02V4049.53H4387.4V4011.82H4540.49V4050.06L4449.93 4230H4402.31ZM4652.96 4234.79C4634.64 4234.72 4618.87 4230.21 4605.66 4221.26C4592.52 4212.32 4582.4 4199.35 4575.3 4182.38C4568.27 4165.4 4564.79 4144.99 4564.86 4121.12C4564.86 4097.33 4568.37 4077.05 4575.41 4060.29C4582.51 4043.53 4592.63 4030.78 4605.77 4022.05C4618.98 4013.24 4634.71 4008.84 4652.96 4008.84C4671.21 4008.84 4686.91 4013.24 4700.05 4022.05C4713.26 4030.85 4723.42 4043.64 4730.52 4060.4C4737.62 4077.09 4741.14 4097.33 4741.07 4121.12C4741.07 4145.06 4737.51 4165.51 4730.41 4182.49C4723.38 4199.46 4713.3 4212.42 4700.16 4221.37C4687.02 4230.32 4671.29 4234.79 4652.96 4234.79ZM4652.96 4196.55C4665.46 4196.55 4675.44 4190.26 4682.9 4177.69C4690.36 4165.12 4694.05 4146.26 4693.98 4121.12C4693.98 4104.57 4692.27 4090.8 4688.86 4079.79C4685.53 4068.78 4680.77 4060.5 4674.59 4054.96C4668.48 4049.42 4661.27 4046.65 4652.96 4046.65C4640.53 4046.65 4630.59 4052.87 4623.13 4065.3C4615.68 4077.73 4611.91 4096.34 4611.84 4121.12C4611.84 4137.88 4613.51 4151.88 4616.85 4163.1C4620.26 4174.25 4625.05 4182.63 4631.23 4188.24C4637.41 4193.78 4644.65 4196.55 4652.96 4196.55ZM4773.96 4230V4196.76L4851.62 4124.85C4858.23 4118.46 4863.77 4112.71 4868.24 4107.59C4872.79 4102.48 4876.23 4097.47 4878.57 4092.57C4880.92 4087.6 4882.09 4082.24 4882.09 4076.48C4882.09 4070.09 4880.63 4064.59 4877.72 4059.97C4874.81 4055.28 4870.83 4051.7 4865.79 4049.21C4860.75 4046.65 4855.03 4045.38 4848.64 4045.38C4841.96 4045.38 4836.14 4046.73 4831.17 4049.42C4826.2 4052.12 4822.36 4055.99 4819.66 4061.04C4816.96 4066.08 4815.61 4072.08 4815.61 4079.04H4771.83C4771.83 4064.77 4775.06 4052.37 4781.52 4041.86C4787.99 4031.35 4797.04 4023.22 4808.69 4017.46C4820.34 4011.71 4833.76 4008.84 4848.96 4008.84C4864.58 4008.84 4878.18 4011.61 4889.76 4017.14C4901.41 4022.61 4910.46 4030.21 4916.93 4039.94C4923.39 4049.67 4926.62 4060.82 4926.62 4073.39C4926.62 4081.63 4924.99 4089.77 4921.72 4097.79C4918.52 4105.82 4912.81 4114.73 4904.57 4124.53C4896.33 4134.26 4884.72 4145.94 4869.73 4159.58L4837.88 4190.8V4192.29H4929.5V4230H4773.96Z" fill="black"/>
<path id="705" d="M4524 1860.46L4404.68 1800.16H4403.69V1870.4H4378.55V1768.34H4404.04L4524 1828.71V1860.46ZM4527.2 1693.36C4527.15 1705.57 4524.14 1716.09 4518.18 1724.89C4512.21 1733.65 4503.57 1740.4 4492.25 1745.13C4480.94 1749.82 4467.32 1752.14 4451.41 1752.09C4435.55 1752.09 4422.04 1749.75 4410.86 1745.06C4399.69 1740.33 4391.19 1733.58 4385.36 1724.82C4379.49 1716.01 4376.56 1705.53 4376.56 1693.36C4376.56 1681.19 4379.49 1670.73 4385.36 1661.97C4391.23 1653.16 4399.76 1646.39 4410.93 1641.65C4422.06 1636.92 4435.55 1634.58 4451.41 1634.62C4467.37 1634.62 4481.01 1636.99 4492.32 1641.73C4503.64 1646.41 4512.28 1653.14 4518.25 1661.9C4524.21 1670.66 4527.2 1681.14 4527.2 1693.36ZM4501.7 1693.36C4501.7 1685.03 4497.51 1678.37 4489.13 1673.4C4480.75 1668.43 4468.18 1665.97 4451.41 1666.01C4440.38 1666.01 4431.2 1667.15 4423.86 1669.42C4416.52 1671.65 4411 1674.82 4407.31 1678.94C4403.62 1683.01 4401.77 1687.82 4401.77 1693.36C4401.77 1701.64 4405.91 1708.27 4414.2 1713.25C4422.48 1718.22 4434.89 1720.73 4451.41 1720.77C4462.59 1720.77 4471.92 1719.66 4479.4 1717.44C4486.83 1715.16 4492.42 1711.97 4496.16 1707.85C4499.85 1703.73 4501.7 1698.9 4501.7 1693.36ZM4525.99 1559.57C4525.99 1569.61 4524.14 1578.56 4520.45 1586.42C4516.76 1594.23 4511.67 1600.43 4505.18 1605.02C4498.69 1609.62 4491.26 1612.01 4482.88 1612.2V1582.37C4488.51 1582.04 4493.08 1579.67 4496.59 1575.27C4500.09 1570.86 4501.84 1565.63 4501.84 1559.57C4501.84 1554.74 4500.78 1550.48 4498.64 1546.79C4496.47 1543.04 4493.46 1540.13 4489.62 1538.05C4485.74 1535.92 4481.29 1534.85 4476.27 1534.85C4471.16 1534.85 4466.66 1535.94 4462.78 1538.12C4458.9 1540.25 4455.87 1543.21 4453.69 1547C4451.51 1550.79 4450.4 1555.12 4450.35 1560C4450.35 1564.26 4451.23 1568.4 4452.98 1572.42C4454.73 1576.4 4457.12 1579.5 4460.15 1581.73L4455.25 1609.07L4378.55 1602.18V1513.26H4403.69V1576.83L4440.12 1580.59V1579.74C4436.52 1577.18 4433.54 1573.32 4431.17 1568.16C4428.81 1563 4427.62 1557.23 4427.62 1550.83C4427.62 1542.07 4429.68 1534.26 4433.8 1527.4C4437.92 1520.53 4443.58 1515.11 4450.78 1511.13C4457.93 1507.15 4466.16 1505.19 4475.49 1505.24C4485.29 1505.19 4494 1507.46 4501.63 1512.06C4509.2 1516.6 4515.17 1522.97 4519.53 1531.16C4523.83 1539.3 4525.99 1548.77 4525.99 1559.57Z" fill="black"/>
<path id="706" d="M4760.93 1749L4836.3 1599.85V1598.61H4748.5V1567.18H4876.07V1599.05L4800.61 1749H4760.93ZM4969.8 1753C4954.53 1752.94 4941.39 1749.18 4930.38 1741.72C4919.43 1734.26 4911 1723.46 4905.08 1709.32C4899.22 1695.17 4896.32 1678.15 4896.38 1658.27C4896.38 1638.44 4899.31 1621.54 4905.17 1607.58C4911.09 1593.61 4919.52 1582.98 4930.47 1575.7C4941.48 1568.37 4954.59 1564.7 4969.8 1564.7C4985.01 1564.7 4998.09 1568.37 5009.04 1575.7C5020.05 1583.04 5028.51 1593.7 5034.43 1607.66C5040.35 1621.57 5043.28 1638.44 5043.22 1658.27C5043.22 1678.21 5040.26 1695.26 5034.34 1709.4C5028.48 1723.55 5020.08 1734.35 5009.13 1741.81C4998.18 1749.27 4985.07 1753 4969.8 1753ZM4969.8 1721.12C4980.22 1721.12 4988.53 1715.89 4994.75 1705.41C5000.96 1694.93 5004.04 1679.22 5003.98 1658.27C5003.98 1644.48 5002.56 1633 4999.72 1623.82C4996.94 1614.65 4992.97 1607.75 4987.82 1603.14C4982.73 1598.52 4976.73 1596.21 4969.8 1596.21C4959.44 1596.21 4951.16 1601.39 4944.94 1611.75C4938.73 1622.11 4935.59 1637.61 4935.53 1658.27C4935.53 1672.24 4936.92 1683.9 4939.71 1693.25C4942.55 1702.54 4946.54 1709.52 4951.69 1714.2C4956.84 1718.82 4962.88 1721.12 4969.8 1721.12ZM5140.41 1751.49C5131.06 1751.43 5122.03 1749.86 5113.33 1746.78C5104.69 1743.7 5096.94 1738.7 5090.07 1731.78C5083.21 1724.85 5077.76 1715.68 5073.74 1704.26C5069.77 1692.83 5067.79 1678.81 5067.79 1662.17C5067.85 1646.9 5069.6 1633.26 5073.03 1621.25C5076.52 1609.17 5081.49 1598.93 5087.94 1590.53C5094.45 1582.13 5102.24 1575.73 5111.29 1571.35C5120.35 1566.92 5130.5 1564.7 5141.74 1564.7C5153.88 1564.7 5164.59 1567.06 5173.88 1571.8C5183.17 1576.47 5190.63 1582.84 5196.25 1590.89C5201.94 1598.93 5205.37 1607.96 5206.55 1617.96H5168.64C5167.16 1611.63 5164.06 1606.66 5159.32 1603.05C5154.59 1599.44 5148.73 1597.63 5141.74 1597.63C5129.91 1597.63 5120.91 1602.78 5114.75 1613.08C5108.66 1623.38 5105.55 1637.38 5105.43 1655.07H5106.68C5109.4 1649.69 5113.07 1645.1 5117.68 1641.31C5122.36 1637.46 5127.66 1634.54 5133.58 1632.52C5139.55 1630.45 5145.86 1629.42 5152.49 1629.42C5163.26 1629.42 5172.85 1631.96 5181.25 1637.05C5189.65 1642.08 5196.28 1649.01 5201.14 1657.82C5205.99 1666.64 5208.42 1676.73 5208.42 1688.1C5208.42 1700.41 5205.55 1711.36 5199.8 1720.95C5194.12 1730.53 5186.16 1738.05 5175.92 1743.5C5165.74 1748.88 5153.91 1751.54 5140.41 1751.49ZM5140.23 1721.3C5146.15 1721.3 5151.45 1719.88 5156.13 1717.04C5160.8 1714.2 5164.47 1710.35 5167.13 1705.5C5169.8 1700.65 5171.13 1695.2 5171.13 1689.16C5171.13 1683.13 5169.8 1677.71 5167.13 1672.92C5164.53 1668.12 5160.92 1664.31 5156.3 1661.46C5151.69 1658.62 5146.42 1657.2 5140.5 1657.2C5136.06 1657.2 5131.95 1658.03 5128.16 1659.69C5124.43 1661.35 5121.15 1663.65 5118.31 1666.61C5115.52 1669.57 5113.33 1673.01 5111.74 1676.91C5110.14 1680.76 5109.34 1684.87 5109.34 1689.25C5109.34 1695.11 5110.67 1700.47 5113.33 1705.32C5116.06 1710.17 5119.73 1714.05 5124.34 1716.95C5129.02 1719.85 5134.32 1721.3 5140.23 1721.3Z" fill="black"/>
</g>
</svg>
