<svg width="9395" height="7879" viewBox="0 0 9395 7879" fill="none" xmlns="http://www.w3.org/2000/svg">
<g id="plan-18corpus-6">
<rect width="9395" height="7879" fill="white"/>
<path id="Rectangle 133" d="M1004 2404H2542.5L3207.5 2114.5V1077H3931.5L4248.5 1397.86L4971.5 1397.86L5279 1077L6024 1077V2106.5L6724.39 2401.75L8406 2401.75V6733H1004V2404Z" fill="#242424"/>
<path id="Rectangle 137" d="M3274 1140H3582V1255H3524V2479H3480.86V2544.5H3346.46V2479H3274V1140Z" fill="#9CC7E5"/>
<path id="Rectangle 138" d="M3572 1140H3847V2477H3572V1140Z" fill="#9CC7E5"/>
<path id="Rectangle 141" d="M5343 1163H5614V2466H5343V2401V2279.5V1163Z" fill="#9CC7E5"/>
<path id="Rectangle 142" d="M5683 1250H5343V1129H5961V2467H5879.6V2545H5733.93V2467H5683V1250Z" fill="#9CC7E5"/>
<path id="617room" d="M4661.5 1478.5H5002.5L5299 1163V1531.97V2475H5198.5V2526.5L4994 2530.5V2475H4661.5V1478.5Z" fill="#9CC7E5"/>
<path id="Vector 150" d="M3260 1951.5H3538.5V1899.5H3260V1838H3538.5V1773H3260V1711.5H3538.5V1643.5H3260V1569H3538.5V1507.5H3260" stroke="#242424" stroke-width="13"/>
<path id="Vector 152" d="M5683 1951H5961.5V1899H5683V1837.5H5961.5V1772.5H5683V1711H5961.5V1643H5683V1568.5H5961.5V1507H5683" stroke="#242424" stroke-width="13"/>
<path id="Vector 153" d="M5329 2100H5607.5V2048H5329V1986.5H5607.5V1921.5H5329V1860H5607.5V1792H5329V1717.5H5607.5V1656H5329" stroke="#242424" stroke-width="13"/>
<path id="Vector 151" d="M3569 2100H3875V2048H3569V1986.5H3875V1921.5H3569V1860H3875V1792H3569V1717.5H3875V1656H3569" stroke="#242424" stroke-width="13"/>
<path id="604room" d="M6728 2464H8345V4693.5H7846.5V4737.5H7610.5V4693.5H7507V4555.5H7207.5V3613H5973.5V2835L6415 2344L6728 2464Z" fill="#9CC7E5"/>
<g id="Rectangle 404">
<path d="M4267 2942H4346.9V2893.5H4475V2942H4570.6V3082.67H4650V3293.92H4570.6V3416H4267V2942Z" fill="#789DB7"/>
<path d="M4267 2942H4346.9V2893.5H4475V2942H4570.6V3082.67H4650V3293.92H4570.6V3416H4267V2942Z" fill="#789DB7"/>
</g>
<g id="Rectangle 405">
<path d="M4939 2942H4859V2893.5H4733.5V2942H4635V3416H4939V2942Z" fill="#789DB7"/>
<path d="M4939 2942H4859V2893.5H4733.5V2942H4635V3416H4939V2942Z" fill="#789DB7"/>
</g>
<path id="603room" d="M5971.82 4563V4020H5917.5V3786H5971.82V3667H7152.41L7152.41 4563H5971.82Z" fill="#9CC7E5"/>
<path id="616room" d="M4598.5 1473.5H4219.5L3908 1147.5V2476.57H3992V2527H4199V2476.57H4598.5V1473.5Z" fill="#9CC7E5"/>
<path id="614room" d="M3657 3504V3380H3601V3197.5H3657V2942H4211V3504H3657Z" fill="#9CC7E5"/>
<path id="615room" d="M3260 2823V3121.5H3314.5V3389H3260V3486H2188V3426H2129.59V3484H1067V2472H2129.59V3264H2188V2470H2547L2869.5 2334L3260 2823Z" fill="#9CC7E5"/>
<path id="609room" d="M4403 3473H4263V3555.5H3653.5V4417.5H4183.5V4684H4223V4738.5H4372V4684H4403V3473Z" fill="#9CC7E5"/>
<path id="602room" d="M4939 3473H4442V4684H4678.75V4742H4915.5V4684H5010V4416H5543V3893H5604.5V3683H5543V3564.58H5010H4939V3473Z" fill="#9CC7E5"/>
<path id="613room" d="M2072 3547V4067H1646V4109.5H2072V4548H1718.5V4684H1642.5V4742.5H1443V4684H1067V4109.5H1442.5V4067H1067V3547H2072Z" fill="#9CC7E5"/>
<path id="611room" d="M2131 5146H2810V5082H3039V5146H3159V5896V6646H2131V5146Z" fill="#9CC7E5"/>
<path id="610room" d="M3221 5146H3326V5077H3536.5V5146H4152V5896V6646H3221V5146Z" fill="#9CC7E5"/>
<path id="608room" d="M4215 5146H4417V5077.5H4646.5V5146H5010V5896V6646H4215V5146Z" fill="#9CC7E5"/>
<path id="corridor" d="M6367 2309.5L5919 2809.44V4737H8343V5100H1067V4737H3310V2806.18L2920.5 2310.5L3224.5 2179.5V2528H3346V2527H5870V2528H6007V2171L6367 2309.5ZM3603 4654H4143V4737H5063V4655H5601V2894H3603V4654ZM7455 4694H5972L5972 4606H7455V4694ZM3256 4684H1766V4596H3256V4684ZM5548 4599H5063V4470H5548V4599ZM4142 4598H3657V4470H4142V4598Z" fill="#9CC7E5"/>
<path id="607room" d="M5073 5146H5296V5079H5565V5146H5900V5896V6646H5073V5146Z" fill="#9CC7E5"/>
<path id="606room" d="M5972 5145.52L6185.5 5145.52V5083H6500V5145.52H7152V5895.76V6646H5972V5145.52Z" fill="#9CC7E5"/>
<path id="WC" d="M2260 3856H2248V3888H2337V3856H2300V3547H2436V3856H2422.5V3888H2436V4147H2386.5V4182H2568V4350H2613V4182H3256V4313.5H3311V4476.5H3256V4544H2613V4470H2568V4547H2124V4182H2272.5V4147H2124V3888H2154.5V3856H2124V3547H2260V3856ZM2613 3856H2601V3888H2690V3856H2653V3547H2789V3856H2775.5V3888H2789V3968H2830V3865H3256V3945.5H3311.5V4098H3256V4144H2830V4088.5H2789V4147H2477V3888H2507.5V3856H2477V3547H2613V3856ZM3256 3667H3310.5V3796H3256V3826H2830V3547H3256V3667Z" fill="#6698BA"/>
<path id="601room" d="M5548 3504V3380H5604V3197.5H5548V2942H4994V3504H5548Z" fill="#9CC7E5"/>
<path id="605room" d="M7646.5 5149H8333.5V5575H7646V5635H8333V6061H7646V6124H8333V6646H7210V6124H7399V6061H7210V5635H7399V5575H7210.5V5149H7399V5082.5H7646L7646.5 5149Z" fill="#9CC7E5"/>
<path id="612room" d="M1956.5 5146H2072V5720H1956.5V5769H2072V6646H1067V5769H1177V5720H1067V5146H1499V5720H1406.5V5769H1684.5V5720H1547V5146H1684.5V5078.5H1956.5V5146Z" fill="#9CC7E5"/>
<path id="616" d="M4083.42 2140.98C4072.2 2140.91 4061.37 2139.03 4050.93 2135.34C4040.56 2131.64 4031.25 2125.64 4023.02 2117.33C4014.78 2109.02 4008.24 2098.01 4003.41 2084.31C3998.65 2070.6 3996.28 2053.77 3996.28 2033.81C3996.35 2015.49 3998.44 1999.12 4002.56 1984.7C4006.75 1970.21 4012.72 1957.92 4020.46 1947.84C4028.27 1937.75 4037.61 1930.08 4048.48 1924.83C4059.34 1919.5 4071.52 1916.84 4085.02 1916.84C4099.58 1916.84 4112.43 1919.68 4123.58 1925.36C4134.73 1930.97 4143.68 1938.6 4150.43 1948.26C4157.25 1957.92 4161.37 1968.75 4162.79 1980.76H4117.3C4115.52 1973.16 4111.79 1967.19 4106.11 1962.86C4100.43 1958.53 4093.4 1956.36 4085.02 1956.36C4070.81 1956.36 4060.02 1962.54 4052.63 1974.9C4045.32 1987.25 4041.59 2004.05 4041.45 2025.29H4042.94C4046.2 2018.82 4050.61 2013.32 4056.15 2008.77C4061.76 2004.16 4068.12 2000.64 4075.22 1998.23C4082.39 1995.74 4089.95 1994.5 4097.91 1994.5C4110.84 1994.5 4122.34 1997.55 4132.43 2003.66C4142.51 2009.7 4150.47 2018.01 4156.29 2028.59C4162.11 2039.17 4165.03 2051.28 4165.03 2064.92C4165.03 2079.69 4161.58 2092.83 4154.69 2104.34C4147.87 2115.84 4138.32 2124.86 4126.03 2131.39C4113.82 2137.86 4099.61 2141.05 4083.42 2140.98ZM4083.21 2104.76C4090.31 2104.76 4096.67 2103.06 4102.28 2099.65C4107.89 2096.24 4112.29 2091.62 4115.49 2085.8C4118.68 2079.97 4120.28 2073.44 4120.28 2066.2C4120.28 2058.95 4118.68 2052.45 4115.49 2046.7C4112.36 2040.95 4108.03 2036.37 4102.49 2032.96C4096.95 2029.55 4090.63 2027.84 4083.53 2027.84C4078.2 2027.84 4073.26 2028.84 4068.72 2030.83C4064.24 2032.82 4060.3 2035.59 4056.89 2039.14C4053.56 2042.69 4050.93 2046.81 4049.01 2051.49C4047.09 2056.11 4046.13 2061.05 4046.13 2066.3C4046.13 2073.33 4047.73 2079.76 4050.93 2085.59C4054.19 2091.41 4058.6 2096.06 4064.14 2099.54C4069.75 2103.02 4076.11 2104.76 4083.21 2104.76ZM4292.65 1919.82V2138H4246.52V1963.6H4245.25L4195.28 1994.92V1954.02L4249.29 1919.82H4292.65ZM4428.24 2140.98C4417.02 2140.91 4406.19 2139.03 4395.75 2135.34C4385.38 2131.64 4376.08 2125.64 4367.84 2117.33C4359.6 2109.02 4353.07 2098.01 4348.24 2084.31C4343.48 2070.6 4341.1 2053.77 4341.1 2033.81C4341.17 2015.49 4343.27 1999.12 4347.39 1984.7C4351.58 1970.21 4357.54 1957.92 4365.28 1947.84C4373.1 1937.75 4382.44 1930.08 4393.3 1924.83C4404.17 1919.5 4416.35 1916.84 4429.84 1916.84C4444.4 1916.84 4457.26 1919.68 4468.41 1925.36C4479.56 1930.97 4488.51 1938.6 4495.25 1948.26C4502.07 1957.92 4506.19 1968.75 4507.61 1980.76H4462.12C4460.35 1973.16 4456.62 1967.19 4450.94 1962.86C4445.25 1958.53 4438.22 1956.36 4429.84 1956.36C4415.64 1956.36 4404.84 1962.54 4397.46 1974.9C4390.14 1987.25 4386.41 2004.05 4386.27 2025.29H4387.76C4391.03 2018.82 4395.43 2013.32 4400.97 2008.77C4406.58 2004.16 4412.94 2000.64 4420.04 1998.23C4427.21 1995.74 4434.78 1994.5 4442.73 1994.5C4455.66 1994.5 4467.17 1997.55 4477.25 2003.66C4487.34 2009.7 4495.29 2018.01 4501.11 2028.59C4506.94 2039.17 4509.85 2051.28 4509.85 2064.92C4509.85 2079.69 4506.41 2092.83 4499.52 2104.34C4492.7 2115.84 4483.15 2124.86 4470.86 2131.39C4458.64 2137.86 4444.44 2141.05 4428.24 2140.98ZM4428.03 2104.76C4435.13 2104.76 4441.49 2103.06 4447.1 2099.65C4452.71 2096.24 4457.12 2091.62 4460.31 2085.8C4463.51 2079.97 4465.11 2073.44 4465.11 2066.2C4465.11 2058.95 4463.51 2052.45 4460.31 2046.7C4457.19 2040.95 4452.85 2036.37 4447.31 2032.96C4441.77 2029.55 4435.45 2027.84 4428.35 2027.84C4423.02 2027.84 4418.09 2028.84 4413.54 2030.83C4409.07 2032.82 4405.13 2035.59 4401.72 2039.14C4398.38 2042.69 4395.75 2046.81 4393.83 2051.49C4391.92 2056.11 4390.96 2061.05 4390.96 2066.3C4390.96 2073.33 4392.56 2079.76 4395.75 2085.59C4399.02 2091.41 4403.42 2096.06 4408.96 2099.54C4414.57 2103.02 4420.93 2104.76 4428.03 2104.76Z" fill="black"/>
<path id="617" d="M4837.42 2140.98C4826.2 2140.91 4815.37 2139.03 4804.93 2135.34C4794.56 2131.64 4785.25 2125.64 4777.02 2117.33C4768.78 2109.02 4762.24 2098.01 4757.41 2084.31C4752.65 2070.6 4750.28 2053.77 4750.28 2033.81C4750.35 2015.49 4752.44 1999.12 4756.56 1984.7C4760.75 1970.21 4766.72 1957.92 4774.46 1947.84C4782.27 1937.75 4791.61 1930.08 4802.48 1924.83C4813.34 1919.5 4825.52 1916.84 4839.02 1916.84C4853.58 1916.84 4866.43 1919.68 4877.58 1925.36C4888.73 1930.97 4897.68 1938.6 4904.43 1948.26C4911.25 1957.92 4915.37 1968.75 4916.79 1980.76H4871.3C4869.52 1973.16 4865.79 1967.19 4860.11 1962.86C4854.43 1958.53 4847.4 1956.36 4839.02 1956.36C4824.81 1956.36 4814.02 1962.54 4806.63 1974.9C4799.32 1987.25 4795.59 2004.05 4795.45 2025.29H4796.94C4800.2 2018.82 4804.61 2013.32 4810.15 2008.77C4815.76 2004.16 4822.12 2000.64 4829.22 1998.23C4836.39 1995.74 4843.95 1994.5 4851.91 1994.5C4864.84 1994.5 4876.34 1997.55 4886.43 2003.66C4896.51 2009.7 4904.47 2018.01 4910.29 2028.59C4916.11 2039.17 4919.03 2051.28 4919.03 2064.92C4919.03 2079.69 4915.58 2092.83 4908.69 2104.34C4901.87 2115.84 4892.32 2124.86 4880.03 2131.39C4867.82 2137.86 4853.61 2141.05 4837.42 2140.98ZM4837.21 2104.76C4844.31 2104.76 4850.67 2103.06 4856.28 2099.65C4861.89 2096.24 4866.29 2091.62 4869.49 2085.8C4872.68 2079.97 4874.28 2073.44 4874.28 2066.2C4874.28 2058.95 4872.68 2052.45 4869.49 2046.7C4866.36 2040.95 4862.03 2036.37 4856.49 2032.96C4850.95 2029.55 4844.63 2027.84 4837.53 2027.84C4832.2 2027.84 4827.26 2028.84 4822.72 2030.83C4818.24 2032.82 4814.3 2035.59 4810.89 2039.14C4807.56 2042.69 4804.93 2046.81 4803.01 2051.49C4801.09 2056.11 4800.13 2061.05 4800.13 2066.3C4800.13 2073.33 4801.73 2079.76 4804.93 2085.59C4808.19 2091.41 4812.6 2096.06 4818.14 2099.54C4823.75 2103.02 4830.11 2104.76 4837.21 2104.76ZM5046.65 1919.82V2138H5000.52V1963.6H4999.25L4949.28 1994.92V1954.02L5003.29 1919.82H5046.65ZM5107.14 2138L5197.59 1959.02V1957.53H5092.22V1919.82H5245.31V1958.06L5154.76 2138H5107.14Z" fill="black"/>
<path id="601" d="M5131.52 3316.49C5122.17 3316.43 5113.14 3314.86 5104.44 3311.78C5095.8 3308.7 5088.05 3303.7 5081.18 3296.78C5074.31 3289.85 5068.87 3280.68 5064.84 3269.26C5060.88 3257.83 5058.9 3243.81 5058.9 3227.17C5058.96 3211.9 5060.7 3198.26 5064.13 3186.25C5067.63 3174.17 5072.6 3163.93 5079.05 3155.53C5085.56 3147.13 5093.34 3140.73 5102.4 3136.35C5111.45 3131.92 5121.6 3129.7 5132.85 3129.7C5144.98 3129.7 5155.69 3132.06 5164.99 3136.8C5174.28 3141.47 5181.74 3147.84 5187.36 3155.89C5193.04 3163.93 5196.47 3172.96 5197.66 3182.96H5159.75C5158.27 3176.63 5155.16 3171.66 5150.43 3168.05C5145.69 3164.44 5139.83 3162.63 5132.85 3162.63C5121.01 3162.63 5112.02 3167.78 5105.86 3178.08C5099.76 3188.38 5096.66 3202.38 5096.54 3220.07H5097.78C5100.5 3214.69 5104.17 3210.1 5108.79 3206.31C5113.47 3202.46 5118.76 3199.54 5124.68 3197.52C5130.66 3195.45 5136.96 3194.42 5143.59 3194.42C5154.36 3194.42 5163.95 3196.96 5172.36 3202.05C5180.76 3207.08 5187.39 3214.01 5192.24 3222.82C5197.09 3231.64 5199.52 3241.73 5199.52 3253.1C5199.52 3265.41 5196.65 3276.36 5190.91 3285.95C5185.23 3295.53 5177.27 3303.05 5167.03 3308.5C5156.85 3313.88 5145.01 3316.54 5131.52 3316.49ZM5131.34 3286.3C5137.26 3286.3 5142.56 3284.88 5147.23 3282.04C5151.91 3279.2 5155.58 3275.35 5158.24 3270.5C5160.9 3265.65 5162.23 3260.2 5162.23 3254.16C5162.23 3248.13 5160.9 3242.71 5158.24 3237.92C5155.64 3233.12 5152.02 3229.31 5147.41 3226.46C5142.79 3223.62 5137.52 3222.2 5131.61 3222.2C5127.17 3222.2 5123.05 3223.03 5119.27 3224.69C5115.54 3226.35 5112.25 3228.65 5109.41 3231.61C5106.63 3234.57 5104.44 3238.01 5102.84 3241.91C5101.24 3245.76 5100.44 3249.87 5100.44 3254.25C5100.44 3260.11 5101.78 3265.47 5104.44 3270.32C5107.16 3275.17 5110.83 3279.05 5115.45 3281.95C5120.12 3284.85 5125.42 3286.3 5131.34 3286.3ZM5298.07 3318C5282.8 3317.94 5269.66 3314.18 5258.65 3306.72C5247.7 3299.26 5239.26 3288.46 5233.35 3274.32C5227.49 3260.17 5224.59 3243.15 5224.65 3223.27C5224.65 3203.44 5227.58 3186.54 5233.43 3172.58C5239.35 3158.61 5247.79 3147.98 5258.74 3140.7C5269.75 3133.37 5282.85 3129.7 5298.07 3129.7C5313.28 3129.7 5326.36 3133.37 5337.31 3140.7C5348.31 3148.04 5356.78 3158.7 5362.7 3172.66C5368.61 3186.57 5371.54 3203.44 5371.49 3223.27C5371.49 3243.21 5368.53 3260.26 5362.61 3274.4C5356.75 3288.55 5348.34 3299.35 5337.39 3306.81C5326.44 3314.27 5313.34 3318 5298.07 3318ZM5298.07 3286.12C5308.48 3286.12 5316.8 3280.89 5323.01 3270.41C5329.23 3259.93 5332.3 3244.22 5332.25 3223.27C5332.25 3209.48 5330.82 3198 5327.98 3188.82C5325.2 3179.65 5321.24 3172.75 5316.09 3168.14C5311 3163.52 5304.99 3161.21 5298.07 3161.21C5287.71 3161.21 5279.42 3166.39 5273.21 3176.75C5266.99 3187.11 5263.86 3202.61 5263.8 3223.27C5263.8 3237.24 5265.19 3248.9 5267.97 3258.25C5270.81 3267.54 5274.81 3274.52 5279.95 3279.2C5285.1 3283.82 5291.14 3286.12 5298.07 3286.12ZM5478 3132.18V3314H5439.56V3168.67H5438.49L5396.85 3194.77V3160.68L5441.86 3132.18H5478Z" fill="black"/>
<path id="614" d="M3764.52 3316.49C3755.17 3316.43 3746.14 3314.86 3737.44 3311.78C3728.8 3308.7 3721.05 3303.7 3714.18 3296.78C3707.31 3289.85 3701.87 3280.68 3697.84 3269.26C3693.88 3257.83 3691.9 3243.81 3691.9 3227.17C3691.96 3211.9 3693.7 3198.26 3697.13 3186.25C3700.63 3174.17 3705.6 3163.93 3712.05 3155.53C3718.56 3147.13 3726.34 3140.73 3735.4 3136.35C3744.45 3131.92 3754.6 3129.7 3765.85 3129.7C3777.98 3129.7 3788.69 3132.06 3797.99 3136.8C3807.28 3141.47 3814.74 3147.84 3820.36 3155.89C3826.04 3163.93 3829.47 3172.96 3830.66 3182.96H3792.75C3791.27 3176.63 3788.16 3171.66 3783.43 3168.05C3778.69 3164.44 3772.83 3162.63 3765.85 3162.63C3754.01 3162.63 3745.02 3167.78 3738.86 3178.08C3732.76 3188.38 3729.66 3202.38 3729.54 3220.07H3730.78C3733.5 3214.69 3737.17 3210.1 3741.79 3206.31C3746.47 3202.46 3751.76 3199.54 3757.68 3197.52C3763.66 3195.45 3769.96 3194.42 3776.59 3194.42C3787.36 3194.42 3796.95 3196.96 3805.36 3202.05C3813.76 3207.08 3820.39 3214.01 3825.24 3222.82C3830.09 3231.64 3832.52 3241.73 3832.52 3253.1C3832.52 3265.41 3829.65 3276.36 3823.91 3285.95C3818.23 3295.53 3810.27 3303.05 3800.03 3308.5C3789.85 3313.88 3778.01 3316.54 3764.52 3316.49ZM3764.34 3286.3C3770.26 3286.3 3775.56 3284.88 3780.23 3282.04C3784.91 3279.2 3788.58 3275.35 3791.24 3270.5C3793.9 3265.65 3795.23 3260.2 3795.23 3254.16C3795.23 3248.13 3793.9 3242.71 3791.24 3237.92C3788.64 3233.12 3785.02 3229.31 3780.41 3226.46C3775.79 3223.62 3770.52 3222.2 3764.61 3222.2C3760.17 3222.2 3756.05 3223.03 3752.27 3224.69C3748.54 3226.35 3745.25 3228.65 3742.41 3231.61C3739.63 3234.57 3737.44 3238.01 3735.84 3241.91C3734.24 3245.76 3733.44 3249.87 3733.44 3254.25C3733.44 3260.11 3734.78 3265.47 3737.44 3270.32C3740.16 3275.17 3743.83 3279.05 3748.45 3281.95C3753.12 3284.85 3758.42 3286.3 3764.34 3286.3ZM3938.88 3132.18V3314H3900.44V3168.67H3899.37L3857.73 3194.77V3160.68L3902.75 3132.18H3938.88ZM3979.34 3282.04V3251.77L4055.24 3132.18H4081.34V3174.09H4065.9L4018.05 3249.81V3251.23H4125.91V3282.04H3979.34ZM4066.61 3314V3272.81L4067.32 3259.4V3132.18H4103.36V3314H4066.61Z" fill="black"/>
<path id="612" d="M1669.52 5517.49C1660.17 5517.43 1651.14 5515.86 1642.44 5512.78C1633.8 5509.7 1626.05 5504.7 1619.18 5497.78C1612.31 5490.85 1606.87 5481.68 1602.84 5470.26C1598.88 5458.83 1596.9 5444.81 1596.9 5428.17C1596.96 5412.9 1598.7 5399.26 1602.13 5387.25C1605.63 5375.17 1610.6 5364.93 1617.05 5356.53C1623.56 5348.13 1631.34 5341.73 1640.4 5337.35C1649.45 5332.92 1659.6 5330.7 1670.85 5330.7C1682.98 5330.7 1693.69 5333.06 1702.99 5337.8C1712.28 5342.47 1719.74 5348.84 1725.36 5356.89C1731.04 5364.93 1734.47 5373.96 1735.66 5383.96H1697.75C1696.27 5377.63 1693.16 5372.66 1688.43 5369.05C1683.69 5365.44 1677.83 5363.63 1670.85 5363.63C1659.01 5363.63 1650.02 5368.78 1643.86 5379.08C1637.76 5389.38 1634.66 5403.38 1634.54 5421.07H1635.78C1638.5 5415.69 1642.17 5411.1 1646.79 5407.31C1651.47 5403.46 1656.76 5400.54 1662.68 5398.52C1668.66 5396.45 1674.96 5395.42 1681.59 5395.42C1692.36 5395.42 1701.95 5397.96 1710.36 5403.05C1718.76 5408.08 1725.39 5415.01 1730.24 5423.82C1735.09 5432.64 1737.52 5442.73 1737.52 5454.1C1737.52 5466.41 1734.65 5477.36 1728.91 5486.95C1723.23 5496.53 1715.27 5504.05 1705.03 5509.5C1694.85 5514.88 1683.01 5517.54 1669.52 5517.49ZM1669.34 5487.3C1675.26 5487.3 1680.56 5485.88 1685.23 5483.04C1689.91 5480.2 1693.58 5476.35 1696.24 5471.5C1698.9 5466.65 1700.23 5461.2 1700.23 5455.16C1700.23 5449.13 1698.9 5443.71 1696.24 5438.92C1693.64 5434.12 1690.02 5430.31 1685.41 5427.46C1680.79 5424.62 1675.52 5423.2 1669.61 5423.2C1665.17 5423.2 1661.05 5424.03 1657.27 5425.69C1653.54 5427.35 1650.25 5429.65 1647.41 5432.61C1644.63 5435.57 1642.44 5439.01 1640.84 5442.91C1639.24 5446.76 1638.44 5450.87 1638.44 5455.25C1638.44 5461.11 1639.78 5466.47 1642.44 5471.32C1645.16 5476.17 1648.83 5480.05 1653.45 5482.95C1658.12 5485.85 1663.42 5487.3 1669.34 5487.3ZM1843.88 5333.18V5515H1805.44V5369.67H1804.37L1762.73 5395.77V5361.68L1807.75 5333.18H1843.88ZM1887.09 5515V5487.3L1951.81 5427.38C1957.31 5422.05 1961.93 5417.25 1965.66 5412.99C1969.45 5408.73 1972.32 5404.56 1974.27 5400.48C1976.22 5396.33 1977.2 5391.86 1977.2 5387.07C1977.2 5381.74 1975.99 5377.16 1973.56 5373.31C1971.13 5369.4 1967.82 5366.41 1963.62 5364.34C1959.42 5362.21 1954.65 5361.15 1949.32 5361.15C1943.76 5361.15 1938.91 5362.27 1934.76 5364.52C1930.62 5366.77 1927.43 5370 1925.18 5374.2C1922.93 5378.4 1921.8 5383.4 1921.8 5389.2H1885.32C1885.32 5377.3 1888.01 5366.98 1893.39 5358.22C1898.78 5349.46 1906.33 5342.68 1916.03 5337.89C1925.74 5333.09 1936.93 5330.7 1949.59 5330.7C1962.61 5330.7 1973.95 5333 1983.59 5337.62C1993.3 5342.18 2000.85 5348.51 2006.23 5356.62C2011.62 5364.73 2014.31 5374.02 2014.31 5384.5C2014.31 5391.36 2012.95 5398.14 2010.23 5404.83C2007.56 5411.51 2002.8 5418.94 1995.93 5427.11C1989.07 5435.22 1979.39 5444.95 1966.9 5456.32L1940.36 5482.33V5483.57H2016.71V5515H1887.09Z" fill="black"/>
<path id="605" d="M7473.52 5459.49C7464.17 5459.43 7455.14 5457.86 7446.44 5454.78C7437.8 5451.7 7430.05 5446.7 7423.18 5439.78C7416.31 5432.85 7410.87 5423.68 7406.84 5412.26C7402.88 5400.83 7400.9 5386.81 7400.9 5370.17C7400.96 5354.9 7402.7 5341.26 7406.13 5329.25C7409.63 5317.17 7414.6 5306.93 7421.05 5298.53C7427.56 5290.13 7435.34 5283.73 7444.4 5279.35C7453.45 5274.92 7463.6 5272.7 7474.85 5272.7C7486.98 5272.7 7497.69 5275.06 7506.99 5279.8C7516.28 5284.47 7523.74 5290.84 7529.36 5298.89C7535.04 5306.93 7538.47 5315.96 7539.66 5325.96H7501.75C7500.27 5319.63 7497.16 5314.66 7492.43 5311.05C7487.69 5307.44 7481.83 5305.63 7474.85 5305.63C7463.01 5305.63 7454.02 5310.78 7447.86 5321.08C7441.76 5331.38 7438.66 5345.38 7438.54 5363.07H7439.78C7442.5 5357.69 7446.17 5353.1 7450.79 5349.31C7455.47 5345.46 7460.76 5342.54 7466.68 5340.52C7472.66 5338.45 7478.96 5337.42 7485.59 5337.42C7496.36 5337.42 7505.95 5339.96 7514.36 5345.05C7522.76 5350.08 7529.39 5357.01 7534.24 5365.82C7539.09 5374.64 7541.52 5384.73 7541.52 5396.1C7541.52 5408.41 7538.65 5419.36 7532.91 5428.95C7527.23 5438.53 7519.27 5446.05 7509.03 5451.5C7498.85 5456.88 7487.01 5459.54 7473.52 5459.49ZM7473.34 5429.3C7479.26 5429.3 7484.56 5427.88 7489.23 5425.04C7493.91 5422.2 7497.58 5418.35 7500.24 5413.5C7502.9 5408.65 7504.23 5403.2 7504.23 5397.16C7504.23 5391.13 7502.9 5385.71 7500.24 5380.92C7497.64 5376.12 7494.02 5372.31 7489.41 5369.46C7484.79 5366.62 7479.52 5365.2 7473.61 5365.2C7469.17 5365.2 7465.05 5366.03 7461.27 5367.69C7457.54 5369.35 7454.25 5371.65 7451.41 5374.61C7448.63 5377.57 7446.44 5381.01 7444.84 5384.91C7443.24 5388.76 7442.44 5392.87 7442.44 5397.25C7442.44 5403.11 7443.78 5408.47 7446.44 5413.32C7449.16 5418.17 7452.83 5422.05 7457.45 5424.95C7462.12 5427.85 7467.42 5429.3 7473.34 5429.3ZM7640.07 5461C7624.8 5460.94 7611.66 5457.18 7600.65 5449.72C7589.7 5442.26 7581.26 5431.46 7575.35 5417.32C7569.49 5403.17 7566.59 5386.15 7566.65 5366.27C7566.65 5346.44 7569.58 5329.54 7575.43 5315.58C7581.35 5301.61 7589.79 5290.98 7600.74 5283.7C7611.75 5276.37 7624.85 5272.7 7640.07 5272.7C7655.28 5272.7 7668.36 5276.37 7679.31 5283.7C7690.31 5291.04 7698.78 5301.7 7704.7 5315.66C7710.61 5329.57 7713.54 5346.44 7713.49 5366.27C7713.49 5386.21 7710.53 5403.26 7704.61 5417.4C7698.75 5431.55 7690.34 5442.35 7679.39 5449.81C7668.44 5457.27 7655.34 5461 7640.07 5461ZM7640.07 5429.12C7650.48 5429.12 7658.8 5423.89 7665.01 5413.41C7671.23 5402.93 7674.3 5387.22 7674.25 5366.27C7674.25 5352.48 7672.82 5341 7669.98 5331.82C7667.2 5322.65 7663.24 5315.75 7658.09 5311.14C7653 5306.52 7646.99 5304.21 7640.07 5304.21C7629.71 5304.21 7621.42 5309.39 7615.21 5319.75C7608.99 5330.11 7605.86 5345.61 7605.8 5366.27C7605.8 5380.24 7607.19 5391.9 7609.97 5401.25C7612.81 5410.54 7616.81 5417.52 7621.95 5422.2C7627.1 5426.82 7633.14 5429.12 7640.07 5429.12ZM7807.3 5459.49C7794.75 5459.49 7783.57 5457.18 7773.74 5452.56C7763.98 5447.94 7756.22 5441.58 7750.48 5433.47C7744.74 5425.37 7741.75 5416.07 7741.52 5405.6H7778.8C7779.22 5412.64 7782.18 5418.35 7787.68 5422.73C7793.19 5427.11 7799.73 5429.3 7807.3 5429.3C7813.34 5429.3 7818.67 5427.97 7823.28 5425.31C7827.96 5422.58 7831.6 5418.83 7834.2 5414.03C7836.86 5409.18 7838.2 5403.61 7838.2 5397.34C7838.2 5390.95 7836.84 5385.33 7834.11 5380.47C7831.45 5375.62 7827.75 5371.83 7823.02 5369.11C7818.28 5366.39 7812.87 5365 7806.77 5364.94C7801.44 5364.94 7796.26 5366.03 7791.23 5368.22C7786.26 5370.41 7782.38 5373.4 7779.6 5377.19L7745.42 5371.06L7754.03 5275.18H7865.19V5306.61H7785.73L7781.02 5352.15H7782.09C7785.28 5347.65 7790.11 5343.93 7796.56 5340.97C7803.01 5338.01 7810.23 5336.53 7818.22 5336.53C7829.17 5336.53 7838.94 5339.1 7847.52 5344.25C7856.1 5349.4 7862.88 5356.47 7867.85 5365.47C7872.82 5374.41 7875.28 5384.7 7875.22 5396.36C7875.28 5408.62 7872.44 5419.51 7866.69 5429.03C7861.01 5438.5 7853.05 5445.96 7842.81 5451.41C7832.63 5456.79 7820.8 5459.49 7807.3 5459.49Z" fill="black"/>
<path id="604" d="M7569.42 3797.98C7558.2 3797.91 7547.37 3796.03 7536.93 3792.34C7526.56 3788.64 7517.25 3782.64 7509.02 3774.33C7500.78 3766.02 7494.24 3755.01 7489.41 3741.31C7484.65 3727.6 7482.28 3710.77 7482.28 3690.81C7482.35 3672.49 7484.44 3656.12 7488.56 3641.7C7492.75 3627.21 7498.72 3614.92 7506.46 3604.84C7514.27 3594.75 7523.61 3587.08 7534.48 3581.83C7545.34 3576.5 7557.52 3573.84 7571.02 3573.84C7585.58 3573.84 7598.43 3576.68 7609.58 3582.36C7620.73 3587.97 7629.68 3595.6 7636.43 3605.26C7643.25 3614.92 7647.37 3625.75 7648.79 3637.76H7603.3C7601.52 3630.16 7597.79 3624.19 7592.11 3619.86C7586.43 3615.53 7579.4 3613.36 7571.02 3613.36C7556.81 3613.36 7546.02 3619.54 7538.63 3631.9C7531.32 3644.25 7527.59 3661.05 7527.45 3682.29H7528.94C7532.2 3675.82 7536.61 3670.32 7542.15 3665.77C7547.76 3661.16 7554.12 3657.64 7561.22 3655.23C7568.39 3652.74 7575.95 3651.5 7583.91 3651.5C7596.84 3651.5 7608.34 3654.55 7618.43 3660.66C7628.51 3666.7 7636.47 3675.01 7642.29 3685.59C7648.11 3696.17 7651.03 3708.28 7651.03 3721.92C7651.03 3736.69 7647.58 3749.83 7640.69 3761.34C7633.87 3772.84 7624.32 3781.86 7612.03 3788.39C7599.82 3794.86 7585.61 3798.05 7569.42 3797.98ZM7569.21 3761.76C7576.31 3761.76 7582.67 3760.06 7588.28 3756.65C7593.89 3753.24 7598.29 3748.62 7601.49 3742.8C7604.68 3736.97 7606.28 3730.44 7606.28 3723.2C7606.28 3715.95 7604.68 3709.45 7601.49 3703.7C7598.36 3697.95 7594.03 3693.37 7588.49 3689.96C7582.95 3686.55 7576.63 3684.84 7569.53 3684.84C7564.2 3684.84 7559.26 3685.84 7554.72 3687.83C7550.24 3689.82 7546.3 3692.59 7542.89 3696.14C7539.56 3699.69 7536.93 3703.81 7535.01 3708.49C7533.09 3713.11 7532.13 3718.05 7532.13 3723.3C7532.13 3730.33 7533.73 3736.76 7536.93 3742.59C7540.19 3748.41 7544.6 3753.06 7550.14 3756.54C7555.75 3760.02 7562.11 3761.76 7569.21 3761.76ZM7769.28 3799.79C7750.95 3799.72 7735.19 3795.21 7721.98 3786.26C7708.84 3777.32 7698.72 3764.35 7691.62 3747.38C7684.58 3730.4 7681.1 3709.99 7681.17 3686.12C7681.17 3662.33 7684.69 3642.05 7691.72 3625.29C7698.82 3608.53 7708.94 3595.78 7722.08 3587.05C7735.29 3578.24 7751.03 3573.84 7769.28 3573.84C7787.53 3573.84 7803.23 3578.24 7816.37 3587.05C7829.58 3595.85 7839.73 3608.64 7846.84 3625.4C7853.94 3642.09 7857.45 3662.33 7857.38 3686.12C7857.38 3710.06 7853.83 3730.51 7846.73 3747.49C7839.7 3764.46 7829.61 3777.42 7816.47 3786.37C7803.33 3795.32 7787.6 3799.79 7769.28 3799.79ZM7769.28 3761.55C7781.78 3761.55 7791.76 3755.26 7799.21 3742.69C7806.67 3730.12 7810.37 3711.26 7810.29 3686.12C7810.29 3669.57 7808.59 3655.8 7805.18 3644.79C7801.84 3633.78 7797.08 3625.5 7790.9 3619.96C7784.8 3614.42 7777.59 3611.65 7769.28 3611.65C7756.85 3611.65 7746.91 3617.87 7739.45 3630.3C7731.99 3642.73 7728.23 3661.34 7728.16 3686.12C7728.16 3702.88 7729.83 3716.88 7733.16 3728.1C7736.57 3739.25 7741.37 3747.63 7747.55 3753.24C7753.72 3758.78 7760.97 3761.55 7769.28 3761.55ZM7886.97 3756.65V3720.32L7978.06 3576.82H8009.38V3627.1H7990.84L7933.42 3717.98V3719.68H8062.86V3756.65H7886.97ZM7991.69 3795V3745.57L7992.55 3729.48V3576.82H8035.8V3795H7991.69Z" fill="black"/>
<path id="603" d="M6389.42 4219.98C6378.2 4219.91 6367.37 4218.03 6356.93 4214.34C6346.56 4210.64 6337.25 4204.64 6329.02 4196.33C6320.78 4188.02 6314.24 4177.01 6309.41 4163.31C6304.65 4149.6 6302.28 4132.77 6302.28 4112.81C6302.35 4094.49 6304.44 4078.12 6308.56 4063.7C6312.75 4049.21 6318.72 4036.92 6326.46 4026.84C6334.27 4016.75 6343.61 4009.08 6354.48 4003.83C6365.34 3998.5 6377.52 3995.84 6391.02 3995.84C6405.58 3995.84 6418.43 3998.68 6429.58 4004.36C6440.73 4009.97 6449.68 4017.6 6456.43 4027.26C6463.25 4036.92 6467.37 4047.75 6468.79 4059.76H6423.3C6421.52 4052.16 6417.79 4046.19 6412.11 4041.86C6406.43 4037.53 6399.4 4035.36 6391.02 4035.36C6376.81 4035.36 6366.02 4041.54 6358.63 4053.9C6351.32 4066.25 6347.59 4083.05 6347.45 4104.29H6348.94C6352.2 4097.82 6356.61 4092.32 6362.15 4087.77C6367.76 4083.16 6374.12 4079.64 6381.22 4077.23C6388.39 4074.74 6395.95 4073.5 6403.91 4073.5C6416.84 4073.5 6428.34 4076.55 6438.43 4082.66C6448.51 4088.7 6456.47 4097.01 6462.29 4107.59C6468.11 4118.17 6471.03 4130.28 6471.03 4143.92C6471.03 4158.69 6467.58 4171.83 6460.69 4183.34C6453.87 4194.84 6444.32 4203.86 6432.03 4210.39C6419.82 4216.86 6405.61 4220.05 6389.42 4219.98ZM6389.21 4183.76C6396.31 4183.76 6402.67 4182.06 6408.28 4178.65C6413.89 4175.24 6418.29 4170.62 6421.49 4164.8C6424.68 4158.97 6426.28 4152.44 6426.28 4145.2C6426.28 4137.95 6424.68 4131.45 6421.49 4125.7C6418.36 4119.95 6414.03 4115.37 6408.49 4111.96C6402.95 4108.55 6396.63 4106.84 6389.53 4106.84C6384.2 4106.84 6379.26 4107.84 6374.72 4109.83C6370.24 4111.82 6366.3 4114.59 6362.89 4118.14C6359.56 4121.69 6356.93 4125.81 6355.01 4130.49C6353.09 4135.11 6352.13 4140.05 6352.13 4145.3C6352.13 4152.33 6353.73 4158.76 6356.93 4164.59C6360.19 4170.41 6364.6 4175.06 6370.14 4178.54C6375.75 4182.02 6382.11 4183.76 6389.21 4183.76ZM6589.28 4221.79C6570.95 4221.72 6555.19 4217.21 6541.98 4208.26C6528.84 4199.32 6518.72 4186.35 6511.62 4169.38C6504.58 4152.4 6501.1 4131.99 6501.17 4108.12C6501.17 4084.33 6504.69 4064.05 6511.72 4047.29C6518.82 4030.53 6528.94 4017.78 6542.08 4009.05C6555.29 4000.24 6571.03 3995.84 6589.28 3995.84C6607.53 3995.84 6623.23 4000.24 6636.37 4009.05C6649.58 4017.85 6659.73 4030.64 6666.84 4047.4C6673.94 4064.09 6677.45 4084.33 6677.38 4108.12C6677.38 4132.06 6673.83 4152.51 6666.73 4169.49C6659.7 4186.46 6649.61 4199.42 6636.47 4208.37C6623.33 4217.32 6607.6 4221.79 6589.28 4221.79ZM6589.28 4183.55C6601.78 4183.55 6611.76 4177.26 6619.21 4164.69C6626.67 4152.12 6630.37 4133.26 6630.29 4108.12C6630.29 4091.57 6628.59 4077.8 6625.18 4066.79C6621.84 4055.78 6617.08 4047.5 6610.9 4041.96C6604.8 4036.42 6597.59 4033.65 6589.28 4033.65C6576.85 4033.65 6566.91 4039.87 6559.45 4052.3C6551.99 4064.73 6548.23 4083.34 6548.16 4108.12C6548.16 4124.88 6549.83 4138.88 6553.16 4150.1C6556.57 4161.25 6561.37 4169.63 6567.55 4175.24C6573.72 4180.78 6580.97 4183.55 6589.28 4183.55ZM6790.92 4219.98C6775.01 4219.98 6760.84 4217.25 6748.41 4211.78C6736.06 4206.24 6726.29 4198.64 6719.12 4188.98C6712.01 4179.25 6708.36 4168.03 6708.14 4155.32H6754.59C6754.88 4160.64 6756.62 4165.33 6759.81 4169.38C6763.08 4173.36 6767.41 4176.45 6772.81 4178.65C6778.21 4180.85 6784.28 4181.95 6791.03 4181.95C6798.06 4181.95 6804.27 4180.71 6809.67 4178.22C6815.07 4175.74 6819.29 4172.29 6822.35 4167.89C6825.4 4163.48 6826.93 4158.41 6826.93 4152.65C6826.93 4146.83 6825.3 4141.68 6822.03 4137.21C6818.83 4132.66 6814.22 4129.11 6808.18 4126.55C6802.21 4124 6795.11 4122.72 6786.87 4122.72H6766.52V4088.84H6786.87C6793.83 4088.84 6799.98 4087.63 6805.3 4085.22C6810.7 4082.8 6814.89 4079.46 6817.87 4075.2C6820.86 4070.87 6822.35 4065.83 6822.35 4060.08C6822.35 4054.61 6821.03 4049.81 6818.41 4045.69C6815.85 4041.5 6812.23 4038.24 6807.54 4035.89C6802.92 4033.55 6797.53 4032.38 6791.35 4032.38C6785.1 4032.38 6779.38 4033.51 6774.19 4035.79C6769.01 4037.99 6764.86 4041.15 6761.73 4045.27C6758.61 4049.39 6756.94 4054.22 6756.72 4059.76H6712.51C6712.72 4047.18 6716.31 4036.11 6723.27 4026.52C6730.23 4016.93 6739.61 4009.44 6751.4 4004.04C6763.26 3998.57 6776.65 3995.84 6791.56 3995.84C6806.62 3995.84 6819.79 3998.57 6831.08 4004.04C6842.38 4009.51 6851.15 4016.89 6857.4 4026.2C6863.72 4035.43 6866.84 4045.8 6866.77 4057.31C6866.84 4069.52 6863.04 4079.71 6855.37 4087.88C6847.77 4096.05 6837.87 4101.23 6825.65 4103.43V4105.14C6841.7 4107.2 6853.92 4112.77 6862.3 4121.87C6870.75 4130.88 6874.94 4142.18 6874.87 4155.74C6874.94 4168.17 6871.35 4179.22 6864.11 4188.88C6856.94 4198.53 6847.03 4206.13 6834.39 4211.67C6821.74 4217.21 6807.26 4219.98 6790.92 4219.98Z" fill="black"/>
<path id="602" d="M4784.42 4123.98C4773.2 4123.91 4762.37 4122.03 4751.93 4118.34C4741.56 4114.64 4732.25 4108.64 4724.02 4100.33C4715.78 4092.02 4709.24 4081.01 4704.41 4067.31C4699.65 4053.6 4697.28 4036.77 4697.28 4016.81C4697.35 3998.49 4699.44 3982.12 4703.56 3967.7C4707.75 3953.21 4713.72 3940.92 4721.46 3930.84C4729.27 3920.75 4738.61 3913.08 4749.48 3907.83C4760.34 3902.5 4772.52 3899.84 4786.02 3899.84C4800.58 3899.84 4813.43 3902.68 4824.58 3908.36C4835.73 3913.97 4844.68 3921.6 4851.43 3931.26C4858.25 3940.92 4862.37 3951.75 4863.79 3963.76H4818.3C4816.52 3956.16 4812.79 3950.19 4807.11 3945.86C4801.43 3941.53 4794.4 3939.36 4786.02 3939.36C4771.81 3939.36 4761.02 3945.54 4753.63 3957.9C4746.32 3970.25 4742.59 3987.05 4742.45 4008.29H4743.94C4747.2 4001.82 4751.61 3996.32 4757.15 3991.77C4762.76 3987.16 4769.12 3983.64 4776.22 3981.23C4783.39 3978.74 4790.95 3977.5 4798.91 3977.5C4811.84 3977.5 4823.34 3980.55 4833.43 3986.66C4843.51 3992.7 4851.47 4001.01 4857.29 4011.59C4863.11 4022.17 4866.03 4034.28 4866.03 4047.92C4866.03 4062.69 4862.58 4075.83 4855.69 4087.34C4848.87 4098.84 4839.32 4107.86 4827.03 4114.39C4814.82 4120.86 4800.61 4124.05 4784.42 4123.98ZM4784.21 4087.76C4791.31 4087.76 4797.67 4086.06 4803.28 4082.65C4808.89 4079.24 4813.29 4074.62 4816.49 4068.8C4819.68 4062.97 4821.28 4056.44 4821.28 4049.2C4821.28 4041.95 4819.68 4035.45 4816.49 4029.7C4813.36 4023.95 4809.03 4019.37 4803.49 4015.96C4797.95 4012.55 4791.63 4010.84 4784.53 4010.84C4779.2 4010.84 4774.26 4011.84 4769.72 4013.83C4765.24 4015.82 4761.3 4018.59 4757.89 4022.14C4754.56 4025.69 4751.93 4029.81 4750.01 4034.49C4748.09 4039.11 4747.13 4044.05 4747.13 4049.3C4747.13 4056.33 4748.73 4062.76 4751.93 4068.59C4755.19 4074.41 4759.6 4079.06 4765.14 4082.54C4770.75 4086.02 4777.11 4087.76 4784.21 4087.76ZM4984.28 4125.79C4965.95 4125.72 4950.19 4121.21 4936.98 4112.26C4923.84 4103.32 4913.72 4090.35 4906.62 4073.38C4899.58 4056.4 4896.1 4035.99 4896.17 4012.12C4896.17 3988.33 4899.69 3968.05 4906.72 3951.29C4913.82 3934.53 4923.94 3921.78 4937.08 3913.05C4950.29 3904.24 4966.03 3899.84 4984.28 3899.84C5002.53 3899.84 5018.23 3904.24 5031.37 3913.05C5044.58 3921.85 5054.73 3934.64 5061.84 3951.4C5068.94 3968.09 5072.45 3988.33 5072.38 4012.12C5072.38 4036.06 5068.83 4056.51 5061.73 4073.49C5054.7 4090.46 5044.61 4103.42 5031.47 4112.37C5018.33 4121.32 5002.6 4125.79 4984.28 4125.79ZM4984.28 4087.55C4996.78 4087.55 5006.76 4081.26 5014.21 4068.69C5021.67 4056.12 5025.37 4037.26 5025.29 4012.12C5025.29 3995.57 5023.59 3981.8 5020.18 3970.79C5016.84 3959.78 5012.08 3951.5 5005.9 3945.96C4999.8 3940.42 4992.59 3937.65 4984.28 3937.65C4971.85 3937.65 4961.91 3943.87 4954.45 3956.3C4946.99 3968.73 4943.23 3987.34 4943.16 4012.12C4943.16 4028.88 4944.83 4042.88 4948.16 4054.1C4951.57 4065.25 4956.37 4073.63 4962.55 4079.24C4968.72 4084.78 4975.97 4087.55 4984.28 4087.55ZM5105.27 4121V4087.76L5182.94 4015.85C5189.54 4009.46 5195.08 4003.71 5199.56 3998.59C5204.1 3993.48 5207.55 3988.47 5209.89 3983.57C5212.23 3978.6 5213.41 3973.24 5213.41 3967.48C5213.41 3961.09 5211.95 3955.59 5209.04 3950.97C5206.13 3946.28 5202.15 3942.7 5197.11 3940.21C5192.06 3937.65 5186.35 3936.38 5179.95 3936.38C5173.28 3936.38 5167.45 3937.73 5162.48 3940.42C5157.51 3943.12 5153.68 3946.99 5150.98 3952.04C5148.28 3957.08 5146.93 3963.08 5146.93 3970.04H5103.14C5103.14 3955.77 5106.38 3943.37 5112.84 3932.86C5119.3 3922.35 5128.36 3914.22 5140 3908.46C5151.65 3902.71 5165.08 3899.84 5180.27 3899.84C5195.9 3899.84 5209.5 3902.61 5221.08 3908.14C5232.72 3913.61 5241.78 3921.21 5248.24 3930.94C5254.71 3940.67 5257.94 3951.82 5257.94 3964.39C5257.94 3972.63 5256.3 3980.77 5253.04 3988.79C5249.84 3996.82 5244.12 4005.73 5235.89 4015.53C5227.65 4025.26 5216.03 4036.94 5201.05 4050.58L5169.19 4081.8V4083.29H5260.81V4121H5105.27Z" fill="black"/>
<path id="609" d="M3828.42 4123.98C3817.2 4123.91 3806.37 4122.03 3795.93 4118.34C3785.56 4114.64 3776.25 4108.64 3768.02 4100.33C3759.78 4092.02 3753.24 4081.01 3748.41 4067.31C3743.65 4053.6 3741.28 4036.77 3741.28 4016.81C3741.35 3998.49 3743.44 3982.12 3747.56 3967.7C3751.75 3953.21 3757.72 3940.92 3765.46 3930.84C3773.27 3920.75 3782.61 3913.08 3793.48 3907.83C3804.34 3902.5 3816.52 3899.84 3830.02 3899.84C3844.58 3899.84 3857.43 3902.68 3868.58 3908.36C3879.73 3913.97 3888.68 3921.6 3895.43 3931.26C3902.25 3940.92 3906.37 3951.75 3907.79 3963.76H3862.3C3860.52 3956.16 3856.79 3950.19 3851.11 3945.86C3845.43 3941.53 3838.4 3939.36 3830.02 3939.36C3815.81 3939.36 3805.02 3945.54 3797.63 3957.9C3790.32 3970.25 3786.59 3987.05 3786.45 4008.29H3787.94C3791.2 4001.82 3795.61 3996.32 3801.15 3991.77C3806.76 3987.16 3813.12 3983.64 3820.22 3981.23C3827.39 3978.74 3834.95 3977.5 3842.91 3977.5C3855.84 3977.5 3867.34 3980.55 3877.43 3986.66C3887.51 3992.7 3895.47 4001.01 3901.29 4011.59C3907.11 4022.17 3910.03 4034.28 3910.03 4047.92C3910.03 4062.69 3906.58 4075.83 3899.69 4087.34C3892.87 4098.84 3883.32 4107.86 3871.03 4114.39C3858.82 4120.86 3844.61 4124.05 3828.42 4123.98ZM3828.21 4087.76C3835.31 4087.76 3841.67 4086.06 3847.28 4082.65C3852.89 4079.24 3857.29 4074.62 3860.49 4068.8C3863.68 4062.97 3865.28 4056.44 3865.28 4049.2C3865.28 4041.95 3863.68 4035.45 3860.49 4029.7C3857.36 4023.95 3853.03 4019.37 3847.49 4015.96C3841.95 4012.55 3835.63 4010.84 3828.53 4010.84C3823.2 4010.84 3818.26 4011.84 3813.72 4013.83C3809.24 4015.82 3805.3 4018.59 3801.89 4022.14C3798.56 4025.69 3795.93 4029.81 3794.01 4034.49C3792.09 4039.11 3791.13 4044.05 3791.13 4049.3C3791.13 4056.33 3792.73 4062.76 3795.93 4068.59C3799.19 4074.41 3803.6 4079.06 3809.14 4082.54C3814.75 4086.02 3821.11 4087.76 3828.21 4087.76ZM4028.28 4125.79C4009.95 4125.72 3994.19 4121.21 3980.98 4112.26C3967.84 4103.32 3957.72 4090.35 3950.62 4073.38C3943.58 4056.4 3940.1 4035.99 3940.17 4012.12C3940.17 3988.33 3943.69 3968.05 3950.72 3951.29C3957.82 3934.53 3967.94 3921.78 3981.08 3913.05C3994.29 3904.24 4010.03 3899.84 4028.28 3899.84C4046.53 3899.84 4062.23 3904.24 4075.37 3913.05C4088.58 3921.85 4098.73 3934.64 4105.84 3951.4C4112.94 3968.09 4116.45 3988.33 4116.38 4012.12C4116.38 4036.06 4112.83 4056.51 4105.73 4073.49C4098.7 4090.46 4088.61 4103.42 4075.47 4112.37C4062.33 4121.32 4046.6 4125.79 4028.28 4125.79ZM4028.28 4087.55C4040.78 4087.55 4050.76 4081.26 4058.21 4068.69C4065.67 4056.12 4069.37 4037.26 4069.29 4012.12C4069.29 3995.57 4067.59 3981.8 4064.18 3970.79C4060.84 3959.78 4056.08 3951.5 4049.9 3945.96C4043.8 3940.42 4036.59 3937.65 4028.28 3937.65C4015.85 3937.65 4005.91 3943.87 3998.45 3956.3C3990.99 3968.73 3987.23 3987.34 3987.16 4012.12C3987.16 4028.88 3988.83 4042.88 3992.16 4054.1C3995.57 4065.25 4000.37 4073.63 4006.55 4079.24C4012.72 4084.78 4019.97 4087.55 4028.28 4087.55ZM4228.22 3899.84C4239.44 3899.84 4250.23 3901.72 4260.6 3905.48C4271.04 3909.25 4280.35 3915.25 4288.51 3923.49C4296.75 3931.72 4303.25 3942.66 4308.01 3956.3C4312.84 3969.86 4315.29 3986.52 4315.36 4006.26C4315.36 4024.8 4313.27 4041.35 4309.08 4055.91C4304.96 4070.4 4299.03 4082.72 4291.28 4092.88C4283.54 4103.03 4274.2 4110.77 4263.27 4116.1C4252.33 4121.36 4240.11 4123.98 4226.62 4123.98C4212.06 4123.98 4199.2 4121.18 4188.05 4115.57C4176.9 4109.88 4167.92 4102.18 4161.1 4092.45C4154.35 4082.65 4150.27 4071.64 4148.85 4059.42H4194.34C4196.11 4067.38 4199.84 4073.56 4205.52 4077.96C4211.21 4082.29 4218.24 4084.46 4226.62 4084.46C4240.82 4084.46 4251.62 4078.28 4259 4065.92C4266.39 4053.49 4270.12 4036.48 4270.19 4014.89H4268.7C4265.43 4021.28 4261.03 4026.79 4255.49 4031.4C4249.95 4035.95 4243.59 4039.47 4236.42 4041.95C4229.32 4044.44 4221.75 4045.68 4213.73 4045.68C4200.87 4045.68 4189.4 4042.66 4179.32 4036.62C4169.23 4030.59 4161.28 4022.28 4155.45 4011.7C4149.63 4001.11 4146.72 3989.04 4146.72 3975.47C4146.65 3960.84 4150.02 3947.81 4156.84 3936.38C4163.66 3924.94 4173.17 3915.99 4185.39 3909.53C4197.68 3903 4211.95 3899.76 4228.22 3899.84ZM4228.54 3936.06C4221.36 3936.06 4214.97 3937.76 4209.36 3941.17C4203.82 3944.58 4199.42 3949.16 4196.15 3954.91C4192.95 3960.67 4191.39 3967.09 4191.46 3974.2C4191.46 3981.37 4193.02 3987.83 4196.15 3993.59C4199.35 3999.27 4203.68 4003.81 4209.15 4007.22C4214.69 4010.56 4221.01 4012.23 4228.11 4012.23C4233.44 4012.23 4238.37 4011.23 4242.92 4009.25C4247.46 4007.26 4251.41 4004.52 4254.74 4001.04C4258.15 3997.49 4260.82 3993.41 4262.73 3988.79C4264.65 3984.17 4265.61 3979.27 4265.61 3974.09C4265.54 3967.2 4263.91 3960.88 4260.71 3955.13C4257.51 3949.37 4253.11 3944.76 4247.5 3941.28C4241.89 3937.8 4235.57 3936.06 4228.54 3936.06Z" fill="black"/>
<path id="606" d="M6374.42 5750.98C6363.2 5750.91 6352.37 5749.03 6341.93 5745.34C6331.56 5741.64 6322.25 5735.64 6314.02 5727.33C6305.78 5719.02 6299.24 5708.01 6294.41 5694.31C6289.65 5680.6 6287.28 5663.77 6287.28 5643.81C6287.35 5625.49 6289.44 5609.12 6293.56 5594.7C6297.75 5580.21 6303.72 5567.92 6311.46 5557.84C6319.27 5547.75 6328.61 5540.08 6339.48 5534.83C6350.34 5529.5 6362.52 5526.84 6376.02 5526.84C6390.58 5526.84 6403.43 5529.68 6414.58 5535.36C6425.73 5540.97 6434.68 5548.6 6441.43 5558.26C6448.25 5567.92 6452.37 5578.75 6453.79 5590.76H6408.3C6406.52 5583.16 6402.79 5577.19 6397.11 5572.86C6391.43 5568.53 6384.4 5566.36 6376.02 5566.36C6361.81 5566.36 6351.02 5572.54 6343.63 5584.9C6336.32 5597.25 6332.59 5614.05 6332.45 5635.29H6333.94C6337.2 5628.82 6341.61 5623.32 6347.15 5618.77C6352.76 5614.16 6359.12 5610.64 6366.22 5608.23C6373.39 5605.74 6380.95 5604.5 6388.91 5604.5C6401.84 5604.5 6413.34 5607.55 6423.43 5613.66C6433.51 5619.7 6441.47 5628.01 6447.29 5638.59C6453.11 5649.17 6456.03 5661.28 6456.03 5674.92C6456.03 5689.69 6452.58 5702.83 6445.69 5714.34C6438.87 5725.84 6429.32 5734.86 6417.03 5741.39C6404.82 5747.86 6390.61 5751.05 6374.42 5750.98ZM6374.21 5714.76C6381.31 5714.76 6387.67 5713.06 6393.28 5709.65C6398.89 5706.24 6403.29 5701.62 6406.49 5695.8C6409.68 5689.97 6411.28 5683.44 6411.28 5676.2C6411.28 5668.95 6409.68 5662.45 6406.49 5656.7C6403.36 5650.95 6399.03 5646.37 6393.49 5642.96C6387.95 5639.55 6381.63 5637.84 6374.53 5637.84C6369.2 5637.84 6364.26 5638.84 6359.72 5640.83C6355.24 5642.82 6351.3 5645.59 6347.89 5649.14C6344.56 5652.69 6341.93 5656.81 6340.01 5661.49C6338.09 5666.11 6337.13 5671.05 6337.13 5676.3C6337.13 5683.33 6338.73 5689.76 6341.93 5695.59C6345.19 5701.41 6349.6 5706.06 6355.14 5709.54C6360.75 5713.02 6367.11 5714.76 6374.21 5714.76ZM6574.28 5752.79C6555.95 5752.72 6540.19 5748.21 6526.98 5739.26C6513.84 5730.32 6503.72 5717.35 6496.62 5700.38C6489.58 5683.4 6486.1 5662.99 6486.17 5639.12C6486.17 5615.33 6489.69 5595.05 6496.72 5578.29C6503.82 5561.53 6513.94 5548.78 6527.08 5540.05C6540.29 5531.24 6556.03 5526.84 6574.28 5526.84C6592.53 5526.84 6608.23 5531.24 6621.37 5540.05C6634.58 5548.85 6644.73 5561.64 6651.84 5578.4C6658.94 5595.09 6662.45 5615.33 6662.38 5639.12C6662.38 5663.06 6658.83 5683.51 6651.73 5700.49C6644.7 5717.46 6634.61 5730.42 6621.47 5739.37C6608.33 5748.32 6592.6 5752.79 6574.28 5752.79ZM6574.28 5714.55C6586.78 5714.55 6596.76 5708.26 6604.21 5695.69C6611.67 5683.12 6615.37 5664.26 6615.29 5639.12C6615.29 5622.57 6613.59 5608.8 6610.18 5597.79C6606.84 5586.78 6602.08 5578.5 6595.9 5572.96C6589.8 5567.42 6582.59 5564.65 6574.28 5564.65C6561.85 5564.65 6551.91 5570.87 6544.45 5583.3C6536.99 5595.73 6533.23 5614.34 6533.16 5639.12C6533.16 5655.88 6534.83 5669.88 6538.16 5681.1C6541.57 5692.25 6546.37 5700.63 6552.55 5706.24C6558.72 5711.78 6565.97 5714.55 6574.28 5714.55ZM6779.01 5750.98C6767.79 5750.91 6756.96 5749.03 6746.52 5745.34C6736.15 5741.64 6726.84 5735.64 6718.61 5727.33C6710.37 5719.02 6703.83 5708.01 6699 5694.31C6694.24 5680.6 6691.87 5663.77 6691.87 5643.81C6691.94 5625.49 6694.03 5609.12 6698.15 5594.7C6702.34 5580.21 6708.31 5567.92 6716.05 5557.84C6723.86 5547.75 6733.2 5540.08 6744.07 5534.83C6754.93 5529.5 6767.11 5526.84 6780.61 5526.84C6795.17 5526.84 6808.02 5529.68 6819.17 5535.36C6830.32 5540.97 6839.27 5548.6 6846.02 5558.26C6852.84 5567.92 6856.96 5578.75 6858.38 5590.76H6812.89C6811.11 5583.16 6807.38 5577.19 6801.7 5572.86C6796.02 5568.53 6788.99 5566.36 6780.61 5566.36C6766.4 5566.36 6755.61 5572.54 6748.22 5584.9C6740.91 5597.25 6737.18 5614.05 6737.04 5635.29H6738.53C6741.79 5628.82 6746.2 5623.32 6751.74 5618.77C6757.35 5614.16 6763.7 5610.64 6770.81 5608.23C6777.98 5605.74 6785.54 5604.5 6793.5 5604.5C6806.43 5604.5 6817.93 5607.55 6828.02 5613.66C6838.1 5619.7 6846.06 5628.01 6851.88 5638.59C6857.7 5649.17 6860.62 5661.28 6860.62 5674.92C6860.62 5689.69 6857.17 5702.83 6850.28 5714.34C6843.46 5725.84 6833.91 5734.86 6821.62 5741.39C6809.41 5747.86 6795.2 5751.05 6779.01 5750.98ZM6778.8 5714.76C6785.9 5714.76 6792.26 5713.06 6797.87 5709.65C6803.48 5706.24 6807.88 5701.62 6811.08 5695.8C6814.27 5689.97 6815.87 5683.44 6815.87 5676.2C6815.87 5668.95 6814.27 5662.45 6811.08 5656.7C6807.95 5650.95 6803.62 5646.37 6798.08 5642.96C6792.54 5639.55 6786.22 5637.84 6779.12 5637.84C6773.79 5637.84 6768.85 5638.84 6764.31 5640.83C6759.83 5642.82 6755.89 5645.59 6752.48 5649.14C6749.15 5652.69 6746.52 5656.81 6744.6 5661.49C6742.68 5666.11 6741.72 5671.05 6741.72 5676.3C6741.72 5683.33 6743.32 5689.76 6746.52 5695.59C6749.78 5701.41 6754.19 5706.06 6759.73 5709.54C6765.34 5713.02 6771.69 5714.76 6778.8 5714.76Z" fill="black"/>
<path id="607" d="M5298.42 5750.98C5287.2 5750.91 5276.37 5749.03 5265.93 5745.34C5255.56 5741.64 5246.25 5735.64 5238.02 5727.33C5229.78 5719.02 5223.24 5708.01 5218.41 5694.31C5213.65 5680.6 5211.28 5663.77 5211.28 5643.81C5211.35 5625.49 5213.44 5609.12 5217.56 5594.7C5221.75 5580.21 5227.72 5567.92 5235.46 5557.84C5243.27 5547.75 5252.61 5540.08 5263.48 5534.83C5274.34 5529.5 5286.52 5526.84 5300.02 5526.84C5314.58 5526.84 5327.43 5529.68 5338.58 5535.36C5349.73 5540.97 5358.68 5548.6 5365.43 5558.26C5372.25 5567.92 5376.37 5578.75 5377.79 5590.76H5332.3C5330.52 5583.16 5326.79 5577.19 5321.11 5572.86C5315.43 5568.53 5308.4 5566.36 5300.02 5566.36C5285.81 5566.36 5275.02 5572.54 5267.63 5584.9C5260.32 5597.25 5256.59 5614.05 5256.45 5635.29H5257.94C5261.2 5628.82 5265.61 5623.32 5271.15 5618.77C5276.76 5614.16 5283.12 5610.64 5290.22 5608.23C5297.39 5605.74 5304.95 5604.5 5312.91 5604.5C5325.84 5604.5 5337.34 5607.55 5347.43 5613.66C5357.51 5619.7 5365.47 5628.01 5371.29 5638.59C5377.11 5649.17 5380.03 5661.28 5380.03 5674.92C5380.03 5689.69 5376.58 5702.83 5369.69 5714.34C5362.87 5725.84 5353.32 5734.86 5341.03 5741.39C5328.82 5747.86 5314.61 5751.05 5298.42 5750.98ZM5298.21 5714.76C5305.31 5714.76 5311.67 5713.06 5317.28 5709.65C5322.89 5706.24 5327.29 5701.62 5330.49 5695.8C5333.68 5689.97 5335.28 5683.44 5335.28 5676.2C5335.28 5668.95 5333.68 5662.45 5330.49 5656.7C5327.36 5650.95 5323.03 5646.37 5317.49 5642.96C5311.95 5639.55 5305.63 5637.84 5298.53 5637.84C5293.2 5637.84 5288.26 5638.84 5283.72 5640.83C5279.24 5642.82 5275.3 5645.59 5271.89 5649.14C5268.56 5652.69 5265.93 5656.81 5264.01 5661.49C5262.09 5666.11 5261.13 5671.05 5261.13 5676.3C5261.13 5683.33 5262.73 5689.76 5265.93 5695.59C5269.19 5701.41 5273.6 5706.06 5279.14 5709.54C5284.75 5713.02 5291.11 5714.76 5298.21 5714.76ZM5498.28 5752.79C5479.95 5752.72 5464.19 5748.21 5450.98 5739.26C5437.84 5730.32 5427.72 5717.35 5420.62 5700.38C5413.58 5683.4 5410.1 5662.99 5410.17 5639.12C5410.17 5615.33 5413.69 5595.05 5420.72 5578.29C5427.82 5561.53 5437.94 5548.78 5451.08 5540.05C5464.29 5531.24 5480.03 5526.84 5498.28 5526.84C5516.53 5526.84 5532.23 5531.24 5545.37 5540.05C5558.58 5548.85 5568.73 5561.64 5575.84 5578.4C5582.94 5595.09 5586.45 5615.33 5586.38 5639.12C5586.38 5663.06 5582.83 5683.51 5575.73 5700.49C5568.7 5717.46 5558.61 5730.42 5545.47 5739.37C5532.33 5748.32 5516.6 5752.79 5498.28 5752.79ZM5498.28 5714.55C5510.78 5714.55 5520.76 5708.26 5528.21 5695.69C5535.67 5683.12 5539.37 5664.26 5539.29 5639.12C5539.29 5622.57 5537.59 5608.8 5534.18 5597.79C5530.84 5586.78 5526.08 5578.5 5519.9 5572.96C5513.8 5567.42 5506.59 5564.65 5498.28 5564.65C5485.85 5564.65 5475.91 5570.87 5468.45 5583.3C5460.99 5595.73 5457.23 5614.34 5457.16 5639.12C5457.16 5655.88 5458.83 5669.88 5462.16 5681.1C5465.57 5692.25 5470.37 5700.63 5476.55 5706.24C5482.72 5711.78 5489.97 5714.55 5498.28 5714.55ZM5622.04 5748L5712.49 5569.02V5567.53H5607.13V5529.82H5760.22V5568.06L5669.67 5748H5622.04Z" fill="black"/>
<path id="608" d="M4412.42 5750.98C4401.2 5750.91 4390.37 5749.03 4379.93 5745.34C4369.56 5741.64 4360.25 5735.64 4352.02 5727.33C4343.78 5719.02 4337.24 5708.01 4332.41 5694.31C4327.65 5680.6 4325.28 5663.77 4325.28 5643.81C4325.35 5625.49 4327.44 5609.12 4331.56 5594.7C4335.75 5580.21 4341.72 5567.92 4349.46 5557.84C4357.27 5547.75 4366.61 5540.08 4377.48 5534.83C4388.34 5529.5 4400.52 5526.84 4414.02 5526.84C4428.58 5526.84 4441.43 5529.68 4452.58 5535.36C4463.73 5540.97 4472.68 5548.6 4479.43 5558.26C4486.25 5567.92 4490.37 5578.75 4491.79 5590.76H4446.3C4444.52 5583.16 4440.79 5577.19 4435.11 5572.86C4429.43 5568.53 4422.4 5566.36 4414.02 5566.36C4399.81 5566.36 4389.02 5572.54 4381.63 5584.9C4374.32 5597.25 4370.59 5614.05 4370.45 5635.29H4371.94C4375.2 5628.82 4379.61 5623.32 4385.15 5618.77C4390.76 5614.16 4397.12 5610.64 4404.22 5608.23C4411.39 5605.74 4418.95 5604.5 4426.91 5604.5C4439.84 5604.5 4451.34 5607.55 4461.43 5613.66C4471.51 5619.7 4479.47 5628.01 4485.29 5638.59C4491.11 5649.17 4494.03 5661.28 4494.03 5674.92C4494.03 5689.69 4490.58 5702.83 4483.69 5714.34C4476.87 5725.84 4467.32 5734.86 4455.03 5741.39C4442.82 5747.86 4428.61 5751.05 4412.42 5750.98ZM4412.21 5714.76C4419.31 5714.76 4425.67 5713.06 4431.28 5709.65C4436.89 5706.24 4441.29 5701.62 4444.49 5695.8C4447.68 5689.97 4449.28 5683.44 4449.28 5676.2C4449.28 5668.95 4447.68 5662.45 4444.49 5656.7C4441.36 5650.95 4437.03 5646.37 4431.49 5642.96C4425.95 5639.55 4419.63 5637.84 4412.53 5637.84C4407.2 5637.84 4402.26 5638.84 4397.72 5640.83C4393.24 5642.82 4389.3 5645.59 4385.89 5649.14C4382.56 5652.69 4379.93 5656.81 4378.01 5661.49C4376.09 5666.11 4375.13 5671.05 4375.13 5676.3C4375.13 5683.33 4376.73 5689.76 4379.93 5695.59C4383.19 5701.41 4387.6 5706.06 4393.14 5709.54C4398.75 5713.02 4405.11 5714.76 4412.21 5714.76ZM4612.28 5752.79C4593.95 5752.72 4578.19 5748.21 4564.98 5739.26C4551.84 5730.32 4541.72 5717.35 4534.62 5700.38C4527.58 5683.4 4524.1 5662.99 4524.17 5639.12C4524.17 5615.33 4527.69 5595.05 4534.72 5578.29C4541.82 5561.53 4551.94 5548.78 4565.08 5540.05C4578.29 5531.24 4594.03 5526.84 4612.28 5526.84C4630.53 5526.84 4646.23 5531.24 4659.37 5540.05C4672.58 5548.85 4682.73 5561.64 4689.84 5578.4C4696.94 5595.09 4700.45 5615.33 4700.38 5639.12C4700.38 5663.06 4696.83 5683.51 4689.73 5700.49C4682.7 5717.46 4672.61 5730.42 4659.47 5739.37C4646.33 5748.32 4630.6 5752.79 4612.28 5752.79ZM4612.28 5714.55C4624.78 5714.55 4634.76 5708.26 4642.21 5695.69C4649.67 5683.12 4653.37 5664.26 4653.29 5639.12C4653.29 5622.57 4651.59 5608.8 4648.18 5597.79C4644.84 5586.78 4640.08 5578.5 4633.9 5572.96C4627.8 5567.42 4620.59 5564.65 4612.28 5564.65C4599.85 5564.65 4589.91 5570.87 4582.45 5583.3C4574.99 5595.73 4571.23 5614.34 4571.16 5639.12C4571.16 5655.88 4572.83 5669.88 4576.16 5681.1C4579.57 5692.25 4584.37 5700.63 4590.55 5706.24C4596.72 5711.78 4603.97 5714.55 4612.28 5714.55ZM4814.67 5750.98C4798.26 5750.98 4783.67 5748.32 4770.88 5742.99C4758.17 5737.6 4748.19 5730.24 4740.94 5720.94C4733.7 5711.64 4730.08 5701.09 4730.08 5689.3C4730.08 5680.21 4732.14 5671.86 4736.26 5664.26C4740.45 5656.59 4746.13 5650.24 4753.3 5645.19C4760.48 5640.08 4768.5 5636.81 4777.38 5635.39V5633.9C4765.73 5631.56 4756.29 5625.91 4749.04 5616.96C4741.8 5607.94 4738.18 5597.47 4738.18 5585.54C4738.18 5574.24 4741.48 5564.19 4748.08 5555.39C4754.69 5546.51 4763.74 5539.55 4775.25 5534.51C4786.83 5529.39 4799.96 5526.84 4814.67 5526.84C4829.37 5526.84 4842.47 5529.39 4853.98 5534.51C4865.55 5539.62 4874.65 5546.62 4881.25 5555.49C4887.86 5564.3 4891.19 5574.31 4891.26 5585.54C4891.19 5597.54 4887.5 5608.01 4880.19 5616.96C4872.87 5625.91 4863.49 5631.56 4852.06 5633.9V5635.39C4860.8 5636.81 4868.71 5640.08 4875.82 5645.19C4882.99 5650.24 4888.67 5656.59 4892.86 5664.26C4897.12 5671.86 4899.29 5680.21 4899.36 5689.3C4899.29 5701.09 4895.63 5711.64 4888.39 5720.94C4881.14 5730.24 4871.13 5737.6 4858.35 5742.99C4845.63 5748.32 4831.07 5750.98 4814.67 5750.98ZM4814.67 5717.11C4821.98 5717.11 4828.37 5715.79 4833.84 5713.16C4839.31 5710.46 4843.57 5706.77 4846.63 5702.08C4849.75 5697.33 4851.31 5691.86 4851.31 5685.68C4851.31 5679.36 4849.72 5673.78 4846.52 5668.95C4843.32 5664.05 4838.99 5660.22 4833.52 5657.45C4828.05 5654.61 4821.77 5653.18 4814.67 5653.18C4807.64 5653.18 4801.35 5654.61 4795.81 5657.45C4790.27 5660.22 4785.9 5664.05 4782.71 5668.95C4779.58 5673.78 4778.02 5679.36 4778.02 5685.68C4778.02 5691.86 4779.55 5697.33 4782.6 5702.08C4785.65 5706.77 4789.95 5710.46 4795.49 5713.16C4801.03 5715.79 4807.42 5717.11 4814.67 5717.11ZM4814.67 5619.63C4820.77 5619.63 4826.21 5618.38 4830.97 5615.9C4835.72 5613.41 4839.45 5609.97 4842.15 5605.56C4844.85 5601.16 4846.2 5596.08 4846.2 5590.33C4846.2 5584.65 4844.85 5579.68 4842.15 5575.41C4839.45 5571.08 4835.76 5567.71 4831.07 5565.29C4826.39 5562.81 4820.92 5561.57 4814.67 5561.57C4808.49 5561.57 4803.02 5562.81 4798.26 5565.29C4793.5 5567.71 4789.77 5571.08 4787.07 5575.41C4784.45 5579.68 4783.13 5584.65 4783.13 5590.33C4783.13 5596.08 4784.48 5601.16 4787.18 5605.56C4789.88 5609.97 4793.61 5613.41 4798.37 5615.9C4803.13 5618.38 4808.56 5619.63 4814.67 5619.63Z" fill="black"/>
<path id="610" d="M3511.42 5750.98C3500.2 5750.91 3489.37 5749.03 3478.93 5745.34C3468.56 5741.64 3459.25 5735.64 3451.02 5727.33C3442.78 5719.02 3436.24 5708.01 3431.41 5694.31C3426.65 5680.6 3424.28 5663.77 3424.28 5643.81C3424.35 5625.49 3426.44 5609.12 3430.56 5594.7C3434.75 5580.21 3440.72 5567.92 3448.46 5557.84C3456.27 5547.75 3465.61 5540.08 3476.48 5534.83C3487.34 5529.5 3499.52 5526.84 3513.02 5526.84C3527.58 5526.84 3540.43 5529.68 3551.58 5535.36C3562.73 5540.97 3571.68 5548.6 3578.43 5558.26C3585.25 5567.92 3589.37 5578.75 3590.79 5590.76H3545.3C3543.52 5583.16 3539.79 5577.19 3534.11 5572.86C3528.43 5568.53 3521.4 5566.36 3513.02 5566.36C3498.81 5566.36 3488.02 5572.54 3480.63 5584.9C3473.32 5597.25 3469.59 5614.05 3469.45 5635.29H3470.94C3474.2 5628.82 3478.61 5623.32 3484.15 5618.77C3489.76 5614.16 3496.12 5610.64 3503.22 5608.23C3510.39 5605.74 3517.95 5604.5 3525.91 5604.5C3538.84 5604.5 3550.34 5607.55 3560.43 5613.66C3570.51 5619.7 3578.47 5628.01 3584.29 5638.59C3590.11 5649.17 3593.03 5661.28 3593.03 5674.92C3593.03 5689.69 3589.58 5702.83 3582.69 5714.34C3575.87 5725.84 3566.32 5734.86 3554.03 5741.39C3541.82 5747.86 3527.61 5751.05 3511.42 5750.98ZM3511.21 5714.76C3518.31 5714.76 3524.67 5713.06 3530.28 5709.65C3535.89 5706.24 3540.29 5701.62 3543.49 5695.8C3546.68 5689.97 3548.28 5683.44 3548.28 5676.2C3548.28 5668.95 3546.68 5662.45 3543.49 5656.7C3540.36 5650.95 3536.03 5646.37 3530.49 5642.96C3524.95 5639.55 3518.63 5637.84 3511.53 5637.84C3506.2 5637.84 3501.26 5638.84 3496.72 5640.83C3492.24 5642.82 3488.3 5645.59 3484.89 5649.14C3481.56 5652.69 3478.93 5656.81 3477.01 5661.49C3475.09 5666.11 3474.13 5671.05 3474.13 5676.3C3474.13 5683.33 3475.73 5689.76 3478.93 5695.59C3482.19 5701.41 3486.6 5706.06 3492.14 5709.54C3497.75 5713.02 3504.11 5714.76 3511.21 5714.76ZM3720.65 5529.82V5748H3674.52V5573.6H3673.25L3623.28 5604.92V5564.02L3677.29 5529.82H3720.65ZM3858.06 5752.79C3839.73 5752.72 3823.96 5748.21 3810.75 5739.26C3797.62 5730.32 3787.49 5717.35 3780.39 5700.38C3773.36 5683.4 3769.88 5662.99 3769.95 5639.12C3769.95 5615.33 3773.47 5595.05 3780.5 5578.29C3787.6 5561.53 3797.72 5548.78 3810.86 5540.05C3824.07 5531.24 3839.8 5526.84 3858.06 5526.84C3876.31 5526.84 3892 5531.24 3905.14 5540.05C3918.35 5548.85 3928.51 5561.64 3935.61 5578.4C3942.71 5595.09 3946.23 5615.33 3946.16 5639.12C3946.16 5663.06 3942.61 5683.51 3935.51 5700.49C3928.47 5717.46 3918.39 5730.42 3905.25 5739.37C3892.11 5748.32 3876.38 5752.79 3858.06 5752.79ZM3858.06 5714.55C3870.56 5714.55 3880.53 5708.26 3887.99 5695.69C3895.45 5683.12 3899.14 5664.26 3899.07 5639.12C3899.07 5622.57 3897.37 5608.8 3893.96 5597.79C3890.62 5586.78 3885.86 5578.5 3879.68 5572.96C3873.57 5567.42 3866.37 5564.65 3858.06 5564.65C3845.63 5564.65 3835.68 5570.87 3828.23 5583.3C3820.77 5595.73 3817 5614.34 3816.93 5639.12C3816.93 5655.88 3818.6 5669.88 3821.94 5681.1C3825.35 5692.25 3830.14 5700.63 3836.32 5706.24C3842.5 5711.78 3849.75 5714.55 3858.06 5714.55Z" fill="black"/>
<path id="611" d="M2500.42 5750.98C2489.2 5750.91 2478.37 5749.03 2467.93 5745.34C2457.56 5741.64 2448.25 5735.64 2440.02 5727.33C2431.78 5719.02 2425.24 5708.01 2420.41 5694.31C2415.65 5680.6 2413.28 5663.77 2413.28 5643.81C2413.35 5625.49 2415.44 5609.12 2419.56 5594.7C2423.75 5580.21 2429.72 5567.92 2437.46 5557.84C2445.27 5547.75 2454.61 5540.08 2465.48 5534.83C2476.34 5529.5 2488.52 5526.84 2502.02 5526.84C2516.58 5526.84 2529.43 5529.68 2540.58 5535.36C2551.73 5540.97 2560.68 5548.6 2567.43 5558.26C2574.25 5567.92 2578.37 5578.75 2579.79 5590.76H2534.3C2532.52 5583.16 2528.79 5577.19 2523.11 5572.86C2517.43 5568.53 2510.4 5566.36 2502.02 5566.36C2487.81 5566.36 2477.02 5572.54 2469.63 5584.9C2462.32 5597.25 2458.59 5614.05 2458.45 5635.29H2459.94C2463.2 5628.82 2467.61 5623.32 2473.15 5618.77C2478.76 5614.16 2485.12 5610.64 2492.22 5608.23C2499.39 5605.74 2506.95 5604.5 2514.91 5604.5C2527.84 5604.5 2539.34 5607.55 2549.43 5613.66C2559.51 5619.7 2567.47 5628.01 2573.29 5638.59C2579.11 5649.17 2582.03 5661.28 2582.03 5674.92C2582.03 5689.69 2578.58 5702.83 2571.69 5714.34C2564.87 5725.84 2555.32 5734.86 2543.03 5741.39C2530.82 5747.86 2516.61 5751.05 2500.42 5750.98ZM2500.21 5714.76C2507.31 5714.76 2513.67 5713.06 2519.28 5709.65C2524.89 5706.24 2529.29 5701.62 2532.49 5695.8C2535.68 5689.97 2537.28 5683.44 2537.28 5676.2C2537.28 5668.95 2535.68 5662.45 2532.49 5656.7C2529.36 5650.95 2525.03 5646.37 2519.49 5642.96C2513.95 5639.55 2507.63 5637.84 2500.53 5637.84C2495.2 5637.84 2490.26 5638.84 2485.72 5640.83C2481.24 5642.82 2477.3 5645.59 2473.89 5649.14C2470.56 5652.69 2467.93 5656.81 2466.01 5661.49C2464.09 5666.11 2463.13 5671.05 2463.13 5676.3C2463.13 5683.33 2464.73 5689.76 2467.93 5695.59C2471.19 5701.41 2475.6 5706.06 2481.14 5709.54C2486.75 5713.02 2493.11 5714.76 2500.21 5714.76ZM2709.65 5529.82V5748H2663.52V5573.6H2662.25L2612.28 5604.92V5564.02L2666.29 5529.82H2709.65ZM2856.43 5529.82V5748H2810.3V5573.6H2809.02L2759.06 5604.92V5564.02L2813.07 5529.82H2856.43Z" fill="black"/>
<path id="613" d="M1308.42 4477.98C1297.2 4477.91 1286.37 4476.03 1275.93 4472.34C1265.56 4468.64 1256.25 4462.64 1248.02 4454.33C1239.78 4446.02 1233.24 4435.01 1228.41 4421.31C1223.65 4407.6 1221.28 4390.77 1221.28 4370.81C1221.35 4352.49 1223.44 4336.12 1227.56 4321.7C1231.75 4307.21 1237.72 4294.92 1245.46 4284.84C1253.27 4274.75 1262.61 4267.08 1273.48 4261.83C1284.34 4256.5 1296.52 4253.84 1310.02 4253.84C1324.58 4253.84 1337.43 4256.68 1348.58 4262.36C1359.73 4267.97 1368.68 4275.6 1375.43 4285.26C1382.25 4294.92 1386.37 4305.75 1387.79 4317.76H1342.3C1340.52 4310.16 1336.79 4304.19 1331.11 4299.86C1325.43 4295.53 1318.4 4293.36 1310.02 4293.36C1295.81 4293.36 1285.02 4299.54 1277.63 4311.9C1270.32 4324.25 1266.59 4341.05 1266.45 4362.29H1267.94C1271.2 4355.82 1275.61 4350.32 1281.15 4345.77C1286.76 4341.16 1293.12 4337.64 1300.22 4335.23C1307.39 4332.74 1314.95 4331.5 1322.91 4331.5C1335.84 4331.5 1347.34 4334.55 1357.43 4340.66C1367.51 4346.7 1375.47 4355.01 1381.29 4365.59C1387.11 4376.17 1390.03 4388.28 1390.03 4401.92C1390.03 4416.69 1386.58 4429.83 1379.69 4441.34C1372.87 4452.84 1363.32 4461.86 1351.03 4468.39C1338.82 4474.86 1324.61 4478.05 1308.42 4477.98ZM1308.21 4441.76C1315.31 4441.76 1321.67 4440.06 1327.28 4436.65C1332.89 4433.24 1337.29 4428.62 1340.49 4422.8C1343.68 4416.97 1345.28 4410.44 1345.28 4403.2C1345.28 4395.95 1343.68 4389.45 1340.49 4383.7C1337.36 4377.95 1333.03 4373.37 1327.49 4369.96C1321.95 4366.55 1315.63 4364.84 1308.53 4364.84C1303.2 4364.84 1298.26 4365.84 1293.72 4367.83C1289.24 4369.82 1285.3 4372.59 1281.89 4376.14C1278.56 4379.69 1275.93 4383.81 1274.01 4388.49C1272.09 4393.11 1271.13 4398.05 1271.13 4403.3C1271.13 4410.33 1272.73 4416.76 1275.93 4422.59C1279.19 4428.41 1283.6 4433.06 1289.14 4436.54C1294.75 4440.02 1301.11 4441.76 1308.21 4441.76ZM1517.65 4256.82V4475H1471.52V4300.6H1470.25L1420.28 4331.92V4291.02L1474.29 4256.82H1517.65ZM1650.16 4477.98C1634.25 4477.98 1620.08 4475.25 1607.65 4469.78C1595.29 4464.24 1585.52 4456.64 1578.35 4446.98C1571.25 4437.25 1567.59 4426.03 1567.38 4413.32H1613.83C1614.11 4418.64 1615.85 4423.33 1619.05 4427.38C1622.31 4431.36 1626.65 4434.45 1632.04 4436.65C1637.44 4438.85 1643.51 4439.95 1650.26 4439.95C1657.29 4439.95 1663.51 4438.71 1668.91 4436.22C1674.3 4433.74 1678.53 4430.29 1681.58 4425.89C1684.64 4421.48 1686.16 4416.41 1686.16 4410.65C1686.16 4404.83 1684.53 4399.68 1681.26 4395.21C1678.07 4390.66 1673.45 4387.11 1667.41 4384.55C1661.45 4382 1654.35 4380.72 1646.11 4380.72H1625.76V4346.84H1646.11C1653.07 4346.84 1659.21 4345.63 1664.54 4343.22C1669.94 4340.8 1674.13 4337.46 1677.11 4333.2C1680.09 4328.87 1681.58 4323.83 1681.58 4318.08C1681.58 4312.61 1680.27 4307.81 1677.64 4303.69C1675.08 4299.5 1671.46 4296.24 1666.77 4293.89C1662.16 4291.55 1656.76 4290.38 1650.58 4290.38C1644.33 4290.38 1638.61 4291.51 1633.43 4293.79C1628.24 4295.99 1624.09 4299.15 1620.96 4303.27C1617.84 4307.39 1616.17 4312.22 1615.96 4317.76H1571.75C1571.96 4305.18 1575.55 4294.11 1582.51 4284.52C1589.47 4274.93 1598.84 4267.44 1610.63 4262.04C1622.49 4256.57 1635.88 4253.84 1650.79 4253.84C1665.85 4253.84 1679.03 4256.57 1690.32 4262.04C1701.61 4267.51 1710.38 4274.89 1716.63 4284.2C1722.95 4293.43 1726.08 4303.8 1726.01 4315.31C1726.08 4327.52 1722.28 4337.71 1714.61 4345.88C1707.01 4354.05 1697.1 4359.23 1684.89 4361.43V4363.14C1700.94 4365.2 1713.15 4370.77 1721.53 4379.87C1729.98 4388.88 1734.18 4400.18 1734.1 4413.74C1734.18 4426.17 1730.59 4437.22 1723.34 4446.88C1716.17 4456.53 1706.26 4464.13 1693.62 4469.67C1680.98 4475.21 1666.49 4477.98 1650.16 4477.98Z" fill="black"/>
<path id="615" d="M2573.42 3203.98C2562.2 3203.91 2551.37 3202.03 2540.93 3198.34C2530.56 3194.64 2521.25 3188.64 2513.02 3180.33C2504.78 3172.02 2498.24 3161.01 2493.41 3147.31C2488.65 3133.6 2486.28 3116.77 2486.28 3096.81C2486.35 3078.49 2488.44 3062.12 2492.56 3047.7C2496.75 3033.21 2502.72 3020.92 2510.46 3010.84C2518.27 3000.75 2527.61 2993.08 2538.48 2987.83C2549.34 2982.5 2561.52 2979.84 2575.02 2979.84C2589.58 2979.84 2602.43 2982.68 2613.58 2988.36C2624.73 2993.97 2633.68 3001.6 2640.43 3011.26C2647.25 3020.92 2651.37 3031.75 2652.79 3043.76H2607.3C2605.52 3036.16 2601.79 3030.19 2596.11 3025.86C2590.43 3021.53 2583.4 3019.36 2575.02 3019.36C2560.81 3019.36 2550.02 3025.54 2542.63 3037.9C2535.32 3050.25 2531.59 3067.05 2531.45 3088.29H2532.94C2536.2 3081.82 2540.61 3076.32 2546.15 3071.77C2551.76 3067.16 2558.12 3063.64 2565.22 3061.23C2572.39 3058.74 2579.95 3057.5 2587.91 3057.5C2600.84 3057.5 2612.34 3060.55 2622.43 3066.66C2632.51 3072.7 2640.47 3081.01 2646.29 3091.59C2652.11 3102.17 2655.03 3114.28 2655.03 3127.92C2655.03 3142.69 2651.58 3155.83 2644.69 3167.34C2637.87 3178.84 2628.32 3187.86 2616.03 3194.39C2603.82 3200.86 2589.61 3204.05 2573.42 3203.98ZM2573.21 3167.76C2580.31 3167.76 2586.67 3166.06 2592.28 3162.65C2597.89 3159.24 2602.29 3154.62 2605.49 3148.8C2608.68 3142.97 2610.28 3136.44 2610.28 3129.2C2610.28 3121.95 2608.68 3115.45 2605.49 3109.7C2602.36 3103.95 2598.03 3099.37 2592.49 3095.96C2586.95 3092.55 2580.63 3090.84 2573.53 3090.84C2568.2 3090.84 2563.26 3091.84 2558.72 3093.83C2554.24 3095.82 2550.3 3098.59 2546.89 3102.14C2543.56 3105.69 2540.93 3109.81 2539.01 3114.49C2537.09 3119.11 2536.13 3124.05 2536.13 3129.3C2536.13 3136.33 2537.73 3142.76 2540.93 3148.59C2544.19 3154.41 2548.6 3159.06 2554.14 3162.54C2559.75 3166.02 2566.11 3167.76 2573.21 3167.76ZM2782.65 2982.82V3201H2736.52V3026.6H2735.25L2685.28 3057.92V3017.02L2739.29 2982.82H2782.65ZM2914.2 3203.98C2899.14 3203.98 2885.72 3201.21 2873.93 3195.67C2862.21 3190.13 2852.9 3182.5 2846.01 3172.77C2839.13 3163.04 2835.54 3151.89 2835.25 3139.32H2880C2880.5 3147.77 2884.05 3154.62 2890.65 3159.88C2897.26 3165.13 2905.11 3167.76 2914.2 3167.76C2921.44 3167.76 2927.83 3166.16 2933.37 3162.97C2938.98 3159.7 2943.35 3155.19 2946.48 3149.44C2949.67 3143.61 2951.27 3136.94 2951.27 3129.41C2951.27 3121.74 2949.64 3114.99 2946.37 3109.17C2943.17 3103.34 2938.73 3098.8 2933.05 3095.53C2927.37 3092.26 2920.87 3090.6 2913.56 3090.52C2907.17 3090.52 2900.95 3091.84 2894.91 3094.47C2888.95 3097.09 2884.3 3100.68 2880.96 3105.23L2839.94 3097.88L2850.28 2982.82H2983.66V3020.53H2888.31L2882.66 3075.18H2883.94C2887.78 3069.79 2893.56 3065.31 2901.31 3061.76C2909.05 3058.21 2917.71 3056.43 2927.3 3056.43C2940.44 3056.43 2952.16 3059.52 2962.46 3065.7C2972.75 3071.88 2980.89 3080.37 2986.85 3091.16C2992.82 3101.89 2995.77 3114.25 2995.69 3128.24C2995.77 3142.94 2992.36 3156.01 2985.47 3167.44C2978.65 3178.81 2969.1 3187.75 2956.81 3194.29C2944.59 3200.75 2930.39 3203.98 2914.2 3203.98Z" fill="black"/>
<path id="&#208;&#187;&#208;&#184;&#209;&#132;&#209;&#130;" d="M4353.68 3228L4353.54 3203.99H4357.16C4359.72 3203.99 4361.92 3203.38 4363.77 3202.15C4365.66 3200.87 4367.22 3198.81 4368.45 3195.97C4369.69 3193.13 4370.66 3189.36 4371.37 3184.68C4372.08 3179.94 4372.55 3174.12 4372.79 3167.2L4374.56 3118.91H4457.52V3228H4428.68V3142.7H4401.76L4400.06 3176.01C4399.63 3185.15 4398.52 3193.01 4396.72 3199.59C4394.97 3206.17 4392.53 3211.57 4389.41 3215.78C4386.28 3219.95 4382.52 3223.03 4378.11 3225.02C4373.71 3227.01 4368.6 3228 4362.77 3228H4353.68ZM4509.88 3188.09L4549.15 3118.91H4578.98V3228H4550.15V3158.61L4511.01 3228H4480.97V3118.91H4509.88V3188.09ZM4655.44 3265.07V3082.55H4685.62V3265.07H4655.44ZM4655.44 3230.13C4647.06 3230.13 4639.41 3228.78 4632.5 3226.08C4625.59 3223.34 4619.62 3219.48 4614.6 3214.51C4609.58 3209.49 4605.7 3203.54 4602.95 3196.68C4600.21 3189.77 4598.83 3182.17 4598.83 3173.88C4598.83 3165.5 4600.21 3157.88 4602.95 3151.01C4605.7 3144.1 4609.58 3138.16 4614.6 3133.18C4619.62 3128.17 4625.59 3124.31 4632.5 3121.61C4639.41 3118.86 4647.06 3117.49 4655.44 3117.49H4661.05V3230.13H4655.44ZM4655.44 3206.55H4658.78V3141.07H4655.44C4651.37 3141.07 4647.75 3141.92 4644.57 3143.62C4641.4 3145.33 4638.73 3147.67 4636.55 3150.66C4634.37 3153.59 4632.71 3157.05 4631.58 3161.03C4630.49 3165 4629.94 3169.29 4629.94 3173.88C4629.94 3179.94 4630.94 3185.46 4632.93 3190.43C4634.91 3195.35 4637.83 3199.28 4641.66 3202.22C4645.5 3205.11 4650.09 3206.55 4655.44 3206.55ZM4685.62 3230.13H4680.01V3117.49H4685.62C4694 3117.49 4701.65 3118.86 4708.56 3121.61C4715.48 3124.31 4721.44 3128.17 4726.46 3133.18C4731.48 3138.16 4735.36 3144.1 4738.11 3151.01C4740.86 3157.88 4742.23 3165.5 4742.23 3173.88C4742.23 3182.17 4740.86 3189.77 4738.11 3196.68C4735.36 3203.54 4731.48 3209.49 4726.46 3214.51C4721.44 3219.48 4715.48 3223.34 4708.56 3226.08C4701.65 3228.78 4694 3230.13 4685.62 3230.13ZM4685.62 3206.55C4689.7 3206.55 4693.32 3205.72 4696.49 3204.07C4699.66 3202.36 4702.34 3200.02 4704.52 3197.03C4706.69 3194.05 4708.35 3190.59 4709.49 3186.66C4710.62 3182.69 4711.19 3178.43 4711.19 3173.88C4711.19 3167.77 4710.17 3162.26 4708.14 3157.33C4706.15 3152.36 4703.26 3148.41 4699.47 3145.47C4695.69 3142.54 4691.07 3141.07 4685.62 3141.07H4682.29V3206.55H4685.62ZM4751.46 3142.7V3118.91H4850.33V3142.7H4815.17V3228H4786.33V3142.7H4751.46Z" fill="black"/>
<path id="wc" d="M2818.59 4427L2788.91 4317.91H2819.52L2836.42 4391.2H2837.41L2855.03 4317.91H2885.07L2902.97 4390.78H2903.89L2920.51 4317.91H2951.05L2921.43 4427H2889.4L2870.65 4358.39H2869.3L2850.55 4427H2818.59ZM3013.75 4429.13C3002.57 4429.13 2992.96 4426.76 2984.91 4422.03C2976.91 4417.25 2970.75 4410.62 2966.45 4402.14C2962.18 4393.67 2960.05 4383.91 2960.05 4372.88C2960.05 4361.71 2962.21 4351.91 2966.52 4343.48C2970.87 4335 2977.05 4328.4 2985.05 4323.66C2993.06 4318.88 3002.57 4316.49 3013.6 4316.49C3023.12 4316.49 3031.45 4318.22 3038.6 4321.67C3045.75 4325.13 3051.41 4329.98 3055.58 4336.23C3059.75 4342.48 3062.04 4349.82 3062.47 4358.25H3033.92C3033.11 4352.8 3030.98 4348.43 3027.52 4345.11C3024.12 4341.75 3019.64 4340.07 3014.1 4340.07C3009.41 4340.07 3005.32 4341.35 3001.81 4343.9C2998.36 4346.41 2995.66 4350.08 2993.72 4354.91C2991.78 4359.74 2990.81 4365.59 2990.81 4372.45C2990.81 4379.41 2991.75 4385.33 2993.65 4390.21C2995.59 4395.09 2998.31 4398.8 3001.81 4401.36C3005.32 4403.92 3009.41 4405.2 3014.1 4405.2C3017.56 4405.2 3020.66 4404.49 3023.41 4403.07C3026.2 4401.64 3028.5 4399.59 3030.29 4396.89C3032.14 4394.14 3033.35 4390.85 3033.92 4387.01H3062.47C3061.99 4395.35 3059.72 4402.69 3055.65 4409.03C3051.63 4415.33 3046.06 4420.25 3038.96 4423.8C3031.86 4427.36 3023.45 4429.13 3013.75 4429.13Z" fill="black"/>
</g>
</svg>
