<svg width="9395" height="7879" viewBox="0 0 9395 7879" fill="none" xmlns="http://www.w3.org/2000/svg">
<g id="plan-18corpus-5" clip-path="url(#clip0_144_33)">
<rect width="9395" height="7879" fill="white"/>
<path id="Rectangle 133" d="M1004 2404H2542.5L3207.5 2114.5V1077H3931.5L4248.5 1397.86L4971.5 1397.86L5279 1077L6024 1077V2106.5L6724.39 2401.75L8406 2401.75V6733H1004V2404Z" fill="#242424"/>
<path id="Rectangle 137" d="M3274 1140H3582V1255H3524V2479H3480.86V2544.5H3346.46V2479H3274V1140Z" fill="#9CC7E5"/>
<path id="Rectangle 138" d="M3572 1140H3847V2477H3572V1140Z" fill="#9CC7E5"/>
<path id="Rectangle 141" d="M5343 1163H5614V2466H5343V2401V2279.5V1163Z" fill="#9CC7E5"/>
<path id="Rectangle 142" d="M5683 1250H5343V1129H5961V2467H5879.6V2545H5733.93V2467H5683V1250Z" fill="#9CC7E5"/>
<path id="517room" d="M1067 2472H2129.59V3264H2190V3426H2129.59V3484H1067V2472Z" fill="#9CC7E5"/>
<path id="520room" d="M4375.5 1478.5H5002.5L5299 1163V1531.97V2475H5166.5V2529.5H4904V2475H4375.5V1478.5Z" fill="#9CC7E5"/>
<path id="503room" d="M8333 3597H7214.46V3502.96H7141V3328.88H7214.46V2468H8333V3597Z" fill="#9CC7E5"/>
<path id="Vector 150" d="M3260 1951.5H3538.5V1899.5H3260V1838H3538.5V1773H3260V1711.5H3538.5V1643.5H3260V1569H3538.5V1507.5H3260" stroke="#242424" stroke-width="13"/>
<path id="Vector 152" d="M5683 1951H5961.5V1899H5683V1837.5H5961.5V1772.5H5683V1711H5961.5V1643H5683V1568.5H5961.5V1507H5683" stroke="#242424" stroke-width="13"/>
<path id="Vector 153" d="M5329 2100H5607.5V2048H5329V1986.5H5607.5V1921.5H5329V1860H5607.5V1792H5329V1717.5H5607.5V1656H5329" stroke="#242424" stroke-width="13"/>
<path id="Vector 151" d="M3569 2100H3875V2048H3569V1986.5H3875V1921.5H3569V1860H3875V1792H3569V1717.5H3875V1656H3569" stroke="#242424" stroke-width="13"/>
<path id="501room" d="M6728 2464H7157V3155.5H6381.5V3244H6134V3155.5H5983V2826.11L6415 2344L6728 2464Z" fill="#9CC7E5"/>
<g id="Rectangle 404">
<path d="M4267 2942H4346.9V2893.5H4475V2942H4570.6V3082.67H4650V3293.92H4570.6V3416H4267V2942Z" fill="#789DB7"/>
<path d="M4267 2942H4346.9V2893.5H4475V2942H4570.6V3082.67H4650V3293.92H4570.6V3416H4267V2942Z" fill="#789DB7"/>
</g>
<g id="Rectangle 405">
<path d="M4939 2942H4859V2893.5H4733.5V2942H4635V3416H4939V2942Z" fill="#789DB7"/>
<path d="M4939 2942H4859V2893.5H4733.5V2942H4635V3416H4939V2942Z" fill="#789DB7"/>
</g>
<path id="&#208;&#187;&#208;&#184;&#209;&#132;&#209;&#130;" d="M4360.68 3248L4360.54 3223.99H4364.16C4366.72 3223.99 4368.92 3223.38 4370.77 3222.15C4372.66 3220.87 4374.22 3218.81 4375.45 3215.97C4376.69 3213.13 4377.66 3209.36 4378.37 3204.68C4379.08 3199.94 4379.55 3194.12 4379.79 3187.2L4381.56 3138.91H4464.52V3248H4435.68V3162.7H4408.76L4407.06 3196.01C4406.63 3205.15 4405.52 3213.01 4403.72 3219.59C4401.97 3226.17 4399.53 3231.57 4396.41 3235.78C4393.28 3239.95 4389.52 3243.03 4385.11 3245.02C4380.71 3247.01 4375.6 3248 4369.77 3248H4360.68ZM4516.88 3208.09L4556.15 3138.91H4585.98V3248H4557.15V3178.61L4518.01 3248H4487.97V3138.91H4516.88V3208.09ZM4662.44 3285.07V3102.55H4692.62V3285.07H4662.44ZM4662.44 3250.13C4654.06 3250.13 4646.41 3248.78 4639.5 3246.08C4632.59 3243.34 4626.62 3239.48 4621.6 3234.51C4616.58 3229.49 4612.7 3223.54 4609.95 3216.68C4607.21 3209.77 4605.83 3202.17 4605.83 3193.88C4605.83 3185.5 4607.21 3177.88 4609.95 3171.01C4612.7 3164.1 4616.58 3158.16 4621.6 3153.18C4626.62 3148.17 4632.59 3144.31 4639.5 3141.61C4646.41 3138.86 4654.06 3137.49 4662.44 3137.49H4668.05V3250.13H4662.44ZM4662.44 3226.55H4665.78V3161.07H4662.44C4658.37 3161.07 4654.75 3161.92 4651.57 3163.62C4648.4 3165.33 4645.73 3167.67 4643.55 3170.66C4641.37 3173.59 4639.71 3177.05 4638.58 3181.03C4637.49 3185 4636.94 3189.29 4636.94 3193.88C4636.94 3199.94 4637.94 3205.46 4639.93 3210.43C4641.91 3215.35 4644.83 3219.28 4648.66 3222.22C4652.5 3225.11 4657.09 3226.55 4662.44 3226.55ZM4692.62 3250.13H4687.01V3137.49H4692.62C4701 3137.49 4708.65 3138.86 4715.56 3141.61C4722.48 3144.31 4728.44 3148.17 4733.46 3153.18C4738.48 3158.16 4742.36 3164.1 4745.11 3171.01C4747.86 3177.88 4749.23 3185.5 4749.23 3193.88C4749.23 3202.17 4747.86 3209.77 4745.11 3216.68C4742.36 3223.54 4738.48 3229.49 4733.46 3234.51C4728.44 3239.48 4722.48 3243.34 4715.56 3246.08C4708.65 3248.78 4701 3250.13 4692.62 3250.13ZM4692.62 3226.55C4696.7 3226.55 4700.32 3225.72 4703.49 3224.07C4706.66 3222.36 4709.34 3220.02 4711.52 3217.03C4713.69 3214.05 4715.35 3210.59 4716.49 3206.66C4717.62 3202.69 4718.19 3198.43 4718.19 3193.88C4718.19 3187.77 4717.17 3182.26 4715.14 3177.33C4713.15 3172.36 4710.26 3168.41 4706.47 3165.47C4702.69 3162.54 4698.07 3161.07 4692.62 3161.07H4689.29V3226.55H4692.62ZM4758.46 3162.7V3138.91H4857.33V3162.7H4822.17V3248H4793.33V3162.7H4758.46Z" fill="black"/>
<path id="505room" d="M7774.86 4680.77V4737H7598.02V4680.77H7508.09V4563H5971.82V4153.93H5917.5V3897.53H5971.82V3667H8333V4680.77H7774.86Z" fill="#9CC7E5"/>
<path id="519room" d="M4320.5 1473.5H4219.5L3908 1147.5V2476.57H3992V2532.5H4199V2476.57H4320.5V1473.5Z" fill="#9CC7E5"/>
<path id="516room" d="M3657 3504V3380H3601V3197.5H3657V2942H4211V3504H3657Z" fill="#9CC7E5"/>
<path id="518room" d="M3260 2823V3156H2879V3208.5H2656.5V3156H2188V2470H2547L2869.5 2334L3260 2823Z" fill="#9CC7E5"/>
<path id="515room" d="M3657 3559H4142V4414H3657V3934H3599V3799.5H3657V3559Z" fill="#9CC7E5"/>
<path id="504room" d="M5064 3552H5549V3721.5H5607.5V3915H5549V4414H5064V3552Z" fill="#9CC7E5"/>
<path id="510room" d="M4196 3564.58H4263V3473H4939V3564.58H5010V4684H4502.5V4743H4300.5V4684H4196V3564.58Z" fill="#9CC7E5"/>
<path id="514room" d="M1067 3547H2072V4548H1718.5V4684H1622.5V4742.5H1428V4684H1067V4430.59V3547Z" fill="#9CC7E5"/>
<path id="513room" d="M1067 5146H1686V5082.5H1925.5V5146H2072V5896V6646H1067V5146Z" fill="#9CC7E5"/>
<path id="512room" d="M2131 5146H2810V5082H3039V5146H3159V5896V6646H2131V5146Z" fill="#9CC7E5"/>
<path id="511room" d="M3221 5146H3326V5077H3536.5V5146H4152V5896V6646H3221V5146Z" fill="#9CC7E5"/>
<path id="509room" d="M4215 5146H4417V5077.5H4646.5V5146H5010V5896V6646H4215V5146Z" fill="#9CC7E5"/>
<path id="corridor" d="M6367 2309.5L5919 2809.44V3222H7157V3597H5919V4737H8333V5083H1067V4737H3310V3484H2184V3205H3310V2806.18L2920.5 2310.5L3224.5 2179.5V2528H3346V2527H5870V2528H6007V2171L6367 2309.5ZM3603 4654H4152V4737H5063V4655H5601V2894H3603V4654ZM7455 4694H5972V4606H7455V4694ZM3256 4684H1766V4596H3256V4684ZM5548 4599H5063V4470H5548V4599ZM4142 4598H3657V4470H4142V4598Z" fill="#9CC7E5"/>
<path id="508room" d="M5073 5146H5296V5079H5565V5146H5900V5896V6646H5073V5146Z" fill="#9CC7E5"/>
<path id="507room" d="M5972 5146H6184.5V5081.5H6428.5V5146H6621V5896V6646H5972V5146Z" fill="#9CC7E5"/>
<path id="506room" d="M7059 5639H7211V6646H6684V5639H6837.5V5573H6686V5149H6839.5V5080.5H7079V5149H7213V5245H7279V5146H8333V6646H7279V5466H7213V5573H7059V5639Z" fill="#9CC7E5"/>
<path id="Union" d="M2260 3856H2248V3888H2337V3856H2300V3547H2436V3856H2422.5V3888H2436V4147H2386.5V4182H2568V4350H2613V4182H3256V4313.5H3311V4476.5H3256V4544H2613V4470H2568V4547H2124V4182H2272.5V4147H2124V3888H2154.5V3856H2124V3547H2260V3856ZM2613 3856H2601V3888H2690V3856H2653V3547H2789V3856H2775.5V3888H2789V3968H2830V3865H3256V3945.5H3311.5V4098H3256V4144H2830V4088.5H2789V4147H2477V3888H2507.5V3856H2477V3547H2613V3856ZM3256 3667H3310.5V3796H3256V3826H2830V3547H3256V3667Z" fill="#6698BA"/>
<path id="502room" d="M5548 3504V3380H5604V3197.5H5548V2942H4994V3504H5548Z" fill="#9CC7E5"/>
<path id="Vector 570" d="M2675.76 7818.04C2715.87 7818.04 2810.08 7818.04 2938.23 7814.7C3026.26 7804.67 3100.81 7784.41 3198.37 7764.15C3255.8 7757.26 3329.35 7757.26 3405.12 7757.26" stroke="black" stroke-width="166" stroke-linecap="round"/>
<path id="520" d="M4667.37 2244.98C4652.32 2244.98 4638.89 2242.21 4627.1 2236.67C4615.38 2231.13 4606.08 2223.5 4599.19 2213.77C4592.3 2204.04 4588.71 2192.89 4588.43 2180.32H4633.17C4633.67 2188.77 4637.22 2195.62 4643.83 2200.88C4650.43 2206.13 4658.28 2208.76 4667.37 2208.76C4674.62 2208.76 4681.01 2207.16 4686.55 2203.97C4692.16 2200.7 4696.53 2196.19 4699.65 2190.44C4702.85 2184.61 4704.45 2177.94 4704.45 2170.41C4704.45 2162.74 4702.81 2155.99 4699.55 2150.17C4696.35 2144.34 4691.91 2139.8 4686.23 2136.53C4680.55 2133.26 4674.05 2131.6 4666.73 2131.52C4660.34 2131.52 4654.13 2132.84 4648.09 2135.47C4642.12 2138.09 4637.47 2141.68 4634.13 2146.23L4593.12 2138.88L4603.45 2023.82H4736.83V2061.53H4641.48L4635.84 2116.18H4637.12C4640.95 2110.79 4646.74 2106.31 4654.48 2102.76C4662.22 2099.21 4670.89 2097.43 4680.48 2097.43C4693.62 2097.43 4705.33 2100.52 4715.63 2106.7C4725.93 2112.88 4734.06 2121.37 4740.03 2132.16C4745.99 2142.89 4748.94 2155.25 4748.87 2169.24C4748.94 2183.94 4745.53 2197.01 4738.64 2208.44C4731.83 2219.81 4722.27 2228.75 4709.99 2235.29C4697.77 2241.75 4683.57 2244.98 4667.37 2244.98ZM4781.04 2242V2208.76L4858.71 2136.85C4865.31 2130.46 4870.85 2124.71 4875.33 2119.59C4879.87 2114.48 4883.32 2109.47 4885.66 2104.57C4888 2099.6 4889.18 2094.24 4889.18 2088.48C4889.18 2082.09 4887.72 2076.59 4884.81 2071.97C4881.9 2067.28 4877.92 2063.7 4872.88 2061.21C4867.83 2058.65 4862.12 2057.38 4855.72 2057.38C4849.05 2057.38 4843.22 2058.73 4838.25 2061.42C4833.28 2064.12 4829.45 2067.99 4826.75 2073.04C4824.05 2078.08 4822.7 2084.08 4822.7 2091.04H4778.91C4778.91 2076.77 4782.14 2064.37 4788.61 2053.86C4795.07 2043.35 4804.13 2035.22 4815.77 2029.46C4827.42 2023.71 4840.85 2020.84 4856.04 2020.84C4871.67 2020.84 4885.27 2023.61 4896.85 2029.14C4908.49 2034.61 4917.55 2042.21 4924.01 2051.94C4930.48 2061.67 4933.71 2072.82 4933.71 2085.39C4933.71 2093.63 4932.07 2101.77 4928.81 2109.79C4925.61 2117.82 4919.89 2126.73 4911.65 2136.53C4903.42 2146.26 4891.8 2157.94 4876.82 2171.58L4844.96 2202.8V2204.29H4936.58V2242H4781.04ZM5055.56 2246.79C5037.23 2246.72 5021.46 2242.21 5008.25 2233.26C4995.12 2224.32 4984.99 2211.35 4977.89 2194.38C4970.86 2177.4 4967.38 2156.99 4967.45 2133.12C4967.45 2109.33 4970.97 2089.05 4978 2072.29C4985.1 2055.53 4995.22 2042.78 5008.36 2034.05C5021.57 2025.24 5037.3 2020.84 5055.56 2020.84C5073.81 2020.84 5089.5 2025.24 5102.64 2034.05C5115.85 2042.85 5126.01 2055.64 5133.11 2072.4C5140.21 2089.09 5143.73 2109.33 5143.66 2133.12C5143.66 2157.06 5140.11 2177.51 5133.01 2194.49C5125.97 2211.46 5115.89 2224.42 5102.75 2233.37C5089.61 2242.32 5073.88 2246.79 5055.56 2246.79ZM5055.56 2208.55C5068.06 2208.55 5078.03 2202.26 5085.49 2189.69C5092.95 2177.12 5096.64 2158.26 5096.57 2133.12C5096.57 2116.57 5094.87 2102.8 5091.46 2091.79C5088.12 2080.78 5083.36 2072.5 5077.18 2066.96C5071.07 2061.42 5063.87 2058.65 5055.56 2058.65C5043.13 2058.65 5033.18 2064.87 5025.73 2077.3C5018.27 2089.73 5014.5 2108.34 5014.43 2133.12C5014.43 2149.88 5016.1 2163.88 5019.44 2175.1C5022.85 2186.25 5027.64 2194.63 5033.82 2200.24C5040 2205.78 5047.25 2208.55 5055.56 2208.55Z" fill="black"/>
<path id="519" d="M3996.91 2206.99C3986.88 2206.99 3977.93 2205.14 3970.07 2201.45C3962.26 2197.76 3956.05 2192.67 3951.46 2186.18C3946.87 2179.69 3944.48 2172.26 3944.29 2163.88H3974.12C3974.45 2169.51 3976.82 2174.08 3981.22 2177.59C3985.62 2181.09 3990.85 2182.84 3996.91 2182.84C4001.74 2182.84 4006.01 2181.78 4009.7 2179.64C4013.44 2177.47 4016.35 2174.46 4018.43 2170.62C4020.57 2166.74 4021.63 2162.29 4021.63 2157.27C4021.63 2152.16 4020.54 2147.66 4018.36 2143.78C4016.23 2139.9 4013.27 2136.87 4009.49 2134.69C4005.7 2132.51 4001.37 2131.4 3996.49 2131.35C3992.23 2131.35 3988.08 2132.23 3984.06 2133.98C3980.08 2135.73 3976.98 2138.12 3974.76 2141.15L3947.41 2136.25L3954.3 2059.55H4043.22V2084.69H3979.66L3975.89 2121.12H3976.74C3979.3 2117.52 3983.16 2114.54 3988.32 2112.17C3993.48 2109.81 3999.26 2108.62 4005.65 2108.62C4014.41 2108.62 4022.22 2110.68 4029.09 2114.8C4035.95 2118.92 4041.38 2124.58 4045.35 2131.78C4049.33 2138.93 4051.29 2147.16 4051.25 2156.49C4051.29 2166.29 4049.02 2175 4044.43 2182.63C4039.88 2190.2 4033.52 2196.17 4025.32 2200.53C4017.18 2204.83 4007.71 2206.99 3996.91 2206.99ZM4135.98 2059.55V2205H4105.22V2088.74H4104.37L4071.06 2109.62V2082.34L4107.07 2059.55H4135.98ZM4223.18 2057.56C4230.66 2057.56 4237.85 2058.81 4244.77 2061.32C4251.73 2063.83 4257.93 2067.83 4263.37 2073.32C4268.87 2078.82 4273.2 2086.11 4276.37 2095.2C4279.59 2104.24 4281.22 2115.35 4281.27 2128.51C4281.27 2140.87 4279.88 2151.9 4277.08 2161.61C4274.34 2171.26 4270.38 2179.48 4265.22 2186.25C4260.06 2193.02 4253.83 2198.18 4246.54 2201.73C4239.25 2205.24 4231.11 2206.99 4222.11 2206.99C4212.4 2206.99 4203.83 2205.12 4196.4 2201.38C4188.97 2197.59 4182.98 2192.45 4178.43 2185.97C4173.93 2179.43 4171.21 2172.09 4170.26 2163.95H4200.59C4201.77 2169.25 4204.26 2173.37 4208.05 2176.31C4211.84 2179.2 4216.52 2180.64 4222.11 2180.64C4231.58 2180.64 4238.78 2176.52 4243.7 2168.28C4248.63 2160 4251.11 2148.66 4251.16 2134.26H4250.16C4247.99 2138.52 4245.05 2142.19 4241.36 2145.27C4237.66 2148.3 4233.43 2150.64 4228.64 2152.3C4223.91 2153.96 4218.87 2154.79 4213.52 2154.79C4204.95 2154.79 4197.3 2152.77 4190.58 2148.75C4183.85 2144.73 4178.55 2139.19 4174.67 2132.13C4170.78 2125.08 4168.84 2117.03 4168.84 2107.98C4168.8 2098.23 4171.04 2089.54 4175.59 2081.92C4180.14 2074.29 4186.48 2068.33 4194.62 2064.02C4202.82 2059.66 4212.33 2057.51 4223.18 2057.56ZM4223.39 2081.7C4218.61 2081.7 4214.34 2082.84 4210.6 2085.11C4206.91 2087.39 4203.98 2090.44 4201.8 2094.28C4199.67 2098.11 4198.63 2102.4 4198.67 2107.13C4198.67 2111.91 4199.71 2116.22 4201.8 2120.06C4203.93 2123.84 4206.82 2126.87 4210.46 2129.15C4214.16 2131.37 4218.37 2132.49 4223.1 2132.49C4226.66 2132.49 4229.95 2131.82 4232.98 2130.5C4236.01 2129.17 4238.63 2127.35 4240.86 2125.03C4243.13 2122.66 4244.91 2119.94 4246.19 2116.86C4247.47 2113.78 4248.1 2110.52 4248.1 2107.06C4248.06 2102.47 4246.97 2098.25 4244.84 2094.42C4242.71 2090.58 4239.77 2087.5 4236.03 2085.18C4232.29 2082.86 4228.08 2081.7 4223.39 2081.7Z" fill="black"/>
<path id="501" d="M6447.37 3005.98C6432.32 3005.98 6418.89 3003.21 6407.1 2997.67C6395.38 2992.13 6386.08 2984.5 6379.19 2974.77C6372.3 2965.04 6368.71 2953.89 6368.43 2941.32H6413.17C6413.67 2949.77 6417.22 2956.62 6423.83 2961.88C6430.43 2967.13 6438.28 2969.76 6447.37 2969.76C6454.62 2969.76 6461.01 2968.16 6466.55 2964.97C6472.16 2961.7 6476.53 2957.19 6479.65 2951.44C6482.85 2945.61 6484.45 2938.94 6484.45 2931.41C6484.45 2923.74 6482.81 2916.99 6479.55 2911.17C6476.35 2905.34 6471.91 2900.8 6466.23 2897.53C6460.55 2894.26 6454.05 2892.6 6446.73 2892.52C6440.34 2892.52 6434.13 2893.84 6428.09 2896.47C6422.12 2899.09 6417.47 2902.68 6414.13 2907.23L6373.12 2899.88L6383.45 2784.82H6516.83V2822.53H6421.48L6415.84 2877.18H6417.12C6420.95 2871.79 6426.74 2867.31 6434.48 2863.76C6442.22 2860.21 6450.89 2858.43 6460.48 2858.43C6473.62 2858.43 6485.33 2861.52 6495.63 2867.7C6505.93 2873.88 6514.06 2882.37 6520.03 2893.16C6525.99 2903.89 6528.94 2916.25 6528.87 2930.24C6528.94 2944.94 6525.53 2958.01 6518.64 2969.44C6511.83 2980.81 6502.27 2989.75 6489.99 2996.29C6477.77 3002.75 6463.57 3005.98 6447.37 3005.98ZM6646.59 3007.79C6628.27 3007.72 6612.5 3003.21 6599.29 2994.26C6586.15 2985.32 6576.03 2972.35 6568.93 2955.38C6561.9 2938.4 6558.42 2917.99 6558.49 2894.12C6558.49 2870.33 6562 2850.05 6569.03 2833.29C6576.14 2816.53 6586.26 2803.78 6599.4 2795.05C6612.61 2786.24 6628.34 2781.84 6646.59 2781.84C6664.84 2781.84 6680.54 2786.24 6693.68 2795.05C6706.89 2803.85 6717.05 2816.64 6724.15 2833.4C6731.25 2850.09 6734.77 2870.33 6734.69 2894.12C6734.69 2918.06 6731.14 2938.51 6724.04 2955.49C6717.01 2972.46 6706.92 2985.42 6693.79 2994.37C6680.65 3003.32 6664.91 3007.79 6646.59 3007.79ZM6646.59 2969.55C6659.09 2969.55 6669.07 2963.26 6676.53 2950.69C6683.98 2938.12 6687.68 2919.26 6687.61 2894.12C6687.61 2877.57 6685.9 2863.8 6682.49 2852.79C6679.15 2841.78 6674.4 2833.5 6668.22 2827.96C6662.11 2822.42 6654.9 2819.65 6646.59 2819.65C6634.16 2819.65 6624.22 2825.87 6616.76 2838.3C6609.3 2850.73 6605.54 2869.34 6605.47 2894.12C6605.47 2910.88 6607.14 2924.88 6610.48 2936.1C6613.88 2947.25 6618.68 2955.63 6624.86 2961.24C6631.04 2966.78 6638.28 2969.55 6646.59 2969.55ZM6862.51 2784.82V3003H6816.38V2828.6H6815.1L6765.14 2859.92V2819.02L6819.15 2784.82H6862.51Z" fill="black"/>
<path id="503" d="M7569.37 3157.98C7554.32 3157.98 7540.89 3155.21 7529.1 3149.67C7517.38 3144.13 7508.08 3136.5 7501.19 3126.77C7494.3 3117.04 7490.71 3105.89 7490.43 3093.32H7535.17C7535.67 3101.77 7539.22 3108.62 7545.83 3113.88C7552.43 3119.13 7560.28 3121.76 7569.37 3121.76C7576.62 3121.76 7583.01 3120.16 7588.55 3116.97C7594.16 3113.7 7598.53 3109.19 7601.65 3103.44C7604.85 3097.61 7606.45 3090.94 7606.45 3083.41C7606.45 3075.74 7604.81 3068.99 7601.55 3063.17C7598.35 3057.34 7593.91 3052.8 7588.23 3049.53C7582.55 3046.26 7576.05 3044.6 7568.73 3044.52C7562.34 3044.52 7556.13 3045.84 7550.09 3048.47C7544.12 3051.09 7539.47 3054.68 7536.13 3059.23L7495.12 3051.88L7505.45 2936.82H7638.83V2974.53H7543.48L7537.84 3029.18H7539.12C7542.95 3023.79 7548.74 3019.31 7556.48 3015.76C7564.22 3012.21 7572.89 3010.43 7582.48 3010.43C7595.62 3010.43 7607.33 3013.52 7617.63 3019.7C7627.93 3025.88 7636.06 3034.37 7642.03 3045.16C7647.99 3055.89 7650.94 3068.25 7650.87 3082.24C7650.94 3096.94 7647.53 3110.01 7640.64 3121.44C7633.83 3132.81 7624.27 3141.75 7611.99 3148.29C7599.77 3154.75 7585.57 3157.98 7569.37 3157.98ZM7768.59 3159.79C7750.27 3159.72 7734.5 3155.21 7721.29 3146.26C7708.15 3137.32 7698.03 3124.35 7690.93 3107.38C7683.9 3090.4 7680.42 3069.99 7680.49 3046.12C7680.49 3022.33 7684 3002.05 7691.03 2985.29C7698.14 2968.53 7708.26 2955.78 7721.4 2947.05C7734.61 2938.24 7750.34 2933.84 7768.59 2933.84C7786.84 2933.84 7802.54 2938.24 7815.68 2947.05C7828.89 2955.85 7839.05 2968.64 7846.15 2985.4C7853.25 3002.09 7856.77 3022.33 7856.69 3046.12C7856.69 3070.06 7853.14 3090.51 7846.04 3107.49C7839.01 3124.46 7828.92 3137.42 7815.79 3146.37C7802.65 3155.32 7786.91 3159.79 7768.59 3159.79ZM7768.59 3121.55C7781.09 3121.55 7791.07 3115.26 7798.53 3102.69C7805.98 3090.12 7809.68 3071.26 7809.61 3046.12C7809.61 3029.57 7807.9 3015.8 7804.49 3004.79C7801.15 2993.78 7796.4 2985.5 7790.22 2979.96C7784.11 2974.42 7776.9 2971.65 7768.59 2971.65C7756.16 2971.65 7746.22 2977.87 7738.76 2990.3C7731.3 3002.73 7727.54 3021.34 7727.47 3046.12C7727.47 3062.88 7729.14 3076.88 7732.48 3088.1C7735.88 3099.25 7740.68 3107.63 7746.86 3113.24C7753.04 3118.78 7760.28 3121.55 7768.59 3121.55ZM7970.23 3157.98C7954.32 3157.98 7940.16 3155.25 7927.73 3149.78C7915.37 3144.24 7905.6 3136.64 7898.43 3126.98C7891.33 3117.25 7887.67 3106.03 7887.46 3093.32H7933.91C7934.19 3098.64 7935.93 3103.33 7939.13 3107.38C7942.39 3111.36 7946.72 3114.45 7952.12 3116.65C7957.52 3118.85 7963.59 3119.95 7970.34 3119.95C7977.37 3119.95 7983.59 3118.71 7988.98 3116.22C7994.38 3113.74 7998.61 3110.29 8001.66 3105.89C8004.71 3101.48 8006.24 3096.41 8006.24 3090.65C8006.24 3084.83 8004.61 3079.68 8001.34 3075.21C7998.15 3070.66 7993.53 3067.11 7987.49 3064.55C7981.53 3062 7974.42 3060.72 7966.19 3060.72H7945.84V3026.84H7966.19C7973.15 3026.84 7979.29 3025.63 7984.62 3023.22C7990.01 3020.8 7994.2 3017.46 7997.19 3013.2C8000.17 3008.87 8001.66 3003.83 8001.66 2998.08C8001.66 2992.61 8000.35 2987.81 7997.72 2983.69C7995.16 2979.5 7991.54 2976.24 7986.85 2973.89C7982.24 2971.55 7976.84 2970.38 7970.66 2970.38C7964.41 2970.38 7958.69 2971.51 7953.51 2973.79C7948.32 2975.99 7944.17 2979.15 7941.04 2983.27C7937.92 2987.39 7936.25 2992.22 7936.04 2997.76H7891.82C7892.04 2985.18 7895.62 2974.11 7902.58 2964.52C7909.54 2954.93 7918.92 2947.44 7930.71 2942.04C7942.57 2936.57 7955.96 2933.84 7970.87 2933.84C7985.93 2933.84 7999.1 2936.57 8010.4 2942.04C8021.69 2947.51 8030.46 2954.89 8036.71 2964.2C8043.03 2973.43 8046.16 2983.8 8046.09 2995.31C8046.16 3007.52 8042.36 3017.71 8034.69 3025.88C8027.09 3034.05 8017.18 3039.23 8004.96 3041.43V3043.14C8021.01 3045.2 8033.23 3050.77 8041.61 3059.87C8050.06 3068.88 8054.25 3080.18 8054.18 3093.74C8054.25 3106.17 8050.67 3117.22 8043.42 3126.88C8036.25 3136.53 8026.34 3144.13 8013.7 3149.67C8001.06 3155.21 7986.57 3157.98 7970.23 3157.98Z" fill="black"/>
<path id="502" d="M5149.91 3297.99C5139.88 3297.99 5130.93 3296.14 5123.07 3292.45C5115.26 3288.76 5109.05 3283.67 5104.46 3277.18C5099.87 3270.69 5097.48 3263.26 5097.29 3254.88H5127.12C5127.45 3260.51 5129.82 3265.08 5134.22 3268.59C5138.62 3272.09 5143.85 3273.84 5149.91 3273.84C5154.74 3273.84 5159.01 3272.78 5162.7 3270.64C5166.44 3268.47 5169.35 3265.46 5171.43 3261.62C5173.57 3257.74 5174.63 3253.29 5174.63 3248.27C5174.63 3243.16 5173.54 3238.66 5171.36 3234.78C5169.23 3230.9 5166.27 3227.87 5162.49 3225.69C5158.7 3223.51 5154.37 3222.4 5149.49 3222.35C5145.23 3222.35 5141.08 3223.23 5137.06 3224.98C5133.08 3226.73 5129.98 3229.12 5127.76 3232.15L5100.41 3227.25L5107.3 3150.55H5196.22V3175.69H5132.66L5128.89 3212.12H5129.74C5132.3 3208.52 5136.16 3205.54 5141.32 3203.17C5146.48 3200.81 5152.26 3199.62 5158.65 3199.62C5167.41 3199.62 5175.22 3201.68 5182.09 3205.8C5188.95 3209.92 5194.38 3215.58 5198.35 3222.78C5202.33 3229.93 5204.29 3238.16 5204.25 3247.49C5204.29 3257.29 5202.02 3266 5197.43 3273.63C5192.88 3281.2 5186.52 3287.17 5178.32 3291.53C5170.18 3295.83 5160.71 3297.99 5149.91 3297.99ZM5282.73 3299.2C5270.51 3299.15 5260 3296.14 5251.19 3290.18C5242.43 3284.21 5235.69 3275.57 5230.95 3264.25C5226.26 3252.94 5223.94 3239.32 5223.99 3223.41C5223.99 3207.55 5226.34 3194.04 5231.02 3182.86C5235.76 3171.69 5242.5 3163.19 5251.26 3157.36C5260.07 3151.49 5270.56 3148.56 5282.73 3148.56C5294.9 3148.56 5305.36 3151.49 5314.12 3157.36C5322.93 3163.23 5329.7 3171.76 5334.43 3182.93C5339.17 3194.06 5341.51 3207.55 5341.46 3223.41C5341.46 3239.37 5339.1 3253.01 5334.36 3264.32C5329.67 3275.64 5322.95 3284.28 5314.19 3290.25C5305.43 3296.21 5294.94 3299.2 5282.73 3299.2ZM5282.73 3273.7C5291.06 3273.7 5297.71 3269.51 5302.68 3261.13C5307.66 3252.75 5310.12 3240.18 5310.07 3223.41C5310.07 3212.38 5308.93 3203.2 5306.66 3195.86C5304.44 3188.52 5301.26 3183 5297.14 3179.31C5293.07 3175.62 5288.27 3173.77 5282.73 3173.77C5274.44 3173.77 5267.81 3177.91 5262.84 3186.2C5257.87 3194.48 5255.36 3206.89 5255.31 3223.41C5255.31 3234.59 5256.43 3243.92 5258.65 3251.4C5260.92 3258.83 5264.12 3264.42 5268.24 3268.16C5272.36 3271.85 5277.19 3273.7 5282.73 3273.7ZM5363.39 3296V3273.84L5415.17 3225.9C5419.57 3221.64 5423.26 3217.8 5426.25 3214.39C5429.28 3210.99 5431.57 3207.65 5433.14 3204.38C5434.7 3201.07 5435.48 3197.49 5435.48 3193.66C5435.48 3189.39 5434.51 3185.73 5432.57 3182.65C5430.63 3179.52 5427.97 3177.13 5424.61 3175.47C5421.25 3173.77 5417.44 3172.92 5413.18 3172.92C5408.73 3172.92 5404.84 3173.82 5401.53 3175.62C5398.22 3177.42 5395.66 3180 5393.86 3183.36C5392.06 3186.72 5391.16 3190.72 5391.16 3195.36H5361.97C5361.97 3185.84 5364.13 3177.58 5368.43 3170.57C5372.74 3163.57 5378.78 3158.14 5386.54 3154.31C5394.31 3150.47 5403.26 3148.56 5413.39 3148.56C5423.81 3148.56 5432.88 3150.4 5440.59 3154.1C5448.36 3157.74 5454.4 3162.81 5458.7 3169.3C5463.01 3175.78 5465.17 3183.22 5465.17 3191.6C5465.17 3197.09 5464.08 3202.51 5461.9 3207.86C5459.77 3213.21 5455.96 3219.15 5450.47 3225.69C5444.97 3232.17 5437.23 3239.96 5427.24 3249.05L5406 3269.86V3270.86H5467.08V3296H5363.39Z" fill="black"/>
<path id="516" d="M3793.91 3297.99C3783.88 3297.99 3774.93 3296.14 3767.07 3292.45C3759.26 3288.76 3753.05 3283.67 3748.46 3277.18C3743.87 3270.69 3741.48 3263.26 3741.29 3254.88H3771.12C3771.45 3260.51 3773.82 3265.08 3778.22 3268.59C3782.62 3272.09 3787.85 3273.84 3793.91 3273.84C3798.74 3273.84 3803.01 3272.78 3806.7 3270.64C3810.44 3268.47 3813.35 3265.46 3815.43 3261.62C3817.57 3257.74 3818.63 3253.29 3818.63 3248.27C3818.63 3243.16 3817.54 3238.66 3815.36 3234.78C3813.23 3230.9 3810.27 3227.87 3806.49 3225.69C3802.7 3223.51 3798.37 3222.4 3793.49 3222.35C3789.23 3222.35 3785.08 3223.23 3781.06 3224.98C3777.08 3226.73 3773.98 3229.12 3771.76 3232.15L3744.41 3227.25L3751.3 3150.55H3840.22V3175.69H3776.66L3772.89 3212.12H3773.74C3776.3 3208.52 3780.16 3205.54 3785.32 3203.17C3790.48 3200.81 3796.26 3199.62 3802.65 3199.62C3811.41 3199.62 3819.22 3201.68 3826.09 3205.8C3832.95 3209.92 3838.38 3215.58 3842.35 3222.78C3846.33 3229.93 3848.29 3238.16 3848.25 3247.49C3848.29 3257.29 3846.02 3266 3841.43 3273.63C3836.88 3281.2 3830.52 3287.17 3822.32 3291.53C3814.18 3295.83 3804.71 3297.99 3793.91 3297.99ZM3932.98 3150.55V3296H3902.22V3179.74H3901.37L3868.06 3200.62V3173.34L3904.07 3150.55H3932.98ZM4023.37 3297.99C4015.89 3297.94 4008.67 3296.69 4001.71 3294.22C3994.8 3291.76 3988.59 3287.76 3983.1 3282.22C3977.61 3276.68 3973.25 3269.34 3970.03 3260.2C3966.86 3251.07 3965.27 3239.84 3965.27 3226.54C3965.32 3214.32 3966.72 3203.41 3969.47 3193.8C3972.26 3184.14 3976.24 3175.95 3981.4 3169.22C3986.61 3162.5 3992.83 3157.39 4000.08 3153.88C4007.32 3150.33 4015.44 3148.56 4024.44 3148.56C4034.14 3148.56 4042.71 3150.45 4050.15 3154.24C4057.58 3157.98 4063.55 3163.07 4068.04 3169.51C4072.59 3175.95 4075.34 3183.17 4076.28 3191.17H4045.96C4044.77 3186.1 4042.29 3182.13 4038.5 3179.24C4034.71 3176.35 4030.02 3174.91 4024.44 3174.91C4014.97 3174.91 4007.77 3179.03 4002.85 3187.26C3997.97 3195.5 3995.48 3206.7 3995.39 3220.86H3996.38C3998.56 3216.55 4001.5 3212.88 4005.19 3209.85C4008.93 3206.77 4013.17 3204.43 4017.9 3202.82C4022.68 3201.16 4027.73 3200.33 4033.03 3200.33C4041.65 3200.33 4049.32 3202.37 4056.04 3206.44C4062.77 3210.46 4068.07 3216 4071.95 3223.06C4075.83 3230.11 4077.77 3238.19 4077.77 3247.28C4077.77 3257.13 4075.48 3265.89 4070.89 3273.56C4066.34 3281.23 4059.97 3287.24 4051.78 3291.6C4043.64 3295.91 4034.17 3298.04 4023.37 3297.99ZM4023.23 3273.84C4027.96 3273.84 4032.2 3272.7 4035.94 3270.43C4039.68 3268.16 4042.62 3265.08 4044.75 3261.2C4046.88 3257.32 4047.95 3252.96 4047.95 3248.13C4047.95 3243.3 4046.88 3238.97 4044.75 3235.13C4042.67 3231.3 4039.78 3228.24 4036.08 3225.97C4032.39 3223.7 4028.18 3222.56 4023.44 3222.56C4019.89 3222.56 4016.6 3223.23 4013.57 3224.55C4010.59 3225.88 4007.96 3227.72 4005.69 3230.09C4003.46 3232.46 4001.71 3235.2 4000.43 3238.33C3999.15 3241.41 3998.51 3244.7 3998.51 3248.2C3998.51 3252.89 3999.58 3257.17 4001.71 3261.06C4003.89 3264.94 4006.82 3268.04 4010.52 3270.36C4014.26 3272.68 4018.49 3273.84 4023.23 3273.84Z" fill="black"/>
<path id="515" d="M3793.91 4100.99C3783.88 4100.99 3774.93 4099.14 3767.07 4095.45C3759.26 4091.76 3753.05 4086.67 3748.46 4080.18C3743.87 4073.69 3741.48 4066.26 3741.29 4057.88H3771.12C3771.45 4063.51 3773.82 4068.08 3778.22 4071.59C3782.62 4075.09 3787.85 4076.84 3793.91 4076.84C3798.74 4076.84 3803.01 4075.78 3806.7 4073.64C3810.44 4071.47 3813.35 4068.46 3815.43 4064.62C3817.57 4060.74 3818.63 4056.29 3818.63 4051.27C3818.63 4046.16 3817.54 4041.66 3815.36 4037.78C3813.23 4033.9 3810.27 4030.87 3806.49 4028.69C3802.7 4026.51 3798.37 4025.4 3793.49 4025.35C3789.23 4025.35 3785.08 4026.23 3781.06 4027.98C3777.08 4029.73 3773.98 4032.12 3771.76 4035.15L3744.41 4030.25L3751.3 3953.55H3840.22V3978.69H3776.66L3772.89 4015.12H3773.74C3776.3 4011.52 3780.16 4008.54 3785.32 4006.17C3790.48 4003.81 3796.26 4002.62 3802.65 4002.62C3811.41 4002.62 3819.22 4004.68 3826.09 4008.8C3832.95 4012.92 3838.38 4018.58 3842.35 4025.78C3846.33 4032.93 3848.29 4041.16 3848.25 4050.49C3848.29 4060.29 3846.02 4069 3841.43 4076.63C3836.88 4084.2 3830.52 4090.17 3822.32 4094.53C3814.18 4098.83 3804.71 4100.99 3793.91 4100.99ZM3932.98 3953.55V4099H3902.22V3982.74H3901.37L3868.06 4003.62V3976.34L3904.07 3953.55H3932.98ZM4020.67 4100.99C4010.63 4100.99 4001.69 4099.14 3993.83 4095.45C3986.01 4091.76 3979.81 4086.67 3975.22 4080.18C3970.63 4073.69 3968.23 4066.26 3968.04 4057.88H3997.87C3998.21 4063.51 4000.57 4068.08 4004.98 4071.59C4009.38 4075.09 4014.61 4076.84 4020.67 4076.84C4025.5 4076.84 4029.76 4075.78 4033.46 4073.64C4037.2 4071.47 4040.11 4068.46 4042.19 4064.62C4044.32 4060.74 4045.39 4056.29 4045.39 4051.27C4045.39 4046.16 4044.3 4041.66 4042.12 4037.78C4039.99 4033.9 4037.03 4030.87 4033.24 4028.69C4029.46 4026.51 4025.12 4025.4 4020.25 4025.35C4015.99 4025.35 4011.84 4026.23 4007.82 4027.98C4003.84 4029.73 4000.74 4032.12 3998.51 4035.15L3971.17 4030.25L3978.06 3953.55H4066.98V3978.69H4003.41L3999.65 4015.12H4000.5C4003.06 4011.52 4006.92 4008.54 4012.08 4006.17C4017.24 4003.81 4023.02 4002.62 4029.41 4002.62C4038.17 4002.62 4045.98 4004.68 4052.85 4008.8C4059.71 4012.92 4065.13 4018.58 4069.11 4025.78C4073.09 4032.93 4075.05 4041.16 4075 4050.49C4075.05 4060.29 4072.78 4069 4068.19 4076.63C4063.64 4084.2 4057.27 4090.17 4049.08 4094.53C4040.94 4098.83 4031.47 4100.99 4020.67 4100.99Z" fill="black"/>
<path id="504" d="M5166.91 4100.99C5156.88 4100.99 5147.93 4099.14 5140.07 4095.45C5132.26 4091.76 5126.05 4086.67 5121.46 4080.18C5116.87 4073.69 5114.48 4066.26 5114.29 4057.88H5144.12C5144.45 4063.51 5146.82 4068.08 5151.22 4071.59C5155.62 4075.09 5160.85 4076.84 5166.91 4076.84C5171.74 4076.84 5176.01 4075.78 5179.7 4073.64C5183.44 4071.47 5186.35 4068.46 5188.43 4064.62C5190.57 4060.74 5191.63 4056.29 5191.63 4051.27C5191.63 4046.16 5190.54 4041.66 5188.36 4037.78C5186.23 4033.9 5183.27 4030.87 5179.49 4028.69C5175.7 4026.51 5171.37 4025.4 5166.49 4025.35C5162.23 4025.35 5158.08 4026.23 5154.06 4027.98C5150.08 4029.73 5146.98 4032.12 5144.76 4035.15L5117.41 4030.25L5124.3 3953.55H5213.22V3978.69H5149.66L5145.89 4015.12H5146.74C5149.3 4011.52 5153.16 4008.54 5158.32 4006.17C5163.48 4003.81 5169.26 4002.62 5175.65 4002.62C5184.41 4002.62 5192.22 4004.68 5199.09 4008.8C5205.95 4012.92 5211.38 4018.58 5215.35 4025.78C5219.33 4032.93 5221.29 4041.16 5221.25 4050.49C5221.29 4060.29 5219.02 4069 5214.43 4076.63C5209.88 4084.2 5203.52 4090.17 5195.32 4094.53C5187.18 4098.83 5177.71 4100.99 5166.91 4100.99ZM5299.73 4102.2C5287.51 4102.15 5277 4099.14 5268.19 4093.18C5259.43 4087.21 5252.69 4078.57 5247.95 4067.25C5243.26 4055.94 5240.94 4042.32 5240.99 4026.41C5240.99 4010.55 5243.34 3997.04 5248.02 3985.86C5252.76 3974.69 5259.5 3966.19 5268.26 3960.36C5277.07 3954.49 5287.56 3951.56 5299.73 3951.56C5311.9 3951.56 5322.36 3954.49 5331.12 3960.36C5339.93 3966.23 5346.7 3974.76 5351.43 3985.93C5356.17 3997.06 5358.51 4010.55 5358.46 4026.41C5358.46 4042.37 5356.1 4056.01 5351.36 4067.32C5346.67 4078.64 5339.95 4087.28 5331.19 4093.25C5322.43 4099.21 5311.94 4102.2 5299.73 4102.2ZM5299.73 4076.7C5308.06 4076.7 5314.71 4072.51 5319.68 4064.13C5324.66 4055.75 5327.12 4043.18 5327.07 4026.41C5327.07 4015.38 5325.93 4006.2 5323.66 3998.86C5321.44 3991.52 5318.26 3986 5314.14 3982.31C5310.07 3978.62 5305.27 3976.77 5299.73 3976.77C5291.44 3976.77 5284.81 3980.91 5279.84 3989.2C5274.87 3997.48 5272.36 4009.89 5272.31 4026.41C5272.31 4037.59 5273.43 4046.92 5275.65 4054.4C5277.92 4061.83 5281.12 4067.42 5285.24 4071.16C5289.36 4074.85 5294.19 4076.7 5299.73 4076.7ZM5378.19 4073.43V4049.21L5438.91 3953.55H5459.79V3987.07H5447.44L5409.16 4047.65V4048.79H5495.45V4073.43H5378.19ZM5448 4099V4066.05L5448.57 4055.32V3953.55H5477.41V4099H5448Z" fill="black"/>
<path id="510" d="M4438.37 4344.98C4423.32 4344.98 4409.89 4342.21 4398.1 4336.67C4386.38 4331.13 4377.08 4323.5 4370.19 4313.77C4363.3 4304.04 4359.71 4292.89 4359.43 4280.32H4404.17C4404.67 4288.77 4408.22 4295.62 4414.83 4300.88C4421.43 4306.13 4429.28 4308.76 4438.37 4308.76C4445.62 4308.76 4452.01 4307.16 4457.55 4303.97C4463.16 4300.7 4467.53 4296.19 4470.65 4290.44C4473.85 4284.61 4475.45 4277.94 4475.45 4270.41C4475.45 4262.74 4473.81 4255.99 4470.55 4250.17C4467.35 4244.34 4462.91 4239.8 4457.23 4236.53C4451.55 4233.26 4445.05 4231.6 4437.73 4231.52C4431.34 4231.52 4425.13 4232.84 4419.09 4235.47C4413.12 4238.09 4408.47 4241.68 4405.13 4246.23L4364.12 4238.88L4374.45 4123.82H4507.83V4161.53H4412.48L4406.84 4216.18H4408.12C4411.95 4210.79 4417.74 4206.31 4425.48 4202.76C4433.22 4199.21 4441.89 4197.43 4451.48 4197.43C4464.62 4197.43 4476.33 4200.52 4486.63 4206.7C4496.93 4212.88 4505.06 4221.37 4511.03 4232.16C4516.99 4242.89 4519.94 4255.25 4519.87 4269.24C4519.94 4283.94 4516.53 4297.01 4509.64 4308.44C4502.83 4319.81 4493.27 4328.75 4480.99 4335.29C4468.77 4341.75 4454.57 4344.98 4438.37 4344.98ZM4646.97 4123.82V4342H4600.84V4167.6H4599.56L4549.59 4198.92V4158.02L4603.61 4123.82H4646.97ZM4784.37 4346.79C4766.04 4346.72 4750.28 4342.21 4737.07 4333.26C4723.93 4324.32 4713.81 4311.35 4706.7 4294.38C4699.67 4277.4 4696.19 4256.99 4696.26 4233.12C4696.26 4209.33 4699.78 4189.05 4706.81 4172.29C4713.91 4155.53 4724.03 4142.78 4737.17 4134.05C4750.38 4125.24 4766.12 4120.84 4784.37 4120.84C4802.62 4120.84 4818.32 4125.24 4831.46 4134.05C4844.67 4142.85 4854.82 4155.64 4861.93 4172.4C4869.03 4189.09 4872.54 4209.33 4872.47 4233.12C4872.47 4257.06 4868.92 4277.51 4861.82 4294.49C4854.79 4311.46 4844.7 4324.42 4831.56 4333.37C4818.42 4342.32 4802.69 4346.79 4784.37 4346.79ZM4784.37 4308.55C4796.87 4308.55 4806.85 4302.26 4814.3 4289.69C4821.76 4277.12 4825.45 4258.26 4825.38 4233.12C4825.38 4216.57 4823.68 4202.8 4820.27 4191.79C4816.93 4180.78 4812.17 4172.5 4805.99 4166.96C4799.89 4161.42 4792.68 4158.65 4784.37 4158.65C4771.94 4158.65 4762 4164.87 4754.54 4177.3C4747.08 4189.73 4743.32 4208.34 4743.25 4233.12C4743.25 4249.88 4744.92 4263.88 4748.25 4275.1C4751.66 4286.25 4756.46 4294.63 4762.64 4300.24C4768.81 4305.78 4776.06 4308.55 4784.37 4308.55Z" fill="black"/>
<path id="505" d="M6675.37 4204.98C6660.32 4204.98 6646.89 4202.21 6635.1 4196.67C6623.38 4191.13 6614.08 4183.5 6607.19 4173.77C6600.3 4164.04 6596.71 4152.89 6596.43 4140.32H6641.17C6641.67 4148.77 6645.22 4155.62 6651.83 4160.88C6658.43 4166.13 6666.28 4168.76 6675.37 4168.76C6682.62 4168.76 6689.01 4167.16 6694.55 4163.97C6700.16 4160.7 6704.53 4156.19 6707.65 4150.44C6710.85 4144.61 6712.45 4137.94 6712.45 4130.41C6712.45 4122.74 6710.81 4115.99 6707.55 4110.17C6704.35 4104.34 6699.91 4099.8 6694.23 4096.53C6688.55 4093.26 6682.05 4091.6 6674.73 4091.52C6668.34 4091.52 6662.13 4092.84 6656.09 4095.47C6650.12 4098.09 6645.47 4101.68 6642.13 4106.23L6601.12 4098.88L6611.45 3983.82H6744.83V4021.53H6649.48L6643.84 4076.18H6645.12C6648.95 4070.79 6654.74 4066.31 6662.48 4062.76C6670.22 4059.21 6678.89 4057.43 6688.48 4057.43C6701.62 4057.43 6713.33 4060.52 6723.63 4066.7C6733.93 4072.88 6742.06 4081.37 6748.03 4092.16C6753.99 4102.89 6756.94 4115.25 6756.87 4129.24C6756.94 4143.94 6753.53 4157.01 6746.64 4168.44C6739.83 4179.81 6730.27 4188.75 6717.99 4195.29C6705.77 4201.75 6691.57 4204.98 6675.37 4204.98ZM6874.59 4206.79C6856.27 4206.72 6840.5 4202.21 6827.29 4193.26C6814.15 4184.32 6804.03 4171.35 6796.93 4154.38C6789.9 4137.4 6786.42 4116.99 6786.49 4093.12C6786.49 4069.33 6790 4049.05 6797.03 4032.29C6804.14 4015.53 6814.26 4002.78 6827.4 3994.05C6840.61 3985.24 6856.34 3980.84 6874.59 3980.84C6892.84 3980.84 6908.54 3985.24 6921.68 3994.05C6934.89 4002.85 6945.05 4015.64 6952.15 4032.4C6959.25 4049.09 6962.77 4069.33 6962.69 4093.12C6962.69 4117.06 6959.14 4137.51 6952.04 4154.49C6945.01 4171.46 6934.92 4184.42 6921.79 4193.37C6908.65 4202.32 6892.91 4206.79 6874.59 4206.79ZM6874.59 4168.55C6887.09 4168.55 6897.07 4162.26 6904.53 4149.69C6911.98 4137.12 6915.68 4118.26 6915.61 4093.12C6915.61 4076.57 6913.9 4062.8 6910.49 4051.79C6907.15 4040.78 6902.4 4032.5 6896.22 4026.96C6890.11 4021.42 6882.9 4018.65 6874.59 4018.65C6862.16 4018.65 6852.22 4024.87 6844.76 4037.3C6837.3 4049.73 6833.54 4068.34 6833.47 4093.12C6833.47 4109.88 6835.14 4123.88 6838.48 4135.1C6841.88 4146.25 6846.68 4154.63 6852.86 4160.24C6859.04 4165.78 6866.28 4168.55 6874.59 4168.55ZM7075.27 4204.98C7060.22 4204.98 7046.79 4202.21 7035 4196.67C7023.29 4191.13 7013.98 4183.5 7007.09 4173.77C7000.2 4164.04 6996.62 4152.89 6996.33 4140.32H7041.08C7041.57 4148.77 7045.13 4155.62 7051.73 4160.88C7058.34 4166.13 7066.18 4168.76 7075.27 4168.76C7082.52 4168.76 7088.91 4167.16 7094.45 4163.97C7100.06 4160.7 7104.43 4156.19 7107.55 4150.44C7110.75 4144.61 7112.35 4137.94 7112.35 4130.41C7112.35 4122.74 7110.71 4115.99 7107.45 4110.17C7104.25 4104.34 7099.81 4099.8 7094.13 4096.53C7088.45 4093.26 7081.95 4091.6 7074.64 4091.52C7068.24 4091.52 7062.03 4092.84 7055.99 4095.47C7050.03 4098.09 7045.37 4101.68 7042.04 4106.23L7001.02 4098.88L7011.35 3983.82H7144.73V4021.53H7049.39L7043.74 4076.18H7045.02C7048.85 4070.79 7054.64 4066.31 7062.38 4062.76C7070.13 4059.21 7078.79 4057.43 7088.38 4057.43C7101.52 4057.43 7113.24 4060.52 7123.53 4066.7C7133.83 4072.88 7141.96 4081.37 7147.93 4092.16C7153.9 4102.89 7156.84 4115.25 7156.77 4129.24C7156.84 4143.94 7153.44 4157.01 7146.55 4168.44C7139.73 4179.81 7130.18 4188.75 7117.89 4195.29C7105.67 4201.75 7091.47 4204.98 7075.27 4204.98Z" fill="black"/>
<path id="506" d="M6803.14 5454.49C6790.6 5454.49 6779.41 5452.18 6769.59 5447.56C6759.82 5442.94 6752.07 5436.58 6746.33 5428.47C6740.58 5420.37 6737.6 5411.07 6737.36 5400.6H6774.65C6775.06 5407.64 6778.02 5413.35 6783.52 5417.73C6789.03 5422.11 6795.57 5424.3 6803.14 5424.3C6809.18 5424.3 6814.51 5422.97 6819.12 5420.31C6823.8 5417.58 6827.44 5413.83 6830.04 5409.03C6832.71 5404.18 6834.04 5398.61 6834.04 5392.34C6834.04 5385.95 6832.68 5380.33 6829.95 5375.47C6827.29 5370.62 6823.59 5366.83 6818.86 5364.11C6814.12 5361.39 6808.71 5360 6802.61 5359.94C6797.28 5359.94 6792.11 5361.03 6787.07 5363.22C6782.1 5365.41 6778.23 5368.4 6775.44 5372.19L6741.26 5366.06L6749.88 5270.18H6861.03V5301.61H6781.57L6776.87 5347.15H6777.93C6781.13 5342.65 6785.95 5338.93 6792.4 5335.97C6798.85 5333.01 6806.07 5331.53 6814.06 5331.53C6825.01 5331.53 6834.78 5334.1 6843.36 5339.25C6851.94 5344.4 6858.72 5351.47 6863.69 5360.47C6868.66 5369.41 6871.12 5379.7 6871.06 5391.36C6871.12 5403.62 6868.28 5414.51 6862.54 5424.03C6856.85 5433.5 6848.89 5440.96 6838.65 5446.41C6828.47 5451.79 6816.64 5454.49 6803.14 5454.49ZM6969.16 5456C6953.89 5455.94 6940.75 5452.18 6929.74 5444.72C6918.79 5437.26 6910.36 5426.46 6904.44 5412.32C6898.58 5398.17 6895.68 5381.15 6895.74 5361.27C6895.74 5341.44 6898.67 5324.54 6904.53 5310.58C6910.45 5296.61 6918.88 5285.98 6929.83 5278.7C6940.84 5271.37 6953.95 5267.7 6969.16 5267.7C6984.37 5267.7 6997.45 5271.37 7008.4 5278.7C7019.41 5286.04 7027.87 5296.7 7033.79 5310.66C7039.71 5324.57 7042.64 5341.44 7042.58 5361.27C7042.58 5381.21 7039.62 5398.26 7033.7 5412.4C7027.84 5426.55 7019.44 5437.35 7008.49 5444.81C6997.54 5452.27 6984.43 5456 6969.16 5456ZM6969.16 5424.12C6979.58 5424.12 6987.89 5418.89 6994.11 5408.41C7000.32 5397.93 7003.4 5382.22 7003.34 5361.27C7003.34 5347.48 7001.92 5336 6999.08 5326.82C6996.3 5317.65 6992.33 5310.75 6987.18 5306.14C6982.09 5301.52 6976.08 5299.21 6969.16 5299.21C6958.8 5299.21 6950.52 5304.39 6944.3 5314.75C6938.09 5325.11 6934.95 5340.61 6934.89 5361.27C6934.89 5375.24 6936.28 5386.9 6939.06 5396.25C6941.9 5405.54 6945.9 5412.52 6951.05 5417.2C6956.2 5421.82 6962.23 5424.12 6969.16 5424.12ZM7139.77 5454.49C7130.42 5454.43 7121.39 5452.86 7112.69 5449.78C7104.05 5446.7 7096.3 5441.7 7089.43 5434.78C7082.57 5427.85 7077.12 5418.68 7073.1 5407.26C7069.13 5395.83 7067.15 5381.81 7067.15 5365.17C7067.21 5349.9 7068.95 5336.26 7072.39 5324.25C7075.88 5312.17 7080.85 5301.93 7087.3 5293.53C7093.81 5285.13 7101.59 5278.73 7110.65 5274.35C7119.71 5269.92 7129.86 5267.7 7141.1 5267.7C7153.23 5267.7 7163.95 5270.06 7173.24 5274.8C7182.53 5279.47 7189.99 5285.84 7195.61 5293.89C7201.29 5301.93 7204.73 5310.96 7205.91 5320.96H7168C7166.52 5314.63 7163.41 5309.66 7158.68 5306.05C7153.94 5302.44 7148.08 5300.63 7141.1 5300.63C7129.26 5300.63 7120.27 5305.78 7114.11 5316.08C7108.02 5326.38 7104.91 5340.38 7104.79 5358.07H7106.03C7108.76 5352.69 7112.43 5348.1 7117.04 5344.31C7121.72 5340.46 7127.01 5337.54 7132.93 5335.52C7138.91 5333.45 7145.21 5332.42 7151.84 5332.42C7162.61 5332.42 7172.2 5334.96 7180.61 5340.05C7189.01 5345.08 7195.64 5352.01 7200.49 5360.82C7205.35 5369.64 7207.77 5379.73 7207.77 5391.1C7207.77 5403.41 7204.9 5414.36 7199.16 5423.95C7193.48 5433.53 7185.52 5441.05 7175.28 5446.5C7165.1 5451.88 7153.26 5454.54 7139.77 5454.49ZM7139.59 5424.3C7145.51 5424.3 7150.81 5422.88 7155.48 5420.04C7160.16 5417.2 7163.83 5413.35 7166.49 5408.5C7169.15 5403.65 7170.49 5398.2 7170.49 5392.16C7170.49 5386.13 7169.15 5380.71 7166.49 5375.92C7163.89 5371.12 7160.28 5367.31 7155.66 5364.46C7151.04 5361.62 7145.78 5360.2 7139.86 5360.2C7135.42 5360.2 7131.31 5361.03 7127.52 5362.69C7123.79 5364.35 7120.5 5366.65 7117.66 5369.61C7114.88 5372.57 7112.69 5376.01 7111.09 5379.91C7109.5 5383.76 7108.7 5387.87 7108.7 5392.25C7108.7 5398.11 7110.03 5403.47 7112.69 5408.32C7115.41 5413.17 7119.08 5417.05 7123.7 5419.95C7128.38 5422.85 7133.67 5424.3 7139.59 5424.3Z" fill="black"/>
<path id="507" d="M6107.37 5615.98C6092.32 5615.98 6078.89 5613.21 6067.1 5607.67C6055.38 5602.13 6046.08 5594.5 6039.19 5584.77C6032.3 5575.04 6028.71 5563.89 6028.43 5551.32H6073.17C6073.67 5559.77 6077.22 5566.62 6083.83 5571.88C6090.43 5577.13 6098.28 5579.76 6107.37 5579.76C6114.62 5579.76 6121.01 5578.16 6126.55 5574.97C6132.16 5571.7 6136.53 5567.19 6139.65 5561.44C6142.85 5555.61 6144.45 5548.94 6144.45 5541.41C6144.45 5533.74 6142.81 5526.99 6139.55 5521.17C6136.35 5515.34 6131.91 5510.8 6126.23 5507.53C6120.55 5504.26 6114.05 5502.6 6106.73 5502.52C6100.34 5502.52 6094.13 5503.84 6088.09 5506.47C6082.12 5509.09 6077.47 5512.68 6074.13 5517.23L6033.12 5509.88L6043.45 5394.82H6176.83V5432.53H6081.48L6075.84 5487.18H6077.12C6080.95 5481.79 6086.74 5477.31 6094.48 5473.76C6102.22 5470.21 6110.89 5468.43 6120.48 5468.43C6133.62 5468.43 6145.33 5471.52 6155.63 5477.7C6165.93 5483.88 6174.06 5492.37 6180.03 5503.16C6185.99 5513.89 6188.94 5526.25 6188.87 5540.24C6188.94 5554.94 6185.53 5568.01 6178.64 5579.44C6171.83 5590.81 6162.27 5599.75 6149.99 5606.29C6137.77 5612.75 6123.57 5615.98 6107.37 5615.98ZM6306.59 5617.79C6288.27 5617.72 6272.5 5613.21 6259.29 5604.26C6246.15 5595.32 6236.03 5582.35 6228.93 5565.38C6221.9 5548.4 6218.42 5527.99 6218.49 5504.12C6218.49 5480.33 6222 5460.05 6229.03 5443.29C6236.14 5426.53 6246.26 5413.78 6259.4 5405.05C6272.61 5396.24 6288.34 5391.84 6306.59 5391.84C6324.84 5391.84 6340.54 5396.24 6353.68 5405.05C6366.89 5413.85 6377.05 5426.64 6384.15 5443.4C6391.25 5460.09 6394.77 5480.33 6394.69 5504.12C6394.69 5528.06 6391.14 5548.51 6384.04 5565.49C6377.01 5582.46 6366.92 5595.42 6353.79 5604.37C6340.65 5613.32 6324.91 5617.79 6306.59 5617.79ZM6306.59 5579.55C6319.09 5579.55 6329.07 5573.26 6336.53 5560.69C6343.98 5548.12 6347.68 5529.26 6347.61 5504.12C6347.61 5487.57 6345.9 5473.8 6342.49 5462.79C6339.15 5451.78 6334.4 5443.5 6328.22 5437.96C6322.11 5432.42 6314.9 5429.65 6306.59 5429.65C6294.16 5429.65 6284.22 5435.87 6276.76 5448.3C6269.3 5460.73 6265.54 5479.34 6265.47 5504.12C6265.47 5520.88 6267.14 5534.88 6270.48 5546.1C6273.88 5557.25 6278.68 5565.63 6284.86 5571.24C6291.04 5576.78 6298.28 5579.55 6306.59 5579.55ZM6430.36 5613L6520.8 5434.02V5432.53H6415.44V5394.82H6568.53V5433.06L6477.98 5613H6430.36Z" fill="black"/>
<path id="508" d="M5284.37 5615.98C5269.32 5615.98 5255.89 5613.21 5244.1 5607.67C5232.38 5602.13 5223.08 5594.5 5216.19 5584.77C5209.3 5575.04 5205.71 5563.89 5205.43 5551.32H5250.17C5250.67 5559.77 5254.22 5566.62 5260.83 5571.88C5267.43 5577.13 5275.28 5579.76 5284.37 5579.76C5291.62 5579.76 5298.01 5578.16 5303.55 5574.97C5309.16 5571.7 5313.53 5567.19 5316.65 5561.44C5319.85 5555.61 5321.45 5548.94 5321.45 5541.41C5321.45 5533.74 5319.81 5526.99 5316.55 5521.17C5313.35 5515.34 5308.91 5510.8 5303.23 5507.53C5297.55 5504.26 5291.05 5502.6 5283.73 5502.52C5277.34 5502.52 5271.13 5503.84 5265.09 5506.47C5259.12 5509.09 5254.47 5512.68 5251.13 5517.23L5210.12 5509.88L5220.45 5394.82H5353.83V5432.53H5258.48L5252.84 5487.18H5254.12C5257.95 5481.79 5263.74 5477.31 5271.48 5473.76C5279.22 5470.21 5287.89 5468.43 5297.48 5468.43C5310.62 5468.43 5322.33 5471.52 5332.63 5477.7C5342.93 5483.88 5351.06 5492.37 5357.03 5503.16C5362.99 5513.89 5365.94 5526.25 5365.87 5540.24C5365.94 5554.94 5362.53 5568.01 5355.64 5579.44C5348.83 5590.81 5339.27 5599.75 5326.99 5606.29C5314.77 5612.75 5300.57 5615.98 5284.37 5615.98ZM5483.59 5617.79C5465.27 5617.72 5449.5 5613.21 5436.29 5604.26C5423.15 5595.32 5413.03 5582.35 5405.93 5565.38C5398.9 5548.4 5395.42 5527.99 5395.49 5504.12C5395.49 5480.33 5399 5460.05 5406.03 5443.29C5413.14 5426.53 5423.26 5413.78 5436.4 5405.05C5449.61 5396.24 5465.34 5391.84 5483.59 5391.84C5501.84 5391.84 5517.54 5396.24 5530.68 5405.05C5543.89 5413.85 5554.05 5426.64 5561.15 5443.4C5568.25 5460.09 5571.77 5480.33 5571.69 5504.12C5571.69 5528.06 5568.14 5548.51 5561.04 5565.49C5554.01 5582.46 5543.92 5595.42 5530.79 5604.37C5517.65 5613.32 5501.91 5617.79 5483.59 5617.79ZM5483.59 5579.55C5496.09 5579.55 5506.07 5573.26 5513.53 5560.69C5520.98 5548.12 5524.68 5529.26 5524.61 5504.12C5524.61 5487.57 5522.9 5473.8 5519.49 5462.79C5516.15 5451.78 5511.4 5443.5 5505.22 5437.96C5499.11 5432.42 5491.9 5429.65 5483.59 5429.65C5471.16 5429.65 5461.22 5435.87 5453.76 5448.3C5446.3 5460.73 5442.54 5479.34 5442.47 5504.12C5442.47 5520.88 5444.14 5534.88 5447.48 5546.1C5450.88 5557.25 5455.68 5565.63 5461.86 5571.24C5468.04 5576.78 5475.28 5579.55 5483.59 5579.55ZM5685.98 5615.98C5669.57 5615.98 5654.98 5613.32 5642.19 5607.99C5629.48 5602.6 5619.5 5595.24 5612.26 5585.94C5605.01 5576.64 5601.39 5566.09 5601.39 5554.3C5601.39 5545.21 5603.45 5536.86 5607.57 5529.26C5611.76 5521.59 5617.44 5515.24 5624.62 5510.19C5631.79 5505.08 5639.81 5501.81 5648.69 5500.39V5498.9C5637.04 5496.56 5627.6 5490.91 5620.35 5481.96C5613.11 5472.94 5609.49 5462.47 5609.49 5450.54C5609.49 5439.24 5612.79 5429.19 5619.4 5420.39C5626 5411.51 5635.06 5404.55 5646.56 5399.51C5658.14 5394.39 5671.28 5391.84 5685.98 5391.84C5700.68 5391.84 5713.78 5394.39 5725.29 5399.51C5736.87 5404.62 5745.96 5411.62 5752.56 5420.49C5759.17 5429.3 5762.51 5439.31 5762.58 5450.54C5762.51 5462.54 5758.81 5473.01 5751.5 5481.96C5744.18 5490.91 5734.81 5496.56 5723.37 5498.9V5500.39C5732.11 5501.81 5740.03 5505.08 5747.13 5510.19C5754.3 5515.24 5759.98 5521.59 5764.18 5529.26C5768.44 5536.86 5770.6 5545.21 5770.67 5554.3C5770.6 5566.09 5766.94 5576.64 5759.7 5585.94C5752.46 5595.24 5742.44 5602.6 5729.66 5607.99C5716.94 5613.32 5702.39 5615.98 5685.98 5615.98ZM5685.98 5582.11C5693.29 5582.11 5699.69 5580.79 5705.16 5578.16C5710.62 5575.46 5714.89 5571.77 5717.94 5567.08C5721.06 5562.33 5722.63 5556.86 5722.63 5550.68C5722.63 5544.36 5721.03 5538.78 5717.83 5533.95C5714.64 5529.05 5710.3 5525.22 5704.84 5522.45C5699.37 5519.61 5693.08 5518.18 5685.98 5518.18C5678.95 5518.18 5672.66 5519.61 5667.12 5522.45C5661.58 5525.22 5657.21 5529.05 5654.02 5533.95C5650.89 5538.78 5649.33 5544.36 5649.33 5550.68C5649.33 5556.86 5650.86 5562.33 5653.91 5567.08C5656.97 5571.77 5661.26 5575.46 5666.8 5578.16C5672.34 5580.79 5678.73 5582.11 5685.98 5582.11ZM5685.98 5484.63C5692.09 5484.63 5697.52 5483.38 5702.28 5480.9C5707.04 5478.41 5710.77 5474.97 5713.46 5470.56C5716.16 5466.16 5717.51 5461.08 5717.51 5455.33C5717.51 5449.65 5716.16 5444.68 5713.46 5440.41C5710.77 5436.08 5707.07 5432.71 5702.39 5430.29C5697.7 5427.81 5692.23 5426.57 5685.98 5426.57C5679.8 5426.57 5674.33 5427.81 5669.57 5430.29C5664.81 5432.71 5661.09 5436.08 5658.39 5440.41C5655.76 5444.68 5654.44 5449.65 5654.44 5455.33C5654.44 5461.08 5655.79 5466.16 5658.49 5470.56C5661.19 5474.97 5664.92 5478.41 5669.68 5480.9C5674.44 5483.38 5679.87 5484.63 5685.98 5484.63Z" fill="black"/>
<path id="509" d="M4410.37 5615.98C4395.32 5615.98 4381.89 5613.21 4370.1 5607.67C4358.38 5602.13 4349.08 5594.5 4342.19 5584.77C4335.3 5575.04 4331.71 5563.89 4331.43 5551.32H4376.17C4376.67 5559.77 4380.22 5566.62 4386.83 5571.88C4393.43 5577.13 4401.28 5579.76 4410.37 5579.76C4417.62 5579.76 4424.01 5578.16 4429.55 5574.97C4435.16 5571.7 4439.53 5567.19 4442.65 5561.44C4445.85 5555.61 4447.45 5548.94 4447.45 5541.41C4447.45 5533.74 4445.81 5526.99 4442.55 5521.17C4439.35 5515.34 4434.91 5510.8 4429.23 5507.53C4423.55 5504.26 4417.05 5502.6 4409.73 5502.52C4403.34 5502.52 4397.13 5503.84 4391.09 5506.47C4385.12 5509.09 4380.47 5512.68 4377.13 5517.23L4336.12 5509.88L4346.45 5394.82H4479.83V5432.53H4384.48L4378.84 5487.18H4380.12C4383.95 5481.79 4389.74 5477.31 4397.48 5473.76C4405.22 5470.21 4413.89 5468.43 4423.48 5468.43C4436.62 5468.43 4448.33 5471.52 4458.63 5477.7C4468.93 5483.88 4477.06 5492.37 4483.03 5503.16C4488.99 5513.89 4491.94 5526.25 4491.87 5540.24C4491.94 5554.94 4488.53 5568.01 4481.64 5579.44C4474.83 5590.81 4465.27 5599.75 4452.99 5606.29C4440.77 5612.75 4426.57 5615.98 4410.37 5615.98ZM4609.59 5617.79C4591.27 5617.72 4575.5 5613.21 4562.29 5604.26C4549.15 5595.32 4539.03 5582.35 4531.93 5565.38C4524.9 5548.4 4521.42 5527.99 4521.49 5504.12C4521.49 5480.33 4525 5460.05 4532.03 5443.29C4539.14 5426.53 4549.26 5413.78 4562.4 5405.05C4575.61 5396.24 4591.34 5391.84 4609.59 5391.84C4627.84 5391.84 4643.54 5396.24 4656.68 5405.05C4669.89 5413.85 4680.05 5426.64 4687.15 5443.4C4694.25 5460.09 4697.77 5480.33 4697.69 5504.12C4697.69 5528.06 4694.14 5548.51 4687.04 5565.49C4680.01 5582.46 4669.92 5595.42 4656.79 5604.37C4643.65 5613.32 4627.91 5617.79 4609.59 5617.79ZM4609.59 5579.55C4622.09 5579.55 4632.07 5573.26 4639.53 5560.69C4646.98 5548.12 4650.68 5529.26 4650.61 5504.12C4650.61 5487.57 4648.9 5473.8 4645.49 5462.79C4642.15 5451.78 4637.4 5443.5 4631.22 5437.96C4625.11 5432.42 4617.9 5429.65 4609.59 5429.65C4597.16 5429.65 4587.22 5435.87 4579.76 5448.3C4572.3 5460.73 4568.54 5479.34 4568.47 5504.12C4568.47 5520.88 4570.14 5534.88 4573.48 5546.1C4576.88 5557.25 4581.68 5565.63 4587.86 5571.24C4594.04 5576.78 4601.28 5579.55 4609.59 5579.55ZM4809.53 5391.84C4820.75 5391.84 4831.55 5393.72 4841.92 5397.48C4852.36 5401.25 4861.66 5407.25 4869.83 5415.49C4878.07 5423.72 4884.56 5434.66 4889.32 5448.3C4894.15 5461.86 4896.6 5478.52 4896.67 5498.26C4896.67 5516.8 4894.58 5533.35 4890.39 5547.91C4886.27 5562.4 4880.34 5574.72 4872.6 5584.88C4864.86 5595.03 4855.52 5602.77 4844.58 5608.1C4833.64 5613.36 4821.43 5615.98 4807.93 5615.98C4793.37 5615.98 4780.52 5613.18 4769.37 5607.57C4758.21 5601.88 4749.23 5594.18 4742.41 5584.45C4735.67 5574.65 4731.58 5563.64 4730.16 5551.42H4775.65C4777.43 5559.38 4781.16 5565.56 4786.84 5569.96C4792.52 5574.29 4799.55 5576.46 4807.93 5576.46C4822.14 5576.46 4832.93 5570.28 4840.32 5557.92C4847.7 5545.49 4851.43 5528.48 4851.5 5506.89H4850.01C4846.74 5513.28 4842.34 5518.79 4836.8 5523.4C4831.26 5527.95 4824.91 5531.47 4817.73 5533.95C4810.63 5536.44 4803.07 5537.68 4795.04 5537.68C4782.19 5537.68 4770.71 5534.66 4760.63 5528.62C4750.54 5522.59 4742.59 5514.28 4736.77 5503.7C4730.94 5493.11 4728.03 5481.04 4728.03 5467.47C4727.96 5452.84 4731.33 5439.81 4738.15 5428.38C4744.97 5416.94 4754.49 5407.99 4766.7 5401.53C4778.99 5395 4793.26 5391.76 4809.53 5391.84ZM4809.85 5428.06C4802.68 5428.06 4796.28 5429.76 4790.67 5433.17C4785.13 5436.58 4780.73 5441.16 4777.46 5446.91C4774.27 5452.67 4772.7 5459.09 4772.77 5466.2C4772.77 5473.37 4774.34 5479.83 4777.46 5485.59C4780.66 5491.27 4784.99 5495.81 4790.46 5499.22C4796 5502.56 4802.32 5504.23 4809.42 5504.23C4814.75 5504.23 4819.69 5503.23 4824.23 5501.25C4828.78 5499.26 4832.72 5496.52 4836.06 5493.04C4839.46 5489.49 4842.13 5485.41 4844.05 5480.79C4845.96 5476.17 4846.92 5471.27 4846.92 5466.09C4846.85 5459.2 4845.22 5452.88 4842.02 5447.13C4838.83 5441.37 4834.42 5436.76 4828.81 5433.28C4823.2 5429.8 4816.88 5428.06 4809.85 5428.06Z" fill="black"/>
<path id="511" d="M3540.37 5615.98C3525.32 5615.98 3511.89 5613.21 3500.1 5607.67C3488.38 5602.13 3479.08 5594.5 3472.19 5584.77C3465.3 5575.04 3461.71 5563.89 3461.43 5551.32H3506.17C3506.67 5559.77 3510.22 5566.62 3516.83 5571.88C3523.43 5577.13 3531.28 5579.76 3540.37 5579.76C3547.62 5579.76 3554.01 5578.16 3559.55 5574.97C3565.16 5571.7 3569.53 5567.19 3572.65 5561.44C3575.85 5555.61 3577.45 5548.94 3577.45 5541.41C3577.45 5533.74 3575.81 5526.99 3572.55 5521.17C3569.35 5515.34 3564.91 5510.8 3559.23 5507.53C3553.55 5504.26 3547.05 5502.6 3539.73 5502.52C3533.34 5502.52 3527.13 5503.84 3521.09 5506.47C3515.12 5509.09 3510.47 5512.68 3507.13 5517.23L3466.12 5509.88L3476.45 5394.82H3609.83V5432.53H3514.48L3508.84 5487.18H3510.12C3513.95 5481.79 3519.74 5477.31 3527.48 5473.76C3535.22 5470.21 3543.89 5468.43 3553.48 5468.43C3566.62 5468.43 3578.33 5471.52 3588.63 5477.7C3598.93 5483.88 3607.06 5492.37 3613.03 5503.16C3618.99 5513.89 3621.94 5526.25 3621.87 5540.24C3621.94 5554.94 3618.53 5568.01 3611.64 5579.44C3604.83 5590.81 3595.27 5599.75 3582.99 5606.29C3570.77 5612.75 3556.57 5615.98 3540.37 5615.98ZM3748.97 5394.82V5613H3702.84V5438.6H3701.56L3651.59 5469.92V5429.02L3705.61 5394.82H3748.97ZM3895.74 5394.82V5613H3849.61V5438.6H3848.34L3798.37 5469.92V5429.02L3852.38 5394.82H3895.74Z" fill="black"/>
<path id="512" d="M2477.37 5615.98C2462.32 5615.98 2448.89 5613.21 2437.1 5607.67C2425.38 5602.13 2416.08 5594.5 2409.19 5584.77C2402.3 5575.04 2398.71 5563.89 2398.43 5551.32H2443.17C2443.67 5559.77 2447.22 5566.62 2453.83 5571.88C2460.43 5577.13 2468.28 5579.76 2477.37 5579.76C2484.62 5579.76 2491.01 5578.16 2496.55 5574.97C2502.16 5571.7 2506.53 5567.19 2509.65 5561.44C2512.85 5555.61 2514.45 5548.94 2514.45 5541.41C2514.45 5533.74 2512.81 5526.99 2509.55 5521.17C2506.35 5515.34 2501.91 5510.8 2496.23 5507.53C2490.55 5504.26 2484.05 5502.6 2476.73 5502.52C2470.34 5502.52 2464.13 5503.84 2458.09 5506.47C2452.12 5509.09 2447.47 5512.68 2444.13 5517.23L2403.12 5509.88L2413.45 5394.82H2546.83V5432.53H2451.48L2445.84 5487.18H2447.12C2450.95 5481.79 2456.74 5477.31 2464.48 5473.76C2472.22 5470.21 2480.89 5468.43 2490.48 5468.43C2503.62 5468.43 2515.33 5471.52 2525.63 5477.7C2535.93 5483.88 2544.06 5492.37 2550.03 5503.16C2555.99 5513.89 2558.94 5526.25 2558.87 5540.24C2558.94 5554.94 2555.53 5568.01 2548.64 5579.44C2541.83 5590.81 2532.27 5599.75 2519.99 5606.29C2507.77 5612.75 2493.57 5615.98 2477.37 5615.98ZM2685.97 5394.82V5613H2639.84V5438.6H2638.56L2588.59 5469.92V5429.02L2642.61 5394.82H2685.97ZM2737.82 5613V5579.76L2815.48 5507.85C2822.09 5501.46 2827.63 5495.71 2832.1 5490.59C2836.65 5485.48 2840.09 5480.47 2842.44 5475.57C2844.78 5470.6 2845.95 5465.24 2845.95 5459.48C2845.95 5453.09 2844.5 5447.59 2841.59 5442.97C2838.67 5438.28 2834.7 5434.7 2829.65 5432.21C2824.61 5429.65 2818.89 5428.38 2812.5 5428.38C2805.83 5428.38 2800 5429.73 2795.03 5432.42C2790.06 5435.12 2786.22 5438.99 2783.52 5444.04C2780.83 5449.08 2779.48 5455.08 2779.48 5462.04H2735.69C2735.69 5447.77 2738.92 5435.37 2745.39 5424.86C2751.85 5414.35 2760.9 5406.22 2772.55 5400.46C2784.2 5394.71 2797.62 5391.84 2812.82 5391.84C2828.45 5391.84 2842.05 5394.61 2853.62 5400.14C2865.27 5405.61 2874.33 5413.21 2880.79 5422.94C2887.25 5432.67 2890.48 5443.82 2890.48 5456.39C2890.48 5464.63 2888.85 5472.77 2885.58 5480.79C2882.39 5488.82 2876.67 5497.73 2868.43 5507.53C2860.19 5517.26 2848.58 5528.94 2833.6 5542.58L2801.74 5573.8V5575.29H2893.36V5613H2737.82Z" fill="black"/>
<path id="513" d="M1397.37 5615.98C1382.32 5615.98 1368.89 5613.21 1357.1 5607.67C1345.38 5602.13 1336.08 5594.5 1329.19 5584.77C1322.3 5575.04 1318.71 5563.89 1318.43 5551.32H1363.17C1363.67 5559.77 1367.22 5566.62 1373.83 5571.88C1380.43 5577.13 1388.28 5579.76 1397.37 5579.76C1404.62 5579.76 1411.01 5578.16 1416.55 5574.97C1422.16 5571.7 1426.53 5567.19 1429.65 5561.44C1432.85 5555.61 1434.45 5548.94 1434.45 5541.41C1434.45 5533.74 1432.81 5526.99 1429.55 5521.17C1426.35 5515.34 1421.91 5510.8 1416.23 5507.53C1410.55 5504.26 1404.05 5502.6 1396.73 5502.52C1390.34 5502.52 1384.13 5503.84 1378.09 5506.47C1372.12 5509.09 1367.47 5512.68 1364.13 5517.23L1323.12 5509.88L1333.45 5394.82H1466.83V5432.53H1371.48L1365.84 5487.18H1367.12C1370.95 5481.79 1376.74 5477.31 1384.48 5473.76C1392.22 5470.21 1400.89 5468.43 1410.48 5468.43C1423.62 5468.43 1435.33 5471.52 1445.63 5477.7C1455.93 5483.88 1464.06 5492.37 1470.03 5503.16C1475.99 5513.89 1478.94 5526.25 1478.87 5540.24C1478.94 5554.94 1475.53 5568.01 1468.64 5579.44C1461.83 5590.81 1452.27 5599.75 1439.99 5606.29C1427.77 5612.75 1413.57 5615.98 1397.37 5615.98ZM1605.97 5394.82V5613H1559.84V5438.6H1558.56L1508.59 5469.92V5429.02L1562.61 5394.82H1605.97ZM1738.47 5615.98C1722.56 5615.98 1708.39 5613.25 1695.96 5607.78C1683.6 5602.24 1673.84 5594.64 1666.66 5584.98C1659.56 5575.25 1655.9 5564.03 1655.69 5551.32H1702.14C1702.42 5556.64 1704.16 5561.33 1707.36 5565.38C1710.63 5569.36 1714.96 5572.45 1720.36 5574.65C1725.75 5576.85 1731.83 5577.95 1738.57 5577.95C1745.61 5577.95 1751.82 5576.71 1757.22 5574.22C1762.62 5571.74 1766.84 5568.29 1769.9 5563.89C1772.95 5559.48 1774.48 5554.41 1774.48 5548.65C1774.48 5542.83 1772.84 5537.68 1769.58 5533.21C1766.38 5528.66 1761.76 5525.11 1755.73 5522.55C1749.76 5520 1742.66 5518.72 1734.42 5518.72H1714.07V5484.84H1734.42C1741.38 5484.84 1747.52 5483.63 1752.85 5481.22C1758.25 5478.8 1762.44 5475.46 1765.42 5471.2C1768.4 5466.87 1769.9 5461.83 1769.9 5456.08C1769.9 5450.61 1768.58 5445.81 1765.95 5441.69C1763.4 5437.5 1759.77 5434.24 1755.09 5431.89C1750.47 5429.55 1745.07 5428.38 1738.89 5428.38C1732.64 5428.38 1726.93 5429.51 1721.74 5431.79C1716.56 5433.99 1712.4 5437.15 1709.28 5441.27C1706.15 5445.39 1704.48 5450.22 1704.27 5455.76H1660.06C1660.27 5443.18 1663.86 5432.11 1670.82 5422.52C1677.78 5412.93 1687.15 5405.44 1698.94 5400.04C1710.8 5394.57 1724.19 5391.84 1739.11 5391.84C1754.16 5391.84 1767.34 5394.57 1778.63 5400.04C1789.92 5405.51 1798.69 5412.89 1804.94 5422.2C1811.27 5431.43 1814.39 5441.8 1814.32 5453.31C1814.39 5465.52 1810.59 5475.71 1802.92 5483.88C1795.32 5492.05 1785.41 5497.23 1773.2 5499.43V5501.14C1789.25 5503.2 1801.46 5508.77 1809.85 5517.87C1818.3 5526.88 1822.49 5538.18 1822.42 5551.74C1822.49 5564.17 1818.9 5575.22 1811.66 5584.88C1804.48 5594.53 1794.58 5602.13 1781.93 5607.67C1769.29 5613.21 1754.8 5615.98 1738.47 5615.98Z" fill="black"/>
<path id="514" d="M1389.37 4259.98C1374.32 4259.98 1360.89 4257.21 1349.1 4251.67C1337.38 4246.13 1328.08 4238.5 1321.19 4228.77C1314.3 4219.04 1310.71 4207.89 1310.43 4195.32H1355.17C1355.67 4203.77 1359.22 4210.62 1365.83 4215.88C1372.43 4221.13 1380.28 4223.76 1389.37 4223.76C1396.62 4223.76 1403.01 4222.16 1408.55 4218.97C1414.16 4215.7 1418.53 4211.19 1421.65 4205.44C1424.85 4199.61 1426.45 4192.94 1426.45 4185.41C1426.45 4177.74 1424.81 4170.99 1421.55 4165.17C1418.35 4159.34 1413.91 4154.8 1408.23 4151.53C1402.55 4148.26 1396.05 4146.6 1388.73 4146.52C1382.34 4146.52 1376.13 4147.84 1370.09 4150.47C1364.12 4153.09 1359.47 4156.68 1356.13 4161.23L1315.12 4153.88L1325.45 4038.82H1458.83V4076.53H1363.48L1357.84 4131.18H1359.12C1362.95 4125.79 1368.74 4121.31 1376.48 4117.76C1384.22 4114.21 1392.89 4112.43 1402.48 4112.43C1415.62 4112.43 1427.33 4115.52 1437.63 4121.7C1447.93 4127.88 1456.06 4136.37 1462.03 4147.16C1467.99 4157.89 1470.94 4170.25 1470.87 4184.24C1470.94 4198.94 1467.53 4212.01 1460.64 4223.44C1453.83 4234.81 1444.27 4243.75 1431.99 4250.29C1419.77 4256.75 1405.57 4259.98 1389.37 4259.98ZM1597.97 4038.82V4257H1551.84V4082.6H1550.56L1500.59 4113.92V4073.02L1554.61 4038.82H1597.97ZM1646.52 4218.65V4182.32L1737.61 4038.82H1768.93V4089.1H1750.39L1692.97 4179.98V4181.68H1822.41V4218.65H1646.52ZM1751.24 4257V4207.57L1752.09 4191.48V4038.82H1795.35V4257H1751.24Z" fill="black"/>
<path id="517" d="M1435.37 3090.98C1420.32 3090.98 1406.89 3088.21 1395.1 3082.67C1383.38 3077.13 1374.08 3069.5 1367.19 3059.77C1360.3 3050.04 1356.71 3038.89 1356.43 3026.32H1401.17C1401.67 3034.77 1405.22 3041.62 1411.83 3046.88C1418.43 3052.13 1426.28 3054.76 1435.37 3054.76C1442.62 3054.76 1449.01 3053.16 1454.55 3049.97C1460.16 3046.7 1464.53 3042.19 1467.65 3036.44C1470.85 3030.61 1472.45 3023.94 1472.45 3016.41C1472.45 3008.74 1470.81 3001.99 1467.55 2996.17C1464.35 2990.34 1459.91 2985.8 1454.23 2982.53C1448.55 2979.26 1442.05 2977.6 1434.73 2977.52C1428.34 2977.52 1422.13 2978.84 1416.09 2981.47C1410.12 2984.09 1405.47 2987.68 1402.13 2992.23L1361.12 2984.88L1371.45 2869.82H1504.83V2907.53H1409.48L1403.84 2962.18H1405.12C1408.95 2956.79 1414.74 2952.31 1422.48 2948.76C1430.22 2945.21 1438.89 2943.43 1448.48 2943.43C1461.62 2943.43 1473.33 2946.52 1483.63 2952.7C1493.93 2958.88 1502.06 2967.37 1508.03 2978.16C1513.99 2988.89 1516.94 3001.25 1516.87 3015.24C1516.94 3029.94 1513.53 3043.01 1506.64 3054.44C1499.83 3065.81 1490.27 3074.75 1477.99 3081.29C1465.77 3087.75 1451.57 3090.98 1435.37 3090.98ZM1643.97 2869.82V3088H1597.84V2913.6H1596.56L1546.59 2944.92V2904.02L1600.61 2869.82H1643.97ZM1704.45 3088L1794.9 2909.02V2907.53H1689.54V2869.82H1842.63V2908.06L1752.07 3088H1704.45Z" fill="black"/>
<path id="518" d="M2512.37 2944.98C2497.32 2944.98 2483.89 2942.21 2472.1 2936.67C2460.38 2931.13 2451.08 2923.5 2444.19 2913.77C2437.3 2904.04 2433.71 2892.89 2433.43 2880.32H2478.17C2478.67 2888.77 2482.22 2895.62 2488.83 2900.88C2495.43 2906.13 2503.28 2908.76 2512.37 2908.76C2519.62 2908.76 2526.01 2907.16 2531.55 2903.97C2537.16 2900.7 2541.53 2896.19 2544.65 2890.44C2547.85 2884.61 2549.45 2877.94 2549.45 2870.41C2549.45 2862.74 2547.81 2855.99 2544.55 2850.17C2541.35 2844.34 2536.91 2839.8 2531.23 2836.53C2525.55 2833.26 2519.05 2831.6 2511.73 2831.52C2505.34 2831.52 2499.13 2832.84 2493.09 2835.47C2487.12 2838.09 2482.47 2841.68 2479.13 2846.23L2438.12 2838.88L2448.45 2723.82H2581.83V2761.53H2486.48L2480.84 2816.18H2482.12C2485.95 2810.79 2491.74 2806.31 2499.48 2802.76C2507.22 2799.21 2515.89 2797.43 2525.48 2797.43C2538.62 2797.43 2550.33 2800.52 2560.63 2806.7C2570.93 2812.88 2579.06 2821.37 2585.03 2832.16C2590.99 2842.89 2593.94 2855.25 2593.87 2869.24C2593.94 2883.94 2590.53 2897.01 2583.64 2908.44C2576.83 2919.81 2567.27 2928.75 2554.99 2935.29C2542.77 2941.75 2528.57 2944.98 2512.37 2944.98ZM2720.97 2723.82V2942H2674.84V2767.6H2673.56L2623.59 2798.92V2758.02L2677.61 2723.82H2720.97ZM2854.21 2944.98C2837.81 2944.98 2823.21 2942.32 2810.43 2936.99C2797.71 2931.6 2787.74 2924.24 2780.49 2914.94C2773.25 2905.64 2769.63 2895.09 2769.63 2883.3C2769.63 2874.21 2771.69 2865.86 2775.8 2858.26C2779.99 2850.59 2785.68 2844.24 2792.85 2839.19C2800.02 2834.08 2808.05 2830.81 2816.93 2829.39V2827.9C2805.28 2825.56 2795.83 2819.91 2788.59 2810.96C2781.34 2801.94 2777.72 2791.47 2777.72 2779.54C2777.72 2768.24 2781.02 2758.19 2787.63 2749.39C2794.23 2740.51 2803.29 2733.55 2814.8 2728.51C2826.37 2723.39 2839.51 2720.84 2854.21 2720.84C2868.92 2720.84 2882.02 2723.39 2893.52 2728.51C2905.1 2733.62 2914.19 2740.62 2920.8 2749.49C2927.4 2758.3 2930.74 2768.31 2930.81 2779.54C2930.74 2791.54 2927.05 2802.01 2919.73 2810.96C2912.42 2819.91 2903.04 2825.56 2891.61 2827.9V2829.39C2900.34 2830.81 2908.26 2834.08 2915.36 2839.19C2922.54 2844.24 2928.22 2850.59 2932.41 2858.26C2936.67 2865.86 2938.84 2874.21 2938.91 2883.3C2938.84 2895.09 2935.18 2905.64 2927.94 2914.94C2920.69 2924.24 2910.68 2931.6 2897.89 2936.99C2885.18 2942.32 2870.62 2944.98 2854.21 2944.98ZM2854.21 2911.11C2861.53 2911.11 2867.92 2909.79 2873.39 2907.16C2878.86 2904.46 2883.12 2900.77 2886.17 2896.08C2889.3 2891.33 2890.86 2885.86 2890.86 2879.68C2890.86 2873.36 2889.26 2867.78 2886.07 2862.95C2882.87 2858.05 2878.54 2854.22 2873.07 2851.45C2867.6 2848.61 2861.32 2847.18 2854.21 2847.18C2847.18 2847.18 2840.9 2848.61 2835.36 2851.45C2829.82 2854.22 2825.45 2858.05 2822.25 2862.95C2819.13 2867.78 2817.57 2873.36 2817.57 2879.68C2817.57 2885.86 2819.09 2891.33 2822.15 2896.08C2825.2 2900.77 2829.5 2904.46 2835.04 2907.16C2840.58 2909.79 2846.97 2911.11 2854.21 2911.11ZM2854.21 2813.63C2860.32 2813.63 2865.75 2812.38 2870.51 2809.9C2875.27 2807.41 2879 2803.97 2881.7 2799.56C2884.4 2795.16 2885.75 2790.08 2885.75 2784.33C2885.75 2778.65 2884.4 2773.68 2881.7 2769.41C2879 2765.08 2875.31 2761.71 2870.62 2759.29C2865.93 2756.81 2860.46 2755.57 2854.21 2755.57C2848.03 2755.57 2842.57 2756.81 2837.81 2759.29C2833.05 2761.71 2829.32 2765.08 2826.62 2769.41C2823.99 2773.68 2822.68 2778.65 2822.68 2784.33C2822.68 2790.08 2824.03 2795.16 2826.73 2799.56C2829.43 2803.97 2833.16 2807.41 2837.91 2809.9C2842.67 2812.38 2848.11 2813.63 2854.21 2813.63Z" fill="black"/>
<path id="wc" d="M2801.59 4426L2771.91 4316.91H2802.52L2819.42 4390.2H2820.41L2838.03 4316.91H2868.07L2885.97 4389.78H2886.89L2903.51 4316.91H2934.05L2904.43 4426H2872.4L2853.65 4357.39H2852.3L2833.55 4426H2801.59ZM2996.75 4428.13C2985.57 4428.13 2975.96 4425.76 2967.91 4421.03C2959.91 4416.25 2953.75 4409.62 2949.45 4401.14C2945.18 4392.67 2943.05 4382.91 2943.05 4371.88C2943.05 4360.71 2945.21 4350.91 2949.52 4342.48C2953.87 4334 2960.05 4327.4 2968.05 4322.66C2976.06 4317.88 2985.57 4315.49 2996.6 4315.49C3006.12 4315.49 3014.45 4317.22 3021.6 4320.67C3028.75 4324.13 3034.41 4328.98 3038.58 4335.23C3042.75 4341.48 3045.04 4348.82 3045.47 4357.25H3016.92C3016.11 4351.8 3013.98 4347.43 3010.52 4344.11C3007.12 4340.75 3002.64 4339.07 2997.1 4339.07C2992.41 4339.07 2988.32 4340.35 2984.81 4342.9C2981.36 4345.41 2978.66 4349.08 2976.72 4353.91C2974.78 4358.74 2973.81 4364.59 2973.81 4371.45C2973.81 4378.41 2974.75 4384.33 2976.65 4389.21C2978.59 4394.09 2981.31 4397.8 2984.81 4400.36C2988.32 4402.92 2992.41 4404.2 2997.1 4404.2C3000.56 4404.2 3003.66 4403.49 3006.41 4402.07C3009.2 4400.64 3011.5 4398.59 3013.29 4395.89C3015.14 4393.14 3016.35 4389.85 3016.92 4386.01H3045.47C3044.99 4394.35 3042.72 4401.69 3038.65 4408.03C3034.63 4414.33 3029.06 4419.25 3021.96 4422.8C3014.86 4426.36 3006.45 4428.13 2996.75 4428.13Z" fill="black"/>
</g>
<defs>
<clipPath id="clip0_144_33">
<rect width="9395" height="7879" fill="white"/>
</clipPath>
</defs>
</svg>
