<svg width="5492" height="3898" viewBox="0 0 5492 3898" fill="none" xmlns="http://www.w3.org/2000/svg">
<g id="plan-18corpus" clip-path="url(#clip0_92_24)">
<rect width="5492" height="3898" fill="white"/>
<g id="Group 3">
<path id="Rectangle 133" d="M884 1072.05H1774.31L2004.83 924.036V388H2346.85V578.013H3040.39V388H3401.42V920.036L3628.43 1063.05L4608 1072.05V3200.19H884V1072.05Z" fill="#242424"/>
<path id="Vector 147" d="M2530.36 1244.06C2646.33 1430.82 2681.02 1488.89 2683.87 1494.58" stroke="black" stroke-width="13"/>
<path id="Rectangle 134" d="M928.254 1103.55H1224.77V1238.41H1292.28V1312.86H1224.77V1519.58H928.254V1103.55Z" fill="#9CC7E5"/>
<path id="214class" d="M1251.27 1103.55H1934.32L2040.83 1233.06V1282.06H2076.58V1356.82H2040.83L2040.83 1516.08H1251.27V1103.55Z" fill="#9CC7E5"/>
<path id="214" d="M1835.86 1401.06V1386.88L1868.99 1356.2C1871.81 1353.47 1874.18 1351.02 1876.09 1348.83C1878.02 1346.65 1879.49 1344.52 1880.49 1342.42C1881.49 1340.3 1881.99 1338.02 1881.99 1335.56C1881.99 1332.83 1881.37 1330.48 1880.13 1328.52C1878.89 1326.52 1877.19 1324.98 1875.04 1323.92C1872.89 1322.83 1870.45 1322.29 1867.72 1322.29C1864.87 1322.29 1862.39 1322.86 1860.27 1324.02C1858.15 1325.17 1856.51 1326.82 1855.36 1328.97C1854.21 1331.12 1853.63 1333.68 1853.63 1336.65H1834.95C1834.95 1330.56 1836.33 1325.27 1839.09 1320.79C1841.84 1316.3 1845.71 1312.83 1850.68 1310.38C1855.65 1307.92 1861.37 1306.7 1867.86 1306.7C1874.52 1306.7 1880.33 1307.88 1885.27 1310.24C1890.24 1312.58 1894.1 1315.82 1896.86 1319.97C1899.62 1324.12 1900.99 1328.88 1900.99 1334.24C1900.99 1337.76 1900.3 1341.23 1898.9 1344.65C1897.54 1348.08 1895.1 1351.88 1891.59 1356.06C1888.07 1360.21 1883.12 1365.2 1876.72 1371.02L1863.13 1384.33V1384.97H1902.22V1401.06H1835.86ZM1876.36 1462.97V1556.06H1856.68V1481.65H1856.13L1834.81 1495.02V1477.56L1857.86 1462.97H1876.36ZM1834.45 1694.7V1679.2L1873.31 1617.97H1886.68V1639.42H1878.77L1854.27 1678.2V1678.92H1909.49V1694.7H1834.45ZM1879.13 1711.06V1689.97L1879.49 1683.11V1617.97H1897.95V1711.06H1879.13Z" fill="black"/>
<path id="Rectangle 136" d="M1919.57 1010.29L2010.08 956.289V1067.05H1822.81L1919.57 1010.29Z" fill="#9CC7E5"/>
<path id="Rectangle 143" d="M3496.93 1010.29L3406.42 955.539V1067.05H3593.68L3496.93 1010.29Z" fill="#9CC7E5"/>
<path id="Rectangle 137" d="M2034.33 414.002H2159.34V1076.67H2137.76V1121.55H2070.56V1076.67H2034.33V414.002Z" fill="#9CC7E5"/>
<path id="Rectangle 138" d="M2183.34 414.002H2320.85V1067.05H2183.34V414.002Z" fill="#9CC7E5"/>
<path id="215class" d="M2348.85 603.016H2678.37L2681.37 1064.3L2465.36 1068.05V1103.8H2395.6V1068.05H2348.85V603.016Z" fill="#9CC7E5"/>
<path id="216class" d="M3033.89 603.016H2704.37L2701.37 1064.3L2917.39 1068.05V1103.8H2987.14V1068.05H3033.89V603.016Z" fill="#9CC7E5"/>
<rect id="Rectangle 141" x="3068.9" y="410.002" width="132.009" height="657.044" fill="#9CC7E5"/>
<path id="Rectangle 142" d="M3238.91 409.502H3377.92V1066.31H3337.21V1101.05H3264.38V1066.31H3238.91V409.502Z" fill="#9CC7E5"/>
<path id="213class" d="M930.754 1545.08H1479.79V2030.8H1320.28V2104.62H1279.78V2137.87H1192.02V2104.62H930.754V1545.08Z" fill="#9CC7E5"/>
<path id="212class" d="M928.254 2395.64H1254.28V2348.13H1354.28V2395.64H1432.29V3151.69H928.254V2395.64Z" fill="#9CC7E5"/>
<g id="WC">
<path d="M1520.29 1545.08H1696.3V1794.09H1672.8V1824.35H1620.05V1794.09H1520.29V1545.08Z" fill="#6698BA"/>
<path d="M1730.31 1545.08H1877.32V1720.84H1906.07V1764.59H1877.32V1782.59H1730.31V1545.08Z" fill="#6698BA"/>
<path d="M1899.32 1545.08H2040.83V1599.58H2074.08V1634.33H2040.83V1656.09H1899.32V1545.08Z" fill="#6698BA"/>
<path d="M1520.29 1818.1H1757.81V1931.77H1797.81V1996.58H1757.81V2026.11H1520.29V1818.1Z" fill="#6698BA"/>
<path d="M1789.81 1818.1H2040.61V1931.77H2074.33V1995.8H2040.61V2026.11H1789.81V1818.1Z" fill="#6698BA"/>
<path d="M1899.32 1679.59H2040.83V1706.84H2069.58V1751.59H2040.83V1782.59H1899.32V1679.59Z" fill="#6698BA"/>
</g>
<path id="213" d="M1143.81 2093.61V2079.43L1176.95 2048.74C1179.77 2046.02 1182.13 2043.56 1184.04 2041.38C1185.98 2039.2 1187.45 2037.06 1188.45 2034.97C1189.45 2032.85 1189.95 2030.56 1189.95 2028.11C1189.95 2025.38 1189.33 2023.03 1188.08 2021.06C1186.84 2019.06 1185.14 2017.53 1182.99 2016.47C1180.84 2015.38 1178.4 2014.83 1175.67 2014.83C1172.83 2014.83 1170.34 2015.41 1168.22 2016.56C1166.1 2017.71 1164.46 2019.36 1163.31 2021.52C1162.16 2023.67 1161.58 2026.23 1161.58 2029.2H1142.9C1142.9 2023.11 1144.28 2017.82 1147.04 2013.33C1149.8 2008.85 1153.66 2005.38 1158.63 2002.93C1163.6 2000.47 1169.33 1999.24 1175.81 1999.24C1182.48 1999.24 1188.28 2000.43 1193.22 2002.79C1198.19 2005.12 1202.05 2008.36 1204.81 2012.52C1207.57 2016.67 1208.95 2021.43 1208.95 2026.79C1208.95 2030.3 1208.25 2033.77 1206.86 2037.2C1205.49 2040.62 1203.05 2044.43 1199.54 2048.61C1196.02 2052.76 1191.07 2057.74 1184.67 2063.56L1171.08 2076.88V2077.52H1210.17V2093.61H1143.81ZM1184.31 2155.52V2248.61H1164.63V2174.2H1164.08L1142.77 2187.56V2170.11L1165.81 2155.52H1184.31ZM1178.22 2404.88C1171.43 2404.88 1165.39 2403.71 1160.08 2401.38C1154.81 2399.02 1150.64 2395.77 1147.58 2391.65C1144.55 2387.5 1142.99 2382.71 1142.9 2377.29H1162.72C1162.84 2379.56 1163.58 2381.56 1164.95 2383.29C1166.34 2384.99 1168.19 2386.3 1170.49 2387.24C1172.8 2388.18 1175.39 2388.65 1178.27 2388.65C1181.27 2388.65 1183.92 2388.12 1186.22 2387.06C1188.52 2386 1190.33 2384.53 1191.63 2382.65C1192.93 2380.77 1193.58 2378.61 1193.58 2376.15C1193.58 2373.67 1192.89 2371.47 1191.49 2369.56C1190.13 2367.62 1188.16 2366.11 1185.58 2365.02C1183.04 2363.93 1180.01 2363.38 1176.49 2363.38H1167.81V2348.93H1176.49C1179.46 2348.93 1182.08 2348.41 1184.36 2347.38C1186.66 2346.35 1188.45 2344.93 1189.72 2343.11C1190.99 2341.26 1191.63 2339.11 1191.63 2336.65C1191.63 2334.32 1191.07 2332.27 1189.95 2330.52C1188.86 2328.73 1187.31 2327.33 1185.31 2326.33C1183.34 2325.33 1181.04 2324.83 1178.4 2324.83C1175.74 2324.83 1173.3 2325.32 1171.08 2326.29C1168.87 2327.23 1167.1 2328.58 1165.77 2330.33C1164.43 2332.09 1163.72 2334.15 1163.63 2336.52H1144.77C1144.86 2331.15 1146.39 2326.43 1149.36 2322.33C1152.33 2318.24 1156.33 2315.05 1161.36 2312.74C1166.42 2310.41 1172.13 2309.24 1178.49 2309.24C1184.92 2309.24 1190.54 2310.41 1195.36 2312.74C1200.17 2315.08 1203.92 2318.23 1206.58 2322.2C1209.28 2326.14 1210.61 2330.56 1210.58 2335.47C1210.61 2340.68 1208.99 2345.03 1205.72 2348.52C1202.48 2352 1198.25 2354.21 1193.04 2355.15V2355.88C1199.89 2356.76 1205.1 2359.14 1208.67 2363.02C1212.28 2366.86 1214.07 2371.68 1214.04 2377.47C1214.07 2382.77 1212.54 2387.49 1209.45 2391.61C1206.39 2395.73 1202.16 2398.97 1196.77 2401.33C1191.37 2403.7 1185.19 2404.88 1178.22 2404.88Z" fill="black"/>
<rect id="Rectangle 152" x="1343.78" y="2053.11" width="697.047" height="51.5035" fill="#9CC7E5"/>
<path id="210 class" d="M1757.81 2395.64H1928.57V2356.13H2021.83V2395.64H2360.35V3151.69H1757.81V2395.64Z" fill="#9CC7E5"/>
<path id="Rectangle 154" d="M2212.84 1246.06H2507.36V1509.08H2328.85V1542.08H2273.09V1509.08H2212.84V1246.06Z" fill="#9CC7E5"/>
<path id="Rectangle 172" d="M2895.89 1246.06H3190.41V1291.81H3228.16V1369.32H3190.41V1509.08H2895.89V1246.06Z" fill="#9CC7E5"/>
<g id="Rectangle 155">
<path d="M2531.86 1246.31H2571.86V1211.56H2627.62V1246.31H2683.87V1494.83H2531.86V1246.31Z" fill="#9CC7E5"/>
<path d="M2531.86 1246.31H2571.86V1211.56H2627.62V1246.31H2683.87V1494.83H2531.86V1246.31Z" fill="#9CC7E5"/>
</g>
<g id="Rectangle 173">
<path d="M2865.88 1246.31H2825.88V1211.56H2770.13V1246.31H2713.87V1494.83H2865.88V1246.31Z" fill="#9CC7E5"/>
<path d="M2865.88 1246.31H2825.88V1211.56H2770.13V1246.31H2713.87V1494.83H2865.88V1246.31Z" fill="#9CC7E5"/>
</g>
<path id="209class" d="M2212.84 1535.08H2680.87V2032.91V2141.37H2516.86V2172.62H2460.61V2141.37H2414.1V2032.91H2212.84V1535.08Z" fill="#9CC7E5"/>
<path id="207class" d="M3182.91 1535.08H2714.87V2033.11V2142.12H2892.39V2171.37H2939.39V2142.12H2981.64V2033.11H3182.91V1535.08Z" fill="#9CC7E5"/>
<path id="208class" d="M2387.85 2395.64H2539.11V2346.88H2626.12V2395.64H2965.39V3151.69H2387.85V2395.64Z" fill="#9CC7E5"/>
<path id="206class" d="M2992.89 2397.14H3095.65V2360.13H3178.65V2397.14H3426.42V3153.19H2992.89V2397.14Z" fill="#9CC7E5"/>
<path id="205class" d="M3460.42 2395.64H3565.93V2352.13H3651.68V2395.64H3854.82V2345.88H3941.2V2395.64H4057.96V3151.69H3460.42V2395.64Z" fill="#9CC7E5"/>
<path id="204class" d="M4087.96 2395.64H4181.22V2355.38H4273.73V2395.64H4565V3151.69H4087.96V2395.64Z" fill="#9CC7E5"/>
<path id="Rectangle 164" d="M4281.98 1096.05H4565V1394.07H4382.23V1433.07H4328.73V1394.07H4281.98V1096.05Z" fill="#9CC7E5"/>
<path id="Rectangle 165" d="M4011.96 1096.05H4250.98V1394.07H4211.72V1430.07H4156.97V1394.07H4011.96V1096.05Z" fill="#9CC7E5"/>
<path id="203class" d="M4011.96 1426.57H4565V1952.17H4351.14V2103.87H4314.98V2144.37H4245.98V2103.87H4211.31V1998.37H4011.96V1426.57Z" fill="#9CC7E5"/>
<rect id="Rectangle 168" x="4377.48" y="1980.11" width="186.513" height="123.508" fill="#9CC7E5"/>
<path id="201class" d="M3529.64 1096.05H3985.96V2000.61H3388.92V1437.82H3355.91V1347.32H3388.92V1241.61L3529.64 1096.05Z" fill="#9CC7E5"/>
<path id="corridor" d="M930.254 2125.12L2067.08 2129.62V1226.31L1967.57 1105.3L3362.67 1096.05H3486.93L3362.67 1226.31H3215.16H2186.34V2129.62H2391.35V2163.62H3002.39V2129.62H3203.35L3202.91 2163.62L3215.16 1226.31H3362.67V2129.62H4564.25V2371.13H930.254V2125.12Z" fill="#9CC7E5"/>
<rect id="Rectangle 170" x="3388.92" y="2032.11" width="787.553" height="72.5049" fill="#9CC7E5"/>
<rect id="Rectangle 174" x="2213.34" y="2053.11" width="174.512" height="51.5035" fill="#9CC7E5"/>
<path id="Rectangle 176" d="M3003.39 2049.61H3182.9V2104.62H3003.39V2049.61Z" fill="#9CC7E5"/>
<path id="Vector 145" d="M2530.36 1244.06C2646.33 1430.82 2681.02 1488.89 2683.87 1494.58" stroke="black" stroke-width="13"/>
<path id="Vector 146" d="M2683.87 1244.06C2567.9 1430.82 2533.21 1488.89 2530.36 1494.58" stroke="black" stroke-width="13"/>
<path id="Vector 148" d="M2711.87 1245.56C2834.68 1446.97 2870.72 1505.66 2873.38 1509.83L2825.88 1517.08" stroke="#242424" stroke-width="13"/>
<path id="Vector 149" d="M2871.88 1238.06C2750.22 1439.1 2714.51 1497.68 2711.87 1501.84L2758.93 1509.08" stroke="#242424" stroke-width="13"/>
<path id="211class" d="M1463.79 2395.64H1542.04V2354.38H1647.3V2395.64H1730.31V3151.69H1463.79V2395.64Z" fill="#9CC7E5"/>
<path id="WC_2" d="M1942.87 1816.59L1916.23 1723.5H1937.73L1953.14 1788.18H1953.91L1970.91 1723.5H1989.32L2006.27 1788.32H2007.09L2022.5 1723.5H2044L2017.37 1816.59H1998.18L1980.46 1755.72H1979.73L1962.05 1816.59H1942.87ZM2004.05 1911.09H1984.14C1983.77 1908.51 1983.03 1906.22 1981.91 1904.22C1980.79 1902.19 1979.35 1900.47 1977.59 1899.04C1975.84 1897.62 1973.81 1896.53 1971.5 1895.77C1969.23 1895.01 1966.76 1894.63 1964.09 1894.63C1959.27 1894.63 1955.08 1895.83 1951.5 1898.22C1947.93 1900.59 1945.15 1904.04 1943.18 1908.59C1941.21 1913.1 1940.23 1918.59 1940.23 1925.04C1940.23 1931.68 1941.21 1937.25 1943.18 1941.77C1945.18 1946.28 1947.97 1949.69 1951.55 1952C1955.12 1954.3 1959.26 1955.45 1963.96 1955.45C1966.59 1955.45 1969.03 1955.1 1971.27 1954.41C1973.55 1953.71 1975.56 1952.69 1977.32 1951.36C1979.08 1950 1980.53 1948.35 1981.68 1946.41C1982.87 1944.47 1983.68 1942.25 1984.14 1939.77L2004.05 1939.86C2003.53 1944.13 2002.24 1948.25 2000.18 1952.22C1998.15 1956.16 1995.41 1959.69 1991.96 1962.82C1988.53 1965.91 1984.44 1968.36 1979.68 1970.18C1974.96 1971.97 1969.61 1972.86 1963.64 1972.86C1955.34 1972.86 1947.91 1970.98 1941.37 1967.22C1934.85 1963.47 1929.7 1958.03 1925.91 1950.91C1922.15 1943.78 1920.27 1935.16 1920.27 1925.04C1920.27 1914.89 1922.18 1906.25 1926 1899.13C1929.82 1892.01 1935 1886.59 1941.55 1882.86C1948.09 1879.1 1955.46 1877.22 1963.64 1877.22C1969.03 1877.22 1974.03 1877.98 1978.64 1879.5C1983.27 1881.01 1987.38 1883.22 1990.96 1886.13C1994.53 1889.01 1997.44 1892.54 1999.68 1896.72C2001.96 1900.91 2003.41 1905.69 2004.05 1911.09Z" fill="black"/>
<path id="212" d="M1239.32 2567.14V2552.96L1272.46 2522.28C1275.27 2519.55 1277.64 2517.09 1279.55 2514.91C1281.49 2512.73 1282.96 2510.59 1283.96 2508.5C1284.96 2506.38 1285.46 2504.09 1285.46 2501.64C1285.46 2498.91 1284.83 2496.56 1283.59 2494.59C1282.35 2492.59 1280.65 2491.06 1278.5 2490C1276.35 2488.91 1273.91 2488.37 1271.18 2488.37C1268.33 2488.37 1265.85 2488.94 1263.73 2490.09C1261.61 2491.24 1259.97 2492.9 1258.82 2495.05C1257.67 2497.2 1257.09 2499.76 1257.09 2502.73H1238.41C1238.41 2496.64 1239.79 2491.35 1242.55 2486.87C1245.3 2482.38 1249.17 2478.91 1254.14 2476.46C1259.11 2474 1264.83 2472.78 1271.32 2472.78C1277.99 2472.78 1283.79 2473.96 1288.73 2476.32C1293.7 2478.65 1297.56 2481.9 1300.32 2486.05C1303.08 2490.2 1304.46 2494.96 1304.46 2500.32C1304.46 2503.84 1303.76 2507.31 1302.36 2510.73C1301 2514.15 1298.56 2517.96 1295.05 2522.14C1291.53 2526.29 1286.58 2531.28 1280.18 2537.09L1266.59 2550.41V2551.05H1305.68V2567.14H1239.32ZM1279.82 2629.05V2722.14H1260.14V2647.73H1259.59L1238.27 2661.09V2643.64L1261.32 2629.05H1279.82ZM1239.32 2877.14V2862.96L1272.46 2832.28C1275.27 2829.55 1277.64 2827.09 1279.55 2824.91C1281.49 2822.73 1282.96 2820.59 1283.96 2818.5C1284.96 2816.38 1285.46 2814.09 1285.46 2811.64C1285.46 2808.91 1284.83 2806.56 1283.59 2804.59C1282.35 2802.59 1280.65 2801.06 1278.5 2800C1276.35 2798.91 1273.91 2798.37 1271.18 2798.37C1268.33 2798.37 1265.85 2798.94 1263.73 2800.09C1261.61 2801.24 1259.97 2802.9 1258.82 2805.05C1257.67 2807.2 1257.09 2809.76 1257.09 2812.73H1238.41C1238.41 2806.64 1239.79 2801.35 1242.55 2796.87C1245.3 2792.38 1249.17 2788.91 1254.14 2786.46C1259.11 2784 1264.83 2782.78 1271.32 2782.78C1277.99 2782.78 1283.79 2783.96 1288.73 2786.32C1293.7 2788.65 1297.56 2791.9 1300.32 2796.05C1303.08 2800.2 1304.46 2804.96 1304.46 2810.32C1304.46 2813.84 1303.76 2817.31 1302.36 2820.73C1301 2824.15 1298.56 2827.96 1295.05 2832.14C1291.53 2836.29 1286.58 2841.28 1280.18 2847.09L1266.59 2860.41V2861.05H1305.68V2877.14H1239.32Z" fill="black"/>
<path id="211" d="M1573.34 2567.14V2552.96L1606.48 2522.28C1609.3 2519.55 1611.66 2517.09 1613.57 2514.91C1615.51 2512.73 1616.98 2510.59 1617.98 2508.5C1618.98 2506.38 1619.48 2504.09 1619.48 2501.64C1619.48 2498.91 1618.86 2496.56 1617.62 2494.59C1616.37 2492.59 1614.68 2491.06 1612.52 2490C1610.37 2488.91 1607.93 2488.37 1605.21 2488.37C1602.36 2488.37 1599.87 2488.94 1597.75 2490.09C1595.63 2491.24 1593.99 2492.9 1592.84 2495.05C1591.69 2497.2 1591.12 2499.76 1591.12 2502.73H1572.43C1572.43 2496.64 1573.81 2491.35 1576.57 2486.87C1579.33 2482.38 1583.19 2478.91 1588.16 2476.46C1593.13 2474 1598.86 2472.78 1605.34 2472.78C1612.01 2472.78 1617.81 2473.96 1622.75 2476.32C1627.72 2478.65 1631.58 2481.9 1634.34 2486.05C1637.1 2490.2 1638.48 2494.96 1638.48 2500.32C1638.48 2503.84 1637.78 2507.31 1636.39 2510.73C1635.02 2514.15 1632.58 2517.96 1629.07 2522.14C1625.55 2526.29 1620.6 2531.28 1614.21 2537.09L1600.62 2550.41V2551.05H1639.71V2567.14H1573.34ZM1613.84 2629.05V2722.14H1594.16V2647.73H1593.62L1572.3 2661.09V2643.64L1595.34 2629.05H1613.84ZM1613.84 2784.05V2877.14H1594.16V2802.73H1593.62L1572.3 2816.09V2798.64L1595.34 2784.05H1613.84Z" fill="black"/>
<path id="210" d="M1950.87 2567.14V2552.96L1984 2522.28C1986.82 2519.55 1989.18 2517.09 1991.09 2514.91C1993.03 2512.73 1994.5 2510.59 1995.5 2508.5C1996.5 2506.38 1997 2504.09 1997 2501.64C1997 2498.91 1996.38 2496.56 1995.14 2494.59C1993.9 2492.59 1992.2 2491.06 1990.05 2490C1987.9 2488.91 1985.46 2488.37 1982.73 2488.37C1979.88 2488.37 1977.4 2488.94 1975.27 2490.09C1973.15 2491.24 1971.52 2492.9 1970.37 2495.05C1969.21 2497.2 1968.64 2499.76 1968.64 2502.73H1949.96C1949.96 2496.64 1951.34 2491.35 1954.09 2486.87C1956.85 2482.38 1960.71 2478.91 1965.68 2476.46C1970.65 2474 1976.38 2472.78 1982.87 2472.78C1989.53 2472.78 1995.34 2473.96 2000.27 2476.32C2005.24 2478.65 2009.11 2481.9 2011.87 2486.05C2014.62 2490.2 2016 2494.96 2016 2500.32C2016 2503.84 2015.31 2507.31 2013.91 2510.73C2012.55 2514.15 2010.11 2517.96 2006.59 2522.14C2003.08 2526.29 1998.12 2531.28 1991.73 2537.09L1978.14 2550.41V2551.05H2017.23V2567.14H1950.87ZM1991.37 2629.05V2722.14H1971.68V2647.73H1971.14L1949.82 2661.09V2643.64L1972.87 2629.05H1991.37ZM1987.37 2879.18C1979.55 2879.15 1972.82 2877.23 1967.18 2873.41C1961.58 2869.59 1957.26 2864.06 1954.23 2856.82C1951.23 2849.58 1949.74 2840.87 1949.77 2830.68C1949.77 2820.53 1951.27 2811.88 1954.27 2804.73C1957.31 2797.58 1961.62 2792.14 1967.23 2788.41C1972.87 2784.65 1979.58 2782.78 1987.37 2782.78C1995.15 2782.78 2001.85 2784.65 2007.46 2788.41C2013.09 2792.17 2017.43 2797.62 2020.46 2804.78C2023.49 2811.9 2024.99 2820.53 2024.96 2830.68C2024.96 2840.9 2023.44 2849.62 2020.41 2856.87C2017.41 2864.11 2013.11 2869.64 2007.5 2873.46C2001.9 2877.28 1995.18 2879.18 1987.37 2879.18ZM1987.37 2862.87C1992.7 2862.87 1996.96 2860.18 2000.14 2854.82C2003.32 2849.46 2004.9 2841.41 2004.87 2830.68C2004.87 2823.62 2004.14 2817.74 2002.68 2813.05C2001.26 2808.35 1999.23 2804.82 1996.59 2802.46C1993.99 2800.09 1990.91 2798.91 1987.37 2798.91C1982.06 2798.91 1977.82 2801.56 1974.64 2806.87C1971.46 2812.17 1969.85 2820.11 1969.82 2830.68C1969.82 2837.84 1970.53 2843.81 1971.96 2848.59C1973.41 2853.35 1975.46 2856.93 1978.09 2859.32C1980.73 2861.68 1983.82 2862.87 1987.37 2862.87Z" fill="black"/>
<path id="208" d="M2533.4 2567.14V2552.96L2566.54 2522.28C2569.36 2519.55 2571.72 2517.09 2573.63 2514.91C2575.57 2512.73 2577.04 2510.59 2578.04 2508.5C2579.04 2506.38 2579.54 2504.09 2579.54 2501.64C2579.54 2498.91 2578.92 2496.56 2577.68 2494.59C2576.44 2492.59 2574.74 2491.06 2572.59 2490C2570.44 2488.91 2568 2488.37 2565.27 2488.37C2562.42 2488.37 2559.94 2488.94 2557.81 2490.09C2555.69 2491.24 2554.06 2492.9 2552.9 2495.05C2551.75 2497.2 2551.18 2499.76 2551.18 2502.73H2532.5C2532.5 2496.64 2533.87 2491.35 2536.63 2486.87C2539.39 2482.38 2543.25 2478.91 2548.22 2476.46C2553.19 2474 2558.92 2472.78 2565.4 2472.78C2572.07 2472.78 2577.87 2473.96 2582.81 2476.32C2587.78 2478.65 2591.65 2481.9 2594.4 2486.05C2597.16 2490.2 2598.54 2494.96 2598.54 2500.32C2598.54 2503.84 2597.84 2507.31 2596.45 2510.73C2595.09 2514.15 2592.65 2517.96 2589.13 2522.14C2585.62 2526.29 2580.66 2531.28 2574.27 2537.09L2560.68 2550.41V2551.05H2599.77V2567.14H2533.4ZM2569.9 2724.18C2562.09 2724.15 2555.36 2722.23 2549.72 2718.41C2544.12 2714.59 2539.8 2709.06 2536.77 2701.82C2533.77 2694.58 2532.28 2685.87 2532.31 2675.68C2532.31 2665.53 2533.81 2656.88 2536.81 2649.73C2539.84 2642.58 2544.16 2637.14 2549.77 2633.41C2555.4 2629.65 2562.12 2627.78 2569.9 2627.78C2577.69 2627.78 2584.39 2629.65 2590 2633.41C2595.63 2637.17 2599.97 2642.62 2603 2649.78C2606.03 2656.9 2607.53 2665.53 2607.5 2675.68C2607.5 2685.9 2605.98 2694.62 2602.95 2701.87C2599.95 2709.11 2595.65 2714.64 2590.04 2718.46C2584.44 2722.28 2577.72 2724.18 2569.9 2724.18ZM2569.9 2707.87C2575.24 2707.87 2579.5 2705.18 2582.68 2699.82C2585.86 2694.46 2587.44 2686.41 2587.4 2675.68C2587.4 2668.62 2586.68 2662.74 2585.22 2658.05C2583.8 2653.35 2581.77 2649.82 2579.13 2647.46C2576.53 2645.09 2573.45 2643.91 2569.9 2643.91C2564.6 2643.91 2560.36 2646.56 2557.18 2651.87C2554 2657.17 2552.39 2665.11 2552.36 2675.68C2552.36 2682.84 2553.07 2688.81 2554.5 2693.59C2555.95 2698.35 2558 2701.93 2560.63 2704.32C2563.27 2706.68 2566.36 2707.87 2569.9 2707.87ZM2568.13 2878.41C2561.13 2878.41 2554.9 2877.28 2549.45 2875C2544.03 2872.7 2539.77 2869.56 2536.68 2865.59C2533.59 2861.62 2532.04 2857.12 2532.04 2852.09C2532.04 2848.21 2532.92 2844.65 2534.68 2841.41C2536.47 2838.14 2538.89 2835.43 2541.95 2833.28C2545.01 2831.09 2548.44 2829.7 2552.22 2829.09V2828.46C2547.25 2827.46 2543.22 2825.05 2540.13 2821.23C2537.04 2817.38 2535.5 2812.91 2535.5 2807.82C2535.5 2803 2536.9 2798.71 2539.72 2794.96C2542.54 2791.17 2546.4 2788.2 2551.31 2786.05C2556.25 2783.87 2561.86 2782.78 2568.13 2782.78C2574.4 2782.78 2580 2783.87 2584.9 2786.05C2589.84 2788.23 2593.72 2791.21 2596.54 2795C2599.36 2798.76 2600.78 2803.03 2600.81 2807.82C2600.78 2812.94 2599.21 2817.41 2596.09 2821.23C2592.97 2825.05 2588.97 2827.46 2584.09 2828.46V2829.09C2587.81 2829.7 2591.19 2831.09 2594.22 2833.28C2597.28 2835.43 2599.71 2838.14 2601.5 2841.41C2603.31 2844.65 2604.24 2848.21 2604.27 2852.09C2604.24 2857.12 2602.68 2861.62 2599.59 2865.59C2596.5 2869.56 2592.22 2872.7 2586.77 2875C2581.34 2877.28 2575.13 2878.41 2568.13 2878.41ZM2568.13 2863.96C2571.25 2863.96 2573.98 2863.4 2576.31 2862.28C2578.65 2861.12 2580.47 2859.55 2581.77 2857.55C2583.1 2855.52 2583.77 2853.18 2583.77 2850.55C2583.77 2847.85 2583.09 2845.47 2581.72 2843.41C2580.36 2841.32 2578.51 2839.68 2576.18 2838.5C2573.84 2837.29 2571.16 2836.68 2568.13 2836.68C2565.13 2836.68 2562.45 2837.29 2560.09 2838.5C2557.72 2839.68 2555.86 2841.32 2554.5 2843.41C2553.16 2845.47 2552.5 2847.85 2552.5 2850.55C2552.5 2853.18 2553.15 2855.52 2554.45 2857.55C2555.75 2859.55 2557.59 2861.12 2559.95 2862.28C2562.31 2863.4 2565.04 2863.96 2568.13 2863.96ZM2568.13 2822.37C2570.74 2822.37 2573.06 2821.84 2575.09 2820.78C2577.12 2819.71 2578.71 2818.24 2579.86 2816.37C2581.01 2814.49 2581.59 2812.32 2581.59 2809.87C2581.59 2807.44 2581.01 2805.32 2579.86 2803.5C2578.71 2801.65 2577.13 2800.21 2575.13 2799.18C2573.13 2798.12 2570.8 2797.59 2568.13 2797.59C2565.5 2797.59 2563.16 2798.12 2561.13 2799.18C2559.1 2800.21 2557.51 2801.65 2556.36 2803.5C2555.24 2805.32 2554.68 2807.44 2554.68 2809.87C2554.68 2812.32 2555.25 2814.49 2556.4 2816.37C2557.56 2818.24 2559.15 2819.71 2561.18 2820.78C2563.21 2821.84 2565.53 2822.37 2568.13 2822.37Z" fill="black"/>
<path id="209" d="M2495.4 2166.61V2152.43L2528.54 2121.75C2531.36 2119.02 2533.72 2116.57 2535.63 2114.38C2537.57 2112.2 2539.04 2110.07 2540.04 2107.97C2541.04 2105.85 2541.54 2103.57 2541.54 2101.11C2541.54 2098.38 2540.92 2096.04 2539.68 2094.07C2538.44 2092.07 2536.74 2090.54 2534.59 2089.47C2532.44 2088.38 2530 2087.84 2527.27 2087.84C2524.42 2087.84 2521.94 2088.41 2519.81 2089.57C2517.69 2090.72 2516.06 2092.37 2514.9 2094.52C2513.75 2096.67 2513.18 2099.23 2513.18 2102.2H2494.5C2494.5 2096.11 2495.87 2090.82 2498.63 2086.34C2501.39 2081.85 2505.25 2078.38 2510.22 2075.93C2515.19 2073.47 2520.92 2072.25 2527.4 2072.25C2534.07 2072.25 2539.87 2073.43 2544.81 2075.79C2549.78 2078.13 2553.65 2081.37 2556.4 2085.52C2559.16 2089.67 2560.54 2094.43 2560.54 2099.79C2560.54 2103.31 2559.84 2106.78 2558.45 2110.2C2557.09 2113.63 2554.65 2117.43 2551.13 2121.61C2547.62 2125.76 2542.66 2130.75 2536.27 2136.57L2522.68 2149.88V2150.52H2561.77V2166.61H2495.4ZM2531.9 2323.66C2524.09 2323.63 2517.36 2321.7 2511.72 2317.88C2506.12 2314.07 2501.8 2308.54 2498.77 2301.29C2495.77 2294.05 2494.28 2285.34 2494.31 2275.16C2494.31 2265.01 2495.81 2256.35 2498.81 2249.2C2501.84 2242.05 2506.16 2236.61 2511.77 2232.88C2517.4 2229.13 2524.12 2227.25 2531.9 2227.25C2539.69 2227.25 2546.39 2229.13 2552 2232.88C2557.63 2236.64 2561.97 2242.1 2565 2249.25C2568.03 2256.37 2569.53 2265.01 2569.5 2275.16C2569.5 2285.37 2567.98 2294.1 2564.95 2301.34C2561.95 2308.58 2557.65 2314.11 2552.04 2317.93C2546.44 2321.75 2539.72 2323.66 2531.9 2323.66ZM2531.9 2307.34C2537.24 2307.34 2541.5 2304.66 2544.68 2299.29C2547.86 2293.93 2549.44 2285.88 2549.4 2275.16C2549.4 2268.1 2548.68 2262.22 2547.22 2257.52C2545.8 2252.82 2543.77 2249.29 2541.13 2246.93C2538.53 2244.57 2535.45 2243.38 2531.9 2243.38C2526.6 2243.38 2522.36 2246.04 2519.18 2251.34C2516 2256.64 2514.39 2264.58 2514.36 2275.16C2514.36 2282.31 2515.07 2288.28 2516.5 2293.07C2517.95 2297.82 2520 2301.4 2522.63 2303.79C2525.27 2306.16 2528.36 2307.34 2531.9 2307.34ZM2529.09 2382.25C2533.87 2382.25 2538.48 2383.05 2542.9 2384.66C2547.36 2386.26 2551.33 2388.82 2554.81 2392.34C2558.33 2395.85 2561.1 2400.52 2563.13 2406.34C2565.19 2412.13 2566.24 2419.23 2566.27 2427.66C2566.27 2435.57 2565.37 2442.63 2563.59 2448.84C2561.83 2455.02 2559.3 2460.28 2556 2464.61C2552.69 2468.94 2548.71 2472.25 2544.04 2474.52C2539.37 2476.76 2534.16 2477.88 2528.4 2477.88C2522.19 2477.88 2516.71 2476.69 2511.95 2474.29C2507.19 2471.87 2503.36 2468.58 2500.45 2464.43C2497.57 2460.25 2495.83 2455.55 2495.22 2450.34H2514.63C2515.39 2453.73 2516.98 2456.37 2519.4 2458.25C2521.83 2460.1 2524.83 2461.02 2528.4 2461.02C2534.47 2461.02 2539.07 2458.38 2542.22 2453.11C2545.37 2447.81 2546.97 2440.55 2547 2431.34H2546.36C2544.97 2434.07 2543.09 2436.41 2540.72 2438.38C2538.36 2440.32 2535.65 2441.82 2532.59 2442.88C2529.56 2443.94 2526.33 2444.47 2522.9 2444.47C2517.42 2444.47 2512.53 2443.19 2508.22 2440.61C2503.92 2438.04 2500.53 2434.49 2498.04 2429.97C2495.56 2425.46 2494.31 2420.31 2494.31 2414.52C2494.28 2408.28 2495.72 2402.72 2498.63 2397.84C2501.54 2392.96 2505.6 2389.14 2510.81 2386.38C2516.06 2383.6 2522.15 2382.22 2529.09 2382.25ZM2529.22 2397.7C2526.16 2397.7 2523.44 2398.43 2521.04 2399.88C2518.68 2401.34 2516.8 2403.29 2515.4 2405.75C2514.04 2408.2 2513.37 2410.94 2513.4 2413.97C2513.4 2417.04 2514.07 2419.79 2515.4 2422.25C2516.77 2424.67 2518.62 2426.61 2520.95 2428.07C2523.31 2429.49 2526.01 2430.2 2529.04 2430.2C2531.31 2430.2 2533.42 2429.78 2535.36 2428.93C2537.3 2428.08 2538.98 2426.91 2540.4 2425.43C2541.86 2423.91 2543 2422.17 2543.81 2420.2C2544.63 2418.23 2545.04 2416.14 2545.04 2413.93C2545.01 2410.99 2544.31 2408.29 2542.95 2405.84C2541.59 2403.38 2539.71 2401.41 2537.31 2399.93C2534.92 2398.44 2532.22 2397.7 2529.22 2397.7Z" fill="black"/>
<path id="207" d="M2812.92 2166.61V2152.43L2846.06 2121.75C2848.88 2119.02 2851.24 2116.57 2853.15 2114.38C2855.09 2112.2 2856.56 2110.07 2857.56 2107.97C2858.56 2105.85 2859.06 2103.57 2859.06 2101.11C2859.06 2098.38 2858.44 2096.04 2857.2 2094.07C2855.95 2092.07 2854.26 2090.54 2852.11 2089.47C2849.95 2088.38 2847.52 2087.84 2844.79 2087.84C2841.94 2087.84 2839.45 2088.41 2837.33 2089.57C2835.21 2090.72 2833.58 2092.37 2832.42 2094.52C2831.27 2096.67 2830.7 2099.23 2830.7 2102.2H2812.02C2812.02 2096.11 2813.39 2090.82 2816.15 2086.34C2818.91 2081.85 2822.77 2078.38 2827.74 2075.93C2832.71 2073.47 2838.44 2072.25 2844.92 2072.25C2851.59 2072.25 2857.39 2073.43 2862.33 2075.79C2867.3 2078.13 2871.17 2081.37 2873.92 2085.52C2876.68 2089.67 2878.06 2094.43 2878.06 2099.79C2878.06 2103.31 2877.36 2106.78 2875.97 2110.2C2874.61 2113.63 2872.17 2117.43 2868.65 2121.61C2865.14 2125.76 2860.18 2130.75 2853.79 2136.57L2840.2 2149.88V2150.52H2879.29V2166.61H2812.92ZM2849.42 2323.66C2841.61 2323.63 2834.88 2321.7 2829.24 2317.88C2823.64 2314.07 2819.32 2308.54 2816.29 2301.29C2813.29 2294.05 2811.8 2285.34 2811.83 2275.16C2811.83 2265.01 2813.33 2256.35 2816.33 2249.2C2819.36 2242.05 2823.68 2236.61 2829.29 2232.88C2834.92 2229.13 2841.64 2227.25 2849.42 2227.25C2857.21 2227.25 2863.91 2229.13 2869.52 2232.88C2875.15 2236.64 2879.48 2242.1 2882.52 2249.25C2885.55 2256.37 2887.05 2265.01 2887.02 2275.16C2887.02 2285.37 2885.5 2294.1 2882.47 2301.34C2879.47 2308.58 2875.17 2314.11 2869.56 2317.93C2863.95 2321.75 2857.24 2323.66 2849.42 2323.66ZM2849.42 2307.34C2854.76 2307.34 2859.02 2304.66 2862.2 2299.29C2865.38 2293.93 2866.95 2285.88 2866.92 2275.16C2866.92 2268.1 2866.2 2262.22 2864.74 2257.52C2863.32 2252.82 2861.29 2249.29 2858.65 2246.93C2856.05 2244.57 2852.97 2243.38 2849.42 2243.38C2844.12 2243.38 2839.88 2246.04 2836.7 2251.34C2833.52 2256.64 2831.91 2264.58 2831.88 2275.16C2831.88 2282.31 2832.59 2288.28 2834.02 2293.07C2835.47 2297.82 2837.52 2301.4 2840.15 2303.79C2842.79 2306.16 2845.88 2307.34 2849.42 2307.34ZM2816.61 2476.61L2855.2 2400.25V2399.61H2810.24V2383.52H2875.56V2399.84L2836.92 2476.61H2816.61Z" fill="black"/>
<path id="206" d="M3077.44 2567.14V2552.96L3110.58 2522.28C3113.4 2519.55 3115.76 2517.09 3117.67 2514.91C3119.61 2512.73 3121.08 2510.59 3122.08 2508.5C3123.08 2506.38 3123.58 2504.09 3123.58 2501.64C3123.58 2498.91 3122.96 2496.56 3121.72 2494.59C3120.47 2492.59 3118.78 2491.06 3116.63 2490C3114.47 2488.91 3112.03 2488.37 3109.31 2488.37C3106.46 2488.37 3103.97 2488.94 3101.85 2490.09C3099.73 2491.24 3098.1 2492.9 3096.94 2495.05C3095.79 2497.2 3095.22 2499.76 3095.22 2502.73H3076.53C3076.53 2496.64 3077.91 2491.35 3080.67 2486.87C3083.43 2482.38 3087.29 2478.91 3092.26 2476.46C3097.23 2474 3102.96 2472.78 3109.44 2472.78C3116.11 2472.78 3121.91 2473.96 3126.85 2476.32C3131.82 2478.65 3135.69 2481.9 3138.44 2486.05C3141.2 2490.2 3142.58 2494.96 3142.58 2500.32C3142.58 2503.84 3141.88 2507.31 3140.49 2510.73C3139.13 2514.15 3136.69 2517.96 3133.17 2522.14C3129.66 2526.29 3124.7 2531.28 3118.31 2537.09L3104.72 2550.41V2551.05H3143.81V2567.14H3077.44ZM3113.94 2724.18C3106.13 2724.15 3099.4 2722.23 3093.76 2718.41C3088.16 2714.59 3083.84 2709.06 3080.81 2701.82C3077.81 2694.58 3076.32 2685.87 3076.35 2675.68C3076.35 2665.53 3077.85 2656.88 3080.85 2649.73C3083.88 2642.58 3088.2 2637.14 3093.81 2633.41C3099.44 2629.65 3106.16 2627.78 3113.94 2627.78C3121.73 2627.78 3128.43 2629.65 3134.03 2633.41C3139.67 2637.17 3144 2642.62 3147.03 2649.78C3150.07 2656.9 3151.57 2665.53 3151.53 2675.68C3151.53 2685.9 3150.02 2694.62 3146.99 2701.87C3143.99 2709.11 3139.69 2714.64 3134.08 2718.46C3128.47 2722.28 3121.76 2724.18 3113.94 2724.18ZM3113.94 2707.87C3119.28 2707.87 3123.53 2705.18 3126.72 2699.82C3129.9 2694.46 3131.47 2686.41 3131.44 2675.68C3131.44 2668.62 3130.72 2662.74 3129.26 2658.05C3127.84 2653.35 3125.81 2649.82 3123.17 2647.46C3120.57 2645.09 3117.49 2643.91 3113.94 2643.91C3108.64 2643.91 3104.4 2646.56 3101.22 2651.87C3098.03 2657.17 3096.43 2665.11 3096.4 2675.68C3096.4 2682.84 3097.11 2688.81 3098.53 2693.59C3099.99 2698.35 3102.03 2701.93 3104.67 2704.32C3107.31 2706.68 3110.4 2707.87 3113.94 2707.87ZM3113.17 2878.41C3108.38 2878.38 3103.76 2877.58 3099.31 2876C3094.88 2874.43 3090.91 2871.87 3087.4 2868.32C3083.88 2864.78 3081.1 2860.08 3079.03 2854.23C3077 2848.38 3075.99 2841.2 3075.99 2832.68C3076.02 2824.87 3076.91 2817.88 3078.67 2811.73C3080.46 2805.55 3083 2800.31 3086.31 2796C3089.64 2791.7 3093.63 2788.43 3098.26 2786.18C3102.9 2783.91 3108.1 2782.78 3113.85 2782.78C3120.07 2782.78 3125.55 2783.99 3130.31 2786.41C3135.07 2788.81 3138.88 2792.06 3141.76 2796.18C3144.67 2800.31 3146.43 2804.93 3147.03 2810.05H3127.63C3126.87 2806.81 3125.28 2804.26 3122.85 2802.41C3120.43 2800.56 3117.43 2799.64 3113.85 2799.64C3107.79 2799.64 3103.19 2802.28 3100.03 2807.55C3096.91 2812.82 3095.32 2819.99 3095.26 2829.05H3095.9C3097.29 2826.29 3099.17 2823.94 3101.53 2822C3103.93 2820.03 3106.64 2818.53 3109.67 2817.5C3112.73 2816.44 3115.96 2815.91 3119.35 2815.91C3124.87 2815.91 3129.78 2817.21 3134.08 2819.82C3138.38 2822.4 3141.78 2825.94 3144.26 2830.46C3146.75 2834.97 3147.99 2840.14 3147.99 2845.96C3147.99 2852.26 3146.52 2857.87 3143.58 2862.78C3140.67 2867.68 3136.6 2871.53 3131.35 2874.32C3126.14 2877.08 3120.08 2878.44 3113.17 2878.41ZM3113.08 2862.96C3116.11 2862.96 3118.82 2862.23 3121.22 2860.78C3123.61 2859.32 3125.49 2857.35 3126.85 2854.87C3128.22 2852.38 3128.9 2849.59 3128.9 2846.5C3128.9 2843.41 3128.22 2840.64 3126.85 2838.18C3125.52 2835.73 3123.67 2833.78 3121.31 2832.32C3118.94 2830.87 3116.25 2830.14 3113.22 2830.14C3110.94 2830.14 3108.84 2830.56 3106.9 2831.41C3104.99 2832.26 3103.31 2833.44 3101.85 2834.96C3100.43 2836.47 3099.31 2838.23 3098.49 2840.23C3097.67 2842.2 3097.26 2844.31 3097.26 2846.55C3097.26 2849.55 3097.94 2852.29 3099.31 2854.78C3100.7 2857.26 3102.58 2859.24 3104.94 2860.73C3107.34 2862.21 3110.05 2862.96 3113.08 2862.96Z" fill="black"/>
<path id="205" d="M3703.48 2567.14V2552.96L3736.62 2522.28C3739.44 2519.55 3741.8 2517.09 3743.71 2514.91C3745.65 2512.73 3747.12 2510.59 3748.12 2508.5C3749.12 2506.38 3749.62 2504.09 3749.62 2501.64C3749.62 2498.91 3749 2496.56 3747.76 2494.59C3746.51 2492.59 3744.82 2491.06 3742.66 2490C3740.51 2488.91 3738.07 2488.37 3735.35 2488.37C3732.5 2488.37 3730.01 2488.94 3727.89 2490.09C3725.77 2491.24 3724.13 2492.9 3722.98 2495.05C3721.83 2497.2 3721.26 2499.76 3721.26 2502.73H3702.57C3702.57 2496.64 3703.95 2491.35 3706.71 2486.87C3709.47 2482.38 3713.33 2478.91 3718.3 2476.46C3723.27 2474 3729 2472.78 3735.48 2472.78C3742.15 2472.78 3747.95 2473.96 3752.89 2476.32C3757.86 2478.65 3761.73 2481.9 3764.48 2486.05C3767.24 2490.2 3768.62 2494.96 3768.62 2500.32C3768.62 2503.84 3767.92 2507.31 3766.53 2510.73C3765.16 2514.15 3762.73 2517.96 3759.21 2522.14C3755.7 2526.29 3750.74 2531.28 3744.35 2537.09L3730.76 2550.41V2551.05H3769.85V2567.14H3703.48ZM3739.98 2724.18C3732.16 2724.15 3725.44 2722.23 3719.8 2718.41C3714.2 2714.59 3709.88 2709.06 3706.85 2701.82C3703.85 2694.58 3702.36 2685.87 3702.39 2675.68C3702.39 2665.53 3703.89 2656.88 3706.89 2649.73C3709.92 2642.58 3714.24 2637.14 3719.85 2633.41C3725.48 2629.65 3732.2 2627.78 3739.98 2627.78C3747.77 2627.78 3754.47 2629.65 3760.07 2633.41C3765.71 2637.17 3770.04 2642.62 3773.07 2649.78C3776.1 2656.9 3777.6 2665.53 3777.57 2675.68C3777.57 2685.9 3776.06 2694.62 3773.03 2701.87C3770.03 2709.11 3765.73 2714.64 3760.12 2718.46C3754.51 2722.28 3747.8 2724.18 3739.98 2724.18ZM3739.98 2707.87C3745.32 2707.87 3749.57 2705.18 3752.76 2699.82C3755.94 2694.46 3757.51 2686.41 3757.48 2675.68C3757.48 2668.62 3756.76 2662.74 3755.3 2658.05C3753.88 2653.35 3751.85 2649.82 3749.21 2647.46C3746.6 2645.09 3743.53 2643.91 3739.98 2643.91C3734.68 2643.91 3730.44 2646.56 3727.26 2651.87C3724.07 2657.17 3722.47 2665.11 3722.44 2675.68C3722.44 2682.84 3723.15 2688.81 3724.57 2693.59C3726.03 2698.35 3728.07 2701.93 3730.71 2704.32C3733.35 2706.68 3736.44 2707.87 3739.98 2707.87ZM3737.48 2878.41C3731.06 2878.41 3725.33 2877.23 3720.3 2874.87C3715.3 2872.5 3711.33 2869.24 3708.39 2865.09C3705.45 2860.94 3703.92 2856.18 3703.8 2850.82H3722.89C3723.1 2854.43 3724.62 2857.35 3727.44 2859.59C3730.26 2861.84 3733.6 2862.96 3737.48 2862.96C3740.57 2862.96 3743.3 2862.28 3745.66 2860.91C3748.06 2859.52 3749.92 2857.59 3751.26 2855.14C3752.62 2852.65 3753.3 2849.81 3753.3 2846.59C3753.3 2843.32 3752.6 2840.44 3751.21 2837.96C3749.85 2835.47 3747.95 2833.53 3745.53 2832.14C3743.1 2830.74 3740.33 2830.03 3737.21 2830C3734.48 2830 3731.83 2830.56 3729.26 2831.68C3726.71 2832.81 3724.73 2834.34 3723.3 2836.28L3705.8 2833.14L3710.21 2784.05H3767.12V2800.14H3726.44L3724.03 2823.46H3724.57C3726.21 2821.15 3728.68 2819.24 3731.98 2817.73C3735.29 2816.21 3738.98 2815.46 3743.07 2815.46C3748.68 2815.46 3753.68 2816.78 3758.07 2819.41C3762.47 2822.05 3765.94 2825.67 3768.48 2830.28C3771.03 2834.85 3772.29 2840.12 3772.26 2846.09C3772.29 2852.37 3770.83 2857.94 3767.89 2862.82C3764.98 2867.67 3760.91 2871.49 3755.66 2874.28C3750.45 2877.03 3744.39 2878.41 3737.48 2878.41Z" fill="black"/>
<path id="204" d="M4173.01 2567.14V2552.96L4206.15 2522.28C4208.97 2519.55 4211.33 2517.09 4213.24 2514.91C4215.18 2512.73 4216.65 2510.59 4217.65 2508.5C4218.65 2506.38 4219.15 2504.09 4219.15 2501.64C4219.15 2498.91 4218.53 2496.56 4217.29 2494.59C4216.04 2492.59 4214.35 2491.06 4212.2 2490C4210.04 2488.91 4207.61 2488.37 4204.88 2488.37C4202.03 2488.37 4199.54 2488.94 4197.42 2490.09C4195.3 2491.24 4193.67 2492.9 4192.51 2495.05C4191.36 2497.2 4190.79 2499.76 4190.79 2502.73H4172.11C4172.11 2496.64 4173.48 2491.35 4176.24 2486.87C4179 2482.38 4182.86 2478.91 4187.83 2476.46C4192.8 2474 4198.53 2472.78 4205.01 2472.78C4211.68 2472.78 4217.48 2473.96 4222.42 2476.32C4227.39 2478.65 4231.26 2481.9 4234.01 2486.05C4236.77 2490.2 4238.15 2494.96 4238.15 2500.32C4238.15 2503.84 4237.45 2507.31 4236.06 2510.73C4234.7 2514.15 4232.26 2517.96 4228.74 2522.14C4225.23 2526.29 4220.27 2531.28 4213.88 2537.09L4200.29 2550.41V2551.05H4239.38V2567.14H4173.01ZM4209.51 2724.18C4201.7 2724.15 4194.97 2722.23 4189.33 2718.41C4183.73 2714.59 4179.41 2709.06 4176.38 2701.82C4173.38 2694.58 4171.89 2685.87 4171.92 2675.68C4171.92 2665.53 4173.42 2656.88 4176.42 2649.73C4179.45 2642.58 4183.77 2637.14 4189.38 2633.41C4195.01 2629.65 4201.73 2627.78 4209.51 2627.78C4217.3 2627.78 4224 2629.65 4229.61 2633.41C4235.24 2637.17 4239.57 2642.62 4242.61 2649.78C4245.64 2656.9 4247.14 2665.53 4247.11 2675.68C4247.11 2685.9 4245.59 2694.62 4242.56 2701.87C4239.56 2709.11 4235.26 2714.64 4229.65 2718.46C4224.04 2722.28 4217.33 2724.18 4209.51 2724.18ZM4209.51 2707.87C4214.85 2707.87 4219.11 2705.18 4222.29 2699.82C4225.47 2694.46 4227.04 2686.41 4227.01 2675.68C4227.01 2668.62 4226.29 2662.74 4224.83 2658.05C4223.41 2653.35 4221.38 2649.82 4218.74 2647.46C4216.14 2645.09 4213.06 2643.91 4209.51 2643.91C4204.21 2643.91 4199.97 2646.56 4196.79 2651.87C4193.61 2657.17 4192 2665.11 4191.97 2675.68C4191.97 2682.84 4192.68 2688.81 4194.11 2693.59C4195.56 2698.35 4197.61 2701.93 4200.24 2704.32C4202.88 2706.68 4205.97 2707.87 4209.51 2707.87ZM4171.61 2860.78V2845.28L4210.47 2784.05H4223.83V2805.5H4215.92L4191.42 2844.28V2845H4246.65V2860.78H4171.61ZM4216.29 2877.14V2856.05L4216.65 2849.18V2784.05H4235.11V2877.14H4216.29Z" fill="black"/>
<path id="203" d="M4207.52 1988.6V1974.42L4240.65 1943.74C4243.47 1941.01 4245.84 1938.55 4247.75 1936.37C4249.68 1934.19 4251.15 1932.05 4252.15 1929.96C4253.15 1927.84 4253.65 1925.55 4253.65 1923.1C4253.65 1920.37 4253.03 1918.02 4251.79 1916.05C4250.55 1914.05 4248.85 1912.52 4246.7 1911.46C4244.55 1910.37 4242.11 1909.83 4239.38 1909.83C4236.53 1909.83 4234.05 1910.4 4231.93 1911.55C4229.81 1912.71 4228.17 1914.36 4227.02 1916.51C4225.87 1918.66 4225.29 1921.22 4225.29 1924.19H4206.61C4206.61 1918.1 4207.99 1912.81 4210.75 1908.33C4213.5 1903.84 4217.37 1900.37 4222.34 1897.92C4227.31 1895.46 4233.03 1894.24 4239.52 1894.24C4246.18 1894.24 4251.99 1895.42 4256.93 1897.78C4261.9 1900.11 4265.76 1903.36 4268.52 1907.51C4271.28 1911.66 4272.65 1916.42 4272.65 1921.78C4272.65 1925.3 4271.96 1928.77 4270.56 1932.19C4269.2 1935.61 4266.76 1939.42 4263.25 1943.6C4259.73 1947.75 4254.78 1952.74 4248.38 1958.55L4234.79 1971.87V1972.51H4273.88V1988.6H4207.52ZM4244.02 2145.65C4236.2 2145.61 4229.47 2143.69 4223.84 2139.87C4218.23 2136.05 4213.91 2130.52 4210.88 2123.28C4207.88 2116.04 4206.4 2107.33 4206.43 2097.15C4206.43 2086.99 4207.93 2078.34 4210.93 2071.19C4213.96 2064.04 4218.28 2058.6 4223.88 2054.87C4229.52 2051.11 4236.23 2049.24 4244.02 2049.24C4251.81 2049.24 4258.5 2051.11 4264.11 2054.87C4269.75 2058.63 4274.08 2064.08 4277.11 2071.24C4280.14 2078.36 4281.64 2086.99 4281.61 2097.15C4281.61 2107.36 4280.09 2116.08 4277.06 2123.33C4274.06 2130.57 4269.76 2136.1 4264.15 2139.92C4258.55 2143.74 4251.84 2145.65 4244.02 2145.65ZM4244.02 2129.33C4249.35 2129.33 4253.61 2126.65 4256.79 2121.28C4259.97 2115.92 4261.55 2107.87 4261.52 2097.15C4261.52 2090.08 4260.79 2084.21 4259.34 2079.51C4257.91 2074.81 4255.88 2071.28 4253.25 2068.92C4250.64 2066.55 4247.56 2065.37 4244.02 2065.37C4238.72 2065.37 4234.47 2068.02 4231.29 2073.33C4228.11 2078.63 4226.5 2086.57 4226.47 2097.15C4226.47 2104.3 4227.18 2110.27 4228.61 2115.05C4230.06 2119.81 4232.11 2123.39 4234.75 2125.78C4237.38 2128.15 4240.47 2129.33 4244.02 2129.33ZM4241.93 2299.87C4235.14 2299.87 4229.09 2298.71 4223.79 2296.37C4218.52 2294.01 4214.35 2290.77 4211.29 2286.65C4208.26 2282.49 4206.7 2277.71 4206.61 2272.28H4226.43C4226.55 2274.55 4227.29 2276.55 4228.65 2278.28C4230.05 2279.98 4231.9 2281.3 4234.2 2282.24C4236.5 2283.18 4239.09 2283.65 4241.97 2283.65C4244.97 2283.65 4247.62 2283.11 4249.93 2282.05C4252.23 2280.99 4254.03 2279.52 4255.34 2277.65C4256.64 2275.77 4257.29 2273.6 4257.29 2271.15C4257.29 2268.66 4256.59 2266.46 4255.2 2264.55C4253.84 2262.61 4251.87 2261.1 4249.29 2260.01C4246.75 2258.92 4243.72 2258.37 4240.2 2258.37H4231.52V2243.92H4240.2C4243.17 2243.92 4245.79 2243.4 4248.06 2242.37C4250.37 2241.34 4252.15 2239.92 4253.43 2238.1C4254.7 2236.25 4255.34 2234.1 4255.34 2231.65C4255.34 2229.31 4254.78 2227.27 4253.65 2225.51C4252.56 2223.72 4251.02 2222.33 4249.02 2221.33C4247.05 2220.33 4244.75 2219.83 4242.11 2219.83C4239.44 2219.83 4237 2220.31 4234.79 2221.28C4232.58 2222.22 4230.81 2223.57 4229.47 2225.33C4228.14 2227.08 4227.43 2229.15 4227.34 2231.51H4208.47C4208.56 2226.15 4210.09 2221.42 4213.06 2217.33C4216.03 2213.24 4220.03 2210.04 4225.06 2207.74C4230.12 2205.4 4235.84 2204.24 4242.2 2204.24C4248.62 2204.24 4254.25 2205.4 4259.06 2207.74C4263.88 2210.07 4267.62 2213.22 4270.29 2217.19C4272.99 2221.13 4274.32 2225.55 4274.29 2230.46C4274.32 2235.68 4272.7 2240.02 4269.43 2243.51C4266.18 2246.99 4261.96 2249.21 4256.75 2250.15V2250.87C4263.59 2251.75 4268.81 2254.13 4272.38 2258.01C4275.99 2261.86 4277.78 2266.68 4277.75 2272.46C4277.78 2277.77 4276.25 2282.48 4273.15 2286.6C4270.09 2290.72 4265.87 2293.96 4260.47 2296.33C4255.08 2298.69 4248.9 2299.87 4241.93 2299.87Z" fill="black"/>
<path id="201" d="M3467.97 1473.06V1458.88L3501.1 1428.2C3503.92 1425.47 3506.29 1423.02 3508.19 1420.84C3510.13 1418.66 3511.6 1416.52 3512.6 1414.43C3513.6 1412.31 3514.1 1410.02 3514.1 1407.56C3514.1 1404.84 3513.48 1402.49 3512.24 1400.52C3511 1398.52 3509.3 1396.99 3507.15 1395.93C3505 1394.84 3502.56 1394.29 3499.83 1394.29C3496.98 1394.29 3494.5 1394.87 3492.38 1396.02C3490.26 1397.17 3488.62 1398.82 3487.47 1400.97C3486.32 1403.13 3485.74 1405.69 3485.74 1408.66H3467.06C3467.06 1402.56 3468.44 1397.28 3471.19 1392.79C3473.95 1388.31 3477.82 1384.84 3482.79 1382.38C3487.76 1379.93 3493.48 1378.7 3499.97 1378.7C3506.63 1378.7 3512.44 1379.88 3517.38 1382.25C3522.35 1384.58 3526.21 1387.82 3528.97 1391.97C3531.72 1396.13 3533.1 1400.88 3533.1 1406.25C3533.1 1409.76 3532.41 1413.23 3531.01 1416.66C3529.65 1420.08 3527.21 1423.88 3523.69 1428.06C3520.18 1432.22 3515.22 1437.2 3508.83 1443.02L3495.24 1456.34V1456.97H3534.33V1473.06H3467.97ZM3504.47 1630.11C3496.65 1630.08 3489.92 1628.16 3484.29 1624.34C3478.68 1620.52 3474.36 1614.99 3471.33 1607.75C3468.33 1600.5 3466.85 1591.79 3466.88 1581.61C3466.88 1571.46 3468.38 1562.81 3471.38 1555.66C3474.41 1548.5 3478.72 1543.06 3484.33 1539.34C3489.97 1535.58 3496.68 1533.7 3504.47 1533.7C3512.26 1533.7 3518.95 1535.58 3524.56 1539.34C3530.19 1543.09 3534.53 1548.55 3537.56 1555.7C3540.59 1562.82 3542.09 1571.46 3542.06 1581.61C3542.06 1591.82 3540.54 1600.55 3537.51 1607.79C3534.51 1615.03 3530.21 1620.56 3524.6 1624.38C3519 1628.2 3512.29 1630.11 3504.47 1630.11ZM3504.47 1613.79C3509.8 1613.79 3514.06 1611.11 3517.24 1605.75C3520.42 1600.38 3522 1592.34 3521.97 1581.61C3521.97 1574.55 3521.24 1568.67 3519.79 1563.97C3518.36 1559.28 3516.33 1555.75 3513.69 1553.38C3511.09 1551.02 3508.01 1549.84 3504.47 1549.84C3499.16 1549.84 3494.92 1552.49 3491.74 1557.79C3488.56 1563.09 3486.95 1571.03 3486.92 1581.61C3486.92 1588.76 3487.63 1594.73 3489.06 1599.52C3490.51 1604.28 3492.56 1607.85 3495.19 1610.25C3497.83 1612.61 3500.92 1613.79 3504.47 1613.79ZM3508.47 1689.97V1783.06H3488.79V1708.66H3488.24L3466.92 1722.02V1704.56L3489.97 1689.97H3508.47Z" fill="black"/>
<path id="215" d="M2385.4 1096.54V1082.36L2418.53 1051.68C2421.35 1048.95 2423.72 1046.49 2425.62 1044.31C2427.56 1042.13 2429.03 1039.99 2430.03 1037.9C2431.03 1035.78 2431.53 1033.49 2431.53 1031.04C2431.53 1028.31 2430.91 1025.96 2429.67 1023.99C2428.43 1021.99 2426.73 1020.46 2424.58 1019.4C2422.43 1018.31 2419.99 1017.77 2417.26 1017.77C2414.41 1017.77 2411.93 1018.34 2409.81 1019.49C2407.68 1020.65 2406.05 1022.3 2404.9 1024.45C2403.75 1026.6 2403.17 1029.16 2403.17 1032.13H2384.49C2384.49 1026.04 2385.87 1020.75 2388.62 1016.27C2391.38 1011.78 2395.25 1008.31 2400.22 1005.86C2405.18 1003.4 2410.91 1002.18 2417.4 1002.18C2424.06 1002.18 2429.87 1003.36 2434.81 1005.72C2439.78 1008.05 2443.64 1011.3 2446.4 1015.45C2449.15 1019.6 2450.53 1024.36 2450.53 1029.72C2450.53 1033.24 2449.84 1036.71 2448.44 1040.13C2447.08 1043.55 2444.64 1047.36 2441.12 1051.54C2437.61 1055.69 2432.65 1060.68 2426.26 1066.49L2412.67 1079.81V1080.45H2451.76V1096.54H2385.4ZM2425.9 1158.45V1251.54H2406.22V1177.13H2405.67L2384.35 1190.49V1173.04L2407.4 1158.45H2425.9ZM2419.4 1407.81C2412.97 1407.81 2407.25 1406.63 2402.22 1404.27C2397.22 1401.9 2393.25 1398.65 2390.31 1394.49C2387.37 1390.34 2385.84 1385.58 2385.72 1380.22H2404.81C2405.02 1383.83 2406.53 1386.75 2409.35 1388.99C2412.17 1391.24 2415.52 1392.36 2419.4 1392.36C2422.49 1392.36 2425.22 1391.68 2427.58 1390.31C2429.97 1388.92 2431.84 1386.99 2433.17 1384.54C2434.53 1382.05 2435.22 1379.21 2435.22 1375.99C2435.22 1372.72 2434.52 1369.84 2433.12 1367.36C2431.76 1364.87 2429.87 1362.93 2427.44 1361.54C2425.02 1360.15 2422.25 1359.43 2419.12 1359.4C2416.4 1359.4 2413.75 1359.96 2411.17 1361.08C2408.62 1362.21 2406.64 1363.74 2405.22 1365.68L2387.72 1362.54L2392.12 1313.45H2449.03V1329.54H2408.35L2405.94 1352.86H2406.49C2408.12 1350.55 2410.59 1348.65 2413.9 1347.13C2417.2 1345.61 2420.9 1344.86 2424.99 1344.86C2430.59 1344.86 2435.59 1346.18 2439.99 1348.81C2444.38 1351.45 2447.85 1355.07 2450.4 1359.68C2452.94 1364.25 2454.2 1369.52 2454.17 1375.49C2454.2 1381.77 2452.75 1387.34 2449.81 1392.22C2446.9 1397.07 2442.82 1400.89 2437.58 1403.68C2432.37 1406.43 2426.31 1407.81 2419.4 1407.81Z" fill="black"/>
<path id="216" d="M2830.42 1105.54V1091.36L2863.56 1060.68C2866.38 1057.95 2868.74 1055.5 2870.65 1053.31C2872.59 1051.13 2874.06 1049 2875.06 1046.9C2876.06 1044.78 2876.56 1042.5 2876.56 1040.04C2876.56 1037.31 2875.94 1034.97 2874.7 1033C2873.45 1031 2871.76 1029.47 2869.61 1028.4C2867.45 1027.31 2865.02 1026.77 2862.29 1026.77C2859.44 1026.77 2856.95 1027.34 2854.83 1028.5C2852.71 1029.65 2851.08 1031.3 2849.92 1033.45C2848.77 1035.6 2848.2 1038.16 2848.2 1041.13H2829.52C2829.52 1035.04 2830.89 1029.75 2833.65 1025.27C2836.41 1020.78 2840.27 1017.31 2845.24 1014.86C2850.21 1012.4 2855.94 1011.18 2862.42 1011.18C2869.09 1011.18 2874.89 1012.36 2879.83 1014.72C2884.8 1017.06 2888.67 1020.3 2891.42 1024.45C2894.18 1028.6 2895.56 1033.36 2895.56 1038.72C2895.56 1042.24 2894.86 1045.71 2893.47 1049.13C2892.11 1052.56 2889.67 1056.36 2886.15 1060.54C2882.64 1064.69 2877.68 1069.68 2871.29 1075.5L2857.7 1088.81V1089.45H2896.79V1105.54H2830.42ZM2870.92 1167.45V1260.54H2851.24V1186.13H2850.7L2829.38 1199.5V1182.04L2852.42 1167.45H2870.92ZM2866.15 1416.81C2861.36 1416.78 2856.74 1415.98 2852.29 1414.4C2847.86 1412.83 2843.89 1410.27 2840.38 1406.72C2836.86 1403.18 2834.08 1398.48 2832.02 1392.63C2829.98 1386.78 2828.97 1379.6 2828.97 1371.09C2829 1363.27 2829.89 1356.28 2831.65 1350.13C2833.44 1343.95 2835.98 1338.71 2839.29 1334.4C2842.62 1330.1 2846.61 1326.83 2851.24 1324.59C2855.88 1322.31 2861.08 1321.18 2866.83 1321.18C2873.05 1321.18 2878.53 1322.39 2883.29 1324.81C2888.05 1327.21 2891.86 1330.47 2894.74 1334.59C2897.65 1338.71 2899.41 1343.33 2900.02 1348.45H2880.61C2879.85 1345.21 2878.26 1342.66 2875.83 1340.81C2873.41 1338.97 2870.41 1338.04 2866.83 1338.04C2860.77 1338.04 2856.17 1340.68 2853.02 1345.95C2849.89 1351.22 2848.3 1358.39 2848.24 1367.45H2848.88C2850.27 1364.69 2852.15 1362.34 2854.52 1360.4C2856.91 1358.43 2859.62 1356.93 2862.65 1355.9C2865.71 1354.84 2868.94 1354.31 2872.33 1354.31C2877.85 1354.31 2882.76 1355.62 2887.06 1358.22C2891.36 1360.8 2894.76 1364.34 2897.24 1368.86C2899.73 1373.37 2900.97 1378.54 2900.97 1384.36C2900.97 1390.66 2899.5 1396.27 2896.56 1401.18C2893.65 1406.09 2889.58 1409.93 2884.33 1412.72C2879.12 1415.48 2873.06 1416.84 2866.15 1416.81ZM2866.06 1401.36C2869.09 1401.36 2871.8 1400.63 2874.2 1399.18C2876.59 1397.72 2878.47 1395.75 2879.83 1393.27C2881.2 1390.78 2881.88 1388 2881.88 1384.9C2881.88 1381.81 2881.2 1379.04 2879.83 1376.59C2878.5 1374.13 2876.65 1372.18 2874.29 1370.72C2871.92 1369.27 2869.23 1368.54 2866.2 1368.54C2863.92 1368.54 2861.82 1368.97 2859.88 1369.81C2857.97 1370.66 2856.29 1371.84 2854.83 1373.36C2853.41 1374.87 2852.29 1376.63 2851.47 1378.63C2850.65 1380.6 2850.24 1382.71 2850.24 1384.95C2850.24 1387.95 2850.92 1390.69 2852.29 1393.18C2853.68 1395.66 2855.56 1397.65 2857.92 1399.13C2860.32 1400.62 2863.03 1401.36 2866.06 1401.36Z" fill="black"/>
<path id="Vector 150" d="M2027.33 804.279H2166.59V778.277H2027.33V747.525H2166.59V715.023H2027.33V684.271H2166.59V650.268H2027.33V613.016H2166.59V582.264H2027.33" stroke="#242424" stroke-width="13"/>
<path id="Vector 152" d="M3238.91 804.029H3378.17V778.027H3238.91V747.275H3378.17V714.773H3238.91V684.021H3378.17V650.018H3238.91V612.766H3378.17V582.014H3238.91" stroke="#242424" stroke-width="13"/>
<path id="Vector 153" d="M3061.89 878.534H3201.15V852.533H3061.89V821.781H3201.15V789.278H3061.89V758.526H3201.15V724.524H3061.89V687.272H3201.15V656.52H3061.89" stroke="#242424" stroke-width="13"/>
<path id="Vector 151" d="M2181.84 878.534H2334.85V852.533H2181.84V821.781H2334.85V789.278H2181.84V758.526H2334.85V724.524H2181.84V687.272H2334.85V656.52H2181.84" stroke="#242424" stroke-width="13"/>
<rect id="Rectangle 178" x="3379.42" y="1066.05" width="50.0034" height="50.0034" fill="#D9D9D9"/>
</g>
</g>
<defs>
<clipPath id="clip0_92_24">
<rect width="5492" height="3898" fill="white"/>
</clipPath>
</defs>
</svg>
