<svg width="10494" height="9533" viewBox="0 0 10494 9533" fill="none" xmlns="http://www.w3.org/2000/svg">
<g id="plan-18corpus">
<rect width="10494" height="9533" fill="white"/>
<path id="Rectangle 133" d="M1523.5 4345H3304L3765 4049V2977H4449V3357H5836V2977H6558V4041L7012 4327L8971 4345V8601H1523.5V4345Z" fill="#242424"/>
<path id="Vector 147" d="M4816 4689C5047.93 5062.51 5117.31 5178.63 5123 5190" stroke="black" stroke-width="13"/>
<path id="Rectangle 134" d="M1612 4408H2205V4677.7H2340V4826.6H2205V5240H1612V4408Z" fill="#9CC7E5"/>
<path id="214class" d="M2258 4408H3624L3837 4667V4765H3908.5V4914.5H3837L3837 5233H2258V4408Z" fill="#9CC7E5"/>
<path id="214" d="M3419.55 4879V4864.82L3452.68 4834.14C3455.5 4831.41 3457.86 4828.95 3459.77 4826.77C3461.71 4824.59 3463.18 4822.45 3464.18 4820.36C3465.18 4818.24 3465.68 4815.95 3465.68 4813.5C3465.68 4810.77 3465.06 4808.42 3463.82 4806.45C3462.58 4804.45 3460.88 4802.92 3458.73 4801.86C3456.58 4800.77 3454.14 4800.23 3451.41 4800.23C3448.56 4800.23 3446.08 4800.8 3443.95 4801.95C3441.83 4803.11 3440.2 4804.76 3439.05 4806.91C3437.89 4809.06 3437.32 4811.62 3437.32 4814.59H3418.64C3418.64 4808.5 3420.02 4803.21 3422.77 4798.73C3425.53 4794.24 3429.39 4790.77 3434.36 4788.32C3439.33 4785.86 3445.06 4784.64 3451.55 4784.64C3458.21 4784.64 3464.02 4785.82 3468.95 4788.18C3473.92 4790.52 3477.79 4793.76 3480.55 4797.91C3483.3 4802.06 3484.68 4806.82 3484.68 4812.18C3484.68 4815.7 3483.98 4819.17 3482.59 4822.59C3481.23 4826.02 3478.79 4829.82 3475.27 4834C3471.76 4838.15 3466.8 4843.14 3460.41 4848.95L3446.82 4862.27V4862.91H3485.91V4879H3419.55ZM3540.67 4785.91V4879H3520.99V4804.59H3520.44L3499.12 4817.95V4800.5L3522.17 4785.91H3540.67ZM3561.39 4862.64V4847.14L3600.25 4785.91H3613.61V4807.36H3605.7L3581.2 4846.14V4846.86H3636.43V4862.64H3561.39ZM3606.07 4879V4857.91L3606.43 4851.05V4785.91H3624.89V4879H3606.07Z" fill="black"/>
<path id="Rectangle 136" d="M3594.5 4221.5L3775.5 4113.5V4335H3401L3594.5 4221.5Z" fill="#9CC7E5"/>
<path id="Rectangle 143" d="M6749 4221.5L6568 4112V4335H6942.5L6749 4221.5Z" fill="#9CC7E5"/>
<path id="Rectangle 137" d="M3824 3029H4074V4354.24H4030.86V4444H3896.46V4354.24H3824V3029Z" fill="#9CC7E5"/>
<path id="Rectangle 138" d="M4122 3029H4397V4335H4122V3029Z" fill="#9CC7E5"/>
<path id="215class" d="M4453 3407H5112L5118 4329.5L4686 4337V4408.5H4546.5V4337H4453V3407Z" fill="#9CC7E5"/>
<path id="216class" d="M5823 3407H5164L5158 4329.5L5590 4337V4408.5H5729.5V4337H5823V3407Z" fill="#9CC7E5"/>
<rect id="Rectangle 141" x="5893" y="3021" width="264" height="1314" fill="#9CC7E5"/>
<path id="Rectangle 142" d="M6233 3020H6511V4333.53H6429.6V4403H6283.93V4333.53H6233V3020Z" fill="#9CC7E5"/>
<path id="213class" d="M1617 5291H2715V6262.38H2396V6410H2315V6476.5H2139.5V6410H1617V5291Z" fill="#9CC7E5"/>
<path id="212class" d="M1612 6992H2264V6897H2464V6992H2620V8504H1612V6992Z" fill="#9CC7E5"/>
<g id="WC">
<path d="M2796 5291H3148V5789H3101V5849.5H2995.5V5789H2796V5291Z" fill="#6698BA"/>
<path d="M3216 5291H3510V5642.5H3567.5V5730H3510V5766H3216V5291Z" fill="#6698BA"/>
<path d="M3554 5291H3837V5400H3903.5V5469.5H3837V5513H3554V5291Z" fill="#6698BA"/>
<path d="M2796 5837H3271V6064.34H3351V6193.94H3271V6253H2796V5837Z" fill="#6698BA"/>
<path d="M3335 5837H3836.56V6064.34H3904V6192.38H3836.56V6253H3335V5837Z" fill="#6698BA"/>
<path d="M3554 5560H3837V5614.5H3894.5V5704H3837V5766H3554V5560Z" fill="#6698BA"/>
</g>
<path id="213" d="M2035.55 6264V6249.82L2068.68 6219.14C2071.5 6216.41 2073.86 6213.95 2075.77 6211.77C2077.71 6209.59 2079.18 6207.45 2080.18 6205.36C2081.18 6203.24 2081.68 6200.95 2081.68 6198.5C2081.68 6195.77 2081.06 6193.42 2079.82 6191.45C2078.58 6189.45 2076.88 6187.92 2074.73 6186.86C2072.58 6185.77 2070.14 6185.23 2067.41 6185.23C2064.56 6185.23 2062.08 6185.8 2059.95 6186.95C2057.83 6188.11 2056.2 6189.76 2055.05 6191.91C2053.89 6194.06 2053.32 6196.62 2053.32 6199.59H2034.64C2034.64 6193.5 2036.02 6188.21 2038.77 6183.73C2041.53 6179.24 2045.39 6175.77 2050.36 6173.32C2055.33 6170.86 2061.06 6169.64 2067.55 6169.64C2074.21 6169.64 2080.02 6170.82 2084.95 6173.18C2089.92 6175.52 2093.79 6178.76 2096.55 6182.91C2099.3 6187.06 2100.68 6191.82 2100.68 6197.18C2100.68 6200.7 2099.98 6204.17 2098.59 6207.59C2097.23 6211.02 2094.79 6214.82 2091.27 6219C2087.76 6223.15 2082.8 6228.14 2076.41 6233.95L2062.82 6247.27V6247.91H2101.91V6264H2035.55ZM2156.67 6170.91V6264H2136.99V6189.59H2136.44L2115.12 6202.95V6185.5L2138.17 6170.91H2156.67ZM2213.2 6265.27C2206.42 6265.27 2200.37 6264.11 2195.07 6261.77C2189.8 6259.41 2185.63 6256.17 2182.57 6252.05C2179.54 6247.89 2177.98 6243.11 2177.89 6237.68H2197.7C2197.83 6239.95 2198.57 6241.95 2199.93 6243.68C2201.33 6245.38 2203.17 6246.7 2205.48 6247.64C2207.78 6248.58 2210.37 6249.05 2213.25 6249.05C2216.25 6249.05 2218.9 6248.52 2221.2 6247.45C2223.51 6246.39 2225.31 6244.92 2226.61 6243.05C2227.92 6241.17 2228.57 6239 2228.57 6236.55C2228.57 6234.06 2227.87 6231.86 2226.48 6229.95C2225.11 6228.02 2223.14 6226.5 2220.57 6225.41C2218.02 6224.32 2214.99 6223.77 2211.48 6223.77H2202.8V6209.32H2211.48C2214.45 6209.32 2217.07 6208.8 2219.34 6207.77C2221.64 6206.74 2223.43 6205.32 2224.7 6203.5C2225.98 6201.65 2226.61 6199.5 2226.61 6197.05C2226.61 6194.71 2226.05 6192.67 2224.93 6190.91C2223.84 6189.12 2222.3 6187.73 2220.3 6186.73C2218.33 6185.73 2216.02 6185.23 2213.39 6185.23C2210.72 6185.23 2208.28 6185.71 2206.07 6186.68C2203.86 6187.62 2202.08 6188.97 2200.75 6190.73C2199.42 6192.48 2198.7 6194.55 2198.61 6196.91H2179.75C2179.84 6191.55 2181.37 6186.82 2184.34 6182.73C2187.31 6178.64 2191.31 6175.44 2196.34 6173.14C2201.4 6170.8 2207.11 6169.64 2213.48 6169.64C2219.9 6169.64 2225.52 6170.8 2230.34 6173.14C2235.16 6175.47 2238.9 6178.62 2241.57 6182.59C2244.27 6186.53 2245.6 6190.95 2245.57 6195.86C2245.6 6201.08 2243.98 6205.42 2240.7 6208.91C2237.46 6212.39 2233.23 6214.61 2228.02 6215.55V6216.27C2234.87 6217.15 2240.08 6219.53 2243.66 6223.41C2247.27 6227.26 2249.05 6232.08 2249.02 6237.86C2249.05 6243.17 2247.52 6247.88 2244.43 6252C2241.37 6256.12 2237.14 6259.36 2231.75 6261.73C2226.36 6264.09 2220.17 6265.27 2213.2 6265.27Z" fill="black"/>
<rect id="Rectangle 152" x="2443" y="6307" width="1394" height="103" fill="#9CC7E5"/>
<path id="210 class" d="M3271 6992H3612.5V6913H3799V6992H4476V8504H3271V6992Z" fill="#9CC7E5"/>
<path id="Rectangle 154" d="M4181 4693H4770V5219H4413V5285H4301.5V5219H4181V4693Z" fill="#9CC7E5"/>
<path id="Rectangle 172" d="M5547 4693H6136V4784.5H6211.5V4939.5H6136V5219H5547V4693Z" fill="#9CC7E5"/>
<g id="Rectangle 155">
<path d="M4819 4693.5H4899V4624H5010.5V4693.5H5123V5190.5H4819V4693.5Z" fill="#9CC7E5"/>
<path d="M4819 4693.5H4899V4624H5010.5V4693.5H5123V5190.5H4819V4693.5Z" fill="#9CC7E5"/>
</g>
<g id="Rectangle 173">
<path d="M5487 4693.5H5407V4624H5295.5V4693.5H5183V5190.5H5487V4693.5Z" fill="#9CC7E5"/>
<path d="M5487 4693.5H5407V4624H5295.5V4693.5H5183V5190.5H5487V4693.5Z" fill="#9CC7E5"/>
</g>
<path id="209class" d="M4181 5271H5117V6266.59V6483.5H4789V6546H4676.5V6483.5H4583.5V6266.59H4181V5271Z" fill="#9CC7E5"/>
<path id="207class" d="M6121 5271H5185V6267V6485H5540V6543.5H5634V6485H5718.5V6267H6121V5271Z" fill="#9CC7E5"/>
<path id="208class" d="M4531 6992H4833.5V6894.5H5007.5V6992H5686V8504H4531V6992Z" fill="#9CC7E5"/>
<path id="206class" d="M5741 6995H5946.5V6921H6112.5V6995H6608V8507H5741V6995Z" fill="#9CC7E5"/>
<path id="205class" d="M6676 6992H6887V6905H7058.5V6992H7464.75V6892.5H7637.5V6992H7871V8504H6676V6992Z" fill="#9CC7E5"/>
<path id="204class" d="M7931 6992H8117.5V6911.5H8302.5V6992H8885V8504H7931V6992Z" fill="#9CC7E5"/>
<path id="Rectangle 164" d="M8319 4393H8885V4989H8519.5V5067H8412.5V4989H8319V4393Z" fill="#9CC7E5"/>
<path id="Rectangle 165" d="M7779 4393H8257V4989H8178.5V5061H8069V4989H7779V4393Z" fill="#9CC7E5"/>
<path id="203class" d="M7779 5054H8885V6105.12H8457.31V6408.5H8385V6489.5H8247V6408.5H8177.68V6197.51H7779V5054Z" fill="#9CC7E5"/>
<rect id="Rectangle 168" x="8510" y="6161" width="373" height="247" fill="#9CC7E5"/>
<path id="201class" d="M6814.42 4393H7727V6202H6533V5076.5H6467V4895.5H6533V4684.11L6814.42 4393Z" fill="#9CC7E5"/>
<path id="corridor" d="M1616 6451L3889.5 6460V4653.5L3690.5 4411.5L6480.5 4393H6729L6480.5 4653.5H6185.5H4128V6460H4538V6528H5760V6460H6161.89L6161 6528L6185.5 4653.5H6480.5V6460H8883.5V6943H1616V6451Z" fill="#9CC7E5"/>
<rect id="Rectangle 170" x="6533" y="6265" width="1575" height="145" fill="#9CC7E5"/>
<rect id="Rectangle 174" x="4182" y="6307" width="349" height="103" fill="#9CC7E5"/>
<path id="Rectangle 176" d="M5762 6300H6121V6410H5762V6300Z" fill="#9CC7E5"/>
<path id="Vector 145" d="M4816 4689C5047.93 5062.51 5117.31 5178.63 5123 5190" stroke="black" stroke-width="13"/>
<path id="Vector 146" d="M5123 4689C4891.07 5062.51 4821.69 5178.63 4816 5190" stroke="black" stroke-width="13"/>
<path id="Vector 148" d="M5179 4692C5424.6 5094.8 5496.67 5212.17 5502 5220.5L5407 5235" stroke="#242424" stroke-width="13"/>
<path id="Vector 149" d="M5499 4677C5255.68 5079.06 5184.28 5196.21 5179 5204.53L5273.12 5219" stroke="#242424" stroke-width="13"/>
<path id="211class" d="M2683 6992H2839.5V6909.5H3050V6992H3216V8504H2683V6992Z" fill="#9CC7E5"/>
<path id="WC_2" d="M3612.05 5710L3585.41 5616.91H3606.91L3622.32 5681.59H3623.09L3640.09 5616.91H3658.5L3675.45 5681.73H3676.27L3691.68 5616.91H3713.18L3686.55 5710H3667.36L3649.64 5649.14H3648.91L3631.23 5710H3612.05ZM3800.6 5649.5H3780.69C3780.33 5646.92 3779.59 5644.64 3778.47 5642.64C3777.34 5640.61 3775.91 5638.88 3774.15 5637.45C3772.39 5636.03 3770.36 5634.94 3768.06 5634.18C3765.78 5633.42 3763.31 5633.05 3760.65 5633.05C3755.83 5633.05 3751.63 5634.24 3748.06 5636.64C3744.48 5639 3741.71 5642.45 3739.74 5647C3737.77 5651.52 3736.78 5657 3736.78 5663.45C3736.78 5670.09 3737.77 5675.67 3739.74 5680.18C3741.74 5684.7 3744.53 5688.11 3748.1 5690.41C3751.68 5692.71 3755.81 5693.86 3760.51 5693.86C3763.15 5693.86 3765.59 5693.52 3767.83 5692.82C3770.1 5692.12 3772.12 5691.11 3773.88 5689.77C3775.63 5688.41 3777.09 5686.76 3778.24 5684.82C3779.42 5682.88 3780.24 5680.67 3780.69 5678.18L3800.6 5678.27C3800.09 5682.55 3798.8 5686.67 3796.74 5690.64C3794.71 5694.58 3791.97 5698.11 3788.51 5701.23C3785.09 5704.32 3781 5706.77 3776.24 5708.59C3771.51 5710.38 3766.16 5711.27 3760.19 5711.27C3751.89 5711.27 3744.47 5709.39 3737.92 5705.64C3731.41 5701.88 3726.25 5696.44 3722.47 5689.32C3718.71 5682.2 3716.83 5673.58 3716.83 5663.45C3716.83 5653.3 3718.74 5644.67 3722.56 5637.55C3726.38 5630.42 3731.56 5625 3738.1 5621.27C3744.65 5617.52 3752.01 5615.64 3760.19 5615.64C3765.59 5615.64 3770.59 5616.39 3775.19 5617.91C3779.83 5619.42 3783.94 5621.64 3787.51 5624.55C3791.09 5627.42 3794 5630.95 3796.24 5635.14C3798.51 5639.32 3799.97 5644.11 3800.6 5649.5Z" fill="black"/>
<path id="212" d="M2226.55 7211V7196.82L2259.68 7166.14C2262.5 7163.41 2264.86 7160.95 2266.77 7158.77C2268.71 7156.59 2270.18 7154.45 2271.18 7152.36C2272.18 7150.24 2272.68 7147.95 2272.68 7145.5C2272.68 7142.77 2272.06 7140.42 2270.82 7138.45C2269.58 7136.45 2267.88 7134.92 2265.73 7133.86C2263.58 7132.77 2261.14 7132.23 2258.41 7132.23C2255.56 7132.23 2253.08 7132.8 2250.95 7133.95C2248.83 7135.11 2247.2 7136.76 2246.05 7138.91C2244.89 7141.06 2244.32 7143.62 2244.32 7146.59H2225.64C2225.64 7140.5 2227.02 7135.21 2229.77 7130.73C2232.53 7126.24 2236.39 7122.77 2241.36 7120.32C2246.33 7117.86 2252.06 7116.64 2258.55 7116.64C2265.21 7116.64 2271.02 7117.82 2275.95 7120.18C2280.92 7122.52 2284.79 7125.76 2287.55 7129.91C2290.3 7134.06 2291.68 7138.82 2291.68 7144.18C2291.68 7147.7 2290.98 7151.17 2289.59 7154.59C2288.23 7158.02 2285.79 7161.82 2282.27 7166C2278.76 7170.15 2273.8 7175.14 2267.41 7180.95L2253.82 7194.27V7194.91H2292.91V7211H2226.55ZM2347.67 7117.91V7211H2327.99V7136.59H2327.44L2306.12 7149.95V7132.5L2329.17 7117.91H2347.67ZM2369.8 7211V7196.82L2402.93 7166.14C2405.75 7163.41 2408.11 7160.95 2410.02 7158.77C2411.96 7156.59 2413.43 7154.45 2414.43 7152.36C2415.43 7150.24 2415.93 7147.95 2415.93 7145.5C2415.93 7142.77 2415.31 7140.42 2414.07 7138.45C2412.83 7136.45 2411.13 7134.92 2408.98 7133.86C2406.83 7132.77 2404.39 7132.23 2401.66 7132.23C2398.81 7132.23 2396.33 7132.8 2394.2 7133.95C2392.08 7135.11 2390.45 7136.76 2389.3 7138.91C2388.14 7141.06 2387.57 7143.62 2387.57 7146.59H2368.89C2368.89 7140.5 2370.27 7135.21 2373.02 7130.73C2375.78 7126.24 2379.64 7122.77 2384.61 7120.32C2389.58 7117.86 2395.31 7116.64 2401.8 7116.64C2408.46 7116.64 2414.27 7117.82 2419.2 7120.18C2424.17 7122.52 2428.04 7125.76 2430.8 7129.91C2433.55 7134.06 2434.93 7138.82 2434.93 7144.18C2434.93 7147.7 2434.23 7151.17 2432.84 7154.59C2431.48 7158.02 2429.04 7161.82 2425.52 7166C2422.01 7170.15 2417.05 7175.14 2410.66 7180.95L2397.07 7194.27V7194.91H2436.16V7211H2369.8Z" fill="black"/>
<path id="211" d="M2894.55 7211V7196.82L2927.68 7166.14C2930.5 7163.41 2932.86 7160.95 2934.77 7158.77C2936.71 7156.59 2938.18 7154.45 2939.18 7152.36C2940.18 7150.24 2940.68 7147.95 2940.68 7145.5C2940.68 7142.77 2940.06 7140.42 2938.82 7138.45C2937.58 7136.45 2935.88 7134.92 2933.73 7133.86C2931.58 7132.77 2929.14 7132.23 2926.41 7132.23C2923.56 7132.23 2921.08 7132.8 2918.95 7133.95C2916.83 7135.11 2915.2 7136.76 2914.05 7138.91C2912.89 7141.06 2912.32 7143.62 2912.32 7146.59H2893.64C2893.64 7140.5 2895.02 7135.21 2897.77 7130.73C2900.53 7126.24 2904.39 7122.77 2909.36 7120.32C2914.33 7117.86 2920.06 7116.64 2926.55 7116.64C2933.21 7116.64 2939.02 7117.82 2943.95 7120.18C2948.92 7122.52 2952.79 7125.76 2955.55 7129.91C2958.3 7134.06 2959.68 7138.82 2959.68 7144.18C2959.68 7147.7 2958.98 7151.17 2957.59 7154.59C2956.23 7158.02 2953.79 7161.82 2950.27 7166C2946.76 7170.15 2941.8 7175.14 2935.41 7180.95L2921.82 7194.27V7194.91H2960.91V7211H2894.55ZM3015.67 7117.91V7211H2995.99V7136.59H2995.44L2974.12 7149.95V7132.5L2997.17 7117.91H3015.67ZM3078.3 7117.91V7211H3058.61V7136.59H3058.07L3036.75 7149.95V7132.5L3059.8 7117.91H3078.3Z" fill="black"/>
<path id="210" d="M3649.55 7211V7196.82L3682.68 7166.14C3685.5 7163.41 3687.86 7160.95 3689.77 7158.77C3691.71 7156.59 3693.18 7154.45 3694.18 7152.36C3695.18 7150.24 3695.68 7147.95 3695.68 7145.5C3695.68 7142.77 3695.06 7140.42 3693.82 7138.45C3692.58 7136.45 3690.88 7134.92 3688.73 7133.86C3686.58 7132.77 3684.14 7132.23 3681.41 7132.23C3678.56 7132.23 3676.08 7132.8 3673.95 7133.95C3671.83 7135.11 3670.2 7136.76 3669.05 7138.91C3667.89 7141.06 3667.32 7143.62 3667.32 7146.59H3648.64C3648.64 7140.5 3650.02 7135.21 3652.77 7130.73C3655.53 7126.24 3659.39 7122.77 3664.36 7120.32C3669.33 7117.86 3675.06 7116.64 3681.55 7116.64C3688.21 7116.64 3694.02 7117.82 3698.95 7120.18C3703.92 7122.52 3707.79 7125.76 3710.55 7129.91C3713.3 7134.06 3714.68 7138.82 3714.68 7144.18C3714.68 7147.7 3713.98 7151.17 3712.59 7154.59C3711.23 7158.02 3708.79 7161.82 3705.27 7166C3701.76 7170.15 3696.8 7175.14 3690.41 7180.95L3676.82 7194.27V7194.91H3715.91V7211H3649.55ZM3770.67 7117.91V7211H3750.99V7136.59H3750.44L3729.12 7149.95V7132.5L3752.17 7117.91H3770.67ZM3829.3 7213.05C3821.48 7213.02 3814.75 7211.09 3809.11 7207.27C3803.51 7203.45 3799.19 7197.92 3796.16 7190.68C3793.16 7183.44 3791.67 7174.73 3791.7 7164.55C3791.7 7154.39 3793.2 7145.74 3796.2 7138.59C3799.23 7131.44 3803.55 7126 3809.16 7122.27C3814.8 7118.52 3821.51 7116.64 3829.3 7116.64C3837.08 7116.64 3843.78 7118.52 3849.39 7122.27C3855.02 7126.03 3859.36 7131.48 3862.39 7138.64C3865.42 7145.76 3866.92 7154.39 3866.89 7164.55C3866.89 7174.76 3865.37 7183.48 3862.34 7190.73C3859.34 7197.97 3855.04 7203.5 3849.43 7207.32C3843.83 7211.14 3837.11 7213.05 3829.3 7213.05ZM3829.3 7196.73C3834.63 7196.73 3838.89 7194.05 3842.07 7188.68C3845.25 7183.32 3846.83 7175.27 3846.8 7164.55C3846.8 7157.48 3846.07 7151.61 3844.61 7146.91C3843.19 7142.21 3841.16 7138.68 3838.52 7136.32C3835.92 7133.95 3832.84 7132.77 3829.3 7132.77C3823.99 7132.77 3819.75 7135.42 3816.57 7140.73C3813.39 7146.03 3811.78 7153.97 3811.75 7164.55C3811.75 7171.7 3812.46 7177.67 3813.89 7182.45C3815.34 7187.21 3817.39 7190.79 3820.02 7193.18C3822.66 7195.55 3825.75 7196.73 3829.3 7196.73Z" fill="black"/>
<path id="208" d="M4814.55 7211V7196.82L4847.68 7166.14C4850.5 7163.41 4852.86 7160.95 4854.77 7158.77C4856.71 7156.59 4858.18 7154.45 4859.18 7152.36C4860.18 7150.24 4860.68 7147.95 4860.68 7145.5C4860.68 7142.77 4860.06 7140.42 4858.82 7138.45C4857.58 7136.45 4855.88 7134.92 4853.73 7133.86C4851.58 7132.77 4849.14 7132.23 4846.41 7132.23C4843.56 7132.23 4841.08 7132.8 4838.95 7133.95C4836.83 7135.11 4835.2 7136.76 4834.05 7138.91C4832.89 7141.06 4832.32 7143.62 4832.32 7146.59H4813.64C4813.64 7140.5 4815.02 7135.21 4817.77 7130.73C4820.53 7126.24 4824.39 7122.77 4829.36 7120.32C4834.33 7117.86 4840.06 7116.64 4846.55 7116.64C4853.21 7116.64 4859.02 7117.82 4863.95 7120.18C4868.92 7122.52 4872.79 7125.76 4875.55 7129.91C4878.3 7134.06 4879.68 7138.82 4879.68 7144.18C4879.68 7147.7 4878.98 7151.17 4877.59 7154.59C4876.23 7158.02 4873.79 7161.82 4870.27 7166C4866.76 7170.15 4861.8 7175.14 4855.41 7180.95L4841.82 7194.27V7194.91H4880.91V7211H4814.55ZM4931.67 7213.05C4923.85 7213.02 4917.13 7211.09 4911.49 7207.27C4905.88 7203.45 4901.56 7197.92 4898.53 7190.68C4895.53 7183.44 4894.05 7174.73 4894.08 7164.55C4894.08 7154.39 4895.58 7145.74 4898.58 7138.59C4901.61 7131.44 4905.93 7126 4911.53 7122.27C4917.17 7118.52 4923.88 7116.64 4931.67 7116.64C4939.46 7116.64 4946.16 7118.52 4951.76 7122.27C4957.4 7126.03 4961.73 7131.48 4964.76 7138.64C4967.79 7145.76 4969.29 7154.39 4969.26 7164.55C4969.26 7174.76 4967.75 7183.48 4964.72 7190.73C4961.72 7197.97 4957.41 7203.5 4951.81 7207.32C4946.2 7211.14 4939.49 7213.05 4931.67 7213.05ZM4931.67 7196.73C4937 7196.73 4941.26 7194.05 4944.44 7188.68C4947.63 7183.32 4949.2 7175.27 4949.17 7164.55C4949.17 7157.48 4948.44 7151.61 4946.99 7146.91C4945.56 7142.21 4943.53 7138.68 4940.9 7136.32C4938.29 7133.95 4935.22 7132.77 4931.67 7132.77C4926.37 7132.77 4922.13 7135.42 4918.94 7140.73C4915.76 7146.03 4914.16 7153.97 4914.12 7164.55C4914.12 7171.7 4914.84 7177.67 4916.26 7182.45C4917.72 7187.21 4919.76 7190.79 4922.4 7193.18C4925.03 7195.55 4928.12 7196.73 4931.67 7196.73ZM5018.02 7212.27C5011.02 7212.27 5004.8 7211.14 4999.34 7208.86C4993.92 7206.56 4989.66 7203.42 4986.57 7199.45C4983.48 7195.48 4981.93 7190.98 4981.93 7185.95C4981.93 7182.08 4982.81 7178.52 4984.57 7175.27C4986.36 7172 4988.78 7169.29 4991.84 7167.14C4994.9 7164.95 4998.33 7163.56 5002.11 7162.95V7162.32C4997.14 7161.32 4993.11 7158.91 4990.02 7155.09C4986.93 7151.24 4985.39 7146.77 4985.39 7141.68C4985.39 7136.86 4986.8 7132.58 4989.61 7128.82C4992.43 7125.03 4996.3 7122.06 5001.2 7119.91C5006.14 7117.73 5011.75 7116.64 5018.02 7116.64C5024.3 7116.64 5029.89 7117.73 5034.8 7119.91C5039.73 7122.09 5043.61 7125.08 5046.43 7128.86C5049.25 7132.62 5050.67 7136.89 5050.7 7141.68C5050.67 7146.8 5049.1 7151.27 5045.98 7155.09C5042.86 7158.91 5038.86 7161.32 5033.98 7162.32V7162.95C5037.7 7163.56 5041.08 7164.95 5044.11 7167.14C5047.17 7169.29 5049.6 7172 5051.39 7175.27C5053.2 7178.52 5054.13 7182.08 5054.16 7185.95C5054.13 7190.98 5052.57 7195.48 5049.48 7199.45C5046.39 7203.42 5042.11 7206.56 5036.66 7208.86C5031.23 7211.14 5025.02 7212.27 5018.02 7212.27ZM5018.02 7197.82C5021.14 7197.82 5023.87 7197.26 5026.2 7196.14C5028.54 7194.98 5030.36 7193.41 5031.66 7191.41C5032.99 7189.38 5033.66 7187.05 5033.66 7184.41C5033.66 7181.71 5032.98 7179.33 5031.61 7177.27C5030.25 7175.18 5028.4 7173.55 5026.07 7172.36C5023.73 7171.15 5021.05 7170.55 5018.02 7170.55C5015.02 7170.55 5012.34 7171.15 5009.98 7172.36C5007.61 7173.55 5005.75 7175.18 5004.39 7177.27C5003.05 7179.33 5002.39 7181.71 5002.39 7184.41C5002.39 7187.05 5003.04 7189.38 5004.34 7191.41C5005.64 7193.41 5007.48 7194.98 5009.84 7196.14C5012.2 7197.26 5014.93 7197.82 5018.02 7197.82ZM5018.02 7156.23C5020.63 7156.23 5022.95 7155.7 5024.98 7154.64C5027.01 7153.58 5028.6 7152.11 5029.75 7150.23C5030.9 7148.35 5031.48 7146.18 5031.48 7143.73C5031.48 7141.3 5030.9 7139.18 5029.75 7137.36C5028.6 7135.52 5027.02 7134.08 5025.02 7133.05C5023.02 7131.98 5020.69 7131.45 5018.02 7131.45C5015.39 7131.45 5013.05 7131.98 5011.02 7133.05C5008.99 7134.08 5007.4 7135.52 5006.25 7137.36C5005.13 7139.18 5004.57 7141.3 5004.57 7143.73C5004.57 7146.18 5005.14 7148.35 5006.3 7150.23C5007.45 7152.11 5009.04 7153.58 5011.07 7154.64C5013.1 7155.7 5015.42 7156.23 5018.02 7156.23Z" fill="black"/>
<path id="209" d="M4738.55 6410V6395.82L4771.68 6365.14C4774.5 6362.41 4776.86 6359.95 4778.77 6357.77C4780.71 6355.59 4782.18 6353.45 4783.18 6351.36C4784.18 6349.24 4784.68 6346.95 4784.68 6344.5C4784.68 6341.77 4784.06 6339.42 4782.82 6337.45C4781.58 6335.45 4779.88 6333.92 4777.73 6332.86C4775.58 6331.77 4773.14 6331.23 4770.41 6331.23C4767.56 6331.23 4765.08 6331.8 4762.95 6332.95C4760.83 6334.11 4759.2 6335.76 4758.05 6337.91C4756.89 6340.06 4756.32 6342.62 4756.32 6345.59H4737.64C4737.64 6339.5 4739.02 6334.21 4741.77 6329.73C4744.53 6325.24 4748.39 6321.77 4753.36 6319.32C4758.33 6316.86 4764.06 6315.64 4770.55 6315.64C4777.21 6315.64 4783.02 6316.82 4787.95 6319.18C4792.92 6321.52 4796.79 6324.76 4799.55 6328.91C4802.3 6333.06 4803.68 6337.82 4803.68 6343.18C4803.68 6346.7 4802.98 6350.17 4801.59 6353.59C4800.23 6357.02 4797.79 6360.82 4794.27 6365C4790.76 6369.15 4785.8 6374.14 4779.41 6379.95L4765.82 6393.27V6393.91H4804.91V6410H4738.55ZM4855.67 6412.05C4847.85 6412.02 4841.13 6410.09 4835.49 6406.27C4829.88 6402.45 4825.56 6396.92 4822.53 6389.68C4819.53 6382.44 4818.05 6373.73 4818.08 6363.55C4818.08 6353.39 4819.58 6344.74 4822.58 6337.59C4825.61 6330.44 4829.93 6325 4835.53 6321.27C4841.17 6317.52 4847.88 6315.64 4855.67 6315.64C4863.46 6315.64 4870.16 6317.52 4875.76 6321.27C4881.4 6325.03 4885.73 6330.48 4888.76 6337.64C4891.79 6344.76 4893.29 6353.39 4893.26 6363.55C4893.26 6373.76 4891.75 6382.48 4888.72 6389.73C4885.72 6396.97 4881.41 6402.5 4875.81 6406.32C4870.2 6410.14 4863.49 6412.05 4855.67 6412.05ZM4855.67 6395.73C4861 6395.73 4865.26 6393.05 4868.44 6387.68C4871.63 6382.32 4873.2 6374.27 4873.17 6363.55C4873.17 6356.48 4872.44 6350.61 4870.99 6345.91C4869.56 6341.21 4867.53 6337.68 4864.9 6335.32C4862.29 6332.95 4859.22 6331.77 4855.67 6331.77C4850.37 6331.77 4846.13 6334.42 4842.94 6339.73C4839.76 6345.03 4838.16 6352.97 4838.12 6363.55C4838.12 6370.7 4838.84 6376.67 4840.26 6381.45C4841.72 6386.21 4843.76 6389.79 4846.4 6392.18C4849.03 6394.55 4852.12 6395.73 4855.67 6395.73ZM4940.98 6315.64C4945.77 6315.64 4950.37 6316.44 4954.8 6318.05C4959.25 6319.65 4963.22 6322.21 4966.7 6325.73C4970.22 6329.24 4972.99 6333.91 4975.02 6339.73C4977.08 6345.52 4978.13 6352.62 4978.16 6361.05C4978.16 6368.95 4977.27 6376.02 4975.48 6382.23C4973.72 6388.41 4971.19 6393.67 4967.89 6398C4964.58 6402.33 4960.6 6405.64 4955.93 6407.91C4951.27 6410.15 4946.05 6411.27 4940.3 6411.27C4934.08 6411.27 4928.6 6410.08 4923.84 6407.68C4919.08 6405.26 4915.25 6401.97 4912.34 6397.82C4909.46 6393.64 4907.72 6388.94 4907.11 6383.73H4926.52C4927.28 6387.12 4928.87 6389.76 4931.3 6391.64C4933.72 6393.48 4936.72 6394.41 4940.3 6394.41C4946.36 6394.41 4950.96 6391.77 4954.11 6386.5C4957.27 6381.2 4958.86 6373.94 4958.89 6364.73H4958.25C4956.86 6367.45 4954.98 6369.8 4952.61 6371.77C4950.25 6373.71 4947.54 6375.21 4944.48 6376.27C4941.45 6377.33 4938.22 6377.86 4934.8 6377.86C4929.31 6377.86 4924.42 6376.58 4920.11 6374C4915.81 6371.42 4912.42 6367.88 4909.93 6363.36C4907.45 6358.85 4906.2 6353.7 4906.2 6347.91C4906.17 6341.67 4907.61 6336.11 4910.52 6331.23C4913.43 6326.35 4917.49 6322.53 4922.7 6319.77C4927.95 6316.98 4934.04 6315.61 4940.98 6315.64ZM4941.11 6331.09C4938.05 6331.09 4935.33 6331.82 4932.93 6333.27C4930.57 6334.73 4928.69 6336.68 4927.3 6339.14C4925.93 6341.59 4925.27 6344.33 4925.3 6347.36C4925.3 6350.42 4925.96 6353.18 4927.3 6355.64C4928.66 6358.06 4930.51 6360 4932.84 6361.45C4935.2 6362.88 4937.9 6363.59 4940.93 6363.59C4943.2 6363.59 4945.31 6363.17 4947.25 6362.32C4949.19 6361.47 4950.87 6360.3 4952.3 6358.82C4953.75 6357.3 4954.89 6355.56 4955.7 6353.59C4956.52 6351.62 4956.93 6349.53 4956.93 6347.32C4956.9 6344.38 4956.2 6341.68 4954.84 6339.23C4953.48 6336.77 4951.6 6334.8 4949.2 6333.32C4946.81 6331.83 4944.11 6331.09 4941.11 6331.09Z" fill="black"/>
<path id="207" d="M5373.55 6410V6395.82L5406.68 6365.14C5409.5 6362.41 5411.86 6359.95 5413.77 6357.77C5415.71 6355.59 5417.18 6353.45 5418.18 6351.36C5419.18 6349.24 5419.68 6346.95 5419.68 6344.5C5419.68 6341.77 5419.06 6339.42 5417.82 6337.45C5416.58 6335.45 5414.88 6333.92 5412.73 6332.86C5410.58 6331.77 5408.14 6331.23 5405.41 6331.23C5402.56 6331.23 5400.08 6331.8 5397.95 6332.95C5395.83 6334.11 5394.2 6335.76 5393.05 6337.91C5391.89 6340.06 5391.32 6342.62 5391.32 6345.59H5372.64C5372.64 6339.5 5374.02 6334.21 5376.77 6329.73C5379.53 6325.24 5383.39 6321.77 5388.36 6319.32C5393.33 6316.86 5399.06 6315.64 5405.55 6315.64C5412.21 6315.64 5418.02 6316.82 5422.95 6319.18C5427.92 6321.52 5431.79 6324.76 5434.55 6328.91C5437.3 6333.06 5438.68 6337.82 5438.68 6343.18C5438.68 6346.7 5437.98 6350.17 5436.59 6353.59C5435.23 6357.02 5432.79 6360.82 5429.27 6365C5425.76 6369.15 5420.8 6374.14 5414.41 6379.95L5400.82 6393.27V6393.91H5439.91V6410H5373.55ZM5490.67 6412.05C5482.85 6412.02 5476.13 6410.09 5470.49 6406.27C5464.88 6402.45 5460.56 6396.92 5457.53 6389.68C5454.53 6382.44 5453.05 6373.73 5453.08 6363.55C5453.08 6353.39 5454.58 6344.74 5457.58 6337.59C5460.61 6330.44 5464.93 6325 5470.53 6321.27C5476.17 6317.52 5482.88 6315.64 5490.67 6315.64C5498.46 6315.64 5505.16 6317.52 5510.76 6321.27C5516.4 6325.03 5520.73 6330.48 5523.76 6337.64C5526.79 6344.76 5528.29 6353.39 5528.26 6363.55C5528.26 6373.76 5526.75 6382.48 5523.72 6389.73C5520.72 6396.97 5516.41 6402.5 5510.81 6406.32C5505.2 6410.14 5498.49 6412.05 5490.67 6412.05ZM5490.67 6395.73C5496 6395.73 5500.26 6393.05 5503.44 6387.68C5506.63 6382.32 5508.2 6374.27 5508.17 6363.55C5508.17 6356.48 5507.44 6350.61 5505.99 6345.91C5504.56 6341.21 5502.53 6337.68 5499.9 6335.32C5497.29 6332.95 5494.22 6331.77 5490.67 6331.77C5485.37 6331.77 5481.13 6334.42 5477.94 6339.73C5474.76 6345.03 5473.16 6352.97 5473.12 6363.55C5473.12 6370.7 5473.84 6376.67 5475.26 6381.45C5476.72 6386.21 5478.76 6389.79 5481.4 6392.18C5484.03 6394.55 5487.12 6395.73 5490.67 6395.73ZM5543.48 6410L5582.07 6333.64V6333H5537.11V6316.91H5602.43V6333.23L5563.8 6410H5543.48Z" fill="black"/>
<path id="206" d="M5902.55 7211V7196.82L5935.68 7166.14C5938.5 7163.41 5940.86 7160.95 5942.77 7158.77C5944.71 7156.59 5946.18 7154.45 5947.18 7152.36C5948.18 7150.24 5948.68 7147.95 5948.68 7145.5C5948.68 7142.77 5948.06 7140.42 5946.82 7138.45C5945.58 7136.45 5943.88 7134.92 5941.73 7133.86C5939.58 7132.77 5937.14 7132.23 5934.41 7132.23C5931.56 7132.23 5929.08 7132.8 5926.95 7133.95C5924.83 7135.11 5923.2 7136.76 5922.05 7138.91C5920.89 7141.06 5920.32 7143.62 5920.32 7146.59H5901.64C5901.64 7140.5 5903.02 7135.21 5905.77 7130.73C5908.53 7126.24 5912.39 7122.77 5917.36 7120.32C5922.33 7117.86 5928.06 7116.64 5934.55 7116.64C5941.21 7116.64 5947.02 7117.82 5951.95 7120.18C5956.92 7122.52 5960.79 7125.76 5963.55 7129.91C5966.3 7134.06 5967.68 7138.82 5967.68 7144.18C5967.68 7147.7 5966.98 7151.17 5965.59 7154.59C5964.23 7158.02 5961.79 7161.82 5958.27 7166C5954.76 7170.15 5949.8 7175.14 5943.41 7180.95L5929.82 7194.27V7194.91H5968.91V7211H5902.55ZM6019.67 7213.05C6011.85 7213.02 6005.13 7211.09 5999.49 7207.27C5993.88 7203.45 5989.56 7197.92 5986.53 7190.68C5983.53 7183.44 5982.05 7174.73 5982.08 7164.55C5982.08 7154.39 5983.58 7145.74 5986.58 7138.59C5989.61 7131.44 5993.93 7126 5999.53 7122.27C6005.17 7118.52 6011.88 7116.64 6019.67 7116.64C6027.46 7116.64 6034.16 7118.52 6039.76 7122.27C6045.4 7126.03 6049.73 7131.48 6052.76 7138.64C6055.79 7145.76 6057.29 7154.39 6057.26 7164.55C6057.26 7174.76 6055.75 7183.48 6052.72 7190.73C6049.72 7197.97 6045.41 7203.5 6039.81 7207.32C6034.2 7211.14 6027.49 7213.05 6019.67 7213.05ZM6019.67 7196.73C6025 7196.73 6029.26 7194.05 6032.44 7188.68C6035.63 7183.32 6037.2 7175.27 6037.17 7164.55C6037.17 7157.48 6036.44 7151.61 6034.99 7146.91C6033.56 7142.21 6031.53 7138.68 6028.9 7136.32C6026.29 7133.95 6023.22 7132.77 6019.67 7132.77C6014.37 7132.77 6010.13 7135.42 6006.94 7140.73C6003.76 7146.03 6002.16 7153.97 6002.12 7164.55C6002.12 7171.7 6002.84 7177.67 6004.26 7182.45C6005.72 7187.21 6007.76 7190.79 6010.4 7193.18C6013.03 7195.55 6016.12 7196.73 6019.67 7196.73ZM6107.02 7212.27C6102.23 7212.24 6097.61 7211.44 6093.16 7209.86C6088.73 7208.29 6084.77 7205.73 6081.25 7202.18C6077.73 7198.64 6074.95 7193.94 6072.89 7188.09C6070.86 7182.24 6069.84 7175.06 6069.84 7166.55C6069.87 7158.73 6070.77 7151.74 6072.52 7145.59C6074.31 7139.41 6076.86 7134.17 6080.16 7129.86C6083.49 7125.56 6087.48 7122.29 6092.11 7120.05C6096.75 7117.77 6101.95 7116.64 6107.7 7116.64C6113.92 7116.64 6119.4 7117.85 6124.16 7120.27C6128.92 7122.67 6132.73 7125.92 6135.61 7130.05C6138.52 7134.17 6140.28 7138.79 6140.89 7143.91H6121.48C6120.72 7140.67 6119.13 7138.12 6116.7 7136.27C6114.28 7134.42 6111.28 7133.5 6107.7 7133.5C6101.64 7133.5 6097.04 7136.14 6093.89 7141.41C6090.77 7146.68 6089.17 7153.85 6089.11 7162.91H6089.75C6091.14 7160.15 6093.02 7157.8 6095.39 7155.86C6097.78 7153.89 6100.49 7152.39 6103.52 7151.36C6106.58 7150.3 6109.81 7149.77 6113.2 7149.77C6118.72 7149.77 6123.63 7151.08 6127.93 7153.68C6132.23 7156.26 6135.63 7159.8 6138.11 7164.32C6140.6 7168.83 6141.84 7174 6141.84 7179.82C6141.84 7186.12 6140.37 7191.73 6137.43 7196.64C6134.52 7201.55 6130.45 7205.39 6125.2 7208.18C6119.99 7210.94 6113.93 7212.3 6107.02 7212.27ZM6106.93 7196.82C6109.96 7196.82 6112.67 7196.09 6115.07 7194.64C6117.46 7193.18 6119.34 7191.21 6120.7 7188.73C6122.07 7186.24 6122.75 7183.45 6122.75 7180.36C6122.75 7177.27 6122.07 7174.5 6120.7 7172.05C6119.37 7169.59 6117.52 7167.64 6115.16 7166.18C6112.8 7164.73 6110.1 7164 6107.07 7164C6104.8 7164 6102.69 7164.42 6100.75 7165.27C6098.84 7166.12 6097.16 7167.3 6095.7 7168.82C6094.28 7170.33 6093.16 7172.09 6092.34 7174.09C6091.52 7176.06 6091.11 7178.17 6091.11 7180.41C6091.11 7183.41 6091.8 7186.15 6093.16 7188.64C6094.55 7191.12 6096.43 7193.11 6098.8 7194.59C6101.19 7196.08 6103.9 7196.82 6106.93 7196.82Z" fill="black"/>
<path id="205" d="M7154.55 7211V7196.82L7187.68 7166.14C7190.5 7163.41 7192.86 7160.95 7194.77 7158.77C7196.71 7156.59 7198.18 7154.45 7199.18 7152.36C7200.18 7150.24 7200.68 7147.95 7200.68 7145.5C7200.68 7142.77 7200.06 7140.42 7198.82 7138.45C7197.58 7136.45 7195.88 7134.92 7193.73 7133.86C7191.58 7132.77 7189.14 7132.23 7186.41 7132.23C7183.56 7132.23 7181.08 7132.8 7178.95 7133.95C7176.83 7135.11 7175.2 7136.76 7174.05 7138.91C7172.89 7141.06 7172.32 7143.62 7172.32 7146.59H7153.64C7153.64 7140.5 7155.02 7135.21 7157.77 7130.73C7160.53 7126.24 7164.39 7122.77 7169.36 7120.32C7174.33 7117.86 7180.06 7116.64 7186.55 7116.64C7193.21 7116.64 7199.02 7117.82 7203.95 7120.18C7208.92 7122.52 7212.79 7125.76 7215.55 7129.91C7218.3 7134.06 7219.68 7138.82 7219.68 7144.18C7219.68 7147.7 7218.98 7151.17 7217.59 7154.59C7216.23 7158.02 7213.79 7161.82 7210.27 7166C7206.76 7170.15 7201.8 7175.14 7195.41 7180.95L7181.82 7194.27V7194.91H7220.91V7211H7154.55ZM7271.67 7213.05C7263.85 7213.02 7257.13 7211.09 7251.49 7207.27C7245.88 7203.45 7241.56 7197.92 7238.53 7190.68C7235.53 7183.44 7234.05 7174.73 7234.08 7164.55C7234.08 7154.39 7235.58 7145.74 7238.58 7138.59C7241.61 7131.44 7245.93 7126 7251.53 7122.27C7257.17 7118.52 7263.88 7116.64 7271.67 7116.64C7279.46 7116.64 7286.16 7118.52 7291.76 7122.27C7297.4 7126.03 7301.73 7131.48 7304.76 7138.64C7307.79 7145.76 7309.29 7154.39 7309.26 7164.55C7309.26 7174.76 7307.75 7183.48 7304.72 7190.73C7301.72 7197.97 7297.41 7203.5 7291.81 7207.32C7286.2 7211.14 7279.49 7213.05 7271.67 7213.05ZM7271.67 7196.73C7277 7196.73 7281.26 7194.05 7284.44 7188.68C7287.63 7183.32 7289.2 7175.27 7289.17 7164.55C7289.17 7157.48 7288.44 7151.61 7286.99 7146.91C7285.56 7142.21 7283.53 7138.68 7280.9 7136.32C7278.29 7133.95 7275.22 7132.77 7271.67 7132.77C7266.37 7132.77 7262.13 7135.42 7258.94 7140.73C7255.76 7146.03 7254.16 7153.97 7254.12 7164.55C7254.12 7171.7 7254.84 7177.67 7256.26 7182.45C7257.72 7187.21 7259.76 7190.79 7262.4 7193.18C7265.03 7195.55 7268.12 7196.73 7271.67 7196.73ZM7357.3 7212.27C7350.87 7212.27 7345.14 7211.09 7340.11 7208.73C7335.11 7206.36 7331.14 7203.11 7328.2 7198.95C7325.27 7194.8 7323.73 7190.05 7323.61 7184.68H7342.7C7342.92 7188.29 7344.43 7191.21 7347.25 7193.45C7350.07 7195.7 7353.42 7196.82 7357.3 7196.82C7360.39 7196.82 7363.11 7196.14 7365.48 7194.77C7367.87 7193.38 7369.73 7191.45 7371.07 7189C7372.43 7186.52 7373.11 7183.67 7373.11 7180.45C7373.11 7177.18 7372.42 7174.3 7371.02 7171.82C7369.66 7169.33 7367.77 7167.39 7365.34 7166C7362.92 7164.61 7360.14 7163.89 7357.02 7163.86C7354.3 7163.86 7351.64 7164.42 7349.07 7165.55C7346.52 7166.67 7344.54 7168.2 7343.11 7170.14L7325.61 7167L7330.02 7117.91H7386.93V7134H7346.25L7343.84 7157.32H7344.39C7346.02 7155.02 7348.49 7153.11 7351.8 7151.59C7355.1 7150.08 7358.8 7149.32 7362.89 7149.32C7368.49 7149.32 7373.49 7150.64 7377.89 7153.27C7382.28 7155.91 7385.75 7159.53 7388.3 7164.14C7390.84 7168.71 7392.1 7173.98 7392.07 7179.95C7392.1 7186.23 7390.64 7191.8 7387.7 7196.68C7384.8 7201.53 7380.72 7205.35 7375.48 7208.14C7370.27 7210.89 7364.2 7212.27 7357.3 7212.27Z" fill="black"/>
<path id="204" d="M8093.55 7211V7196.82L8126.68 7166.14C8129.5 7163.41 8131.86 7160.95 8133.77 7158.77C8135.71 7156.59 8137.18 7154.45 8138.18 7152.36C8139.18 7150.24 8139.68 7147.95 8139.68 7145.5C8139.68 7142.77 8139.06 7140.42 8137.82 7138.45C8136.58 7136.45 8134.88 7134.92 8132.73 7133.86C8130.58 7132.77 8128.14 7132.23 8125.41 7132.23C8122.56 7132.23 8120.08 7132.8 8117.95 7133.95C8115.83 7135.11 8114.2 7136.76 8113.05 7138.91C8111.89 7141.06 8111.32 7143.62 8111.32 7146.59H8092.64C8092.64 7140.5 8094.02 7135.21 8096.77 7130.73C8099.53 7126.24 8103.39 7122.77 8108.36 7120.32C8113.33 7117.86 8119.06 7116.64 8125.55 7116.64C8132.21 7116.64 8138.02 7117.82 8142.95 7120.18C8147.92 7122.52 8151.79 7125.76 8154.55 7129.91C8157.3 7134.06 8158.68 7138.82 8158.68 7144.18C8158.68 7147.7 8157.98 7151.17 8156.59 7154.59C8155.23 7158.02 8152.79 7161.82 8149.27 7166C8145.76 7170.15 8140.8 7175.14 8134.41 7180.95L8120.82 7194.27V7194.91H8159.91V7211H8093.55ZM8210.67 7213.05C8202.85 7213.02 8196.13 7211.09 8190.49 7207.27C8184.88 7203.45 8180.56 7197.92 8177.53 7190.68C8174.53 7183.44 8173.05 7174.73 8173.08 7164.55C8173.08 7154.39 8174.58 7145.74 8177.58 7138.59C8180.61 7131.44 8184.93 7126 8190.53 7122.27C8196.17 7118.52 8202.88 7116.64 8210.67 7116.64C8218.46 7116.64 8225.16 7118.52 8230.76 7122.27C8236.4 7126.03 8240.73 7131.48 8243.76 7138.64C8246.79 7145.76 8248.29 7154.39 8248.26 7164.55C8248.26 7174.76 8246.75 7183.48 8243.72 7190.73C8240.72 7197.97 8236.41 7203.5 8230.81 7207.32C8225.2 7211.14 8218.49 7213.05 8210.67 7213.05ZM8210.67 7196.73C8216 7196.73 8220.26 7194.05 8223.44 7188.68C8226.63 7183.32 8228.2 7175.27 8228.17 7164.55C8228.17 7157.48 8227.44 7151.61 8225.99 7146.91C8224.56 7142.21 8222.53 7138.68 8219.9 7136.32C8217.29 7133.95 8214.22 7132.77 8210.67 7132.77C8205.37 7132.77 8201.13 7135.42 8197.94 7140.73C8194.76 7146.03 8193.16 7153.97 8193.12 7164.55C8193.12 7171.7 8193.84 7177.67 8195.26 7182.45C8196.72 7187.21 8198.76 7190.79 8201.4 7193.18C8204.03 7195.55 8207.12 7196.73 8210.67 7196.73ZM8260.89 7194.64V7179.14L8299.75 7117.91H8313.11V7139.36H8305.2L8280.7 7178.14V7178.86H8335.93V7194.64H8260.89ZM8305.57 7211V7189.91L8305.93 7183.05V7117.91H8324.39V7211H8305.57Z" fill="black"/>
<path id="203" d="M8162.55 6054V6039.82L8195.68 6009.14C8198.5 6006.41 8200.86 6003.95 8202.77 6001.77C8204.71 5999.59 8206.18 5997.45 8207.18 5995.36C8208.18 5993.24 8208.68 5990.95 8208.68 5988.5C8208.68 5985.77 8208.06 5983.42 8206.82 5981.45C8205.58 5979.45 8203.88 5977.92 8201.73 5976.86C8199.58 5975.77 8197.14 5975.23 8194.41 5975.23C8191.56 5975.23 8189.08 5975.8 8186.95 5976.95C8184.83 5978.11 8183.2 5979.76 8182.05 5981.91C8180.89 5984.06 8180.32 5986.62 8180.32 5989.59H8161.64C8161.64 5983.5 8163.02 5978.21 8165.77 5973.73C8168.53 5969.24 8172.39 5965.77 8177.36 5963.32C8182.33 5960.86 8188.06 5959.64 8194.55 5959.64C8201.21 5959.64 8207.02 5960.82 8211.95 5963.18C8216.92 5965.52 8220.79 5968.76 8223.55 5972.91C8226.3 5977.06 8227.68 5981.82 8227.68 5987.18C8227.68 5990.7 8226.98 5994.17 8225.59 5997.59C8224.23 6001.02 8221.79 6004.82 8218.27 6009C8214.76 6013.15 8209.8 6018.14 8203.41 6023.95L8189.82 6037.27V6037.91H8228.91V6054H8162.55ZM8279.67 6056.05C8271.85 6056.02 8265.13 6054.09 8259.49 6050.27C8253.88 6046.45 8249.56 6040.92 8246.53 6033.68C8243.53 6026.44 8242.05 6017.73 8242.08 6007.55C8242.08 5997.39 8243.58 5988.74 8246.58 5981.59C8249.61 5974.44 8253.93 5969 8259.53 5965.27C8265.17 5961.52 8271.88 5959.64 8279.67 5959.64C8287.46 5959.64 8294.16 5961.52 8299.76 5965.27C8305.4 5969.03 8309.73 5974.48 8312.76 5981.64C8315.79 5988.76 8317.29 5997.39 8317.26 6007.55C8317.26 6017.76 8315.75 6026.48 8312.72 6033.73C8309.72 6040.97 8305.41 6046.5 8299.81 6050.32C8294.2 6054.14 8287.49 6056.05 8279.67 6056.05ZM8279.67 6039.73C8285 6039.73 8289.26 6037.05 8292.44 6031.68C8295.63 6026.32 8297.2 6018.27 8297.17 6007.55C8297.17 6000.48 8296.44 5994.61 8294.99 5989.91C8293.56 5985.21 8291.53 5981.68 8288.9 5979.32C8286.29 5976.95 8283.22 5975.77 8279.67 5975.77C8274.37 5975.77 8270.13 5978.42 8266.94 5983.73C8263.76 5989.03 8262.16 5996.97 8262.12 6007.55C8262.12 6014.7 8262.84 6020.67 8264.26 6025.45C8265.72 6030.21 8267.76 6033.79 8270.4 6036.18C8273.03 6038.55 8276.12 6039.73 8279.67 6039.73ZM8365.7 6055.27C8358.92 6055.27 8352.87 6054.11 8347.57 6051.77C8342.3 6049.41 8338.13 6046.17 8335.07 6042.05C8332.04 6037.89 8330.48 6033.11 8330.39 6027.68H8350.2C8350.33 6029.95 8351.07 6031.95 8352.43 6033.68C8353.83 6035.38 8355.67 6036.7 8357.98 6037.64C8360.28 6038.58 8362.87 6039.05 8365.75 6039.05C8368.75 6039.05 8371.4 6038.52 8373.7 6037.45C8376.01 6036.39 8377.81 6034.92 8379.11 6033.05C8380.42 6031.17 8381.07 6029 8381.07 6026.55C8381.07 6024.06 8380.37 6021.86 8378.98 6019.95C8377.61 6018.02 8375.64 6016.5 8373.07 6015.41C8370.52 6014.32 8367.49 6013.77 8363.98 6013.77H8355.3V5999.32H8363.98C8366.95 5999.32 8369.57 5998.8 8371.84 5997.77C8374.14 5996.74 8375.93 5995.32 8377.2 5993.5C8378.48 5991.65 8379.11 5989.5 8379.11 5987.05C8379.11 5984.71 8378.55 5982.67 8377.43 5980.91C8376.34 5979.12 8374.8 5977.73 8372.8 5976.73C8370.83 5975.73 8368.52 5975.23 8365.89 5975.23C8363.22 5975.23 8360.78 5975.71 8358.57 5976.68C8356.36 5977.62 8354.58 5978.97 8353.25 5980.73C8351.92 5982.48 8351.2 5984.55 8351.11 5986.91H8332.25C8332.34 5981.55 8333.87 5976.82 8336.84 5972.73C8339.81 5968.64 8343.81 5965.44 8348.84 5963.14C8353.9 5960.8 8359.61 5959.64 8365.98 5959.64C8372.4 5959.64 8378.02 5960.8 8382.84 5963.14C8387.66 5965.47 8391.4 5968.62 8394.07 5972.59C8396.77 5976.53 8398.1 5980.95 8398.07 5985.86C8398.1 5991.08 8396.48 5995.42 8393.2 5998.91C8389.96 6002.39 8385.73 6004.61 8380.52 6005.55V6006.27C8387.37 6007.15 8392.58 6009.53 8396.16 6013.41C8399.77 6017.26 8401.55 6022.08 8401.52 6027.86C8401.55 6033.17 8400.02 6037.88 8396.93 6042C8393.87 6046.12 8389.64 6049.36 8384.25 6051.73C8378.86 6054.09 8372.67 6055.27 8365.7 6055.27Z" fill="black"/>
<path id="201" d="M6683.55 5023V5008.82L6716.68 4978.14C6719.5 4975.41 6721.86 4972.95 6723.77 4970.77C6725.71 4968.59 6727.18 4966.45 6728.18 4964.36C6729.18 4962.24 6729.68 4959.95 6729.68 4957.5C6729.68 4954.77 6729.06 4952.42 6727.82 4950.45C6726.58 4948.45 6724.88 4946.92 6722.73 4945.86C6720.58 4944.77 6718.14 4944.23 6715.41 4944.23C6712.56 4944.23 6710.08 4944.8 6707.95 4945.95C6705.83 4947.11 6704.2 4948.76 6703.05 4950.91C6701.89 4953.06 6701.32 4955.62 6701.32 4958.59H6682.64C6682.64 4952.5 6684.02 4947.21 6686.77 4942.73C6689.53 4938.24 6693.39 4934.77 6698.36 4932.32C6703.33 4929.86 6709.06 4928.64 6715.55 4928.64C6722.21 4928.64 6728.02 4929.82 6732.95 4932.18C6737.92 4934.52 6741.79 4937.76 6744.55 4941.91C6747.3 4946.06 6748.68 4950.82 6748.68 4956.18C6748.68 4959.7 6747.98 4963.17 6746.59 4966.59C6745.23 4970.02 6742.79 4973.82 6739.27 4978C6735.76 4982.15 6730.8 4987.14 6724.41 4992.95L6710.82 5006.27V5006.91H6749.91V5023H6683.55ZM6800.67 5025.05C6792.85 5025.02 6786.13 5023.09 6780.49 5019.27C6774.88 5015.45 6770.56 5009.92 6767.53 5002.68C6764.53 4995.44 6763.05 4986.73 6763.08 4976.55C6763.08 4966.39 6764.58 4957.74 6767.58 4950.59C6770.61 4943.44 6774.93 4938 6780.53 4934.27C6786.17 4930.52 6792.88 4928.64 6800.67 4928.64C6808.46 4928.64 6815.16 4930.52 6820.76 4934.27C6826.4 4938.03 6830.73 4943.48 6833.76 4950.64C6836.79 4957.76 6838.29 4966.39 6838.26 4976.55C6838.26 4986.76 6836.75 4995.48 6833.72 5002.73C6830.72 5009.97 6826.41 5015.5 6820.81 5019.32C6815.2 5023.14 6808.49 5025.05 6800.67 5025.05ZM6800.67 5008.73C6806 5008.73 6810.26 5006.05 6813.44 5000.68C6816.63 4995.32 6818.2 4987.27 6818.17 4976.55C6818.17 4969.48 6817.44 4963.61 6815.99 4958.91C6814.56 4954.21 6812.53 4950.68 6809.9 4948.32C6807.29 4945.95 6804.22 4944.77 6800.67 4944.77C6795.37 4944.77 6791.13 4947.42 6787.94 4952.73C6784.76 4958.03 6783.16 4965.97 6783.12 4976.55C6783.12 4983.7 6783.84 4989.67 6785.26 4994.45C6786.72 4999.21 6788.76 5002.79 6791.4 5005.18C6794.03 5007.55 6797.12 5008.73 6800.67 5008.73ZM6892.8 4929.91V5023H6873.11V4948.59H6872.57L6851.25 4961.95V4944.5L6874.3 4929.91H6892.8Z" fill="black"/>
<path id="215" d="M4518.55 4270V4255.82L4551.68 4225.14C4554.5 4222.41 4556.86 4219.95 4558.77 4217.77C4560.71 4215.59 4562.18 4213.45 4563.18 4211.36C4564.18 4209.24 4564.68 4206.95 4564.68 4204.5C4564.68 4201.77 4564.06 4199.42 4562.82 4197.45C4561.58 4195.45 4559.88 4193.92 4557.73 4192.86C4555.58 4191.77 4553.14 4191.23 4550.41 4191.23C4547.56 4191.23 4545.08 4191.8 4542.95 4192.95C4540.83 4194.11 4539.2 4195.76 4538.05 4197.91C4536.89 4200.06 4536.32 4202.62 4536.32 4205.59H4517.64C4517.64 4199.5 4519.02 4194.21 4521.77 4189.73C4524.53 4185.24 4528.39 4181.77 4533.36 4179.32C4538.33 4176.86 4544.06 4175.64 4550.55 4175.64C4557.21 4175.64 4563.02 4176.82 4567.95 4179.18C4572.92 4181.52 4576.79 4184.76 4579.55 4188.91C4582.3 4193.06 4583.68 4197.82 4583.68 4203.18C4583.68 4206.7 4582.98 4210.17 4581.59 4213.59C4580.23 4217.02 4577.79 4220.82 4574.27 4225C4570.76 4229.15 4565.8 4234.14 4559.41 4239.95L4545.82 4253.27V4253.91H4584.91V4270H4518.55ZM4639.67 4176.91V4270H4619.99V4195.59H4619.44L4598.12 4208.95V4191.5L4621.17 4176.91H4639.67ZM4695.8 4271.27C4689.37 4271.27 4683.64 4270.09 4678.61 4267.73C4673.61 4265.36 4669.64 4262.11 4666.7 4257.95C4663.77 4253.8 4662.23 4249.05 4662.11 4243.68H4681.2C4681.42 4247.29 4682.93 4250.21 4685.75 4252.45C4688.57 4254.7 4691.92 4255.82 4695.8 4255.82C4698.89 4255.82 4701.61 4255.14 4703.98 4253.77C4706.37 4252.38 4708.23 4250.45 4709.57 4248C4710.93 4245.52 4711.61 4242.67 4711.61 4239.45C4711.61 4236.18 4710.92 4233.3 4709.52 4230.82C4708.16 4228.33 4706.27 4226.39 4703.84 4225C4701.42 4223.61 4698.64 4222.89 4695.52 4222.86C4692.8 4222.86 4690.14 4223.42 4687.57 4224.55C4685.02 4225.67 4683.04 4227.2 4681.61 4229.14L4664.11 4226L4668.52 4176.91H4725.43V4193H4684.75L4682.34 4216.32H4682.89C4684.52 4214.02 4686.99 4212.11 4690.3 4210.59C4693.6 4209.08 4697.3 4208.32 4701.39 4208.32C4706.99 4208.32 4711.99 4209.64 4716.39 4212.27C4720.78 4214.91 4724.25 4218.53 4726.8 4223.14C4729.34 4227.71 4730.6 4232.98 4730.57 4238.95C4730.6 4245.23 4729.14 4250.8 4726.2 4255.68C4723.3 4260.53 4719.22 4264.35 4713.98 4267.14C4708.77 4269.89 4702.7 4271.27 4695.8 4271.27Z" fill="black"/>
<path id="216" d="M5408.55 4288V4273.82L5441.68 4243.14C5444.5 4240.41 5446.86 4237.95 5448.77 4235.77C5450.71 4233.59 5452.18 4231.45 5453.18 4229.36C5454.18 4227.24 5454.68 4224.95 5454.68 4222.5C5454.68 4219.77 5454.06 4217.42 5452.82 4215.45C5451.58 4213.45 5449.88 4211.92 5447.73 4210.86C5445.58 4209.77 5443.14 4209.23 5440.41 4209.23C5437.56 4209.23 5435.08 4209.8 5432.95 4210.95C5430.83 4212.11 5429.2 4213.76 5428.05 4215.91C5426.89 4218.06 5426.32 4220.62 5426.32 4223.59H5407.64C5407.64 4217.5 5409.02 4212.21 5411.77 4207.73C5414.53 4203.24 5418.39 4199.77 5423.36 4197.32C5428.33 4194.86 5434.06 4193.64 5440.55 4193.64C5447.21 4193.64 5453.02 4194.82 5457.95 4197.18C5462.92 4199.52 5466.79 4202.76 5469.55 4206.91C5472.3 4211.06 5473.68 4215.82 5473.68 4221.18C5473.68 4224.7 5472.98 4228.17 5471.59 4231.59C5470.23 4235.02 5467.79 4238.82 5464.27 4243C5460.76 4247.15 5455.8 4252.14 5449.41 4257.95L5435.82 4271.27V4271.91H5474.91V4288H5408.55ZM5529.67 4194.91V4288H5509.99V4213.59H5509.44L5488.12 4226.95V4209.5L5511.17 4194.91H5529.67ZM5587.52 4289.27C5582.73 4289.24 5578.11 4288.44 5573.66 4286.86C5569.23 4285.29 5565.27 4282.73 5561.75 4279.18C5558.23 4275.64 5555.45 4270.94 5553.39 4265.09C5551.36 4259.24 5550.34 4252.06 5550.34 4243.55C5550.37 4235.73 5551.27 4228.74 5553.02 4222.59C5554.81 4216.41 5557.36 4211.17 5560.66 4206.86C5563.99 4202.56 5567.98 4199.29 5572.61 4197.05C5577.25 4194.77 5582.45 4193.64 5588.2 4193.64C5594.42 4193.64 5599.9 4194.85 5604.66 4197.27C5609.42 4199.67 5613.23 4202.92 5616.11 4207.05C5619.02 4211.17 5620.78 4215.79 5621.39 4220.91H5601.98C5601.22 4217.67 5599.63 4215.12 5597.2 4213.27C5594.78 4211.42 5591.78 4210.5 5588.2 4210.5C5582.14 4210.5 5577.54 4213.14 5574.39 4218.41C5571.27 4223.68 5569.67 4230.85 5569.61 4239.91H5570.25C5571.64 4237.15 5573.52 4234.8 5575.89 4232.86C5578.28 4230.89 5580.99 4229.39 5584.02 4228.36C5587.08 4227.3 5590.31 4226.77 5593.7 4226.77C5599.22 4226.77 5604.13 4228.08 5608.43 4230.68C5612.73 4233.26 5616.13 4236.8 5618.61 4241.32C5621.1 4245.83 5622.34 4251 5622.34 4256.82C5622.34 4263.12 5620.87 4268.73 5617.93 4273.64C5615.02 4278.55 5610.95 4282.39 5605.7 4285.18C5600.49 4287.94 5594.43 4289.3 5587.52 4289.27ZM5587.43 4273.82C5590.46 4273.82 5593.17 4273.09 5595.57 4271.64C5597.96 4270.18 5599.84 4268.21 5601.2 4265.73C5602.57 4263.24 5603.25 4260.45 5603.25 4257.36C5603.25 4254.27 5602.57 4251.5 5601.2 4249.05C5599.87 4246.59 5598.02 4244.64 5595.66 4243.18C5593.3 4241.73 5590.6 4241 5587.57 4241C5585.3 4241 5583.19 4241.42 5581.25 4242.27C5579.34 4243.12 5577.66 4244.3 5576.2 4245.82C5574.78 4247.33 5573.66 4249.09 5572.84 4251.09C5572.02 4253.06 5571.61 4255.17 5571.61 4257.41C5571.61 4260.41 5572.3 4263.15 5573.66 4265.64C5575.05 4268.12 5576.93 4270.11 5579.3 4271.59C5581.69 4273.08 5584.4 4273.82 5587.43 4273.82Z" fill="black"/>
<path id="Vector 150" d="M3810 3809.5H4088.5V3757.5H3810V3696H4088.5V3631H3810V3569.5H4088.5V3501.5H3810V3427H4088.5V3365.5H3810" stroke="#242424" stroke-width="13"/>
<path id="Vector 152" d="M6233 3809H6511.5V3757H6233V3695.5H6511.5V3630.5H6233V3569H6511.5V3501H6233V3426.5H6511.5V3365H6233" stroke="#242424" stroke-width="13"/>
<path id="Vector 153" d="M5879 3958H6157.5V3906H5879V3844.5H6157.5V3779.5H5879V3718H6157.5V3650H5879V3575.5H6157.5V3514H5879" stroke="#242424" stroke-width="13"/>
<path id="Vector 151" d="M4119 3958H4425V3906H4119V3844.5H4425V3779.5H4119V3718H4425V3650H4119V3575.5H4425V3514H4119" stroke="#242424" stroke-width="13"/>
<rect id="Rectangle 178" x="6514" y="4333" width="100" height="100" fill="#D9D9D9"/>
</g>
</svg>
